;TYPE=PLATED
;Layer: PTH_Through_Via
;EasyEDA Pro v3.2.148, 2026-07-26 13:42:08
;Gerber Generator version 0.3
M48
METRIC,LZ,0000.00000
;Hole size 1 = 0.30500 METRIC
T01C0.30500
%
G05
G90
T01
X6.604Y14.224
X-8.001Y-27.94
X8.509Y-4.064
X-6.39178Y-0.07757
X6.74701Y25.91945
X6.74701Y26.68146
X-7.19527Y-7.5692
X-7.19527Y-6.8072
X6.4477Y-16.06091
X5.90888Y-16.59973
X1.85344Y-22.098
X-7.417Y-26.035
X10.795Y-20.48379
X10.033Y-20.48379
X2.286Y-33.9598
X2.286Y-33.1978
X-2.41405Y-30.90827
X-1.016Y-27.178
X-7.112Y-18.415
X8.763Y-28.067
X-11.57374Y29.5676
X-11.557Y12.573
X-4.445Y-0.127
X-6.83666Y-13.54633
X-3.81Y-13.208
X-10.795Y-17.78
X-9.017Y-5.08
X-6.83666Y-14.34643
X-5.69925Y-14.34643
X-7.69175Y-0.07757
X-5.93227Y-4.28039
X-3.556Y-16.637
X3.3053Y-28.54635
X0.508Y-27.432
X-9.00815Y30.74545
X-4.064Y25.019
X4.62568Y27.10468
M30