G04 Layer: TopLayer*
G04 EasyEDA Pro v3.2.148, 2026-07-26 13:42:08*
G04 Gerber Generator version 0.3*
G04 Scale: 100 percent, Rotated: No, Reflected: No*
G04 Dimensions in millimeters*
G04 Leading zeros omitted, absolute positions, 4 integers and 5 decimals*
G04 Generated by one-click*
G04 Object Configs: Pad,Via,Track,Text,Image,Dimension,BoardOutline,BoardCutout,CopperFilled,SolidRegion,FPCStiffener,Line,PlaneZone,ComponentProperty,ComponentSilkscreen,TearDrop*
G04 Layer Configs: 1,2,3,4,5,6,7,8,9,10,11,13,14,56*
G04 Copper Areas: 79*
%FSLAX45Y45*%
%MOMM*%
%ADD10C,0.2032*%
%ADD11C,0.254*%
%ADD12R,0.8X0.9*%
%ADD13R,0.9X0.8*%
%ADD14R,0.8X0.8*%
%ADD15R,0.532X1.07201*%
%ADD16R,1.40668X3.49921*%
%ADD17R,0.86401X0.80648*%
%ADD18R,0.80648X0.86401*%
%ADD19R,1.5149X1.98501*%
%ADD20R,1.51201X1.98501*%
%ADD21R,2.0X0.9*%
%ADD22R,0.9X2.0*%
%ADD23R,4.09999X4.09999*%
%ADD24R,0.6X1.3*%
%ADD25R,0.3X1.3*%
%ADD26O,1.0X1.8*%
%ADD27O,1.0X2.1*%
%ADD28R,2.49999X1.1*%
%ADD29R,2.34X3.59999*%
%ADD30O,0.55999X1.74501*%
%ADD31R,1.5X0.8*%
%ADD32R,0.8X1.5*%
%ADD33R,4.79999X4.79999*%
%ADD34R,0.58499X0.44801*%
%ADD35R,1.25001X1.65001*%
%ADD36O,0.36401X0.767*%
%ADD37R,1.7X1.7*%
%ADD38C,1.7*%
%ADD39C,0.61*%
G75*


G04 Copper Start*
G36*
G01X-1103415Y-3645629D02*
G01X-1102511Y-3653622D01*
G01X-1099847Y-3661212D01*
G01X-1464186Y-3661212D01*
G01X-1464186Y-2808623D01*
G01X-1103415Y-2808623D01*
G01X-1103415Y-3007124D01*
G01X-1101662Y-3018191D01*
G01X-1096575Y-3028174D01*
G01X-1088652Y-3036098D01*
G01X-1078668Y-3041185D01*
G01X-1067601Y-3042938D01*
G01X-916399Y-3042938D01*
G01X-905332Y-3041185D01*
G01X-895349Y-3036098D01*
G01X-887425Y-3028174D01*
G01X-882338Y-3018191D01*
G01X-880585Y-3007124D01*
G01X-880585Y-2943071D01*
G01X-879668Y-2942178D01*
G01X-797764Y-2860273D01*
G01X-797764Y-2860273D01*
G01X-782582Y-2857959D01*
G01X-768341Y-2852214D01*
G01X-755802Y-2843348D01*
G01X-745639Y-2831836D01*
G01X-738396Y-2818294D01*
G01X-734463Y-2803450D01*
G01X-734049Y-2788099D01*
G01X-737178Y-2773064D01*
G01X-743680Y-2759152D01*
G01X-753209Y-2747109D01*
G01X-765252Y-2737580D01*
G01X-779164Y-2731078D01*
G01X-794199Y-2727949D01*
G01X-809550Y-2728363D01*
G01X-824394Y-2732296D01*
G01X-837936Y-2739539D01*
G01X-849448Y-2749702D01*
G01X-858314Y-2762241D01*
G01X-864059Y-2776482D01*
G01X-866373Y-2791664D01*
G01X-880684Y-2805974D01*
G01X-883053Y-2795559D01*
G01X-888388Y-2786306D01*
G01X-896215Y-2779038D01*
G01X-905838Y-2774401D01*
G01X-916399Y-2772809D01*
G01X-1067601Y-2772809D01*
G01X-1078668Y-2774561D01*
G01X-1088652Y-2779648D01*
G01X-1096575Y-2787572D01*
G01X-1101662Y-2797555D01*
G01X-1103415Y-2808623D01*
G01X-1464186Y-2808623D01*
G01X-1464186Y-2719919D01*
G01X-1283800Y-2719919D01*
G01X-1282047Y-2730987D01*
G01X-1276960Y-2740970D01*
G01X-1269037Y-2748894D01*
G01X-1259053Y-2753981D01*
G01X-1247986Y-2755733D01*
G01X-1167986Y-2755733D01*
G01X-1156346Y-2753789D01*
G01X-1145970Y-2748167D01*
G01X-1137984Y-2739477D01*
G01X-1129998Y-2748167D01*
G01X-1119622Y-2753789D01*
G01X-1107982Y-2755733D01*
G01X-1027982Y-2755733D01*
G01X-1017586Y-2754191D01*
G01X-1008086Y-2749698D01*
G01X-1000299Y-2742641D01*
G01X-994895Y-2733628D01*
G01X-992341Y-2723433D01*
G01X-730529Y-2723433D01*
G01X-717973Y-2721780D01*
G01X-706272Y-2716934D01*
G01X-696224Y-2709224D01*
G01X-648995Y-2661995D01*
G01X-641285Y-2651947D01*
G01X-636439Y-2640246D01*
G01X-634786Y-2627690D01*
G01X-634786Y-2579310D01*
G01X-636439Y-2566754D01*
G01X-641285Y-2555053D01*
G01X-648995Y-2545005D01*
G01X-674668Y-2519333D01*
G01X-674668Y-2441627D01*
G01X-676421Y-2430560D01*
G01X-681508Y-2420576D01*
G01X-689431Y-2412653D01*
G01X-699415Y-2407566D01*
G01X-710482Y-2405813D01*
G01X-725978Y-2405813D01*
G01X-803895Y-2327895D01*
G01X-813943Y-2320186D01*
G01X-825644Y-2315339D01*
G01X-838200Y-2313686D01*
G01X-875019Y-2313686D01*
G01X-878034Y-2310671D01*
G01X-863001Y-2310671D01*
G01X-851933Y-2308918D01*
G01X-841950Y-2303831D01*
G01X-834026Y-2295908D01*
G01X-828939Y-2285924D01*
G01X-827187Y-2274857D01*
G01X-827187Y-2194857D01*
G01X-829150Y-2183161D01*
G01X-834826Y-2172747D01*
G01X-843592Y-2164758D01*
G01X-854486Y-2160070D01*
G01X-854486Y-2021265D01*
G01X-845425Y-2017922D01*
G01X-837586Y-2012278D01*
G01X-831541Y-2004745D01*
G01X-827728Y-1995871D01*
G01X-826426Y-1986300D01*
G01X-826426Y-1899900D01*
G01X-828179Y-1888833D01*
G01X-833266Y-1878849D01*
G01X-841189Y-1870926D01*
G01X-851173Y-1865839D01*
G01X-862240Y-1864086D01*
G01X-942887Y-1864086D01*
G01X-952501Y-1865400D01*
G01X-961409Y-1869247D01*
G01X-968958Y-1875344D01*
G01X-974593Y-1883244D01*
G01X-977900Y-1892366D01*
G01X-981380Y-1882919D01*
G01X-987352Y-1874814D01*
G01X-995343Y-1868692D01*
G01X-1004722Y-1865035D01*
G01X-1004722Y-1804264D01*
G01X-1005689Y-1794626D01*
G01X-1008552Y-1785372D01*
G01X-1013196Y-1776871D01*
G01X-1015395Y-1761025D01*
G01X-1021327Y-1746166D01*
G01X-1030644Y-1733160D01*
G01X-1042804Y-1722764D01*
G01X-1057101Y-1715583D01*
G01X-1072701Y-1712035D01*
G01X-1088697Y-1712327D01*
G01X-1104158Y-1716441D01*
G01X-1118183Y-1724137D01*
G01X-1129957Y-1734969D01*
G01X-1138794Y-1748306D01*
G01X-1144180Y-1763371D01*
G01X-1145802Y-1779287D01*
G01X-1143564Y-1795128D01*
G01X-1137597Y-1809973D01*
G01X-1128249Y-1822956D01*
G01X-1116064Y-1833323D01*
G01X-1101750Y-1840470D01*
G01X-1101750Y-1865035D01*
G01X-1112758Y-1869666D01*
G01X-1121631Y-1877659D01*
G01X-1127383Y-1888125D01*
G01X-1129374Y-1899900D01*
G01X-1129374Y-1986300D01*
G01X-1127621Y-1997367D01*
G01X-1122534Y-2007351D01*
G01X-1114611Y-2015274D01*
G01X-1104627Y-2020361D01*
G01X-1093560Y-2022114D01*
G01X-1042831Y-2022114D01*
G01X-1019415Y-2045531D01*
G01X-1019415Y-2045531D01*
G01X-1019415Y-2159729D01*
G01X-1092799Y-2159729D01*
G01X-1103867Y-2161482D01*
G01X-1113850Y-2166569D01*
G01X-1121774Y-2174492D01*
G01X-1126861Y-2184476D01*
G01X-1128613Y-2195543D01*
G01X-1128613Y-2275543D01*
G01X-1126861Y-2286610D01*
G01X-1121774Y-2296594D01*
G01X-1113850Y-2304517D01*
G01X-1103867Y-2309604D01*
G01X-1092799Y-2311357D01*
G01X-1012800Y-2311357D01*
G01X-1012512Y-2311356D01*
G01X-1005205Y-2320718D01*
G01X-929419Y-2396505D01*
G01X-923278Y-2401702D01*
G01X-916363Y-2405813D01*
G01X-930486Y-2405813D01*
G01X-941553Y-2407566D01*
G01X-951537Y-2412653D01*
G01X-959460Y-2420576D01*
G01X-964547Y-2430560D01*
G01X-966300Y-2441627D01*
G01X-966300Y-2531627D01*
G01X-964677Y-2542286D01*
G01X-985560Y-2542286D01*
G01X-984854Y-2535209D01*
G01X-984854Y-2445209D01*
G01X-986607Y-2434142D01*
G01X-991694Y-2424159D01*
G01X-999617Y-2416235D01*
G01X-1009601Y-2411148D01*
G01X-1020668Y-2409395D01*
G01X-1100668Y-2409395D01*
G01X-1112308Y-2411340D01*
G01X-1122684Y-2416962D01*
G01X-1130670Y-2425652D01*
G01X-1138656Y-2416962D01*
G01X-1149032Y-2411340D01*
G01X-1160673Y-2409395D01*
G01X-1240672Y-2409395D01*
G01X-1251740Y-2411148D01*
G01X-1261723Y-2416235D01*
G01X-1269647Y-2424159D01*
G01X-1274734Y-2434142D01*
G01X-1276486Y-2445209D01*
G01X-1276486Y-2535209D01*
G01X-1274734Y-2546276D01*
G01X-1269647Y-2556260D01*
G01X-1261723Y-2564183D01*
G01X-1251740Y-2569270D01*
G01X-1240672Y-2571023D01*
G01X-1175768Y-2571023D01*
G01X-1137358Y-2609433D01*
G01X-1137984Y-2610362D01*
G01X-1145970Y-2601672D01*
G01X-1156346Y-2596050D01*
G01X-1167986Y-2594106D01*
G01X-1247986Y-2594106D01*
G01X-1259053Y-2595858D01*
G01X-1269037Y-2600945D01*
G01X-1276960Y-2608869D01*
G01X-1282047Y-2618852D01*
G01X-1283800Y-2629920D01*
G01X-1283800Y-2719919D01*
G01X-1464186Y-2719919D01*
G01X-1464186Y-1157123D01*
G01X-777473Y-1843836D01*
G01X-775159Y-1859018D01*
G01X-769414Y-1873259D01*
G01X-760548Y-1885798D01*
G01X-749036Y-1895961D01*
G01X-735494Y-1903204D01*
G01X-720650Y-1907137D01*
G01X-705299Y-1907551D01*
G01X-690264Y-1904422D01*
G01X-676352Y-1897920D01*
G01X-664309Y-1888391D01*
G01X-654780Y-1876348D01*
G01X-648278Y-1862436D01*
G01X-645149Y-1847401D01*
G01X-645563Y-1832050D01*
G01X-649496Y-1817206D01*
G01X-656739Y-1803664D01*
G01X-666902Y-1792152D01*
G01X-679441Y-1783286D01*
G01X-693682Y-1777541D01*
G01X-708864Y-1775227D01*
G01X-903632Y-1580459D01*
G01X-871725Y-1580459D01*
G01X-860658Y-1578706D01*
G01X-850675Y-1573619D01*
G01X-842751Y-1565696D01*
G01X-837664Y-1555712D01*
G01X-835911Y-1544645D01*
G01X-835911Y-1544098D01*
G01X-780751Y-1599258D01*
G01X-770704Y-1606968D01*
G01X-759003Y-1611814D01*
G01X-746447Y-1613467D01*
G01X-415378Y-1613467D01*
G01X-402822Y-1611814D01*
G01X-391121Y-1606968D01*
G01X-381073Y-1599258D01*
G01X-335432Y-1553616D01*
G01X-321087Y-1553616D01*
G01X-316399Y-1564511D01*
G01X-308410Y-1573276D01*
G01X-297996Y-1578953D01*
G01X-286300Y-1580916D01*
G01X-196300Y-1580916D01*
G01X-184604Y-1578953D01*
G01X-174190Y-1573276D01*
G01X-166201Y-1564511D01*
G01X-161513Y-1553616D01*
G01X201062Y-1553616D01*
G01X199211Y-1560043D01*
G01X198586Y-1566702D01*
G01X198586Y-1646702D01*
G01X200339Y-1657769D01*
G01X205426Y-1667753D01*
G01X213349Y-1675676D01*
G01X223333Y-1680763D01*
G01X234400Y-1682516D01*
G01X324400Y-1682516D01*
G01X335467Y-1680763D01*
G01X345451Y-1675676D01*
G01X353374Y-1667753D01*
G01X358461Y-1657769D01*
G01X360214Y-1646702D01*
G01X360214Y-1566702D01*
G01X358269Y-1555062D01*
G01X352647Y-1544686D01*
G01X343957Y-1536700D01*
G01X350797Y-1530902D01*
G01X355982Y-1523586D01*
G01X359187Y-1515212D01*
G01X608402Y-1515212D01*
G01X633870Y-1540679D01*
G01X618240Y-1545315D01*
G01X604214Y-1553624D01*
G01X592639Y-1565104D01*
G01X584214Y-1579062D01*
G01X579449Y-1594653D01*
G01X565792Y-1598591D01*
G01X553287Y-1605349D01*
G01X542510Y-1614617D01*
G01X533955Y-1625969D01*
G01X528017Y-1638884D01*
G01X524966Y-1652767D01*
G01X524945Y-1666981D01*
G01X527954Y-1680873D01*
G01X533853Y-1693805D01*
G01X542374Y-1705183D01*
G01X542374Y-1744246D01*
G01X536381Y-1757158D01*
G01X533400Y-1771078D01*
G01X530203Y-1756525D01*
G01X523719Y-1743110D01*
G01X514301Y-1731564D01*
G01X502461Y-1722517D01*
G01X488847Y-1716462D01*
G01X474199Y-1713729D01*
G01X459317Y-1714468D01*
G01X445012Y-1718638D01*
G01X432064Y-1726011D01*
G01X421179Y-1736186D01*
G01X412950Y-1748608D01*
G01X407826Y-1762600D01*
G01X406086Y-1777398D01*
G01X406086Y-1895899D01*
G01X407826Y-1910698D01*
G01X412950Y-1924689D01*
G01X421179Y-1937111D01*
G01X432064Y-1947286D01*
G01X445012Y-1954659D01*
G01X459317Y-1958829D01*
G01X474199Y-1959568D01*
G01X488847Y-1956835D01*
G01X502461Y-1950780D01*
G01X514301Y-1941733D01*
G01X523719Y-1930188D01*
G01X530203Y-1916772D01*
G01X533400Y-1902219D01*
G01X536835Y-1917448D01*
G01X543865Y-1931388D01*
G01X554069Y-1943204D01*
G01X566838Y-1952188D01*
G01X581405Y-1957803D01*
G01X596900Y-1959713D01*
G01X612395Y-1957803D01*
G01X626962Y-1952188D01*
G01X639731Y-1943204D01*
G01X649935Y-1931388D01*
G01X656965Y-1917448D01*
G01X660400Y-1902219D01*
G01X663835Y-1917448D01*
G01X670865Y-1931388D01*
G01X681069Y-1943204D01*
G01X693838Y-1952188D01*
G01X708405Y-1957803D01*
G01X723900Y-1959713D01*
G01X739395Y-1957803D01*
G01X753962Y-1952188D01*
G01X766731Y-1943204D01*
G01X776935Y-1931388D01*
G01X783965Y-1917448D01*
G01X787400Y-1902219D01*
G01X789971Y-1914869D01*
G01X795036Y-1926743D01*
G01X802386Y-1937355D01*
G01X802386Y-2057726D01*
G01X568935Y-2057726D01*
G01X557868Y-2059479D01*
G01X547884Y-2064566D01*
G01X539961Y-2072489D01*
G01X534874Y-2082473D01*
G01X533121Y-2093540D01*
G01X533121Y-2203540D01*
G01X534874Y-2214607D01*
G01X539961Y-2224591D01*
G01X547884Y-2232514D01*
G01X557868Y-2237601D01*
G01X568935Y-2239354D01*
G01X764509Y-2239354D01*
G01X716140Y-2287723D01*
G01X568935Y-2287723D01*
G01X557868Y-2289476D01*
G01X547884Y-2294563D01*
G01X539961Y-2302486D01*
G01X534874Y-2312470D01*
G01X533121Y-2323537D01*
G01X533121Y-2433537D01*
G01X534874Y-2444604D01*
G01X539961Y-2454588D01*
G01X547884Y-2462511D01*
G01X557868Y-2467598D01*
G01X568935Y-2469351D01*
G01X818935Y-2469351D01*
G01X830002Y-2467598D01*
G01X839986Y-2462511D01*
G01X847909Y-2454588D01*
G01X852996Y-2444604D01*
G01X854749Y-2433537D01*
G01X854749Y-2427051D01*
G01X1135113Y-2427051D01*
G01X1135113Y-2558537D01*
G01X1136866Y-2569604D01*
G01X1141953Y-2579588D01*
G01X1149876Y-2587511D01*
G01X1159860Y-2592598D01*
G01X1170927Y-2594351D01*
G01X1404927Y-2594351D01*
G01X1415994Y-2592598D01*
G01X1425978Y-2587511D01*
G01X1433901Y-2579588D01*
G01X1438988Y-2569604D01*
G01X1440741Y-2558537D01*
G01X1440741Y-2198537D01*
G01X1438988Y-2187470D01*
G01X1433901Y-2177486D01*
G01X1425978Y-2169563D01*
G01X1415994Y-2164476D01*
G01X1404927Y-2162723D01*
G01X1170927Y-2162723D01*
G01X1159860Y-2164476D01*
G01X1149876Y-2169563D01*
G01X1141953Y-2177486D01*
G01X1136866Y-2187470D01*
G01X1135113Y-2198537D01*
G01X1135113Y-2330023D01*
G01X854749Y-2330023D01*
G01X854749Y-2323537D01*
G01X853442Y-2313952D01*
G01X849618Y-2305065D01*
G01X843554Y-2297527D01*
G01X885205Y-2255877D01*
G01X892914Y-2245829D01*
G01X897761Y-2234128D01*
G01X899414Y-2221572D01*
G01X899414Y-1937355D01*
G01X906764Y-1926743D01*
G01X911829Y-1914869D01*
G01X914400Y-1902219D01*
G01X916971Y-1914869D01*
G01X922036Y-1926743D01*
G01X929386Y-1937355D01*
G01X929386Y-2022979D01*
G01X931326Y-2036560D01*
G01X936989Y-2049054D01*
G01X939074Y-2064888D01*
G01X944883Y-2079763D01*
G01X954080Y-2092819D01*
G01X966131Y-2103297D01*
G01X980338Y-2110591D01*
G01X995877Y-2114276D01*
G01X1011846Y-2114140D01*
G01X1027319Y-2110190D01*
G01X1041400Y-2102656D01*
G01X1055481Y-2110190D01*
G01X1070954Y-2114140D01*
G01X1086923Y-2114276D01*
G01X1102462Y-2110591D01*
G01X1116669Y-2103297D01*
G01X1128720Y-2092819D01*
G01X1137917Y-2079763D01*
G01X1143726Y-2064888D01*
G01X1145811Y-2049054D01*
G01X1151474Y-2036560D01*
G01X1153414Y-2022979D01*
G01X1153414Y-1937355D01*
G01X1160764Y-1926743D01*
G01X1165829Y-1914869D01*
G01X1168400Y-1902219D01*
G01X1171835Y-1917448D01*
G01X1178865Y-1931388D01*
G01X1189069Y-1943204D01*
G01X1201838Y-1952188D01*
G01X1216405Y-1957803D01*
G01X1231900Y-1959713D01*
G01X1247395Y-1957803D01*
G01X1261962Y-1952188D01*
G01X1274731Y-1943204D01*
G01X1284935Y-1931388D01*
G01X1291965Y-1917448D01*
G01X1295400Y-1902219D01*
G01X1298597Y-1916772D01*
G01X1305081Y-1930188D01*
G01X1314499Y-1941733D01*
G01X1326339Y-1950780D01*
G01X1339953Y-1956835D01*
G01X1354601Y-1959568D01*
G01X1369483Y-1958829D01*
G01X1383788Y-1954659D01*
G01X1396736Y-1947286D01*
G01X1407621Y-1937111D01*
G01X1415850Y-1924689D01*
G01X1420974Y-1910698D01*
G01X1422714Y-1895899D01*
G01X1422714Y-1777398D01*
G01X1420974Y-1762600D01*
G01X1415850Y-1748608D01*
G01X1407621Y-1736186D01*
G01X1396736Y-1726011D01*
G01X1383788Y-1718638D01*
G01X1369483Y-1714468D01*
G01X1354601Y-1713729D01*
G01X1339953Y-1716462D01*
G01X1326339Y-1722517D01*
G01X1314499Y-1731564D01*
G01X1305081Y-1743110D01*
G01X1298597Y-1756525D01*
G01X1295400Y-1771078D01*
G01X1291965Y-1755849D01*
G01X1284935Y-1741909D01*
G01X1274731Y-1730093D01*
G01X1261962Y-1721109D01*
G01X1247395Y-1715494D01*
G01X1231900Y-1713584D01*
G01X1216405Y-1715494D01*
G01X1201838Y-1721109D01*
G01X1189069Y-1730093D01*
G01X1178865Y-1741909D01*
G01X1171835Y-1755849D01*
G01X1168400Y-1771078D01*
G01X1164965Y-1755849D01*
G01X1157935Y-1741909D01*
G01X1147731Y-1730093D01*
G01X1134962Y-1721109D01*
G01X1120395Y-1715494D01*
G01X1104900Y-1713584D01*
G01X1089405Y-1715494D01*
G01X1074838Y-1721109D01*
G01X1062069Y-1730093D01*
G01X1051865Y-1741909D01*
G01X1044835Y-1755849D01*
G01X1041400Y-1771078D01*
G01X1037965Y-1755849D01*
G01X1030935Y-1741909D01*
G01X1020731Y-1730093D01*
G01X1007962Y-1721109D01*
G01X993395Y-1715494D01*
G01X977900Y-1713584D01*
G01X962405Y-1715494D01*
G01X947838Y-1721109D01*
G01X935069Y-1730093D01*
G01X924865Y-1741909D01*
G01X917835Y-1755849D01*
G01X914400Y-1771078D01*
G01X911829Y-1758428D01*
G01X906764Y-1746554D01*
G01X899414Y-1735942D01*
G01X899414Y-1689100D01*
G01X897761Y-1676544D01*
G01X892914Y-1664843D01*
G01X885205Y-1654795D01*
G01X662802Y-1432393D01*
G01X652755Y-1424683D01*
G01X641054Y-1419837D01*
G01X628498Y-1418184D01*
G01X396523Y-1418184D01*
G01X438023Y-1376684D01*
G01X452650Y-1382840D01*
G01X468344Y-1385197D01*
G01X484134Y-1383608D01*
G01X499043Y-1378172D01*
G01X512150Y-1369225D01*
G01X522645Y-1357321D01*
G01X529877Y-1343195D01*
G01X533400Y-1327722D01*
G01X536835Y-1342951D01*
G01X543865Y-1356891D01*
G01X554069Y-1368707D01*
G01X566838Y-1377691D01*
G01X581405Y-1383306D01*
G01X596900Y-1385216D01*
G01X612395Y-1383306D01*
G01X626962Y-1377691D01*
G01X639731Y-1368707D01*
G01X649935Y-1356891D01*
G01X656965Y-1342951D01*
G01X660400Y-1327722D01*
G01X663835Y-1342951D01*
G01X670865Y-1356891D01*
G01X681069Y-1368707D01*
G01X693838Y-1377691D01*
G01X708405Y-1383306D01*
G01X723900Y-1385216D01*
G01X739395Y-1383306D01*
G01X753962Y-1377691D01*
G01X766731Y-1368707D01*
G01X776935Y-1356891D01*
G01X783965Y-1342951D01*
G01X787400Y-1327722D01*
G01X790835Y-1342951D01*
G01X797865Y-1356891D01*
G01X808069Y-1368707D01*
G01X820838Y-1377691D01*
G01X835405Y-1383306D01*
G01X850900Y-1385216D01*
G01X866395Y-1383306D01*
G01X880962Y-1377691D01*
G01X893731Y-1368707D01*
G01X903935Y-1356891D01*
G01X910965Y-1342951D01*
G01X914400Y-1327722D01*
G01X917835Y-1342951D01*
G01X924865Y-1356891D01*
G01X935069Y-1368707D01*
G01X947838Y-1377691D01*
G01X962405Y-1383306D01*
G01X977900Y-1385216D01*
G01X993395Y-1383306D01*
G01X1007962Y-1377691D01*
G01X1020731Y-1368707D01*
G01X1030935Y-1356891D01*
G01X1037965Y-1342951D01*
G01X1041400Y-1327722D01*
G01X1044835Y-1342951D01*
G01X1051865Y-1356891D01*
G01X1062069Y-1368707D01*
G01X1074838Y-1377691D01*
G01X1089405Y-1383306D01*
G01X1104900Y-1385216D01*
G01X1120395Y-1383306D01*
G01X1134962Y-1377691D01*
G01X1147731Y-1368707D01*
G01X1157935Y-1356891D01*
G01X1164965Y-1342951D01*
G01X1168400Y-1327722D01*
G01X1171835Y-1342951D01*
G01X1178865Y-1356891D01*
G01X1189069Y-1368707D01*
G01X1201838Y-1377691D01*
G01X1216405Y-1383306D01*
G01X1231900Y-1385216D01*
G01X1247395Y-1383306D01*
G01X1261962Y-1377691D01*
G01X1274731Y-1368707D01*
G01X1284935Y-1356891D01*
G01X1291965Y-1342951D01*
G01X1295400Y-1327722D01*
G01X1298597Y-1342275D01*
G01X1305081Y-1355690D01*
G01X1314499Y-1367236D01*
G01X1326339Y-1376283D01*
G01X1339953Y-1382338D01*
G01X1354601Y-1385071D01*
G01X1369483Y-1384332D01*
G01X1383788Y-1380162D01*
G01X1396736Y-1372789D01*
G01X1407621Y-1362614D01*
G01X1415850Y-1350192D01*
G01X1420974Y-1336200D01*
G01X1422714Y-1321402D01*
G01X1422714Y-1202901D01*
G01X1420974Y-1188102D01*
G01X1415850Y-1174111D01*
G01X1407621Y-1161689D01*
G01X1396736Y-1151514D01*
G01X1383788Y-1144141D01*
G01X1369483Y-1139971D01*
G01X1354601Y-1139232D01*
G01X1339953Y-1141965D01*
G01X1326339Y-1148020D01*
G01X1314499Y-1157067D01*
G01X1305081Y-1168612D01*
G01X1298597Y-1182028D01*
G01X1295400Y-1196581D01*
G01X1291965Y-1181352D01*
G01X1284935Y-1167412D01*
G01X1274731Y-1155596D01*
G01X1261962Y-1146612D01*
G01X1247395Y-1140997D01*
G01X1231900Y-1139087D01*
G01X1216405Y-1140997D01*
G01X1201838Y-1146612D01*
G01X1189069Y-1155596D01*
G01X1178865Y-1167412D01*
G01X1171835Y-1181352D01*
G01X1168400Y-1196581D01*
G01X1164965Y-1181352D01*
G01X1157935Y-1167412D01*
G01X1147731Y-1155596D01*
G01X1134962Y-1146612D01*
G01X1120395Y-1140997D01*
G01X1104900Y-1139087D01*
G01X1089405Y-1140997D01*
G01X1074838Y-1146612D01*
G01X1062069Y-1155596D01*
G01X1051865Y-1167412D01*
G01X1044835Y-1181352D01*
G01X1041400Y-1196581D01*
G01X1037965Y-1181352D01*
G01X1030935Y-1167412D01*
G01X1020731Y-1155596D01*
G01X1007962Y-1146612D01*
G01X993395Y-1140997D01*
G01X977900Y-1139087D01*
G01X962405Y-1140997D01*
G01X947838Y-1146612D01*
G01X935069Y-1155596D01*
G01X924865Y-1167412D01*
G01X917835Y-1181352D01*
G01X914400Y-1196581D01*
G01X910965Y-1181352D01*
G01X903935Y-1167412D01*
G01X893731Y-1155596D01*
G01X880962Y-1146612D01*
G01X866395Y-1140997D01*
G01X850900Y-1139087D01*
G01X835405Y-1140997D01*
G01X820838Y-1146612D01*
G01X808069Y-1155596D01*
G01X797865Y-1167412D01*
G01X790835Y-1181352D01*
G01X787400Y-1196581D01*
G01X783965Y-1181352D01*
G01X776935Y-1167412D01*
G01X766731Y-1155596D01*
G01X753962Y-1146612D01*
G01X739395Y-1140997D01*
G01X723900Y-1139087D01*
G01X708405Y-1140997D01*
G01X693838Y-1146612D01*
G01X681069Y-1155596D01*
G01X670865Y-1167412D01*
G01X663835Y-1181352D01*
G01X660400Y-1196581D01*
G01X656965Y-1181352D01*
G01X649935Y-1167412D01*
G01X639731Y-1155596D01*
G01X626962Y-1146612D01*
G01X612395Y-1140997D01*
G01X596900Y-1139087D01*
G01X581405Y-1140997D01*
G01X566838Y-1146612D01*
G01X554069Y-1155596D01*
G01X543865Y-1167412D01*
G01X536835Y-1181352D01*
G01X533400Y-1196581D01*
G01X530569Y-1183115D01*
G01X524916Y-1170568D01*
G01X524916Y-664300D01*
G01X1174586Y-664300D01*
G01X1174586Y-834300D01*
G01X1176339Y-845367D01*
G01X1181426Y-855351D01*
G01X1189349Y-863274D01*
G01X1199333Y-868361D01*
G01X1210400Y-870114D01*
G01X1380400Y-870114D01*
G01X1391467Y-868361D01*
G01X1401451Y-863274D01*
G01X1409374Y-855351D01*
G01X1414461Y-845367D01*
G01X1416214Y-834300D01*
G01X1416214Y-664300D01*
G01X1416214Y-664300D01*
G01X1414461Y-653233D01*
G01X1409374Y-643249D01*
G01X1401451Y-635326D01*
G01X1391467Y-630239D01*
G01X1380400Y-628486D01*
G01X1210400Y-628486D01*
G01X1199333Y-630239D01*
G01X1189349Y-635326D01*
G01X1181426Y-643249D01*
G01X1176339Y-653233D01*
G01X1174586Y-664300D01*
G01X524916Y-664300D01*
G01X524916Y-549687D01*
G01X535065Y-545467D01*
G01X543456Y-538367D01*
G01X549299Y-529057D01*
G01X552044Y-518414D01*
G01X1176818Y-518414D01*
G01X1182919Y-539392D01*
G01X1192699Y-558927D01*
G01X1205837Y-576383D01*
G01X1221903Y-591186D01*
G01X1240373Y-602855D01*
G01X1260642Y-611006D01*
G01X1282048Y-615374D01*
G01X1303890Y-615815D01*
G01X1325455Y-612316D01*
G01X1346037Y-604990D01*
G01X1364963Y-594077D01*
G01X1381615Y-579934D01*
G01X1395447Y-563024D01*
G01X1406008Y-543900D01*
G01X1412952Y-523186D01*
G01X1416052Y-501560D01*
G01X1415206Y-479729D01*
G01X1410443Y-458408D01*
G01X1401918Y-438293D01*
G01X1389910Y-420042D01*
G01X1374812Y-404252D01*
G01X1357117Y-391439D01*
G01X1337403Y-382023D01*
G01X1316317Y-376311D01*
G01X1294546Y-374489D01*
G01X1272803Y-376618D01*
G01X1251799Y-382628D01*
G01X1232221Y-392323D01*
G01X1214708Y-405384D01*
G01X1199835Y-421386D01*
G01X915499Y-421386D01*
G01X917212Y-406898D01*
G01X915717Y-392387D01*
G01X911084Y-378553D01*
G01X903539Y-366067D01*
G01X893446Y-355533D01*
G01X881294Y-347461D01*
G01X867671Y-342242D01*
G01X853236Y-340127D01*
G01X840970Y-327861D01*
G01X888462Y-327861D01*
G01X899529Y-326108D01*
G01X909512Y-321021D01*
G01X917436Y-313098D01*
G01X922523Y-303114D01*
G01X924276Y-292047D01*
G01X924276Y-289814D01*
G01X1184755Y-289814D01*
G01X1195205Y-308806D01*
G01X1208882Y-325624D01*
G01X1225343Y-339728D01*
G01X1244060Y-350663D01*
G01X1264430Y-358077D01*
G01X1285797Y-361732D01*
G01X1307473Y-361509D01*
G01X1328760Y-357417D01*
G01X1348973Y-349586D01*
G01X1367462Y-338269D01*
G01X1383630Y-323831D01*
G01X1396959Y-306736D01*
G01X1407017Y-287533D01*
G01X1413483Y-266843D01*
G01X1416147Y-245330D01*
G01X1414923Y-223688D01*
G01X1409852Y-202612D01*
G01X1401096Y-182782D01*
G01X1388937Y-164836D01*
G01X1373767Y-149351D01*
G01X1356074Y-136827D01*
G01X1336428Y-127666D01*
G01X1315461Y-122163D01*
G01X1293848Y-120496D01*
G01X1272285Y-122718D01*
G01X1251467Y-128757D01*
G01X1223700Y-100991D01*
G01X1223700Y-84538D01*
G01X1240989Y-95168D01*
G01X1259813Y-102754D01*
G01X1279642Y-107082D01*
G01X1299915Y-108029D01*
G01X1320061Y-105570D01*
G01X1339511Y-99773D01*
G01X1357716Y-90802D01*
G01X1374162Y-78910D01*
G01X1388386Y-64433D01*
G01X1399986Y-47780D01*
G01X1408634Y-29419D01*
G01X1414087Y-9870D01*
G01X1416190Y10316D01*
G01X1414885Y30570D01*
G01X1410208Y50319D01*
G01X1402291Y69006D01*
G01X1391357Y86105D01*
G01X1377715Y101132D01*
G01X1361751Y113663D01*
G01X1343914Y123345D01*
G01X1343914Y2278338D01*
G01X1342261Y2290894D01*
G01X1337414Y2302595D01*
G01X1329705Y2312643D01*
G01X1257049Y2385298D01*
G01X1257049Y2610388D01*
G01X1255396Y2622945D01*
G01X1250549Y2634645D01*
G01X1242839Y2644693D01*
G01X1201073Y2686460D01*
G01X1191025Y2694170D01*
G01X1179324Y2699016D01*
G01X1166768Y2700669D01*
G01X1155088Y2700669D01*
G01X1155088Y2748059D01*
G01X1164811Y2750972D01*
G01X1173327Y2756496D01*
G01X1179950Y2764188D01*
G01X1184150Y2773429D01*
G01X1185588Y2783477D01*
G01X1185588Y2864124D01*
G01X1184274Y2873738D01*
G01X1180427Y2882646D01*
G01X1174330Y2890194D01*
G01X1166430Y2895829D01*
G01X1157308Y2899137D01*
G01X1166430Y2902444D01*
G01X1174330Y2908079D01*
G01X1180427Y2915627D01*
G01X1184274Y2924536D01*
G01X1185588Y2934149D01*
G01X1185588Y3014797D01*
G01X1183835Y3025864D01*
G01X1178748Y3035848D01*
G01X1170825Y3043771D01*
G01X1160841Y3048858D01*
G01X1149774Y3050611D01*
G01X1099045Y3050611D01*
G01X1075596Y3074061D01*
G01X1075596Y3131102D01*
G01X1073942Y3143658D01*
G01X1069096Y3155359D01*
G01X1061386Y3165406D01*
G01X1045043Y3181750D01*
G01X1034995Y3189460D01*
G01X1023294Y3194306D01*
G01X1010738Y3195959D01*
G01X787625Y3195959D01*
G01X775069Y3194306D01*
G01X763368Y3189460D01*
G01X753321Y3181750D01*
G01X594558Y3022987D01*
G01X-765607Y3022987D01*
G01X-765001Y3029545D01*
G01X-765001Y3119545D01*
G01X-766754Y3130612D01*
G01X-771841Y3140596D01*
G01X-779764Y3148519D01*
G01X-789748Y3153606D01*
G01X-800815Y3155359D01*
G01X-1000815Y3155359D01*
G01X-1011882Y3153606D01*
G01X-1021866Y3148519D01*
G01X-1029789Y3140596D01*
G01X-1034876Y3130612D01*
G01X-1036629Y3119545D01*
G01X-1036629Y3029545D01*
G01X-1035318Y3019944D01*
G01X-1031480Y3011045D01*
G01X-1034290Y3005274D01*
G01X-1079309Y3005274D01*
G01X-1083940Y3016282D01*
G01X-1091933Y3025155D01*
G01X-1102398Y3030907D01*
G01X-1114174Y3032898D01*
G01X-1200574Y3032898D01*
G01X-1211641Y3031145D01*
G01X-1221625Y3026058D01*
G01X-1229548Y3018135D01*
G01X-1234635Y3008151D01*
G01X-1236388Y2997084D01*
G01X-1236388Y2916437D01*
G01X-1235074Y2906823D01*
G01X-1231227Y2897915D01*
G01X-1225130Y2890366D01*
G01X-1217230Y2884731D01*
G01X-1208108Y2881424D01*
G01X-1217230Y2878117D01*
G01X-1225130Y2872482D01*
G01X-1231227Y2864933D01*
G01X-1235074Y2856025D01*
G01X-1236388Y2846411D01*
G01X-1236388Y2765764D01*
G01X-1235335Y2757144D01*
G01X-1232239Y2749031D01*
G01X-1431305Y2549966D01*
G01X-1439014Y2539918D01*
G01X-1443861Y2528218D01*
G01X-1445514Y2515661D01*
G01X-1445514Y114300D01*
G01X-1443861Y101744D01*
G01X-1439014Y90043D01*
G01X-1431305Y79995D01*
G01X-1369843Y18533D01*
G01X-1375114Y1355D01*
G01X-1377779Y-16415D01*
G01X-1377779Y-34385D01*
G01X-1375114Y-52155D01*
G01X-1369843Y-69333D01*
G01X-1464186Y-163677D01*
G01X-1464186Y3251160D01*
G01X1464186Y3251160D01*
G01X1464186Y-3661212D01*
G01X1104675Y-3661212D01*
G01X1104675Y-3467375D01*
G01X1102922Y-3456308D01*
G01X1097835Y-3446324D01*
G01X1089912Y-3438401D01*
G01X1079928Y-3433314D01*
G01X1068861Y-3431561D01*
G01X917660Y-3431561D01*
G01X906592Y-3433314D01*
G01X896609Y-3438401D01*
G01X888685Y-3446324D01*
G01X883598Y-3456308D01*
G01X881846Y-3467375D01*
G01X881846Y-3661212D01*
G01X496813Y-3661212D01*
G01X505196Y-3649046D01*
G01X511367Y-3635622D01*
G01X515145Y-3621339D01*
G01X516417Y-3606619D01*
G01X516417Y-3526620D01*
G01X514542Y-3508778D01*
G01X508998Y-3491716D01*
G01X500028Y-3476179D01*
G01X488024Y-3462847D01*
G01X473510Y-3452303D01*
G01X457121Y-3445006D01*
G01X439573Y-3441276D01*
G01X421633Y-3441276D01*
G01X404085Y-3445006D01*
G01X387696Y-3452303D01*
G01X373182Y-3462847D01*
G01X361178Y-3476179D01*
G01X352208Y-3491716D01*
G01X346664Y-3508778D01*
G01X344789Y-3526620D01*
G01X344789Y-3606619D01*
G01X346061Y-3621339D01*
G01X349839Y-3635622D01*
G01X356011Y-3649046D01*
G01X364394Y-3661212D01*
G01X-367194Y-3661212D01*
G01X-358811Y-3649046D01*
G01X-352639Y-3635622D01*
G01X-348861Y-3621339D01*
G01X-347589Y-3606619D01*
G01X-347589Y-3526620D01*
G01X-349413Y-3509022D01*
G01X-354806Y-3492173D01*
G01X-363540Y-3476788D01*
G01X-375244Y-3463520D01*
G01X-389419Y-3452935D01*
G01X-405464Y-3445481D01*
G01X-422696Y-3441476D01*
G01X-440383Y-3441090D01*
G01X-457774Y-3444339D01*
G01X-474129Y-3451085D01*
G01X-488752Y-3461041D01*
G01X-488752Y-3421653D01*
G01X-490067Y-3412039D01*
G01X-493914Y-3403131D01*
G01X-500011Y-3395582D01*
G01X-507910Y-3389948D01*
G01X-517033Y-3386640D01*
G01X-507910Y-3383333D01*
G01X-500011Y-3377698D01*
G01X-493914Y-3370149D01*
G01X-490067Y-3361241D01*
G01X-488752Y-3351628D01*
G01X-488752Y-3330051D01*
G01X-247660Y-3330051D01*
G01X-235103Y-3328398D01*
G01X-223403Y-3323551D01*
G01X-213355Y-3315842D01*
G01X-125153Y-3227639D01*
G01X-121199Y-3234059D01*
G01X-116298Y-3239788D01*
G01X94499Y-3450585D01*
G01X104546Y-3458294D01*
G01X116247Y-3463141D01*
G01X128803Y-3464794D01*
G01X208301Y-3464794D01*
G01X216320Y-3464126D01*
G01X224118Y-3462143D01*
G01X238996Y-3461474D01*
G01X253349Y-3457503D01*
G01X266454Y-3450429D01*
G01X277649Y-3440609D01*
G01X286372Y-3428538D01*
G01X292180Y-3414825D01*
G01X294782Y-3400162D01*
G01X294046Y-3385288D01*
G01X290010Y-3370953D01*
G01X282876Y-3357880D01*
G01X290344Y-3343971D01*
G01X294312Y-3328692D01*
G01X294557Y-3312907D01*
G01X291064Y-3297512D01*
G01X284030Y-3283379D01*
G01X273856Y-3271309D01*
G01X261117Y-3261985D01*
G01X246535Y-3255937D01*
G01X230936Y-3253507D01*
G01X169070Y-3191641D01*
G01X188606Y-3191641D01*
G01X198605Y-3190216D01*
G01X208605Y-3191641D01*
G01X219646Y-3191641D01*
G01X219858Y-3207429D01*
G01X223689Y-3222747D01*
G01X230934Y-3236776D01*
G01X241207Y-3248767D01*
G01X253958Y-3258079D01*
G01X268507Y-3264215D01*
G01X284076Y-3266847D01*
G01X299833Y-3265834D01*
G01X314937Y-3261230D01*
G01X328580Y-3253282D01*
G01X340034Y-3242413D01*
G01X348687Y-3229206D01*
G01X355515Y-3245180D01*
G01X365421Y-3259452D01*
G01X377997Y-3271436D01*
G01X392730Y-3280641D01*
G01X409015Y-3286691D01*
G01X426185Y-3289337D01*
G01X443535Y-3288471D01*
G01X460356Y-3284128D01*
G01X475957Y-3276486D01*
G01X489700Y-3265859D01*
G01X501021Y-3252682D01*
G01X509455Y-3237495D01*
G01X514659Y-3220920D01*
G01X516417Y-3203637D01*
G01X516417Y-3093637D01*
G01X514454Y-3075388D01*
G01X508655Y-3057974D01*
G01X499286Y-3042191D01*
G01X486774Y-3028762D01*
G01X471693Y-3018300D01*
G01X454732Y-3011285D01*
G01X436668Y-3008038D01*
G01X418326Y-3008706D01*
G01X400545Y-3013260D01*
G01X384140Y-3021490D01*
G01X381417Y-3011510D01*
G01X375955Y-3002723D01*
G01X368209Y-2995865D01*
G01X358826Y-2991507D01*
G01X348589Y-2990013D01*
G01X288589Y-2990013D01*
G01X287119Y-2990043D01*
G01X287119Y-2930286D01*
G01X290530Y-2930449D01*
G01X370530Y-2930449D01*
G01X381597Y-2928696D01*
G01X391581Y-2923609D01*
G01X399504Y-2915685D01*
G01X404591Y-2905702D01*
G01X406344Y-2894635D01*
G01X406344Y-2814635D01*
G01X404783Y-2804783D01*
G01X810014Y-2804783D01*
G01X811237Y-2819522D01*
G01X815697Y-2833624D01*
G01X823172Y-2846386D01*
G01X833290Y-2857174D01*
G01X845546Y-2865452D01*
G01X859333Y-2870807D01*
G01X873964Y-2872973D01*
G01X881846Y-2880855D01*
G01X881846Y-3027371D01*
G01X883598Y-3038438D01*
G01X888685Y-3048422D01*
G01X896609Y-3056345D01*
G01X906592Y-3061432D01*
G01X917660Y-3063185D01*
G01X1068861Y-3063185D01*
G01X1079928Y-3061432D01*
G01X1089912Y-3056345D01*
G01X1097835Y-3048422D01*
G01X1102922Y-3038438D01*
G01X1104675Y-3027371D01*
G01X1104675Y-2828870D01*
G01X1102922Y-2817803D01*
G01X1097835Y-2807819D01*
G01X1089912Y-2799896D01*
G01X1079928Y-2794809D01*
G01X1068861Y-2793056D01*
G01X941195Y-2793056D01*
G01X936557Y-2779012D01*
G01X928922Y-2766345D01*
G01X918669Y-2755686D01*
G01X906308Y-2747564D01*
G01X892455Y-2742384D01*
G01X877798Y-2740403D01*
G01X863067Y-2741720D01*
G01X848994Y-2746269D01*
G01X836279Y-2753824D01*
G01X825555Y-2764010D01*
G01X825555Y-2764010D01*
G01X817355Y-2776319D01*
G01X812087Y-2790139D01*
G01X810014Y-2804783D01*
G01X404783Y-2804783D01*
G01X404591Y-2803568D01*
G01X399504Y-2793584D01*
G01X391581Y-2785661D01*
G01X381597Y-2780574D01*
G01X370530Y-2778821D01*
G01X290530Y-2778821D01*
G01X287119Y-2778984D01*
G01X287119Y-2725660D01*
G01X323325Y-2689453D01*
G01X370530Y-2689453D01*
G01X382226Y-2687490D01*
G01X392640Y-2681813D01*
G01X400629Y-2673048D01*
G01X405317Y-2662153D01*
G01X533121Y-2662153D01*
G01X533121Y-2663534D01*
G01X534874Y-2674601D01*
G01X539961Y-2684585D01*
G01X547884Y-2692508D01*
G01X557868Y-2697595D01*
G01X568935Y-2699348D01*
G01X818935Y-2699348D01*
G01X830002Y-2697595D01*
G01X839986Y-2692508D01*
G01X847909Y-2684585D01*
G01X852996Y-2674601D01*
G01X854749Y-2663534D01*
G01X854749Y-2553534D01*
G01X852996Y-2542467D01*
G01X847909Y-2532483D01*
G01X839986Y-2524560D01*
G01X830002Y-2519473D01*
G01X818935Y-2517720D01*
G01X568935Y-2517720D01*
G01X557868Y-2519473D01*
G01X547884Y-2524560D01*
G01X539961Y-2532483D01*
G01X534874Y-2542467D01*
G01X533121Y-2553534D01*
G01X533121Y-2565125D01*
G01X405317Y-2565125D01*
G01X401739Y-2556071D01*
G01X395854Y-2548315D01*
G01X388098Y-2542431D01*
G01X379044Y-2538852D01*
G01X379044Y-2354986D01*
G01X377391Y-2342430D01*
G01X372544Y-2330729D01*
G01X364834Y-2320681D01*
G01X291492Y-2247339D01*
G01X291492Y-2034840D01*
G01X289739Y-2023773D01*
G01X284652Y-2013789D01*
G01X276729Y-2005866D01*
G01X266745Y-2000779D01*
G01X255678Y-1999026D01*
G01X115010Y-1999026D01*
G01X103943Y-2000779D01*
G01X93959Y-2005866D01*
G01X86036Y-2013789D01*
G01X80949Y-2023773D01*
G01X79196Y-2034840D01*
G01X79196Y-2384760D01*
G01X80949Y-2395827D01*
G01X86036Y-2405811D01*
G01X93959Y-2413734D01*
G01X103943Y-2418821D01*
G01X115010Y-2420574D01*
G01X255678Y-2420574D01*
G01X265417Y-2419224D01*
G01X274423Y-2415277D01*
G01X282016Y-2409029D01*
G01X282016Y-2538852D01*
G01X271121Y-2543540D01*
G01X262356Y-2551529D01*
G01X256680Y-2561943D01*
G01X254716Y-2573640D01*
G01X254716Y-2620844D01*
G01X218907Y-2656653D01*
G01X214300Y-2647602D01*
G01X207911Y-2639709D01*
G01X141644Y-2573443D01*
G01X141644Y-2522714D01*
G01X139891Y-2511647D01*
G01X134804Y-2501663D01*
G01X126881Y-2493740D01*
G01X116897Y-2488653D01*
G01X105830Y-2486900D01*
G01X25182Y-2486900D01*
G01X15568Y-2488214D01*
G01X6660Y-2492061D01*
G01X-888Y-2498158D01*
G01X-6523Y-2506058D01*
G01X-9830Y-2515180D01*
G01X-13138Y-2506058D01*
G01X-18773Y-2498158D01*
G01X-26321Y-2492061D01*
G01X-35229Y-2488214D01*
G01X-44843Y-2486900D01*
G01X-61656Y-2486900D01*
G01X-56960Y-2478363D01*
G01X-54064Y-2469060D01*
G01X-53086Y-2459367D01*
G01X-53086Y-2293544D01*
G01X-54739Y-2280987D01*
G01X-59586Y-2269287D01*
G01X-67295Y-2259239D01*
G01X-79196Y-2247339D01*
G01X-79196Y-2034840D01*
G01X-80949Y-2023773D01*
G01X-86036Y-2013789D01*
G01X-93959Y-2005866D01*
G01X-103943Y-2000779D01*
G01X-115010Y-1999026D01*
G01X-255678Y-1999026D01*
G01X-266745Y-2000779D01*
G01X-276729Y-2005866D01*
G01X-284652Y-2013789D01*
G01X-289739Y-2023773D01*
G01X-291492Y-2034840D01*
G01X-291492Y-2102477D01*
G01X-375990Y-2102477D01*
G01X-375990Y-2015890D01*
G01X-377743Y-2004823D01*
G01X-382830Y-1994839D01*
G01X-390753Y-1986916D01*
G01X-400737Y-1981829D01*
G01X-411804Y-1980076D01*
G01X-465004Y-1980076D01*
G01X-475981Y-1981800D01*
G01X-485902Y-1986805D01*
G01X-495823Y-1981800D01*
G01X-506800Y-1980076D01*
G01X-560000Y-1980076D01*
G01X-570977Y-1981800D01*
G01X-580898Y-1986805D01*
G01X-590819Y-1981800D01*
G01X-601796Y-1980076D01*
G01X-654996Y-1980076D01*
G01X-666063Y-1981829D01*
G01X-676047Y-1986916D01*
G01X-683970Y-1994839D01*
G01X-689057Y-2004823D01*
G01X-690810Y-2015890D01*
G01X-690810Y-2123091D01*
G01X-689057Y-2134158D01*
G01X-683970Y-2144142D01*
G01X-676047Y-2152065D01*
G01X-666063Y-2157152D01*
G01X-654996Y-2158905D01*
G01X-601796Y-2158905D01*
G01X-590819Y-2157181D01*
G01X-580898Y-2152175D01*
G01X-570977Y-2157181D01*
G01X-560000Y-2158905D01*
G01X-534918Y-2158905D01*
G01X-527209Y-2168952D01*
G01X-526866Y-2169295D01*
G01X-571557Y-2169295D01*
G01X-584113Y-2170948D01*
G01X-595814Y-2175795D01*
G01X-605861Y-2183505D01*
G01X-622205Y-2199848D01*
G01X-629914Y-2209895D01*
G01X-654996Y-2209895D01*
G01X-666063Y-2211648D01*
G01X-676047Y-2216735D01*
G01X-683970Y-2224658D01*
G01X-689057Y-2234642D01*
G01X-690810Y-2245709D01*
G01X-690810Y-2352910D01*
G01X-689057Y-2363977D01*
G01X-683970Y-2373961D01*
G01X-676047Y-2381884D01*
G01X-666063Y-2386971D01*
G01X-654996Y-2388724D01*
G01X-601796Y-2388724D01*
G01X-590819Y-2387000D01*
G01X-580898Y-2381995D01*
G01X-570977Y-2387000D01*
G01X-560000Y-2388724D01*
G01X-506800Y-2388724D01*
G01X-496412Y-2387184D01*
G01X-486918Y-2382698D01*
G01X-486918Y-2596896D01*
G01X-485265Y-2609452D01*
G01X-480418Y-2621153D01*
G01X-472709Y-2631201D01*
G01X-124714Y-2979195D01*
G01X-124714Y-2990013D01*
G01X-141393Y-2990013D01*
G01X-151400Y-2991439D01*
G01X-161406Y-2990013D01*
G01X-191406Y-2990013D01*
G01X-201405Y-2991437D01*
G01X-211405Y-2990013D01*
G01X-271405Y-2990013D01*
G01X-281410Y-2991439D01*
G01X-291415Y-2990013D01*
G01X-351415Y-2990013D01*
G01X-361649Y-2991506D01*
G01X-371029Y-2995862D01*
G01X-378774Y-3002716D01*
G01X-384237Y-3011498D01*
G01X-386963Y-3021475D01*
G01X-403369Y-3013251D01*
G01X-421148Y-3008703D01*
G01X-439487Y-3008039D01*
G01X-457549Y-3011290D01*
G01X-474506Y-3018307D01*
G01X-489583Y-3028769D01*
G01X-502091Y-3042198D01*
G01X-511458Y-3057979D01*
G01X-517255Y-3075391D01*
G01X-519217Y-3093637D01*
G01X-519217Y-3203637D01*
G01X-517910Y-3218557D01*
G01X-514029Y-3233023D01*
G01X-538000Y-3233023D01*
G01X-545210Y-3233562D01*
G01X-552260Y-3235166D01*
G01X-610967Y-3235166D01*
G01X-622034Y-3236919D01*
G01X-632018Y-3242006D01*
G01X-639941Y-3249929D01*
G01X-645028Y-3259913D01*
G01X-646781Y-3270980D01*
G01X-646781Y-3351628D01*
G01X-645467Y-3361241D01*
G01X-641620Y-3370149D01*
G01X-635523Y-3377698D01*
G01X-627623Y-3383333D01*
G01X-618501Y-3386640D01*
G01X-627623Y-3389948D01*
G01X-635523Y-3395582D01*
G01X-641620Y-3403131D01*
G01X-645467Y-3412039D01*
G01X-646781Y-3421653D01*
G01X-646781Y-3502300D01*
G01X-645028Y-3513367D01*
G01X-639941Y-3523351D01*
G01X-632018Y-3531274D01*
G01X-622034Y-3536361D01*
G01X-610967Y-3538114D01*
G01X-524566Y-3538114D01*
G01X-519217Y-3537713D01*
G01X-519217Y-3606619D01*
G01X-517945Y-3621339D01*
G01X-514168Y-3635622D01*
G01X-507996Y-3649046D01*
G01X-499613Y-3661212D01*
G01X-884153Y-3661212D01*
G01X-881489Y-3653622D01*
G01X-880585Y-3645629D01*
G01X-880585Y-3447128D01*
G01X-882338Y-3436061D01*
G01X-887425Y-3426077D01*
G01X-895349Y-3418154D01*
G01X-905332Y-3413067D01*
G01X-916399Y-3411314D01*
G01X-1067601Y-3411314D01*
G01X-1078668Y-3413067D01*
G01X-1088652Y-3418154D01*
G01X-1096575Y-3426077D01*
G01X-1101662Y-3436061D01*
G01X-1103415Y-3447128D01*
G01X-1103415Y-3645629D01*
G37*
G36*
G01X-1301233Y-137943D02*
G01X-1280774Y-143911D01*
G01X-1259585Y-146192D01*
G01X-1238324Y-144714D01*
G01X-1217653Y-139523D01*
G01X-1198217Y-130781D01*
G01X-1180619Y-118759D01*
G01X-1165407Y-103833D01*
G01X-1153055Y-86465D01*
G01X-1143947Y-67197D01*
G01X-1138366Y-46629D01*
G01X-1136486Y-25400D01*
G01X-1138366Y-4171D01*
G01X-1143947Y16397D01*
G01X-1153055Y35665D01*
G01X-1165407Y53033D01*
G01X-1180619Y67959D01*
G01X-1198217Y79981D01*
G01X-1217653Y88723D01*
G01X-1238324Y93914D01*
G01X-1259585Y95392D01*
G01X-1280774Y93111D01*
G01X-1301233Y87143D01*
G01X-1348486Y134395D01*
G01X-1348486Y149347D01*
G01X-1333455Y134811D01*
G01X-1316143Y123084D01*
G01X-1297068Y114519D01*
G01X-1276801Y109370D01*
G01X-1255951Y107794D01*
G01X-1235141Y109836D01*
G01X-1214995Y115435D01*
G01X-1196116Y124425D01*
G01X-1179070Y136535D01*
G01X-1164367Y151403D01*
G01X-1152448Y168583D01*
G01X-1143670Y187561D01*
G01X-1138296Y207769D01*
G01X-1136486Y228600D01*
G01X-1138296Y249431D01*
G01X-1143670Y269639D01*
G01X-1152448Y288617D01*
G01X-1164367Y305797D01*
G01X-1179070Y320665D01*
G01X-1196116Y332775D01*
G01X-1214995Y341765D01*
G01X-1235141Y347364D01*
G01X-1255951Y349406D01*
G01X-1276801Y347830D01*
G01X-1297068Y342681D01*
G01X-1316143Y334116D01*
G01X-1333455Y322389D01*
G01X-1348486Y307853D01*
G01X-1348486Y2495566D01*
G01X-1123069Y2720983D01*
G01X-1116002Y2729950D01*
G01X-1114174Y2729950D01*
G01X-1102398Y2731941D01*
G01X-1091933Y2737693D01*
G01X-1083940Y2746566D01*
G01X-1079309Y2757574D01*
G01X-1031793Y2757574D01*
G01X-1031480Y2757045D01*
G01X-1035318Y2748147D01*
G01X-1036629Y2738545D01*
G01X-1036629Y2648545D01*
G01X-1035318Y2638944D01*
G01X-1031480Y2630045D01*
G01X-1035318Y2621147D01*
G01X-1036629Y2611545D01*
G01X-1036629Y2521545D01*
G01X-1035318Y2511944D01*
G01X-1031480Y2503045D01*
G01X-1035318Y2494147D01*
G01X-1036629Y2484545D01*
G01X-1036629Y2394545D01*
G01X-1035318Y2384944D01*
G01X-1031480Y2376045D01*
G01X-1035318Y2367147D01*
G01X-1036629Y2357545D01*
G01X-1036629Y2267545D01*
G01X-1035318Y2257944D01*
G01X-1031480Y2249045D01*
G01X-1035318Y2240147D01*
G01X-1036629Y2230545D01*
G01X-1036629Y2140545D01*
G01X-1035318Y2130944D01*
G01X-1031480Y2122045D01*
G01X-1035318Y2113147D01*
G01X-1036629Y2103545D01*
G01X-1036629Y2013545D01*
G01X-1035318Y2003944D01*
G01X-1031480Y1995045D01*
G01X-1035318Y1986147D01*
G01X-1036629Y1976545D01*
G01X-1036629Y1886545D01*
G01X-1035318Y1876944D01*
G01X-1031480Y1868045D01*
G01X-1035318Y1859147D01*
G01X-1036629Y1849545D01*
G01X-1036629Y1759545D01*
G01X-1035318Y1749944D01*
G01X-1031480Y1741045D01*
G01X-1035318Y1732147D01*
G01X-1036629Y1722545D01*
G01X-1036629Y1632545D01*
G01X-1035318Y1622944D01*
G01X-1031480Y1614045D01*
G01X-1035318Y1605147D01*
G01X-1036629Y1595545D01*
G01X-1036629Y1505545D01*
G01X-1035318Y1495944D01*
G01X-1031480Y1487045D01*
G01X-1035318Y1478147D01*
G01X-1036629Y1468545D01*
G01X-1036629Y1378545D01*
G01X-1034876Y1367478D01*
G01X-1029789Y1357494D01*
G01X-1021866Y1349571D01*
G01X-1011882Y1344484D01*
G01X-1000815Y1342731D01*
G01X-800815Y1342731D01*
G01X-789748Y1344484D01*
G01X-779764Y1349571D01*
G01X-771841Y1357494D01*
G01X-766754Y1367478D01*
G01X-765001Y1378545D01*
G01X-765001Y1468545D01*
G01X-766312Y1478147D01*
G01X-770149Y1487045D01*
G01X-766312Y1495944D01*
G01X-765001Y1505545D01*
G01X-765001Y1595545D01*
G01X-766312Y1605147D01*
G01X-770149Y1614045D01*
G01X-766312Y1622944D01*
G01X-765001Y1632545D01*
G01X-765001Y1722545D01*
G01X-766312Y1732147D01*
G01X-770149Y1741045D01*
G01X-766312Y1749944D01*
G01X-765001Y1759545D01*
G01X-765001Y1849545D01*
G01X-766312Y1859147D01*
G01X-770149Y1868045D01*
G01X-766312Y1876944D01*
G01X-765001Y1886545D01*
G01X-765001Y1976545D01*
G01X-766312Y1986147D01*
G01X-770149Y1995045D01*
G01X-766312Y2003944D01*
G01X-765001Y2013545D01*
G01X-765001Y2103545D01*
G01X-766312Y2113147D01*
G01X-770149Y2122045D01*
G01X-766825Y2129261D01*
G01X-765174Y2137031D01*
G01X-383398Y2137031D01*
G01X-319673Y2073306D01*
G01X-309626Y2065597D01*
G01X-297925Y2060750D01*
G01X-285369Y2059097D01*
G01X147744Y2059097D01*
G01X160300Y2060750D01*
G01X172001Y2065597D01*
G01X182048Y2073306D01*
G01X198392Y2089650D01*
G01X206102Y2099697D01*
G01X210948Y2111398D01*
G01X212601Y2123954D01*
G01X212601Y2249812D01*
G01X611347Y2648557D01*
G01X615162Y2638946D01*
G01X620425Y2630045D01*
G01X612890Y2615965D01*
G01X608941Y2600491D01*
G01X608804Y2584522D01*
G01X612490Y2568983D01*
G01X619783Y2554776D01*
G01X630262Y2542725D01*
G01X643317Y2533528D01*
G01X658193Y2527719D01*
G01X674026Y2525635D01*
G01X686521Y2519971D01*
G01X700101Y2518031D01*
G01X763541Y2518031D01*
G01X765192Y2510261D01*
G01X768516Y2503045D01*
G01X764679Y2494147D01*
G01X763368Y2484545D01*
G01X763368Y2394545D01*
G01X764679Y2384944D01*
G01X768516Y2376045D01*
G01X764679Y2367147D01*
G01X763368Y2357545D01*
G01X763368Y2267545D01*
G01X764679Y2257944D01*
G01X768516Y2249045D01*
G01X764679Y2240147D01*
G01X763368Y2230545D01*
G01X763368Y2140545D01*
G01X764679Y2130944D01*
G01X768516Y2122045D01*
G01X764679Y2113147D01*
G01X763368Y2103545D01*
G01X763368Y2013545D01*
G01X764679Y2003944D01*
G01X768516Y1995045D01*
G01X764679Y1986147D01*
G01X763368Y1976545D01*
G01X763368Y1886545D01*
G01X764679Y1876944D01*
G01X768516Y1868045D01*
G01X764679Y1859147D01*
G01X763368Y1849545D01*
G01X763368Y1759545D01*
G01X764679Y1749944D01*
G01X768516Y1741045D01*
G01X764679Y1732147D01*
G01X763368Y1722545D01*
G01X763368Y1632545D01*
G01X764679Y1622944D01*
G01X768516Y1614045D01*
G01X764679Y1605147D01*
G01X763368Y1595545D01*
G01X763368Y1505545D01*
G01X764679Y1495944D01*
G01X768516Y1487045D01*
G01X765192Y1479830D01*
G01X763541Y1472059D01*
G01X704349Y1472059D01*
G01X692064Y1480666D01*
G01X678160Y1486292D01*
G01X663347Y1488649D01*
G01X648383Y1487616D01*
G01X634034Y1483247D01*
G01X621034Y1475765D01*
G01X610048Y1465553D01*
G01X601638Y1453133D01*
G01X596234Y1439141D01*
G01X594113Y1424292D01*
G01X595383Y1409347D01*
G01X525683Y1409347D01*
G01X516082Y1408036D01*
G01X507183Y1404198D01*
G01X498285Y1408036D01*
G01X488683Y1409347D01*
G01X398683Y1409347D01*
G01X389082Y1408036D01*
G01X380183Y1404198D01*
G01X371285Y1408036D01*
G01X361683Y1409347D01*
G01X271683Y1409347D01*
G01X262082Y1408036D01*
G01X253183Y1404198D01*
G01X244285Y1408036D01*
G01X234683Y1409347D01*
G01X144683Y1409347D01*
G01X135082Y1408036D01*
G01X126183Y1404198D01*
G01X117285Y1408036D01*
G01X107683Y1409347D01*
G01X17683Y1409347D01*
G01X8082Y1408036D01*
G01X-817Y1404198D01*
G01X-9715Y1408036D01*
G01X-19317Y1409347D01*
G01X-109317Y1409347D01*
G01X-118918Y1408036D01*
G01X-127817Y1404198D01*
G01X-136715Y1408036D01*
G01X-146317Y1409347D01*
G01X-236317Y1409347D01*
G01X-245918Y1408036D01*
G01X-254817Y1404198D01*
G01X-263715Y1408036D01*
G01X-273317Y1409347D01*
G01X-363317Y1409347D01*
G01X-372918Y1408036D01*
G01X-381817Y1404198D01*
G01X-390715Y1408036D01*
G01X-400317Y1409347D01*
G01X-490317Y1409347D01*
G01X-499918Y1408036D01*
G01X-508817Y1404198D01*
G01X-517715Y1408036D01*
G01X-527317Y1409347D01*
G01X-617317Y1409347D01*
G01X-628384Y1407594D01*
G01X-638367Y1402507D01*
G01X-646291Y1394584D01*
G01X-651378Y1384600D01*
G01X-653131Y1373533D01*
G01X-653131Y1173533D01*
G01X-651378Y1162466D01*
G01X-646291Y1152482D01*
G01X-638367Y1144559D01*
G01X-628384Y1139472D01*
G01X-617317Y1137719D01*
G01X-527317Y1137719D01*
G01X-517715Y1139030D01*
G01X-508817Y1142867D01*
G01X-499918Y1139030D01*
G01X-490317Y1137719D01*
G01X-400317Y1137719D01*
G01X-390715Y1139030D01*
G01X-381817Y1142867D01*
G01X-372918Y1139030D01*
G01X-363317Y1137719D01*
G01X-273317Y1137719D01*
G01X-263715Y1139030D01*
G01X-254817Y1142867D01*
G01X-245918Y1139030D01*
G01X-236317Y1137719D01*
G01X-146317Y1137719D01*
G01X-136715Y1139030D01*
G01X-127817Y1142867D01*
G01X-118918Y1139030D01*
G01X-109317Y1137719D01*
G01X-19317Y1137719D01*
G01X-9715Y1139030D01*
G01X-817Y1142867D01*
G01X8082Y1139030D01*
G01X17683Y1137719D01*
G01X107683Y1137719D01*
G01X117285Y1139030D01*
G01X126183Y1142867D01*
G01X135082Y1139030D01*
G01X144683Y1137719D01*
G01X234683Y1137719D01*
G01X244285Y1139030D01*
G01X253183Y1142867D01*
G01X262082Y1139030D01*
G01X271683Y1137719D01*
G01X361683Y1137719D01*
G01X371285Y1139030D01*
G01X380183Y1142867D01*
G01X389082Y1139030D01*
G01X398683Y1137719D01*
G01X488683Y1137719D01*
G01X498285Y1139030D01*
G01X507183Y1142867D01*
G01X516082Y1139030D01*
G01X525683Y1137719D01*
G01X615683Y1137719D01*
G01X626750Y1139472D01*
G01X636734Y1144559D01*
G01X644657Y1152482D01*
G01X649744Y1162466D01*
G01X651497Y1173533D01*
G01X651497Y1356686D01*
G01X666545Y1356371D01*
G01X681276Y1359458D01*
G01X694932Y1365786D01*
G01X706809Y1375031D01*
G01X763541Y1375031D01*
G01X766095Y1364837D01*
G01X771499Y1355823D01*
G01X779286Y1348766D01*
G01X788786Y1344273D01*
G01X799182Y1342731D01*
G01X999181Y1342731D01*
G01X1010249Y1344484D01*
G01X1020232Y1349571D01*
G01X1028156Y1357494D01*
G01X1033243Y1367478D01*
G01X1034995Y1378545D01*
G01X1034995Y1468545D01*
G01X1033684Y1478147D01*
G01X1029847Y1487045D01*
G01X1033684Y1495944D01*
G01X1034995Y1505545D01*
G01X1034995Y1595545D01*
G01X1033684Y1605147D01*
G01X1029847Y1614045D01*
G01X1033684Y1622944D01*
G01X1034995Y1632545D01*
G01X1034995Y1722545D01*
G01X1033684Y1732147D01*
G01X1029847Y1741045D01*
G01X1033684Y1749944D01*
G01X1034995Y1759545D01*
G01X1034995Y1849545D01*
G01X1033684Y1859147D01*
G01X1029847Y1868045D01*
G01X1033684Y1876944D01*
G01X1034995Y1886545D01*
G01X1034995Y1976545D01*
G01X1033684Y1986147D01*
G01X1029847Y1995045D01*
G01X1033684Y2003944D01*
G01X1034995Y2013545D01*
G01X1034995Y2103545D01*
G01X1033684Y2113147D01*
G01X1029847Y2122045D01*
G01X1033684Y2130944D01*
G01X1034995Y2140545D01*
G01X1034995Y2224128D01*
G01X1044396Y2217082D01*
G01X1055572Y2213456D01*
G01X1055572Y1222427D01*
G01X983093Y1149948D01*
G01X930888Y1149948D01*
G01X919248Y1148003D01*
G01X908872Y1142381D01*
G01X900886Y1133691D01*
G01X892900Y1142381D01*
G01X882524Y1148003D01*
G01X870883Y1149948D01*
G01X790884Y1149948D01*
G01X779816Y1148195D01*
G01X769833Y1143108D01*
G01X761909Y1135185D01*
G01X756822Y1125201D01*
G01X755070Y1114134D01*
G01X755070Y1024134D01*
G01X756822Y1013067D01*
G01X761909Y1003083D01*
G01X769833Y995160D01*
G01X779816Y990073D01*
G01X790884Y988320D01*
G01X821465Y988320D01*
G01X719859Y886714D01*
G01X552044Y886714D01*
G01X549489Y896908D01*
G01X544085Y905922D01*
G01X536298Y912979D01*
G01X526798Y917472D01*
G01X516402Y919014D01*
G01X448649Y919014D01*
G01X422259Y945405D01*
G01X412211Y953114D01*
G01X400510Y957961D01*
G01X387954Y959614D01*
G01X284841Y959614D01*
G01X272285Y957961D01*
G01X260584Y953114D01*
G01X250536Y945405D01*
G01X203070Y897938D01*
G01X148890Y897938D01*
G01X146335Y908132D01*
G01X140932Y917146D01*
G01X133144Y924203D01*
G01X123644Y928696D01*
G01X113248Y930238D01*
G01X61044Y930238D01*
G01X-112157Y1103439D01*
G01X-122204Y1111148D01*
G01X-133905Y1115995D01*
G01X-146461Y1117648D01*
G01X-756871Y1117648D01*
G01X-759425Y1127842D01*
G01X-764829Y1136856D01*
G01X-772616Y1143913D01*
G01X-782116Y1148406D01*
G01X-792512Y1149948D01*
G01X-844716Y1149948D01*
G01X-986373Y1291605D01*
G01X-996421Y1299314D01*
G01X-1008121Y1304161D01*
G01X-1020678Y1305814D01*
G01X-1110490Y1305814D01*
G01X-1122861Y1314912D01*
G01X-1136994Y1320921D01*
G01X-1152129Y1323518D01*
G01X-1167456Y1322564D01*
G01X-1182153Y1318110D01*
G01X-1195431Y1310394D01*
G01X-1206578Y1299832D01*
G01X-1214997Y1286989D01*
G01X-1220236Y1272553D01*
G01X-1222014Y1257300D01*
G01X-1220236Y1242047D01*
G01X-1214997Y1227611D01*
G01X-1206578Y1214768D01*
G01X-1195431Y1204206D01*
G01X-1182153Y1196490D01*
G01X-1167456Y1192036D01*
G01X-1152129Y1191082D01*
G01X-1136994Y1193679D01*
G01X-1122861Y1199688D01*
G01X-1110490Y1208786D01*
G01X-1040773Y1208786D01*
G01X-981935Y1149948D01*
G01X-1012516Y1149948D01*
G01X-1023584Y1148195D01*
G01X-1033567Y1143108D01*
G01X-1041491Y1135185D01*
G01X-1046578Y1125201D01*
G01X-1048330Y1114134D01*
G01X-1048330Y1024134D01*
G01X-1046578Y1013067D01*
G01X-1041491Y1003083D01*
G01X-1033567Y995160D01*
G01X-1023584Y990073D01*
G01X-1012516Y988320D01*
G01X-932517Y988320D01*
G01X-920876Y990265D01*
G01X-910500Y995887D01*
G01X-902514Y1004577D01*
G01X-894528Y995887D01*
G01X-884152Y990265D01*
G01X-872512Y988320D01*
G01X-792512Y988320D01*
G01X-782116Y989862D01*
G01X-772616Y994355D01*
G01X-764829Y1001412D01*
G01X-759425Y1010426D01*
G01X-756871Y1020620D01*
G01X-166557Y1020620D01*
G01X-76175Y930238D01*
G01X-106756Y930238D01*
G01X-117823Y928485D01*
G01X-127807Y923398D01*
G01X-135730Y915475D01*
G01X-140817Y905491D01*
G01X-142570Y894424D01*
G01X-142570Y804424D01*
G01X-140817Y793357D01*
G01X-135730Y783373D01*
G01X-127807Y775450D01*
G01X-117823Y770363D01*
G01X-106756Y768610D01*
G01X-26756Y768610D01*
G01X-15116Y770555D01*
G01X-4740Y776177D01*
G01X3246Y784867D01*
G01X11232Y776177D01*
G01X21608Y770555D01*
G01X33249Y768610D01*
G01X113248Y768610D01*
G01X123644Y770152D01*
G01X133144Y774645D01*
G01X140932Y781702D01*
G01X146335Y790716D01*
G01X148890Y800910D01*
G01X223165Y800910D01*
G01X235721Y802563D01*
G01X247422Y807410D01*
G01X257470Y815119D01*
G01X260584Y818233D01*
G01X260584Y793200D01*
G01X262337Y782133D01*
G01X267424Y772149D01*
G01X275347Y764226D01*
G01X285331Y759139D01*
G01X296398Y757386D01*
G01X376398Y757386D01*
G01X388038Y759331D01*
G01X398414Y764953D01*
G01X406400Y773643D01*
G01X412198Y766803D01*
G01X419514Y761618D01*
G01X427888Y758413D01*
G01X427888Y693330D01*
G01X418930Y690687D01*
G01X410959Y685818D01*
G01X404130Y690157D01*
G01X396501Y692852D01*
G01X388463Y693765D01*
G01X308463Y693765D01*
G01X297396Y692013D01*
G01X287412Y686926D01*
G01X279489Y679002D01*
G01X274402Y669019D01*
G01X272649Y657951D01*
G01X272649Y508779D01*
G01X123476Y508779D01*
G01X112409Y507026D01*
G01X102425Y501939D01*
G01X94502Y494015D01*
G01X89415Y484032D01*
G01X87662Y472965D01*
G01X87662Y392965D01*
G01X88576Y384926D01*
G01X91271Y377297D01*
G01X95609Y370468D01*
G01X91271Y363639D01*
G01X88576Y356010D01*
G01X87662Y347971D01*
G01X87662Y267971D01*
G01X88576Y259932D01*
G01X91271Y252304D01*
G01X95609Y245474D01*
G01X91271Y238645D01*
G01X88576Y231017D01*
G01X87662Y222978D01*
G01X87662Y142978D01*
G01X88577Y134934D01*
G01X91275Y127300D01*
G01X95620Y120468D01*
G01X91275Y113636D01*
G01X88577Y106003D01*
G01X87662Y97959D01*
G01X87662Y17959D01*
G01X88576Y9920D01*
G01X91271Y2291D01*
G01X95609Y-4538D01*
G01X91271Y-11367D01*
G01X88576Y-18996D01*
G01X87662Y-27034D01*
G01X87662Y-107034D01*
G01X89415Y-118101D01*
G01X94502Y-128085D01*
G01X102425Y-136008D01*
G01X112409Y-141095D01*
G01X123476Y-142848D01*
G01X272649Y-142848D01*
G01X272649Y-292047D01*
G01X274402Y-303114D01*
G01X279489Y-313098D01*
G01X287412Y-321021D01*
G01X297396Y-326108D01*
G01X308463Y-327861D01*
G01X388463Y-327861D01*
G01X396501Y-326947D01*
G01X404130Y-324252D01*
G01X410959Y-319913D01*
G01X417569Y-324144D01*
G01X424942Y-326834D01*
G01X424942Y-390969D01*
G01X414461Y-396595D01*
G01X406400Y-405343D01*
G01X398414Y-396653D01*
G01X388038Y-391031D01*
G01X376398Y-389086D01*
G01X296398Y-389086D01*
G01X285331Y-390839D01*
G01X275347Y-395926D01*
G01X267424Y-403849D01*
G01X262337Y-413833D01*
G01X260584Y-424900D01*
G01X260584Y-514900D01*
G01X262337Y-525967D01*
G01X267424Y-535951D01*
G01X275347Y-543874D01*
G01X285331Y-548961D01*
G01X296398Y-550714D01*
G01X376398Y-550714D01*
G01X388038Y-548769D01*
G01X398414Y-543147D01*
G01X406400Y-534457D01*
G01X412198Y-541297D01*
G01X419514Y-546482D01*
G01X427888Y-549687D01*
G01X427888Y-1154867D01*
G01X418682Y-1164836D01*
G01X411792Y-1176526D01*
G01X407529Y-1189408D01*
G01X406086Y-1202901D01*
G01X406086Y-1271402D01*
G01X286605Y-1390884D01*
G01X234400Y-1390884D01*
G01X223333Y-1392637D01*
G01X213349Y-1397724D01*
G01X205426Y-1405647D01*
G01X200339Y-1415631D01*
G01X198586Y-1426698D01*
G01X198586Y-1456588D01*
G01X-161513Y-1456588D01*
G01X-164718Y-1448214D01*
G01X-169903Y-1440898D01*
G01X-176743Y-1435100D01*
G01X-168053Y-1427114D01*
G01X-162431Y-1416738D01*
G01X-160486Y-1405098D01*
G01X-160486Y-1325098D01*
G01X-162239Y-1314031D01*
G01X-167326Y-1304047D01*
G01X-175249Y-1296124D01*
G01X-185233Y-1291037D01*
G01X-196300Y-1289284D01*
G01X-286300Y-1289284D01*
G01X-298010Y-1291252D01*
G01X-308432Y-1296941D01*
G01X-316422Y-1305725D01*
G01X-320694Y-1293218D01*
G01X-327361Y-1281807D01*
G01X-336159Y-1271945D01*
G01X-346738Y-1264023D01*
G01X-358677Y-1258356D01*
G01X-371504Y-1255169D01*
G01X-384707Y-1254590D01*
G01X-397763Y-1256640D01*
G01X-410154Y-1261238D01*
G01X-421386Y-1268202D01*
G01X-421386Y-225544D01*
G01X-423039Y-212988D01*
G01X-427886Y-201287D01*
G01X-435595Y-191240D01*
G01X-443028Y-183808D01*
G01X-447386Y-175980D01*
G01X-453109Y-169087D01*
G01X-503920Y-118276D01*
G01X-510813Y-112553D01*
G01X-518641Y-108195D01*
G01X-531753Y-95082D01*
G01X-527193Y-83684D01*
G01X-525640Y-71507D01*
G01X-525640Y-61214D01*
G01X-489710Y-61214D01*
G01X-477339Y-70312D01*
G01X-463206Y-76321D01*
G01X-448071Y-78918D01*
G01X-432744Y-77964D01*
G01X-418047Y-73510D01*
G01X-404769Y-65794D01*
G01X-393622Y-55232D01*
G01X-385203Y-42389D01*
G01X-379964Y-27953D01*
G01X-378186Y-12700D01*
G01X-379964Y2553D01*
G01X-385203Y16989D01*
G01X-393622Y29832D01*
G01X-404769Y40394D01*
G01X-418047Y48110D01*
G01X-432744Y52564D01*
G01X-448071Y53518D01*
G01X-463206Y50921D01*
G01X-477339Y44912D01*
G01X-489710Y35814D01*
G01X-525481Y35814D01*
G01X-532879Y47235D01*
G01X-542897Y56445D01*
G01X-554898Y62859D01*
G01X-568122Y66070D01*
G01X-581728Y65874D01*
G01X-594854Y62284D01*
G01X-606666Y55527D01*
G01X-617782Y61989D01*
G01X-604424Y75347D01*
G01X-552219Y75347D01*
G01X-541152Y77100D01*
G01X-531169Y82187D01*
G01X-523245Y90110D01*
G01X-518158Y100094D01*
G01X-516405Y111161D01*
G01X-516405Y201161D01*
G01X-518158Y212228D01*
G01X-523245Y222212D01*
G01X-531169Y230135D01*
G01X-541152Y235222D01*
G01X-552219Y236975D01*
G01X-632219Y236975D01*
G01X-643860Y235031D01*
G01X-654236Y229408D01*
G01X-662222Y220718D01*
G01X-670207Y229408D01*
G01X-680584Y235031D01*
G01X-692224Y236975D01*
G01X-772224Y236975D01*
G01X-783291Y235222D01*
G01X-793275Y230135D01*
G01X-801198Y222212D01*
G01X-806285Y212228D01*
G01X-808038Y201161D01*
G01X-808038Y111161D01*
G01X-806285Y100094D01*
G01X-801198Y90110D01*
G01X-793275Y82187D01*
G01X-783291Y77100D01*
G01X-772224Y75347D01*
G01X-741375Y75347D01*
G01X-745731Y69241D01*
G01X-749093Y62536D01*
G01X-761800Y65902D01*
G01X-774944Y66099D01*
G01X-787746Y63115D01*
G01X-799448Y57127D01*
G01X-809357Y48490D01*
G01X-816886Y37715D01*
G01X-821590Y25441D01*
G01X-823189Y12393D01*
G01X-823189Y-27906D01*
G01X-821251Y-42246D01*
G01X-815575Y-55557D01*
G01X-806569Y-66883D01*
G01X-794880Y-75412D01*
G01X-781345Y-80532D01*
G01X-766938Y-81874D01*
G01X-752690Y-79344D01*
G01X-752690Y-174125D01*
G01X-752131Y-181472D01*
G01X-750465Y-188650D01*
G01X-763076Y-185652D01*
G01X-776038Y-185744D01*
G01X-788605Y-188922D01*
G01X-800053Y-195003D01*
G01X-809723Y-203636D01*
G01X-817057Y-214324D01*
G01X-821634Y-226452D01*
G01X-823189Y-239321D01*
G01X-823189Y-279620D01*
G01X-821539Y-292870D01*
G01X-816689Y-305310D01*
G01X-808935Y-316181D01*
G01X-798752Y-324817D01*
G01X-786762Y-330691D01*
G01X-784581Y-333020D01*
G01X-781745Y-335856D01*
G01X-781745Y-348252D01*
G01X-791894Y-352472D01*
G01X-800285Y-359572D01*
G01X-806128Y-368881D01*
G01X-808872Y-379525D01*
G01X-821739Y-379525D01*
G01X-834295Y-381178D01*
G01X-845996Y-386025D01*
G01X-856043Y-393734D01*
G01X-904036Y-441727D01*
G01X-919136Y-444019D01*
G01X-933312Y-449705D01*
G01X-945810Y-458484D01*
G01X-955969Y-469889D01*
G01X-1074082Y-351775D01*
G01X-1084129Y-344066D01*
G01X-1095830Y-339219D01*
G01X-1108386Y-337566D01*
G01X-1130525Y-337566D01*
G01X-1144757Y-323333D01*
G01X-1138667Y-302251D01*
G01X-1136490Y-280414D01*
G01X-1138300Y-258544D01*
G01X-1144036Y-237362D01*
G01X-1153508Y-217567D01*
G01X-1166405Y-199813D01*
G01X-1182301Y-184684D01*
G01X-1200672Y-172680D01*
G01X-1220911Y-164197D01*
G01X-1242350Y-159515D01*
G01X-1264283Y-158788D01*
G01X-1285985Y-162041D01*
G01X-1306741Y-169166D01*
G01X-1325866Y-179928D01*
G01X-1342728Y-193972D01*
G01X-1356772Y-210834D01*
G01X-1367534Y-229959D01*
G01X-1374659Y-250715D01*
G01X-1377912Y-272417D01*
G01X-1377185Y-294350D01*
G01X-1372503Y-315789D01*
G01X-1364020Y-336028D01*
G01X-1352016Y-354399D01*
G01X-1336887Y-370295D01*
G01X-1319133Y-383192D01*
G01X-1299338Y-392664D01*
G01X-1278156Y-398400D01*
G01X-1256286Y-400210D01*
G01X-1234449Y-398033D01*
G01X-1213367Y-391943D01*
G01X-1198909Y-406400D01*
G01X-1213367Y-420857D01*
G01X-1234449Y-414767D01*
G01X-1256286Y-412590D01*
G01X-1278156Y-414400D01*
G01X-1299338Y-420136D01*
G01X-1319133Y-429608D01*
G01X-1336887Y-442505D01*
G01X-1352016Y-458401D01*
G01X-1364020Y-476772D01*
G01X-1372503Y-497011D01*
G01X-1377185Y-518450D01*
G01X-1377912Y-540383D01*
G01X-1374659Y-562085D01*
G01X-1367534Y-582841D01*
G01X-1356772Y-601966D01*
G01X-1342728Y-618828D01*
G01X-1325866Y-632872D01*
G01X-1306741Y-643634D01*
G01X-1285985Y-650759D01*
G01X-1264283Y-654012D01*
G01X-1242350Y-653285D01*
G01X-1220911Y-648603D01*
G01X-1200672Y-640120D01*
G01X-1182301Y-628116D01*
G01X-1166405Y-612987D01*
G01X-1153508Y-595233D01*
G01X-1144036Y-575438D01*
G01X-1138300Y-554256D01*
G01X-1136490Y-532386D01*
G01X-1138667Y-510549D01*
G01X-1144757Y-489467D01*
G01X-1137920Y-482629D01*
G01X-847105Y-773445D01*
G01X-837057Y-781154D01*
G01X-825356Y-786001D01*
G01X-812800Y-787654D01*
G01X-790662Y-787654D01*
G01X-787091Y-791225D01*
G01X-777734Y-798528D01*
G01X-766884Y-803341D01*
G01X-756016Y-812293D01*
G01X-743502Y-818748D01*
G01X-729908Y-822417D01*
G01X-715846Y-823132D01*
G01X-701949Y-820862D01*
G01X-688846Y-815710D01*
G01X-677125Y-807907D01*
G01X-667316Y-797805D01*
G01X-659861Y-785860D01*
G01X-655096Y-772611D01*
G01X-653235Y-758654D01*
G01X-654364Y-744619D01*
G01X-658430Y-731138D01*
G01X-665250Y-718820D01*
G01X-658430Y-706502D01*
G01X-654364Y-693021D01*
G01X-653235Y-678986D01*
G01X-655096Y-665029D01*
G01X-659861Y-651780D01*
G01X-667316Y-639835D01*
G01X-677125Y-629733D01*
G01X-688846Y-621930D01*
G01X-701949Y-616778D01*
G01X-715846Y-614508D01*
G01X-729908Y-615223D01*
G01X-743502Y-618892D01*
G01X-756016Y-625347D01*
G01X-766884Y-634299D01*
G01X-775372Y-637784D01*
G01X-783053Y-642805D01*
G01X-863589Y-562269D01*
G01X-852184Y-552110D01*
G01X-843405Y-539612D01*
G01X-837719Y-525436D01*
G01X-835427Y-510336D01*
G01X-807734Y-482643D01*
G01X-802864Y-493152D01*
G01X-794896Y-501557D01*
G01X-784661Y-506980D01*
G01X-773231Y-508853D01*
G01X-693231Y-508853D01*
G01X-681591Y-506908D01*
G01X-671215Y-501286D01*
G01X-663229Y-492596D01*
G01X-655243Y-501286D01*
G01X-644867Y-506908D01*
G01X-633226Y-508853D01*
G01X-559054Y-508853D01*
G01X-559054Y-1238558D01*
G01X-596225Y-1275728D01*
G01X-602855Y-1275728D01*
G01X-608556Y-1270028D01*
G01X-618601Y-1262319D01*
G01X-630300Y-1257473D01*
G01X-639245Y-1252139D01*
G01X-649122Y-1248836D01*
G01X-659476Y-1247719D01*
G01X-707857Y-1247719D01*
G01X-718211Y-1248836D01*
G01X-728088Y-1252139D01*
G01X-737033Y-1257473D01*
G01X-748731Y-1262319D01*
G01X-758777Y-1270028D01*
G01X-776371Y-1287622D01*
G01X-784081Y-1297670D01*
G01X-788928Y-1309370D01*
G01X-790581Y-1321927D01*
G01X-790581Y-1425826D01*
G01X-793329Y-1416654D01*
G01X-797826Y-1408201D01*
G01X-803895Y-1400795D01*
G01X-835911Y-1368779D01*
G01X-835911Y-1324640D01*
G01X-837664Y-1313573D01*
G01X-842751Y-1303590D01*
G01X-850675Y-1295666D01*
G01X-860658Y-1290579D01*
G01X-871725Y-1288826D01*
G01X-923930Y-1288826D01*
G01X-1136486Y-1076270D01*
G01X-1136486Y-956400D01*
G01X-1138239Y-945333D01*
G01X-1143326Y-935349D01*
G01X-1151249Y-927426D01*
G01X-1161233Y-922339D01*
G01X-1172300Y-920586D01*
G01X-1342300Y-920586D01*
G01X-1353367Y-922339D01*
G01X-1363351Y-927426D01*
G01X-1371274Y-935349D01*
G01X-1376361Y-945333D01*
G01X-1378114Y-956400D01*
G01X-1378114Y-1105977D01*
G01X-1386586Y-1097505D01*
G01X-1386586Y-787400D01*
G01X-1378114Y-787400D01*
G01X-1376278Y-808379D01*
G01X-1370828Y-828721D01*
G01X-1361928Y-847807D01*
G01X-1349849Y-865058D01*
G01X-1334958Y-879949D01*
G01X-1317707Y-892028D01*
G01X-1298621Y-900928D01*
G01X-1278279Y-906378D01*
G01X-1257300Y-908214D01*
G01X-1257300Y-908214D01*
G01X-1236321Y-906378D01*
G01X-1215979Y-900928D01*
G01X-1196893Y-892028D01*
G01X-1179642Y-879949D01*
G01X-1164751Y-865058D01*
G01X-1152672Y-847807D01*
G01X-1143772Y-828721D01*
G01X-1138322Y-808379D01*
G01X-1136486Y-787400D01*
G01X-1138322Y-766421D01*
G01X-1143772Y-746079D01*
G01X-1152672Y-726993D01*
G01X-1164751Y-709742D01*
G01X-1179642Y-694851D01*
G01X-1196893Y-682772D01*
G01X-1215979Y-673872D01*
G01X-1236321Y-668422D01*
G01X-1257300Y-666586D01*
G01X-1278279Y-668422D01*
G01X-1298621Y-673872D01*
G01X-1317707Y-682772D01*
G01X-1334958Y-694851D01*
G01X-1349849Y-709742D01*
G01X-1361928Y-726993D01*
G01X-1370828Y-746079D01*
G01X-1376278Y-766421D01*
G01X-1378114Y-787400D01*
G01X-1386586Y-787400D01*
G01X-1386586Y-223295D01*
G01X-1301233Y-137943D01*
G37*
G36*
G01X172001Y2545510D02*
G01X170248Y2556577D01*
G01X165161Y2566561D01*
G01X157238Y2574484D01*
G01X147254Y2579571D01*
G01X136187Y2581324D01*
G01X-273812Y2581324D01*
G01X-284879Y2579571D01*
G01X-294863Y2574484D01*
G01X-302786Y2566561D01*
G01X-307873Y2556577D01*
G01X-309626Y2545510D01*
G01X-309626Y2200478D01*
G01X-328998Y2219850D01*
G01X-339046Y2227560D01*
G01X-350747Y2232406D01*
G01X-363303Y2234059D01*
G01X-765174Y2234059D01*
G01X-766825Y2241830D01*
G01X-770149Y2249045D01*
G01X-766312Y2257944D01*
G01X-765001Y2267545D01*
G01X-765001Y2357545D01*
G01X-766312Y2367147D01*
G01X-770149Y2376045D01*
G01X-766312Y2384944D01*
G01X-765001Y2394545D01*
G01X-765001Y2484545D01*
G01X-766312Y2494147D01*
G01X-770149Y2503045D01*
G01X-766312Y2511944D01*
G01X-765001Y2521545D01*
G01X-765001Y2611545D01*
G01X-766312Y2621147D01*
G01X-770149Y2630045D01*
G01X-766312Y2638944D01*
G01X-765001Y2648545D01*
G01X-765001Y2738545D01*
G01X-766312Y2748147D01*
G01X-770149Y2757045D01*
G01X-766312Y2765944D01*
G01X-765001Y2775545D01*
G01X-765001Y2865545D01*
G01X-766312Y2875147D01*
G01X-770149Y2884045D01*
G01X-766312Y2892944D01*
G01X-765001Y2902545D01*
G01X-765001Y2925959D01*
G01X614653Y2925959D01*
G01X627209Y2927612D01*
G01X638910Y2932459D01*
G01X648958Y2940169D01*
G01X763368Y3054579D01*
G01X763368Y3029545D01*
G01X764679Y3019944D01*
G01X768516Y3011045D01*
G01X764679Y3002147D01*
G01X763368Y2992545D01*
G01X763368Y2935459D01*
G01X753321Y2927750D01*
G01X172001Y2346430D01*
G01X172001Y2545510D01*
G37*
G36*
G01X-559054Y-347225D02*
G01X-633226Y-347225D01*
G01X-638343Y-347592D01*
G01X-623771Y-333020D01*
G01X-621591Y-330691D01*
G01X-613816Y-327310D01*
G01X-606666Y-322754D01*
G01X-595862Y-329080D01*
G01X-583892Y-332750D01*
G01X-571399Y-333564D01*
G01X-559054Y-331481D01*
G01X-559054Y-347225D01*
G37*
G36*
G01X-332486Y-1366010D02*
G01X-326798Y-1359006D01*
G01X-322114Y-1351296D01*
G01X-322114Y-1386129D01*
G01X-335054Y-1386129D01*
G01X-333132Y-1378447D01*
G01X-332486Y-1370555D01*
G01X-332486Y-1366010D01*
G37*
G36*
G01X25182Y-2644928D02*
G01X75911Y-2644928D01*
G01X125092Y-2694109D01*
G01X125092Y-2990013D01*
G01X108508Y-2990013D01*
G01X100798Y-2979966D01*
G01X84455Y-2963622D01*
G01X74407Y-2955912D01*
G01X62706Y-2951066D01*
G01X50150Y-2949413D01*
G01X22120Y-2949413D01*
G01X22120Y-2901312D01*
G01X20467Y-2888756D01*
G01X15621Y-2877055D01*
G01X7911Y-2867007D01*
G01X-78967Y-2780130D01*
G01X-64429Y-2772715D01*
G01X-52141Y-2761975D01*
G01X-42847Y-2748560D01*
G01X-37108Y-2733283D01*
G01X-35272Y-2717067D01*
G01X-37450Y-2700893D01*
G01X-43510Y-2685741D01*
G01X-53086Y-2672526D01*
G01X-54056Y-2662810D01*
G01X-56952Y-2653485D01*
G01X-61656Y-2644928D01*
G01X-44843Y-2644928D01*
G01X-35229Y-2643614D01*
G01X-26321Y-2639767D01*
G01X-18773Y-2633670D01*
G01X-13138Y-2625770D01*
G01X-9830Y-2616648D01*
G01X-6523Y-2625770D01*
G01X-888Y-2633670D01*
G01X6660Y-2639767D01*
G01X15568Y-2643614D01*
G01X25182Y-2644928D01*
G37*
G54D10*
G01X-1103415Y-3645629D02*
G03X-1099847Y-3661212I35814J0D01*
G01X-1464186Y-3661212D01*
G01X-1464186Y-1157123D01*
G01X-777473Y-1843836D01*
G03X-664309Y-1888391I66273J2336D01*
G03X-708864Y-1775227I-46891J46891D01*
G01X-903632Y-1580459D01*
G01X-871725Y-1580459D01*
G03X-835911Y-1544645I0J35814D01*
G01X-835911Y-1544098D01*
G01X-780751Y-1599258D01*
G03X-746447Y-1613467I34305J34305D01*
G01X-415378Y-1613467D01*
G03X-381073Y-1599258I0J48514D01*
G01X-335432Y-1553616D01*
G01X-321087Y-1553616D01*
G03X-286300Y-1580916I34787J8514D01*
G01X-196300Y-1580916D01*
G03X-161513Y-1553616I0J35814D01*
G01X201062Y-1553616D01*
G03X198586Y-1566702I33338J-13086D01*
G01X198586Y-1646702D01*
G03X234400Y-1682516I35814J0D01*
G01X324400Y-1682516D01*
G03X360214Y-1646702I0J35814D01*
G01X360214Y-1566702D01*
G03X343957Y-1536700I-35814J0D01*
G03X359187Y-1515212I-19557J30002D01*
G01X608402Y-1515212D01*
G01X633870Y-1540679D01*
G03X579449Y-1594653I10900J-65412D01*
G03X528017Y-1638884I11438J-65320D01*
G03X542374Y-1705183I62871J-21089D01*
G01X542374Y-1744246D01*
G03X533400Y-1771078I54526J-33152D01*
G03X406086Y-1777398I-63500J-6320D01*
G01X406086Y-1895899D01*
G03X533400Y-1902219I63814J0D01*
G03X660400Y-1902219I63500J6320D01*
G03X787400Y-1902219I63500J6320D01*
G03X802386Y-1937355I63500J6320D01*
G01X802386Y-2057726D01*
G01X568935Y-2057726D01*
G03X533121Y-2093540I0J-35814D01*
G01X533121Y-2203540D01*
G03X568935Y-2239354I35814J0D01*
G01X764509Y-2239354D01*
G01X716140Y-2287723D01*
G01X568935Y-2287723D01*
G03X533121Y-2323537I0J-35814D01*
G01X533121Y-2433537D01*
G03X568935Y-2469351I35814J0D01*
G01X818935Y-2469351D01*
G03X854749Y-2433537I0J35814D01*
G01X854749Y-2427051D01*
G01X1135113Y-2427051D01*
G01X1135113Y-2558537D01*
G03X1170927Y-2594351I35814J0D01*
G01X1404927Y-2594351D01*
G03X1440741Y-2558537I0J35814D01*
G01X1440741Y-2198537D01*
G03X1404927Y-2162723I-35814J0D01*
G01X1170927Y-2162723D01*
G03X1135113Y-2198537I0J-35814D01*
G01X1135113Y-2330023D01*
G01X854749Y-2330023D01*
G01X854749Y-2323537D01*
G03X843554Y-2297527I-35814J0D01*
G01X885205Y-2255877D01*
G03X899414Y-2221572I-34305J34305D01*
G01X899414Y-1937355D01*
G03X914400Y-1902219I-48514J41456D01*
G03X929386Y-1937355I63500J6320D01*
G01X929386Y-2022979D01*
G03X936989Y-2049054I48514J0D01*
G03X1041400Y-2102656I66311J675D01*
G03X1145811Y-2049054I38100J54276D01*
G03X1153414Y-2022979I-40911J26075D01*
G01X1153414Y-1937355D01*
G03X1168400Y-1902219I-48514J41456D01*
G03X1295400Y-1902219I63500J6320D01*
G03X1422714Y-1895899I63500J6320D01*
G01X1422714Y-1777398D01*
G03X1295400Y-1771078I-63814J0D01*
G03X1168400Y-1771078I-63500J-6320D01*
G03X1041400Y-1771078I-63500J-6320D01*
G03X914400Y-1771078I-63500J-6320D01*
G03X899414Y-1735942I-63500J-6320D01*
G01X899414Y-1689100D01*
G03X885205Y-1654795I-48514J0D01*
G01X662802Y-1432393D01*
G03X628498Y-1418184I-34305J-34305D01*
G01X396523Y-1418184D01*
G01X438023Y-1376684D01*
G03X533400Y-1327722I31877J55282D01*
G03X660400Y-1327722I63500J6320D01*
G03X787400Y-1327722I63500J6320D01*
G03X914400Y-1327722I63500J6320D01*
G03X1041400Y-1327722I63500J6320D01*
G03X1168400Y-1327722I63500J6320D01*
G03X1295400Y-1327722I63500J6320D01*
G03X1422714Y-1321402I63500J6320D01*
G01X1422714Y-1202901D01*
G03X1295400Y-1196581I-63814J0D01*
G03X1168400Y-1196581I-63500J-6320D01*
G03X1041400Y-1196581I-63500J-6320D01*
G03X914400Y-1196581I-63500J-6320D01*
G03X787400Y-1196581I-63500J-6320D01*
G03X660400Y-1196581I-63500J-6320D01*
G03X533400Y-1196581I-63500J-6320D01*
G03X524916Y-1170568I-63500J-6320D01*
G01X524916Y-549687D01*
G03X552044Y-518414I-8514J34787D01*
G01X1176818Y-518414D01*
G03X1412952Y-523186I118582J23114D01*
G03X1199835Y-421386I-117552J27886D01*
G01X915499Y-421386D01*
G03X853236Y-340127I-64599J14986D01*
G01X840970Y-327861D01*
G01X888462Y-327861D01*
G03X924276Y-292047I0J35814D01*
G01X924276Y-289814D01*
G01X1184755Y-289814D01*
G03X1407017Y-287533I110645J48514D01*
G03X1251467Y-128757I-111617J46233D01*
G01X1223700Y-100991D01*
G01X1223700Y-84538D01*
G03X1399986Y-47780I71700J97238D01*
G03X1343914Y123345I-104586J60480D01*
G01X1343914Y2278338D01*
G03X1329705Y2312643I-48514J0D01*
G01X1257049Y2385298D01*
G01X1257049Y2610388D01*
G03X1242839Y2644693I-48514J0D01*
G01X1201073Y2686460D01*
G03X1166768Y2700669I-34305J-34305D01*
G01X1155088Y2700669D01*
G01X1155088Y2748059D01*
G03X1185588Y2783477I-5314J35418D01*
G01X1185588Y2864124D01*
G03X1157308Y2899137I-35814J0D01*
G03X1185588Y2934149I-7534J35013D01*
G01X1185588Y3014797D01*
G03X1149774Y3050611I-35814J0D01*
G01X1099045Y3050611D01*
G01X1075596Y3074061D01*
G01X1075596Y3131102D01*
G03X1061386Y3165406I-48514J0D01*
G01X1045043Y3181750D01*
G03X1010738Y3195959I-34305J-34305D01*
G01X787625Y3195959D01*
G03X753321Y3181750I0J-48514D01*
G01X594558Y3022987D01*
G01X-765607Y3022987D01*
G03X-765001Y3029545I-35208J6558D01*
G01X-765001Y3119545D01*
G03X-800815Y3155359I-35814J0D01*
G01X-1000815Y3155359D01*
G03X-1036629Y3119545I0J-35814D01*
G01X-1036629Y3029545D01*
G03X-1031480Y3011045I35814J0D01*
G03X-1034290Y3005274I30666J-18500D01*
G01X-1079309Y3005274D01*
G03X-1114174Y3032898I-34865J-8190D01*
G01X-1200574Y3032898D01*
G03X-1236388Y2997084I0J-35814D01*
G01X-1236388Y2916437D01*
G03X-1208108Y2881424I35814J0D01*
G03X-1236388Y2846411I7534J-35013D01*
G01X-1236388Y2765764D01*
G03X-1232239Y2749031I35814J0D01*
G01X-1431305Y2549966D01*
G03X-1445514Y2515661I34305J-34305D01*
G01X-1445514Y114300D01*
G03X-1431305Y79995I48514J0D01*
G01X-1369843Y18533D01*
G03X-1369843Y-69333I112543J-43933D01*
G01X-1464186Y-163677D01*
G01X-1464186Y3251160D01*
G01X1464186Y3251160D01*
G01X1464186Y-3661212D01*
G01X1104675Y-3661212D01*
G01X1104675Y-3467375D01*
G03X1068861Y-3431561I-35814J0D01*
G01X917660Y-3431561D01*
G03X881846Y-3467375I0J-35814D01*
G01X881846Y-3661212D01*
G01X496813Y-3661212D01*
G03X516417Y-3606619I-66210J54592D01*
G01X516417Y-3526620D01*
G03X344789Y-3526620I-85814J0D01*
G01X344789Y-3606619D01*
G03X364394Y-3661212I85814J0D01*
G01X-367194Y-3661212D01*
G03X-347589Y-3606619I-66210J54592D01*
G01X-347589Y-3526620D01*
G03X-488752Y-3461041I-85814J0D01*
G01X-488752Y-3421653D01*
G03X-517033Y-3386640I-35814J0D01*
G03X-488752Y-3351628I-7534J35013D01*
G01X-488752Y-3330051D01*
G01X-247660Y-3330051D01*
G03X-213355Y-3315842I0J48514D01*
G01X-125153Y-3227639D01*
G03X-116298Y-3239788I43159J22156D01*
G01X94499Y-3450585D01*
G03X128803Y-3464794I34305J34305D01*
G01X208301Y-3464794D01*
G03X224118Y-3462143I-0J48514D01*
G03X286372Y-3428538I4482J66162D01*
G03X282876Y-3357880I-57772J32558D01*
G03X230936Y-3253507I-54276J38100D01*
G01X169070Y-3191641D01*
G01X188606Y-3191641D01*
G03X198605Y-3190216I0J35814D01*
G03X208605Y-3191641I9999J34390D01*
G01X219646Y-3191641D01*
G03X268507Y-3264215I67955J-6984D01*
G03X348687Y-3229206I19094J65591D01*
G03X516417Y-3203637I81916J25569D01*
G01X516417Y-3093637D01*
G03X384140Y-3021490I-85814J0D01*
G03X348589Y-2990013I-35550J-4336D01*
G01X288589Y-2990013D01*
G01X287119Y-2990043D01*
G01X287119Y-2930286D01*
G03X290530Y-2930449I3411J35651D01*
G01X370530Y-2930449D01*
G03X406344Y-2894635I0J35814D01*
G01X406344Y-2814635D01*
G03X370530Y-2778821I-35814J0D01*
G01X290530Y-2778821D01*
G03X287119Y-2778984I0J-35814D01*
G01X287119Y-2725660D01*
G01X323325Y-2689453D01*
G01X370530Y-2689453D01*
G03X405317Y-2662153I0J35814D01*
G01X533121Y-2662153D01*
G01X533121Y-2663534D01*
G03X568935Y-2699348I35814J0D01*
G01X818935Y-2699348D01*
G03X854749Y-2663534I0J35814D01*
G01X854749Y-2553534D01*
G03X818935Y-2517720I-35814J0D01*
G01X568935Y-2517720D01*
G03X533121Y-2553534I0J-35814D01*
G01X533121Y-2565125D01*
G01X405317Y-2565125D01*
G03X379044Y-2538852I-34787J-8514D01*
G01X379044Y-2354986D01*
G03X364834Y-2320681I-48514J0D01*
G01X291492Y-2247339D01*
G01X291492Y-2034840D01*
G03X255678Y-1999026I-35814J0D01*
G01X115010Y-1999026D01*
G03X79196Y-2034840I0J-35814D01*
G01X79196Y-2384760D01*
G03X115010Y-2420574I35814J0D01*
G01X255678Y-2420574D01*
G03X282016Y-2409029I0J35814D01*
G01X282016Y-2538852D01*
G03X254716Y-2573640I8514J-34787D01*
G01X254716Y-2620844D01*
G01X218907Y-2656653D01*
G03X207911Y-2639709I-45301J-17361D01*
G01X141644Y-2573443D01*
G01X141644Y-2522714D01*
G03X105830Y-2486900I-35814J0D01*
G01X25182Y-2486900D01*
G03X-9830Y-2515180I0J-35814D01*
G03X-44843Y-2486900I-35013J-7534D01*
G01X-61656Y-2486900D01*
G03X-53086Y-2459367I-39944J27533D01*
G01X-53086Y-2293544D01*
G03X-67295Y-2259239I-48514J0D01*
G01X-79196Y-2247339D01*
G01X-79196Y-2034840D01*
G03X-115010Y-1999026I-35814J0D01*
G01X-255678Y-1999026D01*
G03X-291492Y-2034840I0J-35814D01*
G01X-291492Y-2102477D01*
G01X-375990Y-2102477D01*
G01X-375990Y-2015890D01*
G03X-411804Y-1980076I-35814J0D01*
G01X-465004Y-1980076D01*
G03X-485902Y-1986805I0J-35814D01*
G03X-506800Y-1980076I-20898J-29085D01*
G01X-560000Y-1980076D01*
G03X-580898Y-1986805I0J-35814D01*
G03X-601796Y-1980076I-20898J-29085D01*
G01X-654996Y-1980076D01*
G03X-690810Y-2015890I0J-35814D01*
G01X-690810Y-2123091D01*
G03X-654996Y-2158905I35814J0D01*
G01X-601796Y-2158905D01*
G03X-580898Y-2152175I0J35814D01*
G03X-560000Y-2158905I20898J29085D01*
G01X-534918Y-2158905D01*
G03X-527209Y-2168952I42014J24257D01*
G01X-526866Y-2169295D01*
G01X-571557Y-2169295D01*
G03X-605861Y-2183505I0J-48514D01*
G01X-622205Y-2199848D01*
G03X-629914Y-2209895I34305J-34305D01*
G01X-654996Y-2209895D01*
G03X-690810Y-2245709I0J-35814D01*
G01X-690810Y-2352910D01*
G03X-654996Y-2388724I35814J0D01*
G01X-601796Y-2388724D01*
G03X-580898Y-2381995I0J35814D01*
G03X-560000Y-2388724I20898J29085D01*
G01X-506800Y-2388724D01*
G03X-486918Y-2382698I0J35814D01*
G01X-486918Y-2596896D01*
G03X-472709Y-2631201I48514J0D01*
G01X-124714Y-2979195D01*
G01X-124714Y-2990013D01*
G01X-141393Y-2990013D01*
G03X-151400Y-2991439I0J-35814D01*
G03X-161406Y-2990013I-10006J-34388D01*
G01X-191406Y-2990013D01*
G03X-201405Y-2991437I0J-35814D01*
G03X-211405Y-2990013I-9999J-34390D01*
G01X-271405Y-2990013D01*
G03X-281410Y-2991439I0J-35814D01*
G03X-291415Y-2990013I-10005J-34388D01*
G01X-351415Y-2990013D01*
G03X-386963Y-3021475I0J-35814D01*
G03X-519217Y-3093637I-46440J-72162D01*
G01X-519217Y-3203637D01*
G03X-514029Y-3233023I85814J0D01*
G01X-538000Y-3233023D01*
G03X-552260Y-3235166I0J-48514D01*
G01X-610967Y-3235166D01*
G03X-646781Y-3270980I0J-35814D01*
G01X-646781Y-3351628D01*
G03X-618501Y-3386640I35814J0D01*
G03X-646781Y-3421653I7534J-35013D01*
G01X-646781Y-3502300D01*
G03X-610967Y-3538114I35814J0D01*
G01X-524566Y-3538114D01*
G03X-519217Y-3537713I0J35814D01*
G01X-519217Y-3606619D01*
G03X-499613Y-3661212I85814J0D01*
G01X-884153Y-3661212D01*
G03X-880585Y-3645629I-32246J15583D01*
G01X-880585Y-3447128D01*
G03X-916399Y-3411314I-35814J0D01*
G01X-1067601Y-3411314D01*
G03X-1103415Y-3447128I0J-35814D01*
G01X-1103415Y-3645629D01*
G01X-1019415Y-2045531D02*
G01X-1019415Y-2159729D01*
G01X-1092799Y-2159729D01*
G03X-1128613Y-2195543I0J-35814D01*
G01X-1128613Y-2275543D01*
G03X-1092799Y-2311357I35814J0D01*
G01X-1012800Y-2311357D01*
G01X-1012512Y-2311356D01*
G03X-1005205Y-2320718I41611J24942D01*
G01X-929419Y-2396505D01*
G03X-916363Y-2405813I34305J34305D01*
G01X-930486Y-2405813D01*
G03X-966300Y-2441627I0J-35814D01*
G01X-966300Y-2531627D01*
G03X-964677Y-2542286I35814J0D01*
G01X-985560Y-2542286D01*
G03X-984854Y-2535209I-35108J7077D01*
G01X-984854Y-2445209D01*
G03X-1020668Y-2409395I-35814J0D01*
G01X-1100668Y-2409395D01*
G03X-1130670Y-2425652I0J-35814D01*
G03X-1160673Y-2409395I-30002J-19557D01*
G01X-1240672Y-2409395D01*
G03X-1276486Y-2445209I0J-35814D01*
G01X-1276486Y-2535209D01*
G03X-1240672Y-2571023I35814J0D01*
G01X-1175768Y-2571023D01*
G01X-1137358Y-2609433D01*
G01X-1137984Y-2610362D01*
G03X-1167986Y-2594106I-30002J-19557D01*
G01X-1247986Y-2594106D01*
G03X-1283800Y-2629920I0J-35814D01*
G01X-1283800Y-2719919D01*
G03X-1247986Y-2755733I35814J0D01*
G01X-1167986Y-2755733D01*
G03X-1137984Y-2739477I0J35814D01*
G03X-1107982Y-2755733I30002J19557D01*
G01X-1027982Y-2755733D01*
G03X-992341Y-2723433I0J35814D01*
G01X-730529Y-2723433D01*
G03X-696224Y-2709224I0J48514D01*
G01X-648995Y-2661995D01*
G03X-634786Y-2627690I-34305J34305D01*
G01X-634786Y-2579310D01*
G03X-648995Y-2545005I-48514J0D01*
G01X-674668Y-2519333D01*
G01X-674668Y-2441627D01*
G03X-710482Y-2405813I-35814J0D01*
G01X-725978Y-2405813D01*
G01X-803895Y-2327895D01*
G03X-838200Y-2313686I-34305J-34305D01*
G01X-875019Y-2313686D01*
G01X-878034Y-2310671D01*
G01X-863001Y-2310671D01*
G03X-827187Y-2274857I0J35814D01*
G01X-827187Y-2194857D01*
G03X-854486Y-2160070I-35814J0D01*
G01X-854486Y-2021265D01*
G03X-826426Y-1986300I-7753J34965D01*
G01X-826426Y-1899900D01*
G03X-862240Y-1864086I-35814J0D01*
G01X-942887Y-1864086D01*
G03X-977900Y-1892366I0J-35814D01*
G03X-1004722Y-1865035I-35013J-7534D01*
G01X-1004722Y-1804264D01*
G03X-1013196Y-1776871I-48514J0D01*
G03X-1118183Y-1724137I-66304J-1129D01*
G03X-1101750Y-1840470I38683J-53863D01*
G01X-1101750Y-1865035D01*
G03X-1129374Y-1899900I8190J-34865D01*
G01X-1129374Y-1986300D01*
G03X-1093560Y-2022114I35814J0D01*
G01X-1042831Y-2022114D01*
G01X-1019415Y-2045531D01*
G01X-797764Y-2860273D02*
G03X-753209Y-2747109I-2336J66273D01*
G03X-866373Y-2791664I-46891J-46891D01*
G01X-880684Y-2805974D01*
G03X-916399Y-2772809I-35716J-2648D01*
G01X-1067601Y-2772809D01*
G03X-1103415Y-2808623I0J-35814D01*
G01X-1103415Y-3007124D01*
G03X-1067601Y-3042938I35814J0D01*
G01X-916399Y-3042938D01*
G03X-880585Y-3007124I0J35814D01*
G01X-880585Y-2943071D01*
G01X-879668Y-2942178D01*
G01X-797764Y-2860273D01*
G01X825555Y-2764010D02*
G03X873964Y-2872973I50745J-42690D01*
G01X881846Y-2880855D01*
G01X881846Y-3027371D01*
G03X917660Y-3063185I35814J0D01*
G01X1068861Y-3063185D01*
G03X1104675Y-3027371I0J35814D01*
G01X1104675Y-2828870D01*
G03X1068861Y-2793056I-35814J0D01*
G01X941195Y-2793056D01*
G03X825555Y-2764010I-64895J-13644D01*
G01X1416214Y-664300D02*
G03X1380400Y-628486I-35814J0D01*
G01X1210400Y-628486D01*
G03X1174586Y-664300I0J-35814D01*
G01X1174586Y-834300D01*
G03X1210400Y-870114I35814J0D01*
G01X1380400Y-870114D01*
G03X1416214Y-834300I0J35814D01*
G01X1416214Y-664300D01*
G01X-1301233Y-137943D02*
G03X-1136486Y-25400I43933J112543D01*
G03X-1301233Y87143I-120814J0D01*
G01X-1348486Y134395D01*
G01X-1348486Y149347D01*
G03X-1136486Y228600I91186J79253D01*
G03X-1348486Y307853I-120814J0D01*
G01X-1348486Y2495566D01*
G01X-1123069Y2720983D01*
G03X-1116002Y2729950I-34305J34305D01*
G01X-1114174Y2729950D01*
G03X-1079309Y2757574I0J35814D01*
G01X-1031793Y2757574D01*
G01X-1031480Y2757045D01*
G03X-1036629Y2738545I30666J-18500D01*
G01X-1036629Y2648545D01*
G03X-1031480Y2630045I35814J0D01*
G03X-1036629Y2611545I30666J-18500D01*
G01X-1036629Y2521545D01*
G03X-1031480Y2503045I35814J0D01*
G03X-1036629Y2484545I30666J-18500D01*
G01X-1036629Y2394545D01*
G03X-1031480Y2376045I35814J0D01*
G03X-1036629Y2357545I30666J-18500D01*
G01X-1036629Y2267545D01*
G03X-1031480Y2249045I35814J0D01*
G03X-1036629Y2230545I30666J-18500D01*
G01X-1036629Y2140545D01*
G03X-1031480Y2122045I35814J0D01*
G03X-1036629Y2103545I30666J-18500D01*
G01X-1036629Y2013545D01*
G03X-1031480Y1995045I35814J0D01*
G03X-1036629Y1976545I30666J-18500D01*
G01X-1036629Y1886545D01*
G03X-1031480Y1868045I35814J0D01*
G03X-1036629Y1849545I30666J-18500D01*
G01X-1036629Y1759545D01*
G03X-1031480Y1741045I35814J0D01*
G03X-1036629Y1722545I30666J-18500D01*
G01X-1036629Y1632545D01*
G03X-1031480Y1614045I35814J0D01*
G03X-1036629Y1595545I30666J-18500D01*
G01X-1036629Y1505545D01*
G03X-1031480Y1487045I35814J0D01*
G03X-1036629Y1468545I30666J-18500D01*
G01X-1036629Y1378545D01*
G03X-1000815Y1342731I35814J0D01*
G01X-800815Y1342731D01*
G03X-765001Y1378545I0J35814D01*
G01X-765001Y1468545D01*
G03X-770149Y1487045I-35814J0D01*
G03X-765001Y1505545I-30666J18500D01*
G01X-765001Y1595545D01*
G03X-770149Y1614045I-35814J0D01*
G03X-765001Y1632545I-30666J18500D01*
G01X-765001Y1722545D01*
G03X-770149Y1741045I-35814J0D01*
G03X-765001Y1759545I-30666J18500D01*
G01X-765001Y1849545D01*
G03X-770149Y1868045I-35814J0D01*
G03X-765001Y1886545I-30666J18500D01*
G01X-765001Y1976545D01*
G03X-770149Y1995045I-35814J0D01*
G03X-765001Y2013545I-30666J18500D01*
G01X-765001Y2103545D01*
G03X-770149Y2122045I-35814J0D01*
G03X-765174Y2137031I-30666J18500D01*
G01X-383398Y2137031D01*
G01X-319673Y2073306D01*
G03X-285369Y2059097I34305J34305D01*
G01X147744Y2059097D01*
G03X182048Y2073306I0J48514D01*
G01X198392Y2089650D01*
G03X212601Y2123954I-34305J34305D01*
G01X212601Y2249812D01*
G01X611347Y2648557D01*
G03X620425Y2630045I63355J19588D01*
G03X674026Y2525635I54276J-38100D01*
G03X700101Y2518031I26075J40911D01*
G01X763541Y2518031D01*
G03X768516Y2503045I35641J3514D01*
G03X763368Y2484545I30666J-18500D01*
G01X763368Y2394545D01*
G03X768516Y2376045I35814J0D01*
G03X763368Y2357545I30666J-18500D01*
G01X763368Y2267545D01*
G03X768516Y2249045I35814J0D01*
G03X763368Y2230545I30666J-18500D01*
G01X763368Y2140545D01*
G03X768516Y2122045I35814J0D01*
G03X763368Y2103545I30666J-18500D01*
G01X763368Y2013545D01*
G03X768516Y1995045I35814J0D01*
G03X763368Y1976545I30666J-18500D01*
G01X763368Y1886545D01*
G03X768516Y1868045I35814J0D01*
G03X763368Y1849545I30666J-18500D01*
G01X763368Y1759545D01*
G03X768516Y1741045I35814J0D01*
G03X763368Y1722545I30666J-18500D01*
G01X763368Y1632545D01*
G03X768516Y1614045I35814J0D01*
G03X763368Y1595545I30666J-18500D01*
G01X763368Y1505545D01*
G03X768516Y1487045I35814J0D01*
G03X763541Y1472059I30666J-18500D01*
G01X704349Y1472059D01*
G03X595383Y1409347I-43949J-49659D01*
G01X525683Y1409347D01*
G03X507183Y1404198I0J-35814D01*
G03X488683Y1409347I-18500J-30666D01*
G01X398683Y1409347D01*
G03X380183Y1404198I0J-35814D01*
G03X361683Y1409347I-18500J-30666D01*
G01X271683Y1409347D01*
G03X253183Y1404198I0J-35814D01*
G03X234683Y1409347I-18500J-30666D01*
G01X144683Y1409347D01*
G03X126183Y1404198I0J-35814D01*
G03X107683Y1409347I-18500J-30666D01*
G01X17683Y1409347D01*
G03X-817Y1404198I0J-35814D01*
G03X-19317Y1409347I-18500J-30666D01*
G01X-109317Y1409347D01*
G03X-127817Y1404198I0J-35814D01*
G03X-146317Y1409347I-18500J-30666D01*
G01X-236317Y1409347D01*
G03X-254817Y1404198I0J-35814D01*
G03X-273317Y1409347I-18500J-30666D01*
G01X-363317Y1409347D01*
G03X-381817Y1404198I0J-35814D01*
G03X-400317Y1409347I-18500J-30666D01*
G01X-490317Y1409347D01*
G03X-508817Y1404198I0J-35814D01*
G03X-527317Y1409347I-18500J-30666D01*
G01X-617317Y1409347D01*
G03X-653131Y1373533I0J-35814D01*
G01X-653131Y1173533D01*
G03X-617317Y1137719I35814J0D01*
G01X-527317Y1137719D01*
G03X-508817Y1142867I0J35814D01*
G03X-490317Y1137719I18500J30666D01*
G01X-400317Y1137719D01*
G03X-381817Y1142867I0J35814D01*
G03X-363317Y1137719I18500J30666D01*
G01X-273317Y1137719D01*
G03X-254817Y1142867I0J35814D01*
G03X-236317Y1137719I18500J30666D01*
G01X-146317Y1137719D01*
G03X-127817Y1142867I0J35814D01*
G03X-109317Y1137719I18500J30666D01*
G01X-19317Y1137719D01*
G03X-817Y1142867I0J35814D01*
G03X17683Y1137719I18500J30666D01*
G01X107683Y1137719D01*
G03X126183Y1142867I0J35814D01*
G03X144683Y1137719I18500J30666D01*
G01X234683Y1137719D01*
G03X253183Y1142867I0J35814D01*
G03X271683Y1137719I18500J30666D01*
G01X361683Y1137719D01*
G03X380183Y1142867I0J35814D01*
G03X398683Y1137719I18500J30666D01*
G01X488683Y1137719D01*
G03X507183Y1142867I0J35814D01*
G03X525683Y1137719I18500J30666D01*
G01X615683Y1137719D01*
G03X651497Y1173533I0J35814D01*
G01X651497Y1356686D01*
G03X706809Y1375031I8903J65714D01*
G01X763541Y1375031D01*
G03X799182Y1342731I35641J3514D01*
G01X999181Y1342731D01*
G03X1034995Y1378545I0J35814D01*
G01X1034995Y1468545D01*
G03X1029847Y1487045I-35814J0D01*
G03X1034995Y1505545I-30666J18500D01*
G01X1034995Y1595545D01*
G03X1029847Y1614045I-35814J0D01*
G03X1034995Y1632545I-30666J18500D01*
G01X1034995Y1722545D01*
G03X1029847Y1741045I-35814J0D01*
G03X1034995Y1759545I-30666J18500D01*
G01X1034995Y1849545D01*
G03X1029847Y1868045I-35814J0D01*
G03X1034995Y1886545I-30666J18500D01*
G01X1034995Y1976545D01*
G03X1029847Y1995045I-35814J0D01*
G03X1034995Y2013545I-30666J18500D01*
G01X1034995Y2103545D01*
G03X1029847Y2122045I-35814J0D01*
G03X1034995Y2140545I-30666J18500D01*
G01X1034995Y2224128D01*
G03X1055572Y2213456I25890J24745D01*
G01X1055572Y1222427D01*
G01X983093Y1149948D01*
G01X930888Y1149948D01*
G03X900886Y1133691I0J-35814D01*
G03X870883Y1149948I-30002J-19557D01*
G01X790884Y1149948D01*
G03X755070Y1114134I0J-35814D01*
G01X755070Y1024134D01*
G03X790884Y988320I35814J0D01*
G01X821465Y988320D01*
G01X719859Y886714D01*
G01X552044Y886714D01*
G03X516402Y919014I-35641J-3514D01*
G01X448649Y919014D01*
G01X422259Y945405D01*
G03X387954Y959614I-34305J-34305D01*
G01X284841Y959614D01*
G03X250536Y945405I0J-48514D01*
G01X203070Y897938D01*
G01X148890Y897938D01*
G03X113248Y930238I-35641J-3514D01*
G01X61044Y930238D01*
G01X-112157Y1103439D01*
G03X-146461Y1117648I-34305J-34305D01*
G01X-756871Y1117648D01*
G03X-792512Y1149948I-35641J-3514D01*
G01X-844716Y1149948D01*
G01X-986373Y1291605D01*
G03X-1020678Y1305814I-34305J-34305D01*
G01X-1110490Y1305814D01*
G03X-1222014Y1257300I-45210J-48514D01*
G03X-1110490Y1208786I66314J0D01*
G01X-1040773Y1208786D01*
G01X-981935Y1149948D01*
G01X-1012516Y1149948D01*
G03X-1048330Y1114134I0J-35814D01*
G01X-1048330Y1024134D01*
G03X-1012516Y988320I35814J0D01*
G01X-932517Y988320D01*
G03X-902514Y1004577I0J35814D01*
G03X-872512Y988320I30002J19557D01*
G01X-792512Y988320D01*
G03X-756871Y1020620I0J35814D01*
G01X-166557Y1020620D01*
G01X-76175Y930238D01*
G01X-106756Y930238D01*
G03X-142570Y894424I0J-35814D01*
G01X-142570Y804424D01*
G03X-106756Y768610I35814J0D01*
G01X-26756Y768610D01*
G03X3246Y784867I0J35814D01*
G03X33249Y768610I30002J19557D01*
G01X113248Y768610D01*
G03X148890Y800910I0J35814D01*
G01X223165Y800910D01*
G03X257470Y815119I0J48514D01*
G01X260584Y818233D01*
G01X260584Y793200D01*
G03X296398Y757386I35814J0D01*
G01X376398Y757386D01*
G03X406400Y773643I0J35814D01*
G03X427888Y758413I30002J19557D01*
G01X427888Y693330D01*
G03X410959Y685818I5568J-35379D01*
G03X388463Y693765I-22497J-27866D01*
G01X308463Y693765D01*
G03X272649Y657951I0J-35814D01*
G01X272649Y508779D01*
G01X123476Y508779D01*
G03X87662Y472965I0J-35814D01*
G01X87662Y392965D01*
G03X95609Y370468I35814J0D01*
G03X87662Y347971I27866J-22497D01*
G01X87662Y267971D01*
G03X95609Y245474I35814J0D01*
G03X87662Y222978I27866J-22497D01*
G01X87662Y142978D01*
G03X95620Y120468I35814J0D01*
G03X87662Y97959I27856J-22509D01*
G01X87662Y17959D01*
G03X95609Y-4538I35814J0D01*
G03X87662Y-27034I27866J-22497D01*
G01X87662Y-107034D01*
G03X123476Y-142848I35814J0D01*
G01X272649Y-142848D01*
G01X272649Y-292047D01*
G03X308463Y-327861I35814J0D01*
G01X388463Y-327861D01*
G03X410959Y-319913I0J35814D01*
G03X424942Y-326834I22497J27866D01*
G01X424942Y-390969D01*
G03X406400Y-405343I11460J-33931D01*
G03X376398Y-389086I-30002J-19557D01*
G01X296398Y-389086D01*
G03X260584Y-424900I0J-35814D01*
G01X260584Y-514900D01*
G03X296398Y-550714I35814J0D01*
G01X376398Y-550714D01*
G03X406400Y-534457I0J35814D01*
G03X427888Y-549687I30002J19557D01*
G01X427888Y-1154867D01*
G03X406086Y-1202901I42012J-48033D01*
G01X406086Y-1271402D01*
G01X286605Y-1390884D01*
G01X234400Y-1390884D01*
G03X198586Y-1426698I0J-35814D01*
G01X198586Y-1456588D01*
G01X-161513Y-1456588D01*
G03X-176743Y-1435100I-34787J-8514D01*
G03X-160486Y-1405098I-19557J30002D01*
G01X-160486Y-1325098D01*
G03X-196300Y-1289284I-35814J0D01*
G01X-286300Y-1289284D01*
G03X-316422Y-1305725I0J-35814D01*
G03X-358677Y-1258356I-64578J-15075D01*
G03X-421386Y-1268202I-22323J-62444D01*
G01X-421386Y-225544D01*
G03X-435595Y-191240I-48514J0D01*
G01X-443028Y-183808D01*
G03X-453109Y-169087I-44385J-19584D01*
G01X-503920Y-118276D01*
G03X-518641Y-108195I-34305J-34305D01*
G01X-531753Y-95082D01*
G03X-525640Y-71507I-42401J23575D01*
G01X-525640Y-61214D01*
G01X-489710Y-61214D01*
G03X-378186Y-12700I45210J48514D01*
G03X-489710Y35814I-66314J0D01*
G01X-525481Y35814D01*
G03X-606666Y55527I-48673J-23421D01*
G03X-617782Y61989I-32512J-43134D01*
G01X-604424Y75347D01*
G01X-552219Y75347D01*
G03X-516405Y111161I0J35814D01*
G01X-516405Y201161D01*
G03X-552219Y236975I-35814J0D01*
G01X-632219Y236975D01*
G03X-662222Y220718I0J-35814D01*
G03X-692224Y236975I-30002J-19557D01*
G01X-772224Y236975D01*
G03X-808038Y201161I0J-35814D01*
G01X-808038Y111161D01*
G03X-772224Y75347I35814J0D01*
G01X-741375Y75347D01*
G03X-749093Y62536I37198J-31143D01*
G03X-823189Y12393I-20081J-50143D01*
G01X-823189Y-27906D01*
G03X-752690Y-79344I54014J0D01*
G01X-752690Y-174125D01*
G03X-750465Y-188650I48514J0D01*
G03X-823189Y-239321I-18710J-50670D01*
G01X-823189Y-279620D01*
G03X-786762Y-330691I54014J0D01*
G03X-784581Y-333020I36485J31976D01*
G01X-781745Y-335856D01*
G01X-781745Y-348252D01*
G03X-808872Y-379525I8514J-34787D01*
G01X-821739Y-379525D01*
G03X-856043Y-393734I0J-48514D01*
G01X-904036Y-441727D01*
G03X-955969Y-469889I2336J-66273D01*
G01X-1074082Y-351775D01*
G03X-1108386Y-337566I-34305J-34305D01*
G01X-1130525Y-337566D01*
G01X-1144757Y-323333D01*
G03X-1342728Y-193972I-112543J43933D01*
G03X-1213367Y-391943I85428J-85428D01*
G01X-1198909Y-406400D01*
G01X-1213367Y-420857D01*
G03X-1342728Y-618828I-43933J-112543D01*
G03X-1144757Y-489467I85428J85428D01*
G01X-1137920Y-482629D01*
G01X-847105Y-773445D01*
G03X-812800Y-787654I34305J34305D01*
G01X-790662Y-787654D01*
G01X-787091Y-791225D01*
G03X-766884Y-803341I34305J34305D01*
G03X-677125Y-807907I47357J46421D01*
G03X-665250Y-718820I-42402J50987D01*
G03X-677125Y-629733I-54276J38100D01*
G03X-766884Y-634299I-42402J-50987D01*
G03X-783053Y-642805I14098J-46421D01*
G01X-863589Y-562269D01*
G03X-835427Y-510336I-38111J54269D01*
G01X-807734Y-482643D01*
G03X-773231Y-508853I34502J9604D01*
G01X-693231Y-508853D01*
G03X-663229Y-492596I0J35814D01*
G03X-633226Y-508853I30002J19557D01*
G01X-559054Y-508853D01*
G01X-559054Y-1238558D01*
G01X-596225Y-1275728D01*
G01X-602855Y-1275728D01*
G01X-608556Y-1270028D01*
G03X-630300Y-1257473I-34305J-34305D01*
G03X-659476Y-1247719I-29177J-38760D01*
G01X-707857Y-1247719D01*
G03X-737033Y-1257473I0J-48514D01*
G03X-758777Y-1270028I12561J-46860D01*
G01X-776371Y-1287622D01*
G03X-790581Y-1321927I34305J-34305D01*
G01X-790581Y-1425826D01*
G03X-803895Y-1400795I-47619J-9274D01*
G01X-835911Y-1368779D01*
G01X-835911Y-1324640D01*
G03X-871725Y-1288826I-35814J0D01*
G01X-923930Y-1288826D01*
G01X-1136486Y-1076270D01*
G01X-1136486Y-956400D01*
G03X-1172300Y-920586I-35814J0D01*
G01X-1342300Y-920586D01*
G03X-1378114Y-956400I0J-35814D01*
G01X-1378114Y-1105977D01*
G01X-1386586Y-1097505D01*
G01X-1386586Y-223295D01*
G01X-1301233Y-137943D01*
G01X-1257300Y-908214D02*
G03X-1257300Y-666586I0J120814D01*
G03X-1257300Y-908214I0J-120814D01*
G01X172001Y2545510D02*
G03X136187Y2581324I-35814J0D01*
G01X-273812Y2581324D01*
G03X-309626Y2545510I0J-35814D01*
G01X-309626Y2200478D01*
G01X-328998Y2219850D01*
G03X-363303Y2234059I-34305J-34305D01*
G01X-765174Y2234059D01*
G03X-770149Y2249045I-35641J-3514D01*
G03X-765001Y2267545I-30666J18500D01*
G01X-765001Y2357545D01*
G03X-770149Y2376045I-35814J0D01*
G03X-765001Y2394545I-30666J18500D01*
G01X-765001Y2484545D01*
G03X-770149Y2503045I-35814J0D01*
G03X-765001Y2521545I-30666J18500D01*
G01X-765001Y2611545D01*
G03X-770149Y2630045I-35814J0D01*
G03X-765001Y2648545I-30666J18500D01*
G01X-765001Y2738545D01*
G03X-770149Y2757045I-35814J0D01*
G03X-765001Y2775545I-30666J18500D01*
G01X-765001Y2865545D01*
G03X-770149Y2884045I-35814J0D01*
G03X-765001Y2902545I-30666J18500D01*
G01X-765001Y2925959D01*
G01X614653Y2925959D01*
G03X648958Y2940169I0J48514D01*
G01X763368Y3054579D01*
G01X763368Y3029545D01*
G03X768516Y3011045I35814J0D01*
G03X763368Y2992545I30666J-18500D01*
G01X763368Y2935459D01*
G03X753321Y2927750I24257J-42014D01*
G01X172001Y2346430D01*
G01X172001Y2545510D01*
G01X-559054Y-347225D02*
G01X-633226Y-347225D01*
G03X-638343Y-347592I0J-35814D01*
G01X-623771Y-333020D01*
G03X-621591Y-330691I-34305J34305D01*
G03X-606666Y-322754I-17587J51071D01*
G03X-559054Y-331481I32512J43134D01*
G01X-559054Y-347225D01*
G01X-332486Y-1366010D02*
G03X-322114Y-1351296I-48514J45210D01*
G01X-322114Y-1386129D01*
G01X-335054Y-1386129D01*
G03X-332486Y-1370555I-45946J15574D01*
G01X-332486Y-1366010D01*
G01X25182Y-2644928D02*
G01X75911Y-2644928D01*
G01X125092Y-2694109D01*
G01X125092Y-2990013D01*
G01X108508Y-2990013D01*
G03X100798Y-2979966I-42014J-24257D01*
G01X84455Y-2963622D01*
G03X50150Y-2949413I-34305J-34305D01*
G01X22120Y-2949413D01*
G01X22120Y-2901312D01*
G03X7911Y-2867007I-48514J0D01*
G01X-78967Y-2780130D01*
G03X-53086Y-2672526I-22650J62362D01*
G03X-61656Y-2644928I-48514J64D01*
G01X-44843Y-2644928D01*
G03X-9830Y-2616648I0J35814D01*
G03X25182Y-2644928I35013J7534D01*
G54D11*
G01X-787121Y-7757D02*
G01X-813029Y-7757D01*
G01X-769175Y-45853D02*
G01X-769175Y-71761D01*
G01X-769175Y30340D02*
G01X-769175Y56248D01*
G01X-1012262Y1069134D02*
G01X-1038170Y1069134D01*
G01X-972516Y1024388D02*
G01X-972516Y998480D01*
G01X-1000561Y3074545D02*
G01X-1026469Y3074545D01*
G01X-801069Y3074545D02*
G01X-775161Y3074545D01*
G01X-900815Y3119291D02*
G01X-900815Y3145199D01*
G01X-992000Y-3447382D02*
G01X-992000Y-3421474D01*
G01X-1067347Y-3546378D02*
G01X-1093255Y-3546378D01*
G01X-916653Y-3546378D02*
G01X-890745Y-3546378D01*
G01X-1247732Y-2674919D02*
G01X-1273640Y-2674919D01*
G01X-1207986Y-2719665D02*
G01X-1207986Y-2745573D01*
G01X-1207986Y-2630174D02*
G01X-1207986Y-2604266D01*
G01X-1020922Y-2490209D02*
G01X-995014Y-2490209D01*
G01X-1060668Y-2445463D02*
G01X-1060668Y-2419555D01*
G01X-930232Y-2486627D02*
G01X-956140Y-2486627D01*
G01X-1052800Y-2275289D02*
G01X-1052800Y-2301197D01*
G01X-1052800Y-2195797D02*
G01X-1052800Y-2169889D01*
G01X-1092545Y-2235543D02*
G01X-1118453Y-2235543D01*
G01X-593227Y-383293D02*
G01X-593227Y-357385D01*
G01X-593227Y-472785D02*
G01X-593227Y-498693D01*
G01X-567767Y-3502046D02*
G01X-567767Y-3527954D01*
G01X-610713Y-3461977D02*
G01X-636621Y-3461977D01*
G01X-574154Y-297567D02*
G01X-574154Y-323475D01*
G01X-533400Y-2352656D02*
G01X-533400Y-2378564D01*
G01X-771970Y156161D02*
G01X-797878Y156161D01*
G01X-732224Y200907D02*
G01X-732224Y226815D01*
G01X-572317Y1373279D02*
G01X-572317Y1399187D01*
G01X-572317Y1173787D02*
G01X-572317Y1147879D01*
G01X-617063Y1273533D02*
G01X-642971Y1273533D01*
G01X-241300Y-1325352D02*
G01X-241300Y-1299444D01*
G01X-196554Y-1365098D02*
G01X-170646Y-1365098D01*
G01X-286046Y-1365098D02*
G01X-311954Y-1365098D01*
G01X-321415Y-3026081D02*
G01X-321415Y-3000173D01*
G01X-273558Y2340511D02*
G01X-299466Y2340511D01*
G01X-68812Y2545256D02*
G01X-68812Y2571164D01*
G01X-106502Y849424D02*
G01X-132410Y849424D01*
G01X-66756Y804678D02*
G01X-66756Y778770D01*
G01X318589Y-3026081D02*
G01X318589Y-3000173D01*
G01X330530Y-2814889D02*
G01X330530Y-2788981D01*
G01X330530Y-2894381D02*
G01X330530Y-2920289D01*
G01X370276Y-2854635D02*
G01X396184Y-2854635D01*
G01X348463Y-291793D02*
G01X348463Y-317701D01*
G01X308717Y-217047D02*
G01X282809Y-217047D01*
G01X569189Y-2148540D02*
G01X543281Y-2148540D01*
G01X693935Y-2203286D02*
G01X693935Y-2229194D01*
G01X693935Y-2093794D02*
G01X693935Y-2067886D01*
G01X348463Y657697D02*
G01X348463Y683605D01*
G01X308717Y582952D02*
G01X282809Y582952D01*
G01X336398Y793454D02*
G01X336398Y767546D01*
G01X296652Y-469900D02*
G01X270744Y-469900D01*
G01X336398Y-425154D02*
G01X336398Y-399246D01*
G01X336398Y-514646D02*
G01X336398Y-540554D01*
G01X279400Y-1646448D02*
G01X279400Y-1672356D01*
G01X234654Y-1606702D02*
G01X208746Y-1606702D01*
G01X324146Y-1606702D02*
G01X350054Y-1606702D01*
G01X442154Y-1836649D02*
G01X416246Y-1836649D01*
G01X469900Y-1749652D02*
G01X469900Y-1723744D01*
G01X469900Y-1923645D02*
G01X469900Y-1949553D01*
G01X791138Y1069134D02*
G01X765230Y1069134D01*
G01X830884Y1113880D02*
G01X830884Y1139788D01*
G01X993260Y-3467629D02*
G01X993260Y-3441721D01*
G01X917914Y-3566626D02*
G01X892006Y-3566626D01*
G01X1068607Y-3566626D02*
G01X1094515Y-3566626D01*
G01X-1257300Y-872146D02*
G01X-1257300Y-898054D01*
G01X-1257300Y-702654D02*
G01X-1257300Y-676746D01*
G01X-1342046Y-787400D02*
G01X-1367954Y-787400D01*
G01X-1172554Y-787400D02*
G01X-1146646Y-787400D01*
G01X1295400Y-834046D02*
G01X1295400Y-859954D01*
G01X1295400Y-664554D02*
G01X1295400Y-638646D01*
G01X1210654Y-749300D02*
G01X1184746Y-749300D01*
G01X1380146Y-749300D02*
G01X1406054Y-749300D01*
G04 Copper End*

G04 Pad Start*
G54D12*
G01X-1060668Y-2490209D03*
G01X-1200672Y-2490209D03*
G01X-890486Y-2486627D03*
G01X-750482Y-2486627D03*
G01X-66756Y849424D03*
G01X73249Y849424D03*
G01X-593227Y-428039D03*
G01X-733231Y-428039D03*
G01X-732224Y156161D03*
G01X-592219Y156161D03*
G01X-832512Y1069134D03*
G01X-972516Y1069134D03*
G01X970888Y1069134D03*
G01X830884Y1069134D03*
G01X-1207986Y-2674919D03*
G01X-1067982Y-2674919D03*
G54D13*
G01X279400Y-1466698D03*
G01X279400Y-1606702D03*
G54D12*
G01X476402Y838200D03*
G01X336398Y838200D03*
G01X476402Y-469900D03*
G01X336398Y-469900D03*
G54D13*
G01X-241300Y-1505102D03*
G01X-241300Y-1365098D03*
G01X-916725Y-1364640D03*
G01X-916725Y-1504645D03*
G54D14*
G01X330530Y-2854635D03*
G01X330530Y-2613639D03*
G54D15*
G01X-628396Y-2299310D03*
G01X-533400Y-2299310D03*
G01X-438404Y-2299310D03*
G01X-438404Y-2069490D03*
G01X-533400Y-2069490D03*
G01X-628396Y-2069490D03*
G54D16*
G01X185344Y-2209800D03*
G01X-185344Y-2209800D03*
G54D14*
G01X-1052800Y-2235543D03*
G01X-903000Y-2234857D03*
G54D17*
G01X-567767Y-3311304D03*
G01X-567767Y-3461977D03*
G54D18*
G01X65506Y-2565914D03*
G01X-85167Y-2565914D03*
G54D17*
G01X-1157374Y2806088D03*
G01X-1157374Y2956760D03*
G01X1104086Y2289198D03*
G01X1104086Y2439870D03*
G01X1106574Y2974473D03*
G01X1106574Y2823800D03*
G54D18*
G01X-902564Y-1943100D03*
G01X-1053236Y-1943100D03*
G54D20*
G01X993260Y-3566626D03*
G01X993260Y-2928121D03*
G01X-992000Y-3546378D03*
G01X-992000Y-2907873D03*
G54D21*
G01X-900815Y3074545D03*
G01X-900815Y2947545D03*
G01X-900815Y2820545D03*
G01X-900815Y2693545D03*
G01X-900815Y2566545D03*
G01X-900815Y2439545D03*
G01X-900815Y2312545D03*
G01X-900815Y2185545D03*
G01X-900815Y2058545D03*
G01X-900815Y1931545D03*
G01X-900815Y1804545D03*
G01X-900815Y1677545D03*
G01X-900815Y1550545D03*
G01X-900815Y1423545D03*
G54D22*
G01X-572317Y1273533D03*
G01X-445317Y1273533D03*
G01X-318317Y1273533D03*
G01X-191317Y1273533D03*
G01X-64317Y1273533D03*
G01X62683Y1273533D03*
G01X189683Y1273533D03*
G01X316683Y1273533D03*
G01X443683Y1273533D03*
G01X570683Y1273533D03*
G54D21*
G01X899182Y1423545D03*
G01X899182Y1550545D03*
G01X899182Y1677545D03*
G01X899182Y1804545D03*
G01X899182Y1931545D03*
G01X899182Y2058545D03*
G01X899182Y2185545D03*
G01X899182Y2312545D03*
G01X899182Y2439545D03*
G01X899182Y2566545D03*
G01X899182Y2693545D03*
G01X899182Y2820545D03*
G01X899182Y2947545D03*
G01X899182Y3074545D03*
G54D23*
G01X-68812Y2340511D03*
G54D24*
G01X-321415Y-3090827D03*
G01X-241405Y-3090827D03*
G01X318589Y-3090827D03*
G01X238605Y-3090827D03*
G54D25*
G01X173606Y-3090827D03*
G01X123593Y-3090827D03*
G01X73606Y-3090827D03*
G01X23594Y-3090827D03*
G01X-26394Y-3090827D03*
G01X-76406Y-3090827D03*
G01X-126393Y-3090827D03*
G01X-176406Y-3090827D03*
G54D26*
G01X430603Y-3566619D03*
G01X-433403Y-3566619D03*
G54D27*
G01X430603Y-3148637D03*
G01X-433403Y-3148637D03*
G54D28*
G01X693935Y-2148540D03*
G01X693935Y-2378537D03*
G01X693935Y-2608534D03*
G54D29*
G01X1287927Y-2378537D03*
G54D30*
G01X469900Y-1836649D03*
G01X596900Y-1836649D03*
G01X723900Y-1836649D03*
G01X850900Y-1836649D03*
G01X977900Y-1836649D03*
G01X1104900Y-1836649D03*
G01X1231900Y-1836649D03*
G01X1358900Y-1836649D03*
G01X469900Y-1262151D03*
G01X596900Y-1262151D03*
G01X723900Y-1262151D03*
G01X850900Y-1262151D03*
G01X977900Y-1262151D03*
G01X1104900Y-1262151D03*
G01X1231900Y-1262151D03*
G01X1358900Y-1262151D03*
G54D31*
G01X198476Y432965D03*
G01X198476Y307971D03*
G01X198476Y182978D03*
G01X198476Y57959D03*
G01X198476Y-67034D03*
G54D32*
G01X348463Y-217047D03*
G01X473456Y-217047D03*
G01X598475Y-217047D03*
G01X723468Y-217047D03*
G01X848462Y-217047D03*
G54D31*
G01X998474Y-67034D03*
G01X998474Y57959D03*
G01X998474Y182978D03*
G01X998474Y307971D03*
G01X998474Y432965D03*
G54D32*
G01X848462Y582952D03*
G01X723468Y582952D03*
G01X598475Y582952D03*
G01X473456Y582952D03*
G01X348463Y582952D03*
G54D33*
G01X598475Y182952D03*
G54D34*
G01X-683666Y-1354633D03*
G01X-683666Y-1434643D03*
G01X-683666Y-1514653D03*
G01X-456184Y-1514653D03*
G01X-456184Y-1434643D03*
G01X-456184Y-1354633D03*
G54D35*
G01X-569925Y-1434643D03*
G54D36*
G01X-574154Y-7757D03*
G01X-639178Y-7757D03*
G01X-704176Y-7757D03*
G01X-769175Y-7757D03*
G01X-769175Y-259471D03*
G01X-704176Y-259471D03*
G01X-639178Y-259471D03*
G01X-574154Y-259471D03*
G54D37*
G01X-1257300Y-1041400D03*
G54D38*
G01X-1257300Y-787400D03*
G01X-1257300Y-533400D03*
G01X-1257300Y-279400D03*
G01X-1257300Y-25400D03*
G01X-1257300Y228600D03*
G54D37*
G01X1295400Y-749300D03*
G54D38*
G01X1295400Y-495300D03*
G01X1295400Y-241300D03*
G01X1295400Y12700D03*
G04 Pad End*

G04 Via Start*
G54D39*
G01X660400Y1422400D03*
G01X-800100Y-2794000D03*
G01X850900Y-406400D03*
G01X-639178Y-7757D03*
G01X674701Y2591945D03*
G01X674701Y2668146D03*
G01X-719527Y-756920D03*
G01X-719527Y-680720D03*
G01X644770Y-1606091D03*
G01X590888Y-1659973D03*
G01X185344Y-2209800D03*
G01X-741700Y-2603500D03*
G01X1079500Y-2048379D03*
G01X1003300Y-2048379D03*
G01X228600Y-3395980D03*
G01X228600Y-3319780D03*
G01X-241405Y-3090827D03*
G01X-101600Y-2717800D03*
G01X-711200Y-1841500D03*
G01X876300Y-2806700D03*
G01X-1157374Y2956760D03*
G01X-1155700Y1257300D03*
G01X-444500Y-12700D03*
G01X-683666Y-1354633D03*
G01X-381000Y-1320800D03*
G01X-1079500Y-1778000D03*
G01X-901700Y-508000D03*
G01X-683666Y-1434643D03*
G01X-569925Y-1434643D03*
G01X-769175Y-7757D03*
G01X-593227Y-428039D03*
G01X-355600Y-1663700D03*
G01X330530Y-2854635D03*
G01X50800Y-2743200D03*
G01X-900815Y3074545D03*
G01X-406400Y2501900D03*
G01X462568Y2710468D03*
G04 Via End*

G04 Track Start*
G54D11*
G01X660400Y1422400D02*
G01X661545Y1423545D01*
G01X899182Y1423545D01*
G01X-800100Y-2794000D02*
G01X-913973Y-2907873D01*
G01X-992000Y-2907873D01*
G01X1104086Y2439870D02*
G01X899507Y2439870D01*
G01X899182Y2439545D01*
G01X1106574Y2823800D02*
G01X1103319Y2820545D01*
G01X899182Y2820545D01*
G01X899182Y2947545D02*
G01X845082Y2893445D01*
G01X787625Y2893445D01*
G01X164087Y2123955D02*
G01X147744Y2107611D01*
G01X-285368Y2107611D01*
G01X-363303Y2185545D01*
G01X-900815Y2185545D01*
G01X787625Y2893445D02*
G01X164087Y2269907D01*
G01X164087Y2123955D01*
G01X1295400Y-241300D02*
G01X872715Y-241300D01*
G01X848462Y-217047D01*
G01X723468Y-278968D02*
G01X723468Y-217047D01*
G01X899182Y2566545D02*
G01X700101Y2566545D01*
G01X674701Y2591945D01*
G01X899182Y2693545D02*
G01X700101Y2693545D01*
G01X674701Y2668146D01*
G01X1106574Y2823800D02*
G01X1106574Y2670116D01*
G01X1166768Y2652155D02*
G01X1208535Y2610388D01*
G01X1104086Y2439870D02*
G01X1104086Y2591067D01*
G01X1149934Y2611515D02*
G01X1167895Y2593555D01*
G01X1106574Y2670116D02*
G01X1124534Y2652155D01*
G01X1104086Y2591067D02*
G01X1124534Y2611515D01*
G01X1149934Y2611515D01*
G01X1124534Y2652155D02*
G01X1166768Y2652155D01*
G01X1167895Y2593555D02*
G01X1167895Y2348369D01*
G01X1175186Y2341078D01*
G01X1208535Y2610388D02*
G01X1208535Y2365203D01*
G01X1295400Y2278338D01*
G01X1295400Y12700D01*
G01X1175186Y2341078D02*
G01X1175186Y-121086D01*
G01X1295400Y-241300D01*
G01X-1257300Y-533400D02*
G01X-1150620Y-426720D01*
G01X-1125220Y-426720D01*
G01X-770566Y-739140D02*
G01X-752786Y-756920D01*
G01X-719527Y-756920D01*
G01X-812800Y-739140D02*
G01X-770566Y-739140D01*
G01X-770566Y-698500D02*
G01X-752786Y-680720D01*
G01X-719527Y-680720D01*
G01X-1257300Y-279400D02*
G01X-1150620Y-386080D01*
G01X-1108386Y-386080D01*
G01X-795966Y-698500D02*
G01X-770566Y-698500D01*
G01X644770Y-1606091D02*
G01X656673Y-1617994D01*
G01X656673Y-1752588D01*
G01X723900Y-1819815D01*
G01X590888Y-1659973D02*
G01X590888Y-1830636D01*
G01X596900Y-1836649D01*
G01X723900Y-1819815D02*
G01X723900Y-1836649D01*
G01X-1125220Y-426720D02*
G01X-812800Y-739140D01*
G01X-1108386Y-386080D02*
G01X-795966Y-698500D01*
G01X238605Y-3090827D02*
G01X238605Y-2705565D01*
G01X330530Y-2613639D01*
G01X688830Y-2613639D01*
G01X693935Y-2608534D01*
G01X330530Y-2613639D02*
G01X330530Y-2354986D01*
G01X185344Y-2209800D01*
G01X-903000Y-2234857D02*
G01X-903000Y-1943537D01*
G01X-902564Y-1943100D01*
G01X-533400Y-2069490D02*
G01X-492904Y-2109986D01*
G01X-492904Y-2134647D01*
G01X-476561Y-2150991D01*
G01X-244153Y-2150991D01*
G01X-185344Y-2209800D01*
G01X1104900Y-1836649D02*
G01X1104900Y-2022979D01*
G01X1079500Y-2048379D01*
G01X977900Y-1836649D02*
G01X977900Y-2022979D01*
G01X1003300Y-2048379D01*
G01X228600Y-3319780D02*
G01X73606Y-3164786D01*
G01X73606Y-3090827D01*
G01X208300Y-3416280D02*
G01X128803Y-3416280D01*
G01X-81994Y-3205483D01*
G01X-81994Y-3096562D01*
G01X228600Y-3395980D02*
G01X208300Y-3416280D01*
G01X-81994Y-3096562D02*
G01X-76406Y-3090974D01*
G01X-126393Y-3090827D02*
G01X-133506Y-3097939D01*
G01X-133506Y-3167383D01*
G01X-538000Y-3281537D02*
G01X-567767Y-3311304D01*
G01X-133506Y-3167383D02*
G01X-247660Y-3281537D01*
G01X-538000Y-3281537D01*
G01X-76406Y-3090827D02*
G01X-69294Y-3097939D01*
G01X-69294Y-3167383D01*
G01X-52950Y-3183727D01*
G01X163Y-3183727D01*
G01X16506Y-3167383D01*
G01X16506Y-3097914D01*
G01X23594Y-3090827D01*
G01X73606Y-3090827D02*
G01X66494Y-3083714D01*
G01X66494Y-3014270D01*
G01X50150Y-2997927D01*
G01X-2963Y-2997927D01*
G01X-19307Y-3014270D01*
G01X-19307Y-3076253D01*
G01X-24134Y-3081080D01*
G01X-24134Y-3088567D01*
G01X-26394Y-3090827D01*
G01X173606Y-3090827D02*
G01X173606Y-2674014D01*
G01X65506Y-2565914D01*
G01X-438404Y-2299310D02*
G01X-438404Y-2596896D01*
G01X-76200Y-2959100D01*
G01X-76200Y-3090620D01*
G01X-76406Y-3090827D01*
G01X-26394Y-2901312D02*
G01X-26394Y-3090827D01*
G01X-628396Y-2299310D02*
G01X-587900Y-2258814D01*
G01X-587900Y-2234153D01*
G01X-571557Y-2217809D01*
G01X-400247Y-2217809D01*
G01X-383904Y-2234153D01*
G01X-383904Y-2543802D01*
G01X-26394Y-2901312D01*
G01X-101600Y-2293544D02*
G01X-185344Y-2209800D01*
G01X-101600Y-2717800D02*
G01X-101600Y-2672462D01*
G01X-153391Y-2620671D01*
G01X-153391Y-2511157D01*
G01X-101600Y-2459367D01*
G01X-101600Y-2293544D01*
G01X-1257300Y-25400D02*
G01X-1435100Y-203200D01*
G01X-1435100Y-1117600D02*
G01X-711200Y-1841500D01*
G01X876300Y-2806700D02*
G01X993260Y-2923660D01*
G01X993260Y-2928121D01*
G01X-1435100Y-203200D02*
G01X-1435100Y-1117600D01*
G01X-1397000Y2515661D02*
G01X-1397000Y114300D01*
G01X-1257300Y-25400D01*
G01X-1157374Y2806088D02*
G01X-1157374Y2755287D01*
G01X-1397000Y2515661D01*
G01X-900815Y2947545D02*
G01X-910030Y2956760D01*
G01X-1157374Y2956760D01*
G01X-900815Y2820545D02*
G01X-915272Y2806088D01*
G01X-1157374Y2806088D01*
G01X-1155700Y1257300D02*
G01X-1020678Y1257300D01*
G01X-832512Y1069134D01*
G01X-146461Y1069134D01*
G01X73249Y849424D01*
G01X465178Y849424D02*
G01X476402Y838200D01*
G01X73249Y849424D02*
G01X223165Y849424D01*
G01X284841Y911100D01*
G01X387954Y911100D01*
G01X449630Y849424D01*
G01X465178Y849424D01*
G01X473456Y582952D02*
G01X476402Y585898D01*
G01X476402Y838200D01*
G01X739954Y838200D01*
G01X970888Y1069134D01*
G01X1104086Y2289198D02*
G01X1104086Y1202332D01*
G01X970888Y1069134D01*
G01X473456Y582952D02*
G01X473456Y450852D01*
G01X346919Y450852D01*
G01X330575Y434508D01*
G01X330575Y-68604D01*
G01X346919Y-84947D01*
G01X407406Y-84947D01*
G01X473456Y-150997D01*
G01X473456Y-217047D01*
G01X850900Y-406400D02*
G01X723468Y-278968D01*
G01X-444500Y-12700D02*
G01X-569210Y-12700D01*
G01X473456Y-217047D02*
G01X473456Y-466954D01*
G01X476402Y-469900D01*
G01X1270000Y-469900D01*
G01X1295400Y-495300D01*
G01X476402Y-469900D02*
G01X476402Y-1255649D01*
G01X469900Y-1262151D01*
G01X279400Y-1466698D02*
G01X469900Y-1276198D01*
G01X469900Y-1262151D01*
G01X279400Y-1466698D02*
G01X628498Y-1466698D01*
G01X850900Y-1689100D02*
G01X850900Y-1836649D01*
G01X628498Y-1466698D02*
G01X850900Y-1689100D01*
G01X-241300Y-1505102D02*
G01X240995Y-1505102D01*
G01X279400Y-1466698D01*
G01X-456184Y-1434643D02*
G01X-311760Y-1434643D01*
G01X-241300Y-1505102D01*
G01X-415378Y-1404933D02*
G01X-426474Y-1404933D01*
G01X-456184Y-1434643D01*
G01X-381000Y-1320800D02*
G01X-381000Y-1370555D01*
G01X-415378Y-1404933D01*
G01X-241300Y-1505102D02*
G01X-355527Y-1505102D01*
G01X-415378Y-1564953D01*
G01X-746447Y-1564953D01*
G01X-838200Y-1473200D02*
G01X-838200Y-1435100D01*
G01X-908660Y-1364640D01*
G01X-916725Y-1364640D01*
G01X-746447Y-1564953D02*
G01X-838200Y-1473200D01*
G01X-916725Y-1364640D02*
G01X-1239966Y-1041400D01*
G01X-1257300Y-1041400D01*
G01X-1079500Y-1778000D02*
G01X-1053236Y-1804264D01*
G01X-1053236Y-1943100D01*
G01X-970901Y-2025436D01*
G01X-970901Y-2286414D01*
G01X-895114Y-2362200D01*
G01X-838200Y-2362200D02*
G01X-750482Y-2449918D01*
G01X-750482Y-2486627D01*
G01X-895114Y-2362200D02*
G01X-838200Y-2362200D01*
G01X-754400Y-2590800D02*
G01X-1014945Y-2590800D01*
G01X-1016425Y-2589319D01*
G01X-1088862Y-2589319D01*
G01X-1187972Y-2490209D01*
G01X-741700Y-2603500D02*
G01X-754400Y-2590800D01*
G01X-1187972Y-2490209D02*
G01X-1200672Y-2490209D01*
G01X-683300Y-2579310D02*
G01X-750482Y-2512128D01*
G01X-750482Y-2486627D01*
G01X-1067982Y-2674919D02*
G01X-730529Y-2674919D01*
G01X-683300Y-2627690D01*
G01X-683300Y-2579310D01*
G01X693935Y-2378537D02*
G01X1287927Y-2378537D01*
G01X850900Y-1836649D02*
G01X850900Y-2221572D01*
G01X693935Y-2378537D01*
G01X-901700Y-508000D02*
G01X-821739Y-428039D01*
G01X-733231Y-428039D01*
G01X-750277Y-298716D02*
G01X-733231Y-315761D01*
G01X-733231Y-428039D01*
G01X-639178Y-259470D02*
G01X-658076Y-278369D01*
G01X-658076Y-298716D01*
G01X-685081Y-325721D01*
G01X-723272Y-325721D01*
G01X-750277Y-278369D02*
G01X-750277Y-298716D01*
G01X-769175Y-259470D02*
G01X-750277Y-278369D01*
G01X-723272Y-325721D02*
G01X-733231Y-315761D01*
G01X-704176Y-7757D02*
G01X-704176Y-174125D01*
G01X-658076Y-220225D01*
G01X-658076Y-240573D01*
G01X-639178Y-259470D01*
G01X-592220Y156161D02*
G01X-704176Y44204D01*
G01X-704176Y-7757D01*
G01X-873887Y2974473D02*
G01X-900815Y2947545D01*
G01X1027082Y3131102D02*
G01X1010738Y3147445D01*
G01X787625Y3147445D01*
G01X1106574Y2974473D02*
G01X1027082Y3053965D01*
G01X1027082Y3131102D01*
G01X787625Y3147445D02*
G01X614653Y2974473D01*
G01X-873887Y2974473D01*
G01X-769175Y-133151D02*
G01X-769175Y-7757D01*
G01X-739776Y-162550D02*
G01X-769175Y-133151D01*
G01X-704176Y-259470D02*
G01X-704176Y-238469D01*
G01X-739776Y-202869D01*
G01X-739776Y-162550D01*
G01X-574154Y-7757D02*
G01X-574154Y-71507D01*
G01X-639178Y-7757D02*
G01X-639178Y-71507D01*
G01X-574154Y-71507D02*
G01X-586346Y-83699D01*
G01X-586346Y-109099D01*
G01X-639178Y-71507D02*
G01X-626986Y-83699D01*
G01X-626986Y-125932D01*
G01X-559698Y-193220D01*
G01X-555058Y-193220D01*
G01X-528053Y-220225D01*
G01X-528053Y-224865D01*
G01X-586346Y-109099D02*
G01X-542864Y-152580D01*
G01X-538224Y-152580D01*
G01X-487413Y-203392D01*
G01X-487413Y-208031D01*
G01X-469900Y-225544D01*
G01X-528053Y-224865D02*
G01X-510540Y-242378D01*
G01X-469900Y-1340917D02*
G01X-456184Y-1354633D01*
G01X-510540Y-1258653D02*
G01X-576129Y-1324242D01*
G01X-622951Y-1324242D01*
G01X-642861Y-1304332D01*
G01X-651376Y-1304332D01*
G01X-659476Y-1296233D01*
G01X-707857Y-1296233D01*
G01X-715956Y-1304332D01*
G01X-724472Y-1304332D01*
G01X-742067Y-1321927D01*
G01X-742067Y-1467349D01*
G01X-694763Y-1514653D01*
G01X-683666Y-1514653D01*
G01X-469900Y-225544D02*
G01X-469900Y-1340917D01*
G01X-510540Y-242378D02*
G01X-510540Y-1258653D01*
G01X-574154Y-259470D02*
G01X-574154Y-408966D01*
G01X-593227Y-428039D01*
G01X-456184Y-1514653D02*
G01X-489915Y-1514653D01*
G01X-569925Y-1434643D01*
G01X-683666Y-1434643D02*
G01X-569925Y-1434643D01*
G01X-916725Y-1504645D02*
G01X-757671Y-1663700D01*
G01X-355600Y-1663700D01*
G01X-85167Y-2565914D02*
G01X50800Y-2701881D01*
G01X50800Y-2743200D01*
G01X-68812Y2340511D02*
G01X92611Y2340511D01*
G01X826645Y3074545D02*
G01X899182Y3074545D01*
G01X92611Y2340511D02*
G01X462568Y2710468D01*
G01X826645Y3074545D01*
G04 Track End*

M02*

