G04 Layer: BottomLayer*
G04 EasyEDA Pro v3.2.148, 2026-07-26 13:42:08*
G04 Gerber Generator version 0.3*
G04 Scale: 100 percent, Rotated: No, Reflected: No*
G04 Dimensions in millimeters*
G04 Leading zeros omitted, absolute positions, 4 integers and 5 decimals*
G04 Generated by one-click*
G04 Object Configs: Pad,Via,Track,Text,Image,Dimension,BoardOutline,BoardCutout,CopperFilled,SolidRegion,FPCStiffener,Line,PlaneZone,ComponentProperty,ComponentSilkscreen,TearDrop*
G04 Layer Configs: 1,2,3,4,5,6,7,8,9,10,11,13,14,56*
G04 Copper Areas: 9*
%FSLAX45Y45*%
%MOMM*%
%ADD10C,0.2032*%
%ADD11C,0.254*%
%ADD12O,1.0X1.8*%
%ADD13O,1.0X2.1*%
%ADD14R,1.7X1.7*%
%ADD15C,1.7*%
%ADD16C,0.6106*%
%ADD17C,0.61*%
G75*


G04 Copper Start*
G36*
G01X364394Y-3661212D02*
G01X-367194Y-3661212D01*
G01X-358811Y-3649046D01*
G01X-352639Y-3635622D01*
G01X-348861Y-3621339D01*
G01X-347589Y-3606619D01*
G01X-347589Y-3526620D01*
G01X-349465Y-3508778D01*
G01X-355008Y-3491716D01*
G01X-363978Y-3476179D01*
G01X-375983Y-3462847D01*
G01X-390496Y-3452303D01*
G01X-406885Y-3445006D01*
G01X-424433Y-3441276D01*
G01X-442373Y-3441276D01*
G01X-459921Y-3445006D01*
G01X-476310Y-3452303D01*
G01X-490824Y-3462847D01*
G01X-502828Y-3476179D01*
G01X-511798Y-3491716D01*
G01X-517342Y-3508778D01*
G01X-519217Y-3526620D01*
G01X-519217Y-3606619D01*
G01X-517945Y-3621339D01*
G01X-514168Y-3635622D01*
G01X-507996Y-3649046D01*
G01X-499613Y-3661212D01*
G01X-1464186Y-3661212D01*
G01X-1464186Y-3403998D01*
G01X162772Y-3403998D01*
G01X166669Y-3419690D01*
G01X174247Y-3433971D01*
G01X185056Y-3445995D01*
G01X198454Y-3455046D01*
G01X213643Y-3460585D01*
G01X229721Y-3462285D01*
G01X245733Y-3460043D01*
G01X260726Y-3453993D01*
G01X273810Y-3444494D01*
G01X284500Y-3444494D01*
G01X297056Y-3442841D01*
G01X308757Y-3437994D01*
G01X318805Y-3430285D01*
G01X322375Y-3426714D01*
G01X761054Y-3426714D01*
G01X773610Y-3425061D01*
G01X785311Y-3420214D01*
G01X795358Y-3412505D01*
G01X1096025Y-3111838D01*
G01X1103734Y-3101791D01*
G01X1108581Y-3090090D01*
G01X1110234Y-3077534D01*
G01X1110234Y-2142154D01*
G01X1113805Y-2138584D01*
G01X1121514Y-2128536D01*
G01X1126361Y-2116835D01*
G01X1128014Y-2104279D01*
G01X1128014Y-2093589D01*
G01X1137513Y-2080505D01*
G01X1143563Y-2065512D01*
G01X1145805Y-2049500D01*
G01X1144105Y-2033422D01*
G01X1138566Y-2018233D01*
G01X1129515Y-2004835D01*
G01X1117491Y-1994026D01*
G01X1103210Y-1986448D01*
G01X1087518Y-1982552D01*
G01X1071350Y-1982568D01*
G01X1055667Y-1986496D01*
G01X1041400Y-1994103D01*
G01X1027133Y-1986496D01*
G01X1011450Y-1982568D01*
G01X995282Y-1982552D01*
G01X979590Y-1986448D01*
G01X965309Y-1994026D01*
G01X953285Y-2004835D01*
G01X944234Y-2018233D01*
G01X938695Y-2033422D01*
G01X936995Y-2049500D01*
G01X939237Y-2065512D01*
G01X945287Y-2080505D01*
G01X954786Y-2093589D01*
G01X954786Y-2104279D01*
G01X956439Y-2116835D01*
G01X961286Y-2128536D01*
G01X968995Y-2138584D01*
G01X972566Y-2142154D01*
G01X972566Y-3040605D01*
G01X724125Y-3289046D01*
G01X438929Y-3289046D01*
G01X438929Y-3289046D01*
G01X456593Y-3285421D01*
G01X473109Y-3278184D01*
G01X487748Y-3267656D01*
G01X499865Y-3254301D01*
G01X508923Y-3238709D01*
G01X514523Y-3221569D01*
G01X516417Y-3203637D01*
G01X516417Y-3093637D01*
G01X514542Y-3075795D01*
G01X508998Y-3058734D01*
G01X500028Y-3043197D01*
G01X488024Y-3029865D01*
G01X473510Y-3019320D01*
G01X457121Y-3012023D01*
G01X439573Y-3008293D01*
G01X421633Y-3008293D01*
G01X404085Y-3012023D01*
G01X387696Y-3019320D01*
G01X373182Y-3029865D01*
G01X361178Y-3043197D01*
G01X352208Y-3058734D01*
G01X346664Y-3075795D01*
G01X344789Y-3093637D01*
G01X344789Y-3161258D01*
G01X334358Y-3148820D01*
G01X321287Y-3139194D01*
G01X306313Y-3132924D01*
G01X290283Y-3130364D01*
G01X274101Y-3131658D01*
G01X258682Y-3136734D01*
G01X244895Y-3145305D01*
G01X233521Y-3156887D01*
G01X225200Y-3170826D01*
G01X220402Y-3186334D01*
G01X219400Y-3202537D01*
G01X222249Y-3218518D01*
G01X228788Y-3233376D01*
G01X238648Y-3246272D01*
G01X251273Y-3256477D01*
G01X265949Y-3263415D01*
G01X281847Y-3266695D01*
G01X298071Y-3266131D01*
G01X313703Y-3261754D01*
G01X327862Y-3253813D01*
G01X339747Y-3242755D01*
G01X348687Y-3229206D01*
G01X355201Y-3244607D01*
G01X364579Y-3258453D01*
G01X376463Y-3270217D01*
G01X390404Y-3279453D01*
G01X405871Y-3285810D01*
G01X422277Y-3289046D01*
G01X322375Y-3289046D01*
G01X318805Y-3285475D01*
G01X308757Y-3277766D01*
G01X297056Y-3272919D01*
G01X284500Y-3271266D01*
G01X273810Y-3271266D01*
G01X260726Y-3261767D01*
G01X245733Y-3255717D01*
G01X229721Y-3253475D01*
G01X213643Y-3255175D01*
G01X198454Y-3260714D01*
G01X185056Y-3269765D01*
G01X174247Y-3281789D01*
G01X166669Y-3296070D01*
G01X162772Y-3311762D01*
G01X162789Y-3327930D01*
G01X166717Y-3343613D01*
G01X174324Y-3357880D01*
G01X166717Y-3372147D01*
G01X162789Y-3387830D01*
G01X162772Y-3403998D01*
G01X-1464186Y-3403998D01*
G01X-1464186Y-3093637D01*
G01X-519217Y-3093637D01*
G01X-519217Y-3203637D01*
G01X-517458Y-3220925D01*
G01X-512252Y-3237503D01*
G01X-503813Y-3252694D01*
G01X-492486Y-3265872D01*
G01X-478737Y-3276499D01*
G01X-463130Y-3284138D01*
G01X-446303Y-3288476D01*
G01X-428947Y-3289335D01*
G01X-411774Y-3286680D01*
G01X-395488Y-3280621D01*
G01X-380757Y-3271404D01*
G01X-368184Y-3259409D01*
G01X-358286Y-3245127D01*
G01X-351468Y-3229143D01*
G01X-342529Y-3242674D01*
G01X-330654Y-3253717D01*
G01X-316509Y-3261650D01*
G01X-300894Y-3266025D01*
G01X-284687Y-3266597D01*
G01X-268802Y-3263332D01*
G01X-254135Y-3256414D01*
G01X-254135Y-3256414D01*
G01X-241511Y-3246235D01*
G01X-231642Y-3233367D01*
G01X-225085Y-3218535D01*
G01X-222208Y-3202575D01*
G01X-223174Y-3186387D01*
G01X-227929Y-3170883D01*
G01X-236204Y-3156937D01*
G01X-221634Y-3154125D01*
G01X-208053Y-3148144D01*
G01X-196142Y-3139292D01*
G01X-186498Y-3128014D01*
G01X-179604Y-3114873D01*
G01X-175804Y-3100528D01*
G01X-175289Y-3085698D01*
G01X-178085Y-3071124D01*
G01X-184052Y-3057537D01*
G01X-192891Y-3045617D01*
G01X-192891Y-2877700D01*
G01X-99264Y-2784073D01*
G01X-84082Y-2781759D01*
G01X-69841Y-2776014D01*
G01X-57302Y-2767148D01*
G01X-47139Y-2755636D01*
G01X-39896Y-2742094D01*
G01X-35963Y-2727250D01*
G01X-35549Y-2711899D01*
G01X-38678Y-2696864D01*
G01X-45180Y-2682952D01*
G01X-54709Y-2670909D01*
G01X-66752Y-2661380D01*
G01X-80664Y-2654878D01*
G01X-95699Y-2651749D01*
G01X-111050Y-2652163D01*
G01X-125894Y-2656096D01*
G01X-139436Y-2663339D01*
G01X-150948Y-2673502D01*
G01X-159814Y-2686041D01*
G01X-165559Y-2700282D01*
G01X-167873Y-2715464D01*
G01X-275709Y-2823300D01*
G01X-283419Y-2833348D01*
G01X-288266Y-2845048D01*
G01X-289919Y-2857605D01*
G01X-289919Y-3045617D01*
G01X-298995Y-3057949D01*
G01X-305000Y-3072035D01*
G01X-307615Y-3087122D01*
G01X-306700Y-3102407D01*
G01X-302303Y-3117074D01*
G01X-294659Y-3130342D01*
G01X-310249Y-3133156D01*
G01X-324771Y-3139485D01*
G01X-337445Y-3148989D01*
G01X-347589Y-3161157D01*
G01X-347589Y-3093637D01*
G01X-349465Y-3075795D01*
G01X-355008Y-3058734D01*
G01X-363978Y-3043197D01*
G01X-375983Y-3029865D01*
G01X-390496Y-3019320D01*
G01X-406885Y-3012023D01*
G01X-424433Y-3008293D01*
G01X-442373Y-3008293D01*
G01X-459921Y-3012023D01*
G01X-476310Y-3019320D01*
G01X-490824Y-3029865D01*
G01X-502828Y-3043197D01*
G01X-511798Y-3058734D01*
G01X-517342Y-3075795D01*
G01X-519217Y-3093637D01*
G01X-1464186Y-3093637D01*
G01X-1464186Y-787400D01*
G01X-1378114Y-787400D01*
G01X-1376278Y-808379D01*
G01X-1370828Y-828721D01*
G01X-1361928Y-847807D01*
G01X-1349849Y-865058D01*
G01X-1334958Y-879949D01*
G01X-1317707Y-892028D01*
G01X-1298621Y-900928D01*
G01X-1278279Y-906378D01*
G01X-1257300Y-908214D01*
G01X-1257300Y-908214D01*
G01X-1236321Y-906378D01*
G01X-1215979Y-900928D01*
G01X-1196893Y-892028D01*
G01X-1179642Y-879949D01*
G01X-1164751Y-865058D01*
G01X-1152672Y-847807D01*
G01X-1143772Y-828721D01*
G01X-1138322Y-808379D01*
G01X-1136486Y-787400D01*
G01X-1138322Y-766421D01*
G01X-1143772Y-746079D01*
G01X-1152672Y-726993D01*
G01X-1164751Y-709742D01*
G01X-1179642Y-694851D01*
G01X-1196893Y-682772D01*
G01X-1215979Y-673872D01*
G01X-1236321Y-668422D01*
G01X-1257300Y-666586D01*
G01X-1278279Y-668422D01*
G01X-1298621Y-673872D01*
G01X-1317707Y-682772D01*
G01X-1334958Y-694851D01*
G01X-1349849Y-709742D01*
G01X-1361928Y-726993D01*
G01X-1370828Y-746079D01*
G01X-1376278Y-766421D01*
G01X-1378114Y-787400D01*
G01X-1464186Y-787400D01*
G01X-1464186Y-141123D01*
G01X-1369843Y-235467D01*
G01X-1375865Y-256198D01*
G01X-1378101Y-277671D01*
G01X-1376481Y-299198D01*
G01X-1371054Y-320094D01*
G01X-1361995Y-339690D01*
G01X-1349594Y-357361D01*
G01X-1334245Y-372542D01*
G01X-1316439Y-384750D01*
G01X-1296745Y-393593D01*
G01X-1275791Y-398790D01*
G01X-1254247Y-400175D01*
G01X-1232801Y-397704D01*
G01X-1212136Y-391455D01*
G01X-1192914Y-381627D01*
G01X-1192914Y-400405D01*
G01X-1213367Y-420857D01*
G01X-1234449Y-414767D01*
G01X-1256286Y-412590D01*
G01X-1278156Y-414400D01*
G01X-1299338Y-420136D01*
G01X-1319133Y-429608D01*
G01X-1336887Y-442505D01*
G01X-1352016Y-458401D01*
G01X-1364020Y-476772D01*
G01X-1372503Y-497011D01*
G01X-1377185Y-518450D01*
G01X-1377912Y-540383D01*
G01X-1374659Y-562085D01*
G01X-1367534Y-582841D01*
G01X-1356772Y-601966D01*
G01X-1342728Y-618828D01*
G01X-1325866Y-632872D01*
G01X-1306741Y-643634D01*
G01X-1285985Y-650759D01*
G01X-1264283Y-654012D01*
G01X-1242350Y-653285D01*
G01X-1220911Y-648603D01*
G01X-1200672Y-640120D01*
G01X-1182301Y-628116D01*
G01X-1166405Y-612987D01*
G01X-1153508Y-595233D01*
G01X-1144036Y-575438D01*
G01X-1138300Y-554256D01*
G01X-1136490Y-532386D01*
G01X-1138667Y-510549D01*
G01X-1144757Y-489467D01*
G01X-1110095Y-454805D01*
G01X-1102386Y-444757D01*
G01X-1097539Y-433056D01*
G01X-1095886Y-420500D01*
G01X-1095886Y-232635D01*
G01X-1097539Y-220079D01*
G01X-1102386Y-208378D01*
G01X-1110095Y-198331D01*
G01X-1176231Y-132195D01*
G01X-1187335Y-123893D01*
G01X-1171903Y-110860D01*
G01X-1158859Y-95438D01*
G01X-1148566Y-78058D01*
G01X-1141312Y-59206D01*
G01X-1137301Y-39409D01*
G01X-1136644Y-19220D01*
G01X-1139360Y796D01*
G01X-1145373Y20079D01*
G01X-1154515Y38091D01*
G01X-1166529Y54329D01*
G01X-1181081Y68337D01*
G01X-1197764Y79726D01*
G01X-1216111Y88176D01*
G01X-1235609Y93451D01*
G01X-1255714Y95403D01*
G01X-1275863Y93979D01*
G01X-1295493Y89218D01*
G01X-1314055Y81253D01*
G01X-1331031Y70306D01*
G01X-1345946Y56685D01*
G01X-1345946Y146515D01*
G01X-1330699Y132639D01*
G01X-1313314Y121556D01*
G01X-1294298Y113591D01*
G01X-1274205Y108975D01*
G01X-1253620Y107842D01*
G01X-1233141Y110226D01*
G01X-1213367Y116057D01*
G01X-848614Y-248695D01*
G01X-848614Y-468258D01*
G01X-859178Y-457113D01*
G01X-872022Y-448698D01*
G01X-886457Y-443461D01*
G01X-901710Y-441686D01*
G01X-916962Y-443466D01*
G01X-931396Y-448707D01*
G01X-944238Y-457126D01*
G01X-954798Y-468274D01*
G01X-962512Y-481552D01*
G01X-966964Y-496248D01*
G01X-967918Y-511574D01*
G01X-965320Y-526708D01*
G01X-959312Y-540840D01*
G01X-950214Y-553210D01*
G01X-950214Y-665705D01*
G01X-1205095Y-920586D01*
G01X-1342300Y-920586D01*
G01X-1353367Y-922339D01*
G01X-1363351Y-927426D01*
G01X-1371274Y-935349D01*
G01X-1376361Y-945333D01*
G01X-1378114Y-956400D01*
G01X-1378114Y-1126400D01*
G01X-1376361Y-1137467D01*
G01X-1371274Y-1147451D01*
G01X-1363351Y-1155374D01*
G01X-1353367Y-1160461D01*
G01X-1342300Y-1162214D01*
G01X-1205095Y-1162214D01*
G01X-1128014Y-1239295D01*
G01X-1128014Y-1732790D01*
G01X-1137112Y-1745161D01*
G01X-1143121Y-1759294D01*
G01X-1145718Y-1774429D01*
G01X-1144764Y-1789756D01*
G01X-1140310Y-1804453D01*
G01X-1132594Y-1817731D01*
G01X-1122032Y-1828878D01*
G01X-1109189Y-1837297D01*
G01X-1094753Y-1842536D01*
G01X-1079500Y-1844314D01*
G01X-1064247Y-1842536D01*
G01X-1049811Y-1837297D01*
G01X-1036968Y-1828878D01*
G01X-1026406Y-1817731D01*
G01X-1018690Y-1804453D01*
G01X-1014236Y-1789756D01*
G01X-1013282Y-1774429D01*
G01X-1015879Y-1759294D01*
G01X-1021888Y-1745161D01*
G01X-1030986Y-1732790D01*
G01X-1030986Y-1219200D01*
G01X-1032639Y-1206644D01*
G01X-1037486Y-1194943D01*
G01X-1045195Y-1184895D01*
G01X-1136486Y-1093605D01*
G01X-1136486Y-989195D01*
G01X-867395Y-720105D01*
G01X-859686Y-710057D01*
G01X-854839Y-698356D01*
G01X-853186Y-685800D01*
G01X-853186Y-553210D01*
G01X-848614Y-547742D01*
G01X-848614Y-2748790D01*
G01X-857712Y-2761161D01*
G01X-863721Y-2775294D01*
G01X-866318Y-2790429D01*
G01X-865364Y-2805756D01*
G01X-860910Y-2820453D01*
G01X-853194Y-2833731D01*
G01X-842632Y-2844878D01*
G01X-829789Y-2853297D01*
G01X-815353Y-2858536D01*
G01X-800100Y-2860314D01*
G01X-784847Y-2858536D01*
G01X-770411Y-2853297D01*
G01X-757568Y-2844878D01*
G01X-747006Y-2833731D01*
G01X-739290Y-2820453D01*
G01X-734836Y-2805756D01*
G01X-733882Y-2790429D01*
G01X-736479Y-2775294D01*
G01X-742488Y-2761161D01*
G01X-751586Y-2748790D01*
G01X-751586Y-2669073D01*
G01X-736710Y-2669626D01*
G01X-722086Y-2666847D01*
G01X-708450Y-2660876D01*
G01X-696490Y-2652014D01*
G01X-208356Y-2652014D01*
G01X-195800Y-2650361D01*
G01X-184099Y-2645514D01*
G01X-174052Y-2637805D01*
G01X187680Y-2276073D01*
G01X201121Y-2274210D01*
G01X213902Y-2269650D01*
G01X225487Y-2262583D01*
G01X235391Y-2253307D01*
G01X243199Y-2242208D01*
G01X810027Y-2809036D01*
G01X812341Y-2824218D01*
G01X818086Y-2838459D01*
G01X826952Y-2850998D01*
G01X838464Y-2861161D01*
G01X852006Y-2868404D01*
G01X866850Y-2872337D01*
G01X882201Y-2872751D01*
G01X897236Y-2869622D01*
G01X911148Y-2863120D01*
G01X923191Y-2853591D01*
G01X932720Y-2841548D01*
G01X939222Y-2827636D01*
G01X942351Y-2812601D01*
G01X941937Y-2797250D01*
G01X938004Y-2782406D01*
G01X930761Y-2768864D01*
G01X920598Y-2757352D01*
G01X908059Y-2748486D01*
G01X893818Y-2742741D01*
G01X878636Y-2740427D01*
G01X-54595Y-1807195D01*
G01X-64643Y-1799486D01*
G01X-76344Y-1794639D01*
G01X-88900Y-1792986D01*
G01X-665990Y-1792986D01*
G01X-678480Y-1783820D01*
G01X-692757Y-1777802D01*
G01X-708040Y-1775261D01*
G01X-723495Y-1776336D01*
G01X-738280Y-1780967D01*
G01X-751586Y-1788902D01*
G01X-751586Y-1354633D01*
G01X-749980Y-1354633D01*
G01X-748202Y-1369886D01*
G01X-742963Y-1384322D01*
G01X-734544Y-1397165D01*
G01X-723397Y-1407727D01*
G01X-710119Y-1415442D01*
G01X-695423Y-1419896D01*
G01X-680096Y-1420851D01*
G01X-664960Y-1418254D01*
G01X-650828Y-1412245D01*
G01X-638456Y-1403147D01*
G01X-414833Y-1403147D01*
G01X-402276Y-1401494D01*
G01X-390576Y-1396647D01*
G01X-380528Y-1388937D01*
G01X-378664Y-1387073D01*
G01X-362503Y-1384482D01*
G01X-347469Y-1378012D01*
G01X-334478Y-1368057D01*
G01X-324321Y-1355224D01*
G01X-317616Y-1340293D01*
G01X-314772Y-1324175D01*
G01X-315962Y-1307852D01*
G01X-321115Y-1292317D01*
G01X-329915Y-1278517D01*
G01X-341827Y-1267293D01*
G01X-356125Y-1259328D01*
G01X-371938Y-1255108D01*
G01X-388304Y-1254889D01*
G01X-404224Y-1258686D01*
G01X-418730Y-1266266D01*
G01X-430938Y-1277167D01*
G01X-440103Y-1290727D01*
G01X-445669Y-1306119D01*
G01X-638456Y-1306119D01*
G01X-650828Y-1297021D01*
G01X-664960Y-1291012D01*
G01X-680096Y-1288415D01*
G01X-695423Y-1289369D01*
G01X-710119Y-1293823D01*
G01X-723397Y-1301538D01*
G01X-734544Y-1312101D01*
G01X-742963Y-1324944D01*
G01X-748202Y-1339379D01*
G01X-749980Y-1354633D01*
G01X-749980Y-1354633D01*
G01X-751586Y-1354633D01*
G01X-751586Y-814970D01*
G01X-738836Y-820361D01*
G01X-725245Y-822987D01*
G01X-711405Y-822735D01*
G01X-697918Y-819615D01*
G01X-685373Y-813763D01*
G01X-674317Y-805434D01*
G01X-663627Y-805434D01*
G01X-652824Y-804216D01*
G01X-642563Y-800623D01*
G01X-633360Y-794835D01*
G01X183449Y-1611645D01*
G01X193496Y-1619354D01*
G01X205197Y-1624201D01*
G01X217753Y-1625854D01*
G01X503149Y-1625854D01*
G01X505564Y-1636454D01*
G01X510278Y-1646250D01*
G01X517056Y-1654750D01*
G01X524615Y-1662309D01*
G01X527150Y-1678277D01*
G01X533474Y-1693157D01*
G01X543210Y-1706064D01*
G01X555781Y-1716232D01*
G01X570439Y-1723055D01*
G01X586312Y-1726129D01*
G01X602457Y-1725270D01*
G01X617914Y-1720529D01*
G01X631765Y-1712189D01*
G01X643186Y-1700746D01*
G01X651499Y-1686878D01*
G01X656208Y-1671411D01*
G01X671675Y-1666702D01*
G01X685542Y-1658389D01*
G01X696986Y-1646968D01*
G01X705326Y-1633118D01*
G01X710067Y-1617660D01*
G01X710926Y-1601515D01*
G01X707852Y-1585642D01*
G01X701029Y-1570984D01*
G01X690861Y-1558414D01*
G01X677954Y-1548677D01*
G01X663074Y-1542353D01*
G01X647106Y-1539818D01*
G01X639547Y-1532259D01*
G01X629499Y-1524549D01*
G01X617799Y-1519703D01*
G01X605242Y-1518050D01*
G01X600192Y-1518050D01*
G01X584538Y-1502395D01*
G01X574491Y-1494686D01*
G01X562790Y-1489839D01*
G01X550234Y-1488186D01*
G01X254682Y-1488186D01*
G01X-569204Y-664300D01*
G01X1174586Y-664300D01*
G01X1174586Y-834300D01*
G01X1176339Y-845367D01*
G01X1181426Y-855351D01*
G01X1189349Y-863274D01*
G01X1199333Y-868361D01*
G01X1210400Y-870114D01*
G01X1380400Y-870114D01*
G01X1391467Y-868361D01*
G01X1401451Y-863274D01*
G01X1409374Y-855351D01*
G01X1414461Y-845367D01*
G01X1416214Y-834300D01*
G01X1416214Y-664300D01*
G01X1416214Y-664300D01*
G01X1414461Y-653233D01*
G01X1409374Y-643249D01*
G01X1401451Y-635326D01*
G01X1391467Y-630239D01*
G01X1380400Y-628486D01*
G01X1210400Y-628486D01*
G01X1199333Y-630239D01*
G01X1189349Y-635326D01*
G01X1181426Y-643249D01*
G01X1176339Y-653233D01*
G01X1174586Y-664300D01*
G01X-569204Y-664300D01*
G01X-569308Y-664195D01*
G01X-579356Y-656486D01*
G01X-591057Y-651639D01*
G01X-603613Y-649986D01*
G01X-625751Y-649986D01*
G01X-629322Y-646415D01*
G01X-639370Y-638706D01*
G01X-651070Y-633859D01*
G01X-663627Y-632206D01*
G01X-674317Y-632206D01*
G01X-685373Y-623877D01*
G01X-697918Y-618025D01*
G01X-711405Y-614905D01*
G01X-725245Y-614653D01*
G01X-738836Y-617279D01*
G01X-751586Y-622670D01*
G01X-751586Y-228600D01*
G01X-753239Y-216044D01*
G01X-758086Y-204343D01*
G01X-765795Y-194295D01*
G01X-958236Y-1855D01*
G01X-705229Y-1855D01*
G01X-704815Y-17206D01*
G01X-700881Y-32051D01*
G01X-693639Y-45592D01*
G01X-683476Y-57105D01*
G01X-670937Y-65971D01*
G01X-656695Y-71715D01*
G01X-641514Y-74029D01*
G01X-211339Y-504205D01*
G01X-201291Y-511914D01*
G01X-189591Y-516761D01*
G01X-177034Y-518414D01*
G01X1066800Y-518414D01*
G01X1079356Y-516761D01*
G01X1091057Y-511914D01*
G01X1101105Y-504205D01*
G01X1110009Y-495300D01*
G01X1174586Y-495300D01*
G01X1176422Y-516279D01*
G01X1181872Y-536621D01*
G01X1190772Y-555707D01*
G01X1202851Y-572958D01*
G01X1217742Y-587849D01*
G01X1234993Y-599928D01*
G01X1254079Y-608828D01*
G01X1274421Y-614278D01*
G01X1295400Y-616114D01*
G01X1295400Y-616114D01*
G01X1316379Y-614278D01*
G01X1336721Y-608828D01*
G01X1355807Y-599928D01*
G01X1373058Y-587849D01*
G01X1387949Y-572958D01*
G01X1400028Y-555707D01*
G01X1408928Y-536621D01*
G01X1414378Y-516279D01*
G01X1416214Y-495300D01*
G01X1414378Y-474321D01*
G01X1408928Y-453979D01*
G01X1400028Y-434893D01*
G01X1387949Y-417642D01*
G01X1373058Y-402751D01*
G01X1355807Y-390672D01*
G01X1336721Y-381772D01*
G01X1316379Y-376322D01*
G01X1295400Y-374486D01*
G01X1274421Y-376322D01*
G01X1254079Y-381772D01*
G01X1234993Y-390672D01*
G01X1217742Y-402751D01*
G01X1202851Y-417642D01*
G01X1190772Y-434893D01*
G01X1181872Y-453979D01*
G01X1176422Y-474321D01*
G01X1174586Y-495300D01*
G01X1110009Y-495300D01*
G01X1251467Y-353843D01*
G01X1272549Y-359933D01*
G01X1294386Y-362110D01*
G01X1316256Y-360300D01*
G01X1337438Y-354564D01*
G01X1357233Y-345092D01*
G01X1374987Y-332195D01*
G01X1390116Y-316299D01*
G01X1402120Y-297928D01*
G01X1410603Y-277689D01*
G01X1415285Y-256250D01*
G01X1416012Y-234317D01*
G01X1412759Y-212615D01*
G01X1405634Y-191859D01*
G01X1394872Y-172734D01*
G01X1380828Y-155872D01*
G01X1363966Y-141828D01*
G01X1344841Y-131066D01*
G01X1324085Y-123941D01*
G01X1302383Y-120688D01*
G01X1280450Y-121415D01*
G01X1259011Y-126097D01*
G01X1238772Y-134580D01*
G01X1220401Y-146584D01*
G01X1204505Y-161713D01*
G01X1191608Y-179467D01*
G01X1182136Y-199262D01*
G01X1176400Y-220444D01*
G01X1174590Y-242314D01*
G01X1176767Y-264151D01*
G01X1182857Y-285233D01*
G01X1046705Y-421386D01*
G01X929923Y-421386D01*
G01X1251467Y-99843D01*
G01X1272549Y-105933D01*
G01X1294386Y-108110D01*
G01X1316256Y-106300D01*
G01X1337438Y-100564D01*
G01X1357233Y-91092D01*
G01X1374987Y-78195D01*
G01X1390116Y-62299D01*
G01X1402120Y-43928D01*
G01X1410603Y-23689D01*
G01X1415285Y-2250D01*
G01X1416012Y19683D01*
G01X1412759Y41385D01*
G01X1405634Y62141D01*
G01X1394872Y81266D01*
G01X1380828Y98128D01*
G01X1363966Y112172D01*
G01X1344841Y122934D01*
G01X1324085Y130059D01*
G01X1302383Y133312D01*
G01X1280450Y132585D01*
G01X1259011Y127903D01*
G01X1238772Y119420D01*
G01X1220401Y107416D01*
G01X1204505Y92287D01*
G01X1191608Y74533D01*
G01X1182136Y54738D01*
G01X1176400Y33556D01*
G01X1174590Y11686D01*
G01X1176767Y-10151D01*
G01X1182857Y-31233D01*
G01X870913Y-343178D01*
G01X857205Y-340386D01*
G01X843217Y-340533D01*
G01X829570Y-343610D01*
G01X816873Y-349481D01*
G01X805690Y-357886D01*
G01X-30705Y-357886D01*
G01X-378227Y-10364D01*
G01X-380541Y4818D01*
G01X-386286Y19059D01*
G01X-395152Y31598D01*
G01X-406664Y41761D01*
G01X-420206Y49004D01*
G01X-435050Y52937D01*
G01X-450401Y53351D01*
G01X-465436Y50222D01*
G01X-479348Y43720D01*
G01X-491391Y34191D01*
G01X-500920Y22148D01*
G01X-507422Y8236D01*
G01X-510551Y-6799D01*
G01X-510137Y-22150D01*
G01X-506204Y-36994D01*
G01X-498961Y-50536D01*
G01X-488798Y-62048D01*
G01X-476259Y-70914D01*
G01X-462018Y-76659D01*
G01X-446836Y-78973D01*
G01X-104423Y-421386D01*
G01X-156939Y-421386D01*
G01X-572905Y-5420D01*
G01X-572905Y-5420D01*
G01X-575219Y9761D01*
G01X-580963Y24003D01*
G01X-589830Y36542D01*
G01X-601342Y46705D01*
G01X-614884Y53947D01*
G01X-629728Y57881D01*
G01X-645079Y58294D01*
G01X-660114Y55166D01*
G01X-674026Y48663D01*
G01X-686069Y39135D01*
G01X-695597Y27092D01*
G01X-702100Y13180D01*
G01X-705229Y-1855D01*
G01X-958236Y-1855D01*
G01X-1144757Y184667D01*
G01X-1139486Y201845D01*
G01X-1136821Y219615D01*
G01X-1136821Y237585D01*
G01X-1139486Y255355D01*
G01X-1144757Y272533D01*
G01X-43405Y1373886D01*
G01X615190Y1373886D01*
G01X627561Y1364788D01*
G01X641694Y1358779D01*
G01X656829Y1356182D01*
G01X672156Y1357136D01*
G01X686853Y1361590D01*
G01X700131Y1369306D01*
G01X711278Y1379868D01*
G01X719697Y1392711D01*
G01X724936Y1407147D01*
G01X726714Y1422400D01*
G01X724936Y1437653D01*
G01X719697Y1452089D01*
G01X711278Y1464932D01*
G01X700131Y1475494D01*
G01X686853Y1483210D01*
G01X672156Y1487664D01*
G01X656829Y1488618D01*
G01X641694Y1486021D01*
G01X627561Y1480012D01*
G01X615190Y1470914D01*
G01X-63500Y1470914D01*
G01X-76056Y1469261D01*
G01X-87757Y1464414D01*
G01X-97805Y1456705D01*
G01X-1213367Y341143D01*
G01X-1233141Y346974D01*
G01X-1253620Y349358D01*
G01X-1274205Y348225D01*
G01X-1294298Y343609D01*
G01X-1313314Y335644D01*
G01X-1330699Y324561D01*
G01X-1345946Y310685D01*
G01X-1345946Y619549D01*
G01X588535Y2554030D01*
G01X597738Y2548242D01*
G01X607999Y2544649D01*
G01X618802Y2543431D01*
G01X629492Y2543431D01*
G01X642575Y2533933D01*
G01X657568Y2527883D01*
G01X673580Y2525641D01*
G01X689659Y2527340D01*
G01X704848Y2532879D01*
G01X718245Y2541930D01*
G01X729054Y2553954D01*
G01X736632Y2568236D01*
G01X740529Y2583927D01*
G01X740513Y2600095D01*
G01X736585Y2615779D01*
G01X728978Y2630045D01*
G01X736585Y2644312D01*
G01X740513Y2659996D01*
G01X740529Y2676163D01*
G01X736632Y2691855D01*
G01X729054Y2706137D01*
G01X718245Y2718160D01*
G01X704848Y2727211D01*
G01X689659Y2732751D01*
G01X673580Y2734450D01*
G01X657568Y2732208D01*
G01X642575Y2726158D01*
G01X629492Y2716659D01*
G01X618802Y2716659D01*
G01X606245Y2715006D01*
G01X594545Y2710160D01*
G01X584497Y2702450D01*
G01X580926Y2698879D01*
G01X558788Y2698879D01*
G01X546231Y2697226D01*
G01X534531Y2692380D01*
G01X524483Y2684670D01*
G01X-1464186Y696001D01*
G01X-1464186Y2953190D01*
G01X-1223592Y2953190D01*
G01X-1220995Y2938054D01*
G01X-1214986Y2923922D01*
G01X-1205888Y2911550D01*
G01X-1205888Y1300644D01*
G01X-1214510Y1287942D01*
G01X-1219980Y1273598D01*
G01X-1222005Y1258381D01*
G01X-1220477Y1243105D01*
G01X-1215477Y1228590D01*
G01X-1207274Y1215614D01*
G01X-1196306Y1204872D01*
G01X-1183162Y1196940D01*
G01X-1168547Y1192242D01*
G01X-1153243Y1191031D01*
G01X-1153243Y1191031D01*
G01X-1138071Y1193372D01*
G01X-1123843Y1199139D01*
G01X-1111323Y1208023D01*
G01X-1101181Y1219548D01*
G01X-1093961Y1233096D01*
G01X-1090050Y1247941D01*
G01X-1089657Y1263288D01*
G01X-1092803Y1278314D01*
G01X-1099321Y1292213D01*
G01X-1108860Y1304242D01*
G01X-1108860Y2911550D01*
G01X-1099762Y2923922D01*
G01X-1093753Y2938054D01*
G01X-1091156Y2953190D01*
G01X-1092110Y2968517D01*
G01X-1096564Y2983213D01*
G01X-1104279Y2996491D01*
G01X-1114842Y3007638D01*
G01X-1127685Y3016057D01*
G01X-1142120Y3021296D01*
G01X-1157374Y3023074D01*
G01X-1172627Y3021296D01*
G01X-1187063Y3016057D01*
G01X-1199906Y3007638D01*
G01X-1210468Y2996491D01*
G01X-1218183Y2983213D01*
G01X-1222638Y2968517D01*
G01X-1223592Y2953190D01*
G01X-1464186Y2953190D01*
G01X-1464186Y3251160D01*
G01X1464186Y3251160D01*
G01X1464186Y-3661212D01*
G01X496813Y-3661212D01*
G01X505196Y-3649046D01*
G01X511367Y-3635622D01*
G01X515145Y-3621339D01*
G01X516417Y-3606619D01*
G01X516417Y-3526620D01*
G01X514542Y-3508778D01*
G01X508998Y-3491716D01*
G01X500028Y-3476179D01*
G01X488024Y-3462847D01*
G01X473510Y-3452303D01*
G01X457121Y-3445006D01*
G01X439573Y-3441276D01*
G01X421633Y-3441276D01*
G01X404085Y-3445006D01*
G01X387696Y-3452303D01*
G01X373182Y-3462847D01*
G01X361178Y-3476179D01*
G01X352208Y-3491716D01*
G01X346664Y-3508778D01*
G01X344789Y-3526620D01*
G01X344789Y-3606619D01*
G01X346061Y-3621339D01*
G01X349839Y-3635622D01*
G01X356011Y-3649046D01*
G01X364394Y-3661212D01*
G37*
G54D10*
G01X364394Y-3661212D02*
G01X-367194Y-3661212D01*
G03X-347589Y-3606619I-66210J54592D01*
G01X-347589Y-3526620D01*
G03X-519217Y-3526620I-85814J0D01*
G01X-519217Y-3606619D01*
G03X-499613Y-3661212I85814J0D01*
G01X-1464186Y-3661212D01*
G01X-1464186Y-141123D01*
G01X-1369843Y-235467D01*
G03X-1334245Y-372542I112543J-43933D01*
G03X-1192914Y-381627I76945J93142D01*
G01X-1192914Y-400405D01*
G01X-1213367Y-420857D01*
G03X-1342728Y-618828I-43933J-112543D01*
G03X-1144757Y-489467I85428J85428D01*
G01X-1110095Y-454805D01*
G03X-1095886Y-420500I-34305J34305D01*
G01X-1095886Y-232635D01*
G03X-1110095Y-198331I-48514J0D01*
G01X-1176231Y-132195D01*
G03X-1187335Y-123893I-34305J-34305D01*
G03X-1166529Y54329I-69965J98493D01*
G03X-1345946Y56685I-90771J-79729D01*
G01X-1345946Y146515D01*
G03X-1213367Y116057I88646J82085D01*
G01X-848614Y-248695D01*
G01X-848614Y-468258D01*
G03X-944238Y-457126I-53086J-39742D01*
G03X-950214Y-553210I42538J-50874D01*
G01X-950214Y-665705D01*
G01X-1205095Y-920586D01*
G01X-1342300Y-920586D01*
G03X-1378114Y-956400I0J-35814D01*
G01X-1378114Y-1126400D01*
G03X-1342300Y-1162214I35814J0D01*
G01X-1205095Y-1162214D01*
G01X-1128014Y-1239295D01*
G01X-1128014Y-1732790D01*
G03X-1079500Y-1844314I48514J-45210D01*
G03X-1030986Y-1732790I0J66314D01*
G01X-1030986Y-1219200D01*
G03X-1045195Y-1184895I-48514J0D01*
G01X-1136486Y-1093605D01*
G01X-1136486Y-989195D01*
G01X-867395Y-720105D01*
G03X-853186Y-685800I-34305J34305D01*
G01X-853186Y-553210D01*
G03X-848614Y-547742I-48514J45210D01*
G01X-848614Y-2748790D01*
G03X-800100Y-2860314I48514J-45210D01*
G03X-751586Y-2748790I0J66314D01*
G01X-751586Y-2669073D01*
G03X-696490Y-2652014I9886J65573D01*
G01X-208356Y-2652014D01*
G03X-174052Y-2637805I0J48514D01*
G01X187680Y-2276073D01*
G03X243199Y-2242208I-2336J66273D01*
G01X810027Y-2809036D01*
G03X923191Y-2853591I66273J2336D01*
G03X878636Y-2740427I-46891J46891D01*
G01X-54595Y-1807195D01*
G03X-88900Y-1792986I-34305J-34305D01*
G01X-665990Y-1792986D01*
G03X-751586Y-1788902I-45210J-48514D01*
G01X-751586Y-814970D01*
G03X-674317Y-805434I32059J58050D01*
G01X-663627Y-805434D01*
G03X-633360Y-794835I0J48514D01*
G01X183449Y-1611645D01*
G03X217753Y-1625854I34305J34305D01*
G01X503149Y-1625854D01*
G03X517056Y-1654750I48212J5409D01*
G01X524615Y-1662309D01*
G03X586312Y-1726129I66273J2336D01*
G03X656208Y-1671411I4576J66156D01*
G03X710926Y-1601515I-11438J65320D01*
G03X647106Y-1539818I-66156J-4576D01*
G01X639547Y-1532259D01*
G03X605242Y-1518050I-34305J-34305D01*
G01X600192Y-1518050D01*
G01X584538Y-1502395D01*
G03X550234Y-1488186I-34305J-34305D01*
G01X254682Y-1488186D01*
G01X-569308Y-664195D01*
G03X-603613Y-649986I-34305J-34305D01*
G01X-625751Y-649986D01*
G01X-629322Y-646415D01*
G03X-663627Y-632206I-34305J-34305D01*
G01X-674317Y-632206D01*
G03X-751586Y-622670I-45210J-48514D01*
G01X-751586Y-228600D01*
G03X-765795Y-194295I-48514J0D01*
G01X-1144757Y184667D01*
G03X-1144757Y272533I-112543J43933D01*
G01X-43405Y1373886D01*
G01X615190Y1373886D01*
G03X726714Y1422400I45210J48514D01*
G03X615190Y1470914I-66314J0D01*
G01X-63500Y1470914D01*
G03X-97805Y1456705I0J-48514D01*
G01X-1213367Y341143D01*
G03X-1345946Y310685I-43933J-112543D01*
G01X-1345946Y619549D01*
G01X588535Y2554030D01*
G03X618802Y2543431I30266J37915D01*
G01X629492Y2543431D01*
G03X718245Y2541930I45210J48514D01*
G03X728978Y2630045I-43544J50015D01*
G03X718245Y2718160I-54276J38100D01*
G03X629492Y2716659I-43544J-50015D01*
G01X618802Y2716659D01*
G03X584497Y2702450I0J-48514D01*
G01X580926Y2698879D01*
G01X558788Y2698879D01*
G03X524483Y2684670I0J-48514D01*
G01X-1464186Y696001D01*
G01X-1464186Y3251160D01*
G01X1464186Y3251160D01*
G01X1464186Y-3661212D01*
G01X496813Y-3661212D01*
G03X516417Y-3606619I-66210J54592D01*
G01X516417Y-3526620D01*
G03X344789Y-3526620I-85814J0D01*
G01X344789Y-3606619D01*
G03X364394Y-3661212I85814J0D01*
G01X-1257300Y-908214D02*
G03X-1257300Y-666586I0J120814D01*
G03X-1257300Y-908214I0J-120814D01*
G01X-1153243Y1191031D02*
G03X-1108860Y1304242I-2457J66269D01*
G01X-1108860Y2911550D01*
G03X-1157374Y3023074I-48514J45210D01*
G03X-1205888Y2911550I0J-66314D01*
G01X-1205888Y1300644D01*
G03X-1153243Y1191031I50188J-43344D01*
G01X-749980Y-1354633D02*
G03X-638456Y-1403147I66314J0D01*
G01X-414833Y-1403147D01*
G03X-380528Y-1388937I0J48514D01*
G01X-378664Y-1387073D01*
G03X-329915Y-1278517I-2336J66273D01*
G03X-445669Y-1306119I-51085J-42283D01*
G01X-638456Y-1306119D01*
G03X-749980Y-1354633I-45210J-48514D01*
G01X-572905Y-5420D02*
G03X-686069Y39135I-66273J-2336D01*
G03X-641514Y-74029I46891J-46891D01*
G01X-211339Y-504205D01*
G03X-177034Y-518414I34305J34305D01*
G01X1066800Y-518414D01*
G03X1101105Y-504205I0J48514D01*
G01X1251467Y-353843D01*
G03X1380828Y-155872I43933J112543D01*
G03X1182857Y-285233I-85428J-85428D01*
G01X1046705Y-421386D01*
G01X929923Y-421386D01*
G01X1251467Y-99843D01*
G03X1380828Y98128I43933J112543D01*
G03X1182857Y-31233I-85428J-85428D01*
G01X870913Y-343178D01*
G03X805690Y-357886I-20013J-63222D01*
G01X-30705Y-357886D01*
G01X-378227Y-10364D01*
G03X-491391Y34191I-66273J-2336D01*
G03X-446836Y-78973I46891J-46891D01*
G01X-104423Y-421386D01*
G01X-156939Y-421386D01*
G01X-572905Y-5420D01*
G01X-254135Y-3256414D02*
G03X-236204Y-3156937I-36266J57892D01*
G03X-192891Y-3045617I-5200J66110D01*
G01X-192891Y-2877700D01*
G01X-99264Y-2784073D01*
G03X-54709Y-2670909I-2336J66273D01*
G03X-167873Y-2715464I-46891J-46891D01*
G01X-275709Y-2823300D01*
G03X-289919Y-2857605I34305J-34305D01*
G01X-289919Y-3045617D01*
G03X-294659Y-3130342I48514J-45210D01*
G03X-347589Y-3161157I4258J-68180D01*
G01X-347589Y-3093637D01*
G03X-519217Y-3093637I-85814J0D01*
G01X-519217Y-3203637D01*
G03X-351468Y-3229143I85814J0D01*
G03X-254135Y-3256414I61066J30620D01*
G01X438929Y-3289046D02*
G03X516417Y-3203637I-8326J85409D01*
G01X516417Y-3093637D01*
G03X344789Y-3093637I-85814J0D01*
G01X344789Y-3161258D01*
G03X219400Y-3202537I-57188J-37366D01*
G03X348687Y-3229206I68201J3912D01*
G03X422277Y-3289046I81916J25569D01*
G01X322375Y-3289046D01*
G01X318805Y-3285475D01*
G03X284500Y-3271266I-34305J-34305D01*
G01X273810Y-3271266D01*
G03X185056Y-3269765I-45210J-48514D01*
G03X174324Y-3357880I43544J-50015D01*
G03X185056Y-3445995I54276J-38100D01*
G03X273810Y-3444494I43544J50015D01*
G01X284500Y-3444494D01*
G03X318805Y-3430285I0J48514D01*
G01X322375Y-3426714D01*
G01X761054Y-3426714D01*
G03X795358Y-3412505I0J48514D01*
G01X1096025Y-3111838D01*
G03X1110234Y-3077534I-34305J34305D01*
G01X1110234Y-2142154D01*
G01X1113805Y-2138584D01*
G03X1128014Y-2104279I-34305J34305D01*
G01X1128014Y-2093589D01*
G03X1129515Y-2004835I-48514J45210D01*
G03X1041400Y-1994103I-50015J-43544D01*
G03X953285Y-2004835I-38100J-54276D01*
G03X954786Y-2093589I50015J-43544D01*
G01X954786Y-2104279D01*
G03X968995Y-2138584I48514J0D01*
G01X972566Y-2142154D01*
G01X972566Y-3040605D01*
G01X724125Y-3289046D01*
G01X438929Y-3289046D01*
G01X1416214Y-664300D02*
G03X1380400Y-628486I-35814J0D01*
G01X1210400Y-628486D01*
G03X1174586Y-664300I0J-35814D01*
G01X1174586Y-834300D01*
G03X1210400Y-870114I35814J0D01*
G01X1380400Y-870114D01*
G03X1416214Y-834300I0J35814D01*
G01X1416214Y-664300D01*
G01X1295400Y-616114D02*
G03X1295400Y-374486I0J120814D01*
G03X1295400Y-616114I0J-120814D01*
G54D11*
G01X-1257300Y-872146D02*
G01X-1257300Y-898054D01*
G01X-1257300Y-702654D02*
G01X-1257300Y-676746D01*
G01X-1342046Y-787400D02*
G01X-1367954Y-787400D01*
G01X-1172554Y-787400D02*
G01X-1146646Y-787400D01*
G01X1295400Y-834046D02*
G01X1295400Y-859954D01*
G01X1295400Y-664554D02*
G01X1295400Y-638646D01*
G01X1210654Y-749300D02*
G01X1184746Y-749300D01*
G01X1380146Y-749300D02*
G01X1406054Y-749300D01*
G04 Copper End*

G04 Pad Start*
G54D12*
G01X430603Y-3566619D03*
G01X-433403Y-3566619D03*
G54D13*
G01X430603Y-3148637D03*
G01X-433403Y-3148637D03*
G54D14*
G01X-1257300Y-1041400D03*
G54D15*
G01X-1257300Y-787400D03*
G01X-1257300Y-533400D03*
G01X-1257300Y-279400D03*
G01X-1257300Y-25400D03*
G01X-1257300Y228600D03*
G54D14*
G01X1295400Y-749300D03*
G54D15*
G01X1295400Y-495300D03*
G01X1295400Y-241300D03*
G01X1295400Y12700D03*
G04 Pad End*

G04 Via Start*
G54D17*
G01X660400Y1422400D03*
G01X-800100Y-2794000D03*
G01X850900Y-406400D03*
G01X-639178Y-7757D03*
G01X674701Y2591945D03*
G01X674701Y2668146D03*
G01X-719527Y-756920D03*
G01X-719527Y-680720D03*
G01X644770Y-1606091D03*
G01X590888Y-1659973D03*
G01X185344Y-2209800D03*
G01X-741700Y-2603500D03*
G01X1079500Y-2048379D03*
G01X1003300Y-2048379D03*
G01X228600Y-3395980D03*
G01X228600Y-3319780D03*
G01X-241405Y-3090827D03*
G01X-101600Y-2717800D03*
G01X-711200Y-1841500D03*
G01X876300Y-2806700D03*
G01X-1157374Y2956760D03*
G01X-1155700Y1257300D03*
G01X-444500Y-12700D03*
G01X-683666Y-1354633D03*
G01X-381000Y-1320800D03*
G01X-1079500Y-1778000D03*
G01X-901700Y-508000D03*
G01X-683666Y-1434643D03*
G01X-569925Y-1434643D03*
G01X-769175Y-7757D03*
G01X-593227Y-428039D03*
G01X-355600Y-1663700D03*
G01X330530Y-2854635D03*
G01X50800Y-2743200D03*
G01X-900815Y3074545D03*
G01X-406400Y2501900D03*
G01X462568Y2710468D03*
G04 Via End*

G04 Track Start*
G54D11*
G01X-1257300Y228600D02*
G01X-63500Y1422400D01*
G01X660400Y1422400D01*
G01X-1257300Y228600D02*
G01X-800100Y-228600D01*
G01X-800100Y-2794000D01*
G01X876300Y-406400D02*
G01X850900Y-406400D01*
G01X1295400Y12700D02*
G01X876300Y-406400D01*
G01X-639178Y-7757D02*
G01X-177034Y-469900D01*
G01X1066800Y-469900D02*
G01X1295400Y-241300D01*
G01X-177034Y-469900D02*
G01X1066800Y-469900D01*
G01X674701Y2591945D02*
G01X618801Y2591945D01*
G01X601021Y2609725D01*
G01X575621Y2609725D01*
G01X601021Y2650365D02*
G01X558788Y2650365D01*
G01X618801Y2668146D02*
G01X601021Y2650365D01*
G01X674701Y2668146D02*
G01X618801Y2668146D01*
G01X558788Y2650365D02*
G01X-1435100Y656477D01*
G01X575621Y2609725D02*
G01X-1394460Y639644D01*
G01X-1304065Y-166500D02*
G01X-1210535Y-166500D01*
G01X-1144400Y-232635D01*
G01X-1394460Y-76105D02*
G01X-1304065Y-166500D01*
G01X-1144400Y-232635D02*
G01X-1144400Y-420500D01*
G01X-1257300Y-533400D01*
G01X-1435100Y-101600D02*
G01X-1257300Y-279400D01*
G01X-1435100Y656477D02*
G01X-1435100Y-101600D01*
G01X-1394460Y639644D02*
G01X-1394460Y-76105D01*
G01X-719527Y-680720D02*
G01X-663627Y-680720D01*
G01X-603613Y-698500D02*
G01X234587Y-1536700D01*
G01X-719527Y-756920D02*
G01X-663627Y-756920D01*
G01X-620447Y-739140D02*
G01X217753Y-1577340D01*
G01X533400Y-1577340D01*
G01X-663627Y-680720D02*
G01X-645847Y-698500D01*
G01X-663627Y-756920D02*
G01X-645847Y-739140D01*
G01X-620447Y-739140D01*
G01X-645847Y-698500D02*
G01X-603613Y-698500D01*
G01X605242Y-1566564D02*
G01X644770Y-1606091D01*
G01X551361Y-1620445D02*
G01X590888Y-1659973D01*
G01X580097Y-1566564D02*
G01X605242Y-1566564D01*
G01X533400Y-1577340D02*
G01X551361Y-1595301D01*
G01X551361Y-1620445D01*
G01X550234Y-1536700D02*
G01X580097Y-1566564D01*
G01X234587Y-1536700D02*
G01X550234Y-1536700D01*
G01X1079500Y-2048379D02*
G01X1079500Y-2104279D01*
G01X1003300Y-2048379D02*
G01X1003300Y-2104279D01*
G01X1079500Y-2104279D02*
G01X1061720Y-2122059D01*
G01X1003300Y-2104279D02*
G01X1021080Y-2122059D01*
G01X1061720Y-3077534D02*
G01X761054Y-3378200D01*
G01X1021080Y-3060700D02*
G01X744220Y-3337560D01*
G01X284500Y-3395980D02*
G01X228600Y-3395980D01*
G01X284500Y-3319780D02*
G01X228600Y-3319780D01*
G01X302280Y-3378200D02*
G01X284500Y-3395980D01*
G01X302280Y-3337560D02*
G01X284500Y-3319780D01*
G01X761054Y-3378200D02*
G01X302280Y-3378200D01*
G01X744220Y-3337560D02*
G01X302280Y-3337560D01*
G01X1021080Y-2122059D02*
G01X1021080Y-3060700D01*
G01X1061720Y-2122059D02*
G01X1061720Y-3077534D01*
G01X-241405Y-3090827D02*
G01X-241405Y-2857605D01*
G01X-101600Y-2717800D01*
G01X-711200Y-1841500D02*
G01X-88900Y-1841500D01*
G01X876300Y-2806700D01*
G01X-1157374Y2956760D02*
G01X-1157374Y1258974D01*
G01X-1155700Y1257300D01*
G01X850900Y-406400D02*
G01X-50800Y-406400D01*
G01X-444500Y-12700D01*
G01X-683666Y-1354633D02*
G01X-414833Y-1354633D01*
G01X-381000Y-1320800D01*
G01X-1257300Y-1041400D02*
G01X-1079500Y-1219200D01*
G01X-1079500Y-1778000D01*
G01X185344Y-2209800D02*
G01X-208356Y-2603500D01*
G01X-741700Y-2603500D01*
G01X-1257300Y-1041400D02*
G01X-901700Y-685800D01*
G01X-901700Y-508000D01*
G01X-569925Y-1434643D02*
G01X-683666Y-1434643D01*
G01X-569925Y-1434643D02*
G01X-355600Y-1648968D01*
G01X-355600Y-1663700D01*
G01X330530Y-2854635D02*
G01X162235Y-2854635D01*
G01X50800Y-2743200D01*
G01X-406400Y2501900D02*
G01X-900815Y2996315D01*
G01X-900815Y3074545D01*
G01X462568Y2710468D02*
G01X-197832Y2710468D01*
G01X-406400Y2501900D01*
G04 Track End*

M02*

