G04 Layer: DrillDrawingLayer*
G04 EasyEDA Pro v3.2.148, 2026-07-26 13:42:08*
G04 Gerber Generator version 0.3*
G04 Scale: 100 percent, Rotated: No, Reflected: No*
G04 Dimensions in millimeters*
G04 Leading zeros omitted, absolute positions, 4 integers and 5 decimals*
G04 Generated by one-click*
G04 Object Configs: Pad,Via,Track,Text,Image,Dimension,BoardOutline,BoardCutout,CopperFilled,SolidRegion,FPCStiffener,Line,PlaneZone,ComponentProperty,ComponentSilkscreen,TearDrop*
G04 Layer Configs: 1,2,3,4,5,6,7,8,9,10,11,13,14,56*
G04 Copper Areas: 0*
%FSLAX45Y45*%
%MOMM*%
%AMIconRect*4,1,4,0.28,-0.28,-0.28,-0.28,-0.28,0.28,0.28,0.28,0.28,-0.28,0*4,0,4,0.233333,-0.233333,0.233333,0.233333,-0.233333,0.233333,-0.233333,-0.233333,0.233333,-0.233333,0*%
%AMIconTriangle*4,1,3,-0.339593,0.240473,0.339593,0.240473,0,-0.37884,-0.339593,0.240473,0*4,0,3,-0.265673,0.19404,0,-0.27342,0.266233,0.19404,-0.265673,0.19404,0*%
%AMIconStar6*4,1,12,0.12068,0.20888,0.298527,0.172713,0.241313,0,0.298527,-0.17206,0.12068,-0.208227,0,-0.344073,-0.120073,-0.208227,-0.298573,-0.17206,-0.240707,0,-0.298573,0.17206,-0.120073,0.20888,0,0.344073,0.12068,0.20888,0*4,0,12,-0.000467,0.273467,-0.090067,0.171733,-0.237533,0.136733,-0.193667,-0.007467,-0.237533,-0.1372,-0.090067,-0.171733,-0.000467,-0.273933,0.090067,-0.171733,0.237533,-0.1372,0.194133,0.007,0.237533,0.1372,0.090067,0.171267,-0.000467,0.273467,0*%
%AMIconStar4*4,1,8,-0.311733,0.311733,0,0.202533,0.311733,0.311733,0.202533,0,0.311733,-0.311733,0,-0.202533,-0.304407,-0.311733,-0.202533,0,-0.311733,0.311733,0*4,0,8,0.233333,-0.233333,0.1512,0,0.233333,0.233333,0,0.1512,-0.233333,0.233333,-0.1512,0,-0.233333,-0.233333,0,-0.1512,0.233333,-0.233333,0*%
%ADD10IconRect*%
%ADD11C,0.616X0.522667*%
%ADD12IconTriangle*%
%ADD13IconStar6*%
%ADD14IconStar4*%
%ADD15C,0.2032*%
%ADD16C,0.254*%
G75*


G04 Drill Drawing Start*
G54D10*
G01X-433403Y-3566619D03*
G01X430603Y-3566619D03*
G54D11*
G01X-433403Y-3148637D03*
G01X430603Y-3148637D03*
G54D12*
G01X-290401Y-3198523D03*
G01X287601Y-3198624D03*
G54D13*
G01X-1257300Y-1041400D03*
G01X-1257300Y-787400D03*
G01X-1257300Y-533400D03*
G01X-1257300Y-279400D03*
G01X-1257300Y-25400D03*
G01X-1257300Y228600D03*
G01X1295400Y-749300D03*
G01X1295400Y-495300D03*
G01X1295400Y-241300D03*
G01X1295400Y12700D03*
G54D14*
G01X-1157374Y2956760D03*
G01X-1155700Y1257300D03*
G01X-1079500Y-1778000D03*
G01X-901700Y-508000D03*
G01X-900815Y3074545D03*
G01X-800100Y-2794000D03*
G01X-769175Y-7757D03*
G01X-741700Y-2603500D03*
G01X-719527Y-756920D03*
G01X-719527Y-680720D03*
G01X-711200Y-1841500D03*
G01X-683666Y-1434643D03*
G01X-683666Y-1354633D03*
G01X-639178Y-7757D03*
G01X-593227Y-428039D03*
G01X-569925Y-1434643D03*
G01X-444500Y-12700D03*
G01X-406400Y2501900D03*
G01X-381000Y-1320800D03*
G01X-355600Y-1663700D03*
G01X-241405Y-3090827D03*
G01X-101600Y-2717800D03*
G01X50800Y-2743200D03*
G01X185344Y-2209800D03*
G01X228600Y-3395980D03*
G01X228600Y-3319780D03*
G01X330530Y-2854635D03*
G01X462568Y2710468D03*
G01X590888Y-1659973D03*
G01X644770Y-1606091D03*
G01X660400Y1422400D03*
G01X674701Y2591945D03*
G01X674701Y2668146D03*
G01X850900Y-406400D03*
G01X876300Y-2806700D03*
G01X1003300Y-2048379D03*
G01X1079500Y-2048379D03*
G04 Drill Drawing End*

G04 Text Start*
G54D15*
G01X3800446Y3065269D02*
G01X3800446Y2945127D01*
G01X3800446Y3065269D02*
G01X3846166Y2945127D01*
G01X3891886Y3065269D02*
G01X3846166Y2945127D01*
G01X3891886Y3065269D02*
G01X3891886Y2945127D01*
G01X4008218Y3025137D02*
G01X4008218Y2945127D01*
G01X4008218Y3008119D02*
G01X3996788Y3019549D01*
G01X3985358Y3025137D01*
G01X3968340Y3025137D01*
G01X3956910Y3019549D01*
G01X3945480Y3008119D01*
G01X3939638Y2990847D01*
G01X3939638Y2979417D01*
G01X3945480Y2962399D01*
G01X3956910Y2950969D01*
G01X3968340Y2945127D01*
G01X3985358Y2945127D01*
G01X3996788Y2950969D01*
G01X4008218Y2962399D01*
G01X4055970Y3025137D02*
G01X4055970Y2945127D01*
G01X4055970Y2990847D02*
G01X4061812Y3008119D01*
G01X4073242Y3019549D01*
G01X4084672Y3025137D01*
G01X4101690Y3025137D01*
G01X4149442Y3065269D02*
G01X4149442Y2945127D01*
G01X4206592Y3025137D02*
G01X4149442Y2967987D01*
G01X4172302Y2990847D02*
G01X4212434Y2945127D01*
G01X5337726Y3036567D02*
G01X5331884Y3047997D01*
G01X5320454Y3059427D01*
G01X5309024Y3065269D01*
G01X5286164Y3065269D01*
G01X5274734Y3059427D01*
G01X5263304Y3047997D01*
G01X5257716Y3036567D01*
G01X5251874Y3019549D01*
G01X5251874Y2990847D01*
G01X5257716Y2973829D01*
G01X5263304Y2962399D01*
G01X5274734Y2950969D01*
G01X5286164Y2945127D01*
G01X5309024Y2945127D01*
G01X5320454Y2950969D01*
G01X5331884Y2962399D01*
G01X5337726Y2973829D01*
G01X5414180Y3025137D02*
G01X5402750Y3019549D01*
G01X5391320Y3008119D01*
G01X5385478Y2990847D01*
G01X5385478Y2979417D01*
G01X5391320Y2962399D01*
G01X5402750Y2950969D01*
G01X5414180Y2945127D01*
G01X5431198Y2945127D01*
G01X5442628Y2950969D01*
G01X5454058Y2962399D01*
G01X5459900Y2979417D01*
G01X5459900Y2990847D01*
G01X5454058Y3008119D01*
G01X5442628Y3019549D01*
G01X5431198Y3025137D01*
G01X5414180Y3025137D01*
G01X5507652Y3025137D02*
G01X5507652Y2967987D01*
G01X5513494Y2950969D01*
G01X5524924Y2945127D01*
G01X5541942Y2945127D01*
G01X5553372Y2950969D01*
G01X5570644Y2967987D01*
G01X5570644Y3025137D02*
G01X5570644Y2945127D01*
G01X5618396Y3025137D02*
G01X5618396Y2945127D01*
G01X5618396Y3002277D02*
G01X5635668Y3019549D01*
G01X5647098Y3025137D01*
G01X5664116Y3025137D01*
G01X5675546Y3019549D01*
G01X5681388Y3002277D01*
G01X5681388Y2945127D01*
G01X5746412Y3065269D02*
G01X5746412Y2967987D01*
G01X5752000Y2950969D01*
G01X5763430Y2945127D01*
G01X5774860Y2945127D01*
G01X5729140Y3025137D02*
G01X5769272Y3025137D01*
G01X6746047Y3047997D02*
G01X6734617Y3059427D01*
G01X6717599Y3065269D01*
G01X6694739Y3065269D01*
G01X6677467Y3059427D01*
G01X6666037Y3047997D01*
G01X6666037Y3036567D01*
G01X6671879Y3025137D01*
G01X6677467Y3019549D01*
G01X6688897Y3013707D01*
G01X6723187Y3002277D01*
G01X6734617Y2996689D01*
G01X6740459Y2990847D01*
G01X6746047Y2979417D01*
G01X6746047Y2962399D01*
G01X6734617Y2950969D01*
G01X6717599Y2945127D01*
G01X6694739Y2945127D01*
G01X6677467Y2950969D01*
G01X6666037Y2962399D01*
G01X6793799Y3065269D02*
G01X6799641Y3059427D01*
G01X6805229Y3065269D01*
G01X6799641Y3070857D01*
G01X6793799Y3065269D01*
G01X6799641Y3025137D02*
G01X6799641Y2945127D01*
G01X6915973Y3025137D02*
G01X6852981Y2945127D01*
G01X6852981Y3025137D02*
G01X6915973Y3025137D01*
G01X6852981Y2945127D02*
G01X6915973Y2945127D01*
G01X6963725Y2990847D02*
G01X7032305Y2990847D01*
G01X7032305Y3002277D01*
G01X7026717Y3013707D01*
G01X7020875Y3019549D01*
G01X7009445Y3025137D01*
G01X6992427Y3025137D01*
G01X6980997Y3019549D01*
G01X6969567Y3008119D01*
G01X6963725Y2990847D01*
G01X6963725Y2979417D01*
G01X6969567Y2962399D01*
G01X6980997Y2950969D01*
G01X6992427Y2945127D01*
G01X7009445Y2945127D01*
G01X7020875Y2950969D01*
G01X7032305Y2962399D01*
G01X10480247Y3065269D02*
G01X10480247Y2945127D01*
G01X10480247Y3065269D02*
G01X10531809Y3065269D01*
G01X10548827Y3059427D01*
G01X10554669Y3053839D01*
G01X10560257Y3042409D01*
G01X10560257Y3025137D01*
G01X10554669Y3013707D01*
G01X10548827Y3008119D01*
G01X10531809Y3002277D01*
G01X10480247Y3002277D01*
G01X10608009Y3065269D02*
G01X10608009Y2945127D01*
G01X10724341Y3025137D02*
G01X10724341Y2945127D01*
G01X10724341Y3008119D02*
G01X10712911Y3019549D01*
G01X10701481Y3025137D01*
G01X10684463Y3025137D01*
G01X10673033Y3019549D01*
G01X10661603Y3008119D01*
G01X10655761Y2990847D01*
G01X10655761Y2979417D01*
G01X10661603Y2962399D01*
G01X10673033Y2950969D01*
G01X10684463Y2945127D01*
G01X10701481Y2945127D01*
G01X10712911Y2950969D01*
G01X10724341Y2962399D01*
G01X10789365Y3065269D02*
G01X10789365Y2967987D01*
G01X10794953Y2950969D01*
G01X10806383Y2945127D01*
G01X10817813Y2945127D01*
G01X10772093Y3025137D02*
G01X10812225Y3025137D01*
G01X10865565Y2990847D02*
G01X10934145Y2990847D01*
G01X10934145Y3002277D01*
G01X10928557Y3013707D01*
G01X10922715Y3019549D01*
G01X10911285Y3025137D01*
G01X10894267Y3025137D01*
G01X10882837Y3019549D01*
G01X10871407Y3008119D01*
G01X10865565Y2990847D01*
G01X10865565Y2979417D01*
G01X10871407Y2962399D01*
G01X10882837Y2950969D01*
G01X10894267Y2945127D01*
G01X10911285Y2945127D01*
G01X10922715Y2950969D01*
G01X10934145Y2962399D01*
G01X11050477Y3065269D02*
G01X11050477Y2945127D01*
G01X11050477Y3008119D02*
G01X11039047Y3019549D01*
G01X11027617Y3025137D01*
G01X11010599Y3025137D01*
G01X10999169Y3019549D01*
G01X10987739Y3008119D01*
G01X10981897Y2990847D01*
G01X10981897Y2979417D01*
G01X10987739Y2962399D01*
G01X10999169Y2950969D01*
G01X11010599Y2945127D01*
G01X11027617Y2945127D01*
G01X11039047Y2950969D01*
G01X11050477Y2962399D01*
G01X12021664Y3047997D02*
G01X12010234Y3059427D01*
G01X11993216Y3065269D01*
G01X11970356Y3065269D01*
G01X11953084Y3059427D01*
G01X11941654Y3047997D01*
G01X11941654Y3036567D01*
G01X11947496Y3025137D01*
G01X11953084Y3019549D01*
G01X11964514Y3013707D01*
G01X11998804Y3002277D01*
G01X12010234Y2996689D01*
G01X12016076Y2990847D01*
G01X12021664Y2979417D01*
G01X12021664Y2962399D01*
G01X12010234Y2950969D01*
G01X11993216Y2945127D01*
G01X11970356Y2945127D01*
G01X11953084Y2950969D01*
G01X11941654Y2962399D01*
G01X12069416Y3065269D02*
G01X12069416Y2945127D01*
G01X12069416Y3002277D02*
G01X12086688Y3019549D01*
G01X12098118Y3025137D01*
G01X12115136Y3025137D01*
G01X12126566Y3019549D01*
G01X12132408Y3002277D01*
G01X12132408Y2945127D01*
G01X12248740Y3025137D02*
G01X12248740Y2945127D01*
G01X12248740Y3008119D02*
G01X12237310Y3019549D01*
G01X12225880Y3025137D01*
G01X12208862Y3025137D01*
G01X12197432Y3019549D01*
G01X12186002Y3008119D01*
G01X12180160Y2990847D01*
G01X12180160Y2979417D01*
G01X12186002Y2962399D01*
G01X12197432Y2950969D01*
G01X12208862Y2945127D01*
G01X12225880Y2945127D01*
G01X12237310Y2950969D01*
G01X12248740Y2962399D01*
G01X12296492Y3025137D02*
G01X12296492Y2905249D01*
G01X12296492Y3008119D02*
G01X12307922Y3019549D01*
G01X12319352Y3025137D01*
G01X12336624Y3025137D01*
G01X12348054Y3019549D01*
G01X12359484Y3008119D01*
G01X12365072Y2990847D01*
G01X12365072Y2979417D01*
G01X12359484Y2962399D01*
G01X12348054Y2950969D01*
G01X12336624Y2945127D01*
G01X12319352Y2945127D01*
G01X12307922Y2950969D01*
G01X12296492Y2962399D01*
G01X12412824Y2990847D02*
G01X12481404Y2990847D01*
G01X12481404Y3002277D01*
G01X12475816Y3013707D01*
G01X12469974Y3019549D01*
G01X12458544Y3025137D01*
G01X12441526Y3025137D01*
G01X12430096Y3019549D01*
G01X12418666Y3008119D01*
G01X12412824Y2990847D01*
G01X12412824Y2979417D01*
G01X12418666Y2962399D01*
G01X12430096Y2950969D01*
G01X12441526Y2945127D01*
G01X12458544Y2945127D01*
G01X12469974Y2950969D01*
G01X12481404Y2962399D01*
G01X13372835Y3065269D02*
G01X13418555Y2945127D01*
G01X13464275Y3065269D02*
G01X13418555Y2945127D01*
G01X13512027Y3065269D02*
G01X13517869Y3059427D01*
G01X13523457Y3065269D01*
G01X13517869Y3070857D01*
G01X13512027Y3065269D01*
G01X13517869Y3025137D02*
G01X13517869Y2945127D01*
G01X13639789Y3025137D02*
G01X13639789Y2945127D01*
G01X13639789Y3008119D02*
G01X13628359Y3019549D01*
G01X13616929Y3025137D01*
G01X13599911Y3025137D01*
G01X13588481Y3019549D01*
G01X13577051Y3008119D01*
G01X13571209Y2990847D01*
G01X13571209Y2979417D01*
G01X13577051Y2962399D01*
G01X13588481Y2950969D01*
G01X13599911Y2945127D01*
G01X13616929Y2945127D01*
G01X13628359Y2950969D01*
G01X13639789Y2962399D01*
G01X13790411Y3088129D02*
G01X13687541Y2905249D01*
G01X13838163Y3065269D02*
G01X13838163Y2945127D01*
G01X13838163Y3065269D02*
G01X13889725Y3065269D01*
G01X13906743Y3059427D01*
G01X13912585Y3053839D01*
G01X13918173Y3042409D01*
G01X13918173Y3025137D01*
G01X13912585Y3013707D01*
G01X13906743Y3008119D01*
G01X13889725Y3002277D01*
G01X13838163Y3002277D01*
G01X14034505Y3025137D02*
G01X14034505Y2945127D01*
G01X14034505Y3008119D02*
G01X14023075Y3019549D01*
G01X14011645Y3025137D01*
G01X13994627Y3025137D01*
G01X13983197Y3019549D01*
G01X13971767Y3008119D01*
G01X13965925Y2990847D01*
G01X13965925Y2979417D01*
G01X13971767Y2962399D01*
G01X13983197Y2950969D01*
G01X13994627Y2945127D01*
G01X14011645Y2945127D01*
G01X14023075Y2950969D01*
G01X14034505Y2962399D01*
G01X14150837Y3065269D02*
G01X14150837Y2945127D01*
G01X14150837Y3008119D02*
G01X14139407Y3019549D01*
G01X14127977Y3025137D01*
G01X14110959Y3025137D01*
G01X14099529Y3019549D01*
G01X14088099Y3008119D01*
G01X14082257Y2990847D01*
G01X14082257Y2979417D01*
G01X14088099Y2962399D01*
G01X14099529Y2950969D01*
G01X14110959Y2945127D01*
G01X14127977Y2945127D01*
G01X14139407Y2950969D01*
G01X14150837Y2962399D01*
G01X15042014Y3065269D02*
G01X15042014Y2945127D01*
G01X15042014Y3065269D02*
G01X15093576Y3065269D01*
G01X15110594Y3059427D01*
G01X15116436Y3053839D01*
G01X15122024Y3042409D01*
G01X15122024Y3025137D01*
G01X15116436Y3013707D01*
G01X15110594Y3008119D01*
G01X15093576Y3002277D01*
G01X15042014Y3002277D01*
G01X15238356Y3025137D02*
G01X15238356Y2945127D01*
G01X15238356Y3008119D02*
G01X15226926Y3019549D01*
G01X15215496Y3025137D01*
G01X15198478Y3025137D01*
G01X15187048Y3019549D01*
G01X15175618Y3008119D01*
G01X15169776Y2990847D01*
G01X15169776Y2979417D01*
G01X15175618Y2962399D01*
G01X15187048Y2950969D01*
G01X15198478Y2945127D01*
G01X15215496Y2945127D01*
G01X15226926Y2950969D01*
G01X15238356Y2962399D01*
G01X15354688Y3065269D02*
G01X15354688Y2945127D01*
G01X15354688Y3008119D02*
G01X15343258Y3019549D01*
G01X15331828Y3025137D01*
G01X15314810Y3025137D01*
G01X15303380Y3019549D01*
G01X15291950Y3008119D01*
G01X15286108Y2990847D01*
G01X15286108Y2979417D01*
G01X15291950Y2962399D01*
G01X15303380Y2950969D01*
G01X15314810Y2945127D01*
G01X15331828Y2945127D01*
G01X15343258Y2950969D01*
G01X15354688Y2962399D01*
G01X15610466Y3047997D02*
G01X15599036Y3059427D01*
G01X15582018Y3065269D01*
G01X15559158Y3065269D01*
G01X15541886Y3059427D01*
G01X15530456Y3047997D01*
G01X15530456Y3036567D01*
G01X15536298Y3025137D01*
G01X15541886Y3019549D01*
G01X15553316Y3013707D01*
G01X15587606Y3002277D01*
G01X15599036Y2996689D01*
G01X15604878Y2990847D01*
G01X15610466Y2979417D01*
G01X15610466Y2962399D01*
G01X15599036Y2950969D01*
G01X15582018Y2945127D01*
G01X15559158Y2945127D01*
G01X15541886Y2950969D01*
G01X15530456Y2962399D01*
G01X15658218Y3065269D02*
G01X15658218Y2945127D01*
G01X15658218Y3002277D02*
G01X15675490Y3019549D01*
G01X15686920Y3025137D01*
G01X15703938Y3025137D01*
G01X15715368Y3019549D01*
G01X15721210Y3002277D01*
G01X15721210Y2945127D01*
G01X15837542Y3025137D02*
G01X15837542Y2945127D01*
G01X15837542Y3008119D02*
G01X15826112Y3019549D01*
G01X15814682Y3025137D01*
G01X15797664Y3025137D01*
G01X15786234Y3019549D01*
G01X15774804Y3008119D01*
G01X15768962Y2990847D01*
G01X15768962Y2979417D01*
G01X15774804Y2962399D01*
G01X15786234Y2950969D01*
G01X15797664Y2945127D01*
G01X15814682Y2945127D01*
G01X15826112Y2950969D01*
G01X15837542Y2962399D01*
G01X15885294Y3025137D02*
G01X15885294Y2905249D01*
G01X15885294Y3008119D02*
G01X15896724Y3019549D01*
G01X15908154Y3025137D01*
G01X15925426Y3025137D01*
G01X15936856Y3019549D01*
G01X15948286Y3008119D01*
G01X15953874Y2990847D01*
G01X15953874Y2979417D01*
G01X15948286Y2962399D01*
G01X15936856Y2950969D01*
G01X15925426Y2945127D01*
G01X15908154Y2945127D01*
G01X15896724Y2950969D01*
G01X15885294Y2962399D01*
G01X16001626Y2990847D02*
G01X16070206Y2990847D01*
G01X16070206Y3002277D01*
G01X16064618Y3013707D01*
G01X16058776Y3019549D01*
G01X16047346Y3025137D01*
G01X16030328Y3025137D01*
G01X16018898Y3019549D01*
G01X16007468Y3008119D01*
G01X16001626Y2990847D01*
G01X16001626Y2979417D01*
G01X16007468Y2962399D01*
G01X16018898Y2950969D01*
G01X16030328Y2945127D01*
G01X16047346Y2945127D01*
G01X16058776Y2950969D01*
G01X16070206Y2962399D01*
G01X16961383Y3065269D02*
G01X16961383Y2945127D01*
G01X16961383Y2945127D02*
G01X17029963Y2945127D01*
G01X17146295Y3025137D02*
G01X17146295Y2945127D01*
G01X17146295Y3008119D02*
G01X17134865Y3019549D01*
G01X17123435Y3025137D01*
G01X17106417Y3025137D01*
G01X17094987Y3019549D01*
G01X17083557Y3008119D01*
G01X17077715Y2990847D01*
G01X17077715Y2979417D01*
G01X17083557Y2962399D01*
G01X17094987Y2950969D01*
G01X17106417Y2945127D01*
G01X17123435Y2945127D01*
G01X17134865Y2950969D01*
G01X17146295Y2962399D01*
G01X17199889Y3025137D02*
G01X17234179Y2945127D01*
G01X17268469Y3025137D02*
G01X17234179Y2945127D01*
G01X17222749Y2922267D01*
G01X17211319Y2910837D01*
G01X17199889Y2905249D01*
G01X17194047Y2905249D01*
G01X17316221Y2990847D02*
G01X17384801Y2990847D01*
G01X17384801Y3002277D01*
G01X17379213Y3013707D01*
G01X17373371Y3019549D01*
G01X17361941Y3025137D01*
G01X17344923Y3025137D01*
G01X17333493Y3019549D01*
G01X17322063Y3008119D01*
G01X17316221Y2990847D01*
G01X17316221Y2979417D01*
G01X17322063Y2962399D01*
G01X17333493Y2950969D01*
G01X17344923Y2945127D01*
G01X17361941Y2945127D01*
G01X17373371Y2950969D01*
G01X17384801Y2962399D01*
G01X17432553Y3025137D02*
G01X17432553Y2945127D01*
G01X17432553Y2990847D02*
G01X17438395Y3008119D01*
G01X17449825Y3019549D01*
G01X17461255Y3025137D01*
G01X17478273Y3025137D01*
G01X17654041Y3065269D02*
G01X17654041Y2945127D01*
G01X17654041Y3065269D02*
G01X17705603Y3065269D01*
G01X17722621Y3059427D01*
G01X17728463Y3053839D01*
G01X17734051Y3042409D01*
G01X17734051Y3025137D01*
G01X17728463Y3013707D01*
G01X17722621Y3008119D01*
G01X17705603Y3002277D01*
G01X17654041Y3002277D01*
G01X17850383Y3025137D02*
G01X17850383Y2945127D01*
G01X17850383Y3008119D02*
G01X17838953Y3019549D01*
G01X17827523Y3025137D01*
G01X17810505Y3025137D01*
G01X17799075Y3019549D01*
G01X17787645Y3008119D01*
G01X17781803Y2990847D01*
G01X17781803Y2979417D01*
G01X17787645Y2962399D01*
G01X17799075Y2950969D01*
G01X17810505Y2945127D01*
G01X17827523Y2945127D01*
G01X17838953Y2950969D01*
G01X17850383Y2962399D01*
G01X17898135Y3065269D02*
G01X17903977Y3059427D01*
G01X17909565Y3065269D01*
G01X17903977Y3070857D01*
G01X17898135Y3065269D01*
G01X17903977Y3025137D02*
G01X17903977Y2945127D01*
G01X17957317Y3025137D02*
G01X17957317Y2945127D01*
G01X17957317Y2990847D02*
G01X17963159Y3008119D01*
G01X17974589Y3019549D01*
G01X17986019Y3025137D01*
G01X18003037Y3025137D01*
G01X5257716Y2455995D02*
G01X5257716Y2461837D01*
G01X5263304Y2473267D01*
G01X5269146Y2478855D01*
G01X5280576Y2484697D01*
G01X5303436Y2484697D01*
G01X5314866Y2478855D01*
G01X5320454Y2473267D01*
G01X5326296Y2461837D01*
G01X5326296Y2450407D01*
G01X5320454Y2438977D01*
G01X5309024Y2421705D01*
G01X5251874Y2364555D01*
G01X5331884Y2364555D01*
G01X6671879Y2455995D02*
G01X6671879Y2461837D01*
G01X6677467Y2473267D01*
G01X6683309Y2478855D01*
G01X6694739Y2484697D01*
G01X6717599Y2484697D01*
G01X6729029Y2478855D01*
G01X6734617Y2473267D01*
G01X6740459Y2461837D01*
G01X6740459Y2450407D01*
G01X6734617Y2438977D01*
G01X6723187Y2421705D01*
G01X6666037Y2364555D01*
G01X6746047Y2364555D01*
G01X6805229Y2484697D02*
G01X6868221Y2484697D01*
G01X6833931Y2438977D01*
G01X6850949Y2438977D01*
G01X6862379Y2433135D01*
G01X6868221Y2427547D01*
G01X6873809Y2410275D01*
G01X6873809Y2398845D01*
G01X6868221Y2381827D01*
G01X6856791Y2370397D01*
G01X6839519Y2364555D01*
G01X6822501Y2364555D01*
G01X6805229Y2370397D01*
G01X6799641Y2375985D01*
G01X6793799Y2387415D01*
G01X6927403Y2393257D02*
G01X6921561Y2387415D01*
G01X6927403Y2381827D01*
G01X6932991Y2387415D01*
G01X6927403Y2393257D01*
G01X7049323Y2467425D02*
G01X7043735Y2478855D01*
G01X7026463Y2484697D01*
G01X7015033Y2484697D01*
G01X6998015Y2478855D01*
G01X6986585Y2461837D01*
G01X6980743Y2433135D01*
G01X6980743Y2404687D01*
G01X6986585Y2381827D01*
G01X6998015Y2370397D01*
G01X7015033Y2364555D01*
G01X7020875Y2364555D01*
G01X7037893Y2370397D01*
G01X7049323Y2381827D01*
G01X7055165Y2398845D01*
G01X7055165Y2404687D01*
G01X7049323Y2421705D01*
G01X7037893Y2433135D01*
G01X7020875Y2438977D01*
G01X7015033Y2438977D01*
G01X6998015Y2433135D01*
G01X6986585Y2421705D01*
G01X6980743Y2404687D01*
G01X7102917Y2444565D02*
G01X7165909Y2364555D01*
G01X7165909Y2444565D02*
G01X7102917Y2364555D01*
G01X7282241Y2484697D02*
G01X7225091Y2484697D01*
G01X7219503Y2433135D01*
G01X7225091Y2438977D01*
G01X7242363Y2444565D01*
G01X7259381Y2444565D01*
G01X7276653Y2438977D01*
G01X7288083Y2427547D01*
G01X7293671Y2410275D01*
G01X7293671Y2398845D01*
G01X7288083Y2381827D01*
G01X7276653Y2370397D01*
G01X7259381Y2364555D01*
G01X7242363Y2364555D01*
G01X7225091Y2370397D01*
G01X7219503Y2375985D01*
G01X7213661Y2387415D01*
G01X7410003Y2484697D02*
G01X7352853Y2484697D01*
G01X7347265Y2433135D01*
G01X7352853Y2438977D01*
G01X7370125Y2444565D01*
G01X7387143Y2444565D01*
G01X7404415Y2438977D01*
G01X7415845Y2427547D01*
G01X7421433Y2410275D01*
G01X7421433Y2398845D01*
G01X7415845Y2381827D01*
G01X7404415Y2370397D01*
G01X7387143Y2364555D01*
G01X7370125Y2364555D01*
G01X7352853Y2370397D01*
G01X7347265Y2375985D01*
G01X7341423Y2387415D01*
G01X7475027Y2393257D02*
G01X7469185Y2387415D01*
G01X7475027Y2381827D01*
G01X7480615Y2387415D01*
G01X7475027Y2393257D01*
G01X7528367Y2461837D02*
G01X7539797Y2467425D01*
G01X7557069Y2484697D01*
G01X7557069Y2364555D01*
G01X7604821Y2444565D02*
G01X7604821Y2364555D01*
G01X7604821Y2421705D02*
G01X7622093Y2438977D01*
G01X7633523Y2444565D01*
G01X7650541Y2444565D01*
G01X7661971Y2438977D01*
G01X7667813Y2421705D01*
G01X7667813Y2364555D01*
G01X7667813Y2421705D02*
G01X7684831Y2438977D01*
G01X7696261Y2444565D01*
G01X7713533Y2444565D01*
G01X7724963Y2438977D01*
G01X7730551Y2421705D01*
G01X7730551Y2364555D01*
G01X7778303Y2484697D02*
G01X7784145Y2478855D01*
G01X7789733Y2484697D01*
G01X7784145Y2490285D01*
G01X7778303Y2484697D01*
G01X7784145Y2444565D02*
G01X7784145Y2364555D01*
G01X7837485Y2484697D02*
G01X7837485Y2364555D01*
G01X7925369Y2507557D02*
G01X7913939Y2496127D01*
G01X7902509Y2478855D01*
G01X7891079Y2455995D01*
G01X7885237Y2427547D01*
G01X7885237Y2404687D01*
G01X7891079Y2375985D01*
G01X7902509Y2353125D01*
G01X7913939Y2336107D01*
G01X7925369Y2324677D01*
G01X8007411Y2484697D02*
G01X7990393Y2478855D01*
G01X7978963Y2461837D01*
G01X7973121Y2433135D01*
G01X7973121Y2416117D01*
G01X7978963Y2387415D01*
G01X7990393Y2370397D01*
G01X8007411Y2364555D01*
G01X8018841Y2364555D01*
G01X8036113Y2370397D01*
G01X8047543Y2387415D01*
G01X8053131Y2416117D01*
G01X8053131Y2433135D01*
G01X8047543Y2461837D01*
G01X8036113Y2478855D01*
G01X8018841Y2484697D01*
G01X8007411Y2484697D01*
G01X8106725Y2393257D02*
G01X8100883Y2387415D01*
G01X8106725Y2381827D01*
G01X8112313Y2387415D01*
G01X8106725Y2393257D01*
G01X8228645Y2467425D02*
G01X8223057Y2478855D01*
G01X8205785Y2484697D01*
G01X8194355Y2484697D01*
G01X8177337Y2478855D01*
G01X8165907Y2461837D01*
G01X8160065Y2433135D01*
G01X8160065Y2404687D01*
G01X8165907Y2381827D01*
G01X8177337Y2370397D01*
G01X8194355Y2364555D01*
G01X8200197Y2364555D01*
G01X8217215Y2370397D01*
G01X8228645Y2381827D01*
G01X8234487Y2398845D01*
G01X8234487Y2404687D01*
G01X8228645Y2421705D01*
G01X8217215Y2433135D01*
G01X8200197Y2438977D01*
G01X8194355Y2438977D01*
G01X8177337Y2433135D01*
G01X8165907Y2421705D01*
G01X8160065Y2404687D01*
G01X8316529Y2484697D02*
G01X8299511Y2478855D01*
G01X8288081Y2461837D01*
G01X8282239Y2433135D01*
G01X8282239Y2416117D01*
G01X8288081Y2387415D01*
G01X8299511Y2370397D01*
G01X8316529Y2364555D01*
G01X8327959Y2364555D01*
G01X8345231Y2370397D01*
G01X8356661Y2387415D01*
G01X8362249Y2416117D01*
G01X8362249Y2433135D01*
G01X8356661Y2461837D01*
G01X8345231Y2478855D01*
G01X8327959Y2484697D01*
G01X8316529Y2484697D01*
G01X8444291Y2484697D02*
G01X8427273Y2478855D01*
G01X8415843Y2461837D01*
G01X8410001Y2433135D01*
G01X8410001Y2416117D01*
G01X8415843Y2387415D01*
G01X8427273Y2370397D01*
G01X8444291Y2364555D01*
G01X8455721Y2364555D01*
G01X8472993Y2370397D01*
G01X8484423Y2387415D01*
G01X8490011Y2416117D01*
G01X8490011Y2433135D01*
G01X8484423Y2461837D01*
G01X8472993Y2478855D01*
G01X8455721Y2484697D01*
G01X8444291Y2484697D01*
G01X8537763Y2444565D02*
G01X8600755Y2364555D01*
G01X8600755Y2444565D02*
G01X8537763Y2364555D01*
G01X8648507Y2461837D02*
G01X8659937Y2467425D01*
G01X8677209Y2484697D01*
G01X8677209Y2364555D01*
G01X8730803Y2393257D02*
G01X8724961Y2387415D01*
G01X8730803Y2381827D01*
G01X8736391Y2387415D01*
G01X8730803Y2393257D01*
G01X8841293Y2484697D02*
G01X8784143Y2404687D01*
G01X8869995Y2404687D01*
G01X8841293Y2484697D02*
G01X8841293Y2364555D01*
G01X8952037Y2484697D02*
G01X8935019Y2478855D01*
G01X8923589Y2461837D01*
G01X8917747Y2433135D01*
G01X8917747Y2416117D01*
G01X8923589Y2387415D01*
G01X8935019Y2370397D01*
G01X8952037Y2364555D01*
G01X8963467Y2364555D01*
G01X8980739Y2370397D01*
G01X8992169Y2387415D01*
G01X8997757Y2416117D01*
G01X8997757Y2433135D01*
G01X8992169Y2461837D01*
G01X8980739Y2478855D01*
G01X8963467Y2484697D01*
G01X8952037Y2484697D01*
G01X9079799Y2484697D02*
G01X9062781Y2478855D01*
G01X9051351Y2461837D01*
G01X9045509Y2433135D01*
G01X9045509Y2416117D01*
G01X9051351Y2387415D01*
G01X9062781Y2370397D01*
G01X9079799Y2364555D01*
G01X9091229Y2364555D01*
G01X9108501Y2370397D01*
G01X9119931Y2387415D01*
G01X9125519Y2416117D01*
G01X9125519Y2433135D01*
G01X9119931Y2461837D01*
G01X9108501Y2478855D01*
G01X9091229Y2484697D01*
G01X9079799Y2484697D01*
G01X9173271Y2444565D02*
G01X9173271Y2364555D01*
G01X9173271Y2421705D02*
G01X9190543Y2438977D01*
G01X9201973Y2444565D01*
G01X9218991Y2444565D01*
G01X9230421Y2438977D01*
G01X9236263Y2421705D01*
G01X9236263Y2364555D01*
G01X9236263Y2421705D02*
G01X9253281Y2438977D01*
G01X9264711Y2444565D01*
G01X9281983Y2444565D01*
G01X9293413Y2438977D01*
G01X9299001Y2421705D01*
G01X9299001Y2364555D01*
G01X9346753Y2444565D02*
G01X9346753Y2364555D01*
G01X9346753Y2421705D02*
G01X9364025Y2438977D01*
G01X9375455Y2444565D01*
G01X9392473Y2444565D01*
G01X9403903Y2438977D01*
G01X9409745Y2421705D01*
G01X9409745Y2364555D01*
G01X9409745Y2421705D02*
G01X9426763Y2438977D01*
G01X9438193Y2444565D01*
G01X9455465Y2444565D01*
G01X9466895Y2438977D01*
G01X9472483Y2421705D01*
G01X9472483Y2364555D01*
G01X9520235Y2507557D02*
G01X9531665Y2496127D01*
G01X9543095Y2478855D01*
G01X9554525Y2455995D01*
G01X9560367Y2427547D01*
G01X9560367Y2404687D01*
G01X9554525Y2375985D01*
G01X9543095Y2353125D01*
G01X9531665Y2336107D01*
G01X9520235Y2324677D01*
G01X10480247Y2484697D02*
G01X10480247Y2364555D01*
G01X10480247Y2484697D02*
G01X10531809Y2484697D01*
G01X10548827Y2478855D01*
G01X10554669Y2473267D01*
G01X10560257Y2461837D01*
G01X10560257Y2444565D01*
G01X10554669Y2433135D01*
G01X10548827Y2427547D01*
G01X10531809Y2421705D01*
G01X10480247Y2421705D01*
G01X10648141Y2484697D02*
G01X10648141Y2364555D01*
G01X10608009Y2484697D02*
G01X10688019Y2484697D01*
G01X10735771Y2484697D02*
G01X10735771Y2364555D01*
G01X10815781Y2484697D02*
G01X10815781Y2364555D01*
G01X10735771Y2427547D02*
G01X10815781Y2427547D01*
G01X12021664Y2467425D02*
G01X12010234Y2478855D01*
G01X11993216Y2484697D01*
G01X11970356Y2484697D01*
G01X11953084Y2478855D01*
G01X11941654Y2467425D01*
G01X11941654Y2455995D01*
G01X11947496Y2444565D01*
G01X11953084Y2438977D01*
G01X11964514Y2433135D01*
G01X11998804Y2421705D01*
G01X12010234Y2416117D01*
G01X12016076Y2410275D01*
G01X12021664Y2398845D01*
G01X12021664Y2381827D01*
G01X12010234Y2370397D01*
G01X11993216Y2364555D01*
G01X11970356Y2364555D01*
G01X11953084Y2370397D01*
G01X11941654Y2381827D01*
G01X12069416Y2484697D02*
G01X12069416Y2364555D01*
G01X12145870Y2444565D02*
G01X12134440Y2438977D01*
G01X12123010Y2427547D01*
G01X12117168Y2410275D01*
G01X12117168Y2398845D01*
G01X12123010Y2381827D01*
G01X12134440Y2370397D01*
G01X12145870Y2364555D01*
G01X12162888Y2364555D01*
G01X12174318Y2370397D01*
G01X12185748Y2381827D01*
G01X12191590Y2398845D01*
G01X12191590Y2410275D01*
G01X12185748Y2427547D01*
G01X12174318Y2438977D01*
G01X12162888Y2444565D01*
G01X12145870Y2444565D01*
G01X12256614Y2484697D02*
G01X12256614Y2387415D01*
G01X12262202Y2370397D01*
G01X12273632Y2364555D01*
G01X12285062Y2364555D01*
G01X12239342Y2444565D02*
G01X12279474Y2444565D01*
G01X13372835Y2484697D02*
G01X13372835Y2364555D01*
G01X13372835Y2484697D02*
G01X13424397Y2484697D01*
G01X13441415Y2478855D01*
G01X13447257Y2473267D01*
G01X13452845Y2461837D01*
G01X13452845Y2444565D01*
G01X13447257Y2433135D01*
G01X13441415Y2427547D01*
G01X13424397Y2421705D01*
G01X13372835Y2421705D01*
G01X13569177Y2444565D02*
G01X13569177Y2364555D01*
G01X13569177Y2427547D02*
G01X13557747Y2438977D01*
G01X13546317Y2444565D01*
G01X13529299Y2444565D01*
G01X13517869Y2438977D01*
G01X13506439Y2427547D01*
G01X13500597Y2410275D01*
G01X13500597Y2398845D01*
G01X13506439Y2381827D01*
G01X13517869Y2370397D01*
G01X13529299Y2364555D01*
G01X13546317Y2364555D01*
G01X13557747Y2370397D01*
G01X13569177Y2381827D01*
G01X13685509Y2484697D02*
G01X13685509Y2364555D01*
G01X13685509Y2427547D02*
G01X13674079Y2438977D01*
G01X13662649Y2444565D01*
G01X13645631Y2444565D01*
G01X13634201Y2438977D01*
G01X13622771Y2427547D01*
G01X13616929Y2410275D01*
G01X13616929Y2398845D01*
G01X13622771Y2381827D01*
G01X13634201Y2370397D01*
G01X13645631Y2364555D01*
G01X13662649Y2364555D01*
G01X13674079Y2370397D01*
G01X13685509Y2381827D01*
G01X15076304Y2484697D02*
G01X15064874Y2478855D01*
G01X15053444Y2467425D01*
G01X15047856Y2455995D01*
G01X15042014Y2438977D01*
G01X15042014Y2410275D01*
G01X15047856Y2393257D01*
G01X15053444Y2381827D01*
G01X15064874Y2370397D01*
G01X15076304Y2364555D01*
G01X15099164Y2364555D01*
G01X15110594Y2370397D01*
G01X15122024Y2381827D01*
G01X15127866Y2393257D01*
G01X15133454Y2410275D01*
G01X15133454Y2438977D01*
G01X15127866Y2455995D01*
G01X15122024Y2467425D01*
G01X15110594Y2478855D01*
G01X15099164Y2484697D01*
G01X15076304Y2484697D01*
G01X15181206Y2444565D02*
G01X15215496Y2364555D01*
G01X15249786Y2444565D02*
G01X15215496Y2364555D01*
G01X15366118Y2444565D02*
G01X15366118Y2364555D01*
G01X15366118Y2427547D02*
G01X15354688Y2438977D01*
G01X15343258Y2444565D01*
G01X15326240Y2444565D01*
G01X15314810Y2438977D01*
G01X15303380Y2427547D01*
G01X15297538Y2410275D01*
G01X15297538Y2398845D01*
G01X15303380Y2381827D01*
G01X15314810Y2370397D01*
G01X15326240Y2364555D01*
G01X15343258Y2364555D01*
G01X15354688Y2370397D01*
G01X15366118Y2381827D01*
G01X15413870Y2484697D02*
G01X15413870Y2364555D01*
G01X17001515Y2484697D02*
G01X17001515Y2364555D01*
G01X16961383Y2484697D02*
G01X17041393Y2484697D01*
G01X17117847Y2444565D02*
G01X17106417Y2438977D01*
G01X17094987Y2427547D01*
G01X17089145Y2410275D01*
G01X17089145Y2398845D01*
G01X17094987Y2381827D01*
G01X17106417Y2370397D01*
G01X17117847Y2364555D01*
G01X17134865Y2364555D01*
G01X17146295Y2370397D01*
G01X17157725Y2381827D01*
G01X17163567Y2398845D01*
G01X17163567Y2410275D01*
G01X17157725Y2427547D01*
G01X17146295Y2438977D01*
G01X17134865Y2444565D01*
G01X17117847Y2444565D01*
G01X17211319Y2444565D02*
G01X17211319Y2324677D01*
G01X17211319Y2427547D02*
G01X17222749Y2438977D01*
G01X17234179Y2444565D01*
G01X17251451Y2444565D01*
G01X17262881Y2438977D01*
G01X17274311Y2427547D01*
G01X17279899Y2410275D01*
G01X17279899Y2398845D01*
G01X17274311Y2381827D01*
G01X17262881Y2370397D01*
G01X17251451Y2364555D01*
G01X17234179Y2364555D01*
G01X17222749Y2370397D01*
G01X17211319Y2381827D01*
G01X17455667Y2484697D02*
G01X17455667Y2364555D01*
G01X17455667Y2364555D02*
G01X17524247Y2364555D01*
G01X17640579Y2444565D02*
G01X17640579Y2364555D01*
G01X17640579Y2427547D02*
G01X17629149Y2438977D01*
G01X17617719Y2444565D01*
G01X17600701Y2444565D01*
G01X17589271Y2438977D01*
G01X17577841Y2427547D01*
G01X17571999Y2410275D01*
G01X17571999Y2398845D01*
G01X17577841Y2381827D01*
G01X17589271Y2370397D01*
G01X17600701Y2364555D01*
G01X17617719Y2364555D01*
G01X17629149Y2370397D01*
G01X17640579Y2381827D01*
G01X17694173Y2444565D02*
G01X17728463Y2364555D01*
G01X17762753Y2444565D02*
G01X17728463Y2364555D01*
G01X17717033Y2341695D01*
G01X17705603Y2330265D01*
G01X17694173Y2324677D01*
G01X17688331Y2324677D01*
G01X17810505Y2410275D02*
G01X17879085Y2410275D01*
G01X17879085Y2421705D01*
G01X17873497Y2433135D01*
G01X17867655Y2438977D01*
G01X17856225Y2444565D01*
G01X17839207Y2444565D01*
G01X17827777Y2438977D01*
G01X17816347Y2427547D01*
G01X17810505Y2410275D01*
G01X17810505Y2398845D01*
G01X17816347Y2381827D01*
G01X17827777Y2370397D01*
G01X17839207Y2364555D01*
G01X17856225Y2364555D01*
G01X17867655Y2370397D01*
G01X17879085Y2381827D01*
G01X17926837Y2444565D02*
G01X17926837Y2364555D01*
G01X17926837Y2410275D02*
G01X17932679Y2427547D01*
G01X17944109Y2438977D01*
G01X17955539Y2444565D01*
G01X17972557Y2444565D01*
G01X18020309Y2416117D02*
G01X18123179Y2416117D01*
G01X18170931Y2484697D02*
G01X18170931Y2364555D01*
G01X18170931Y2484697D02*
G01X18222493Y2484697D01*
G01X18239511Y2478855D01*
G01X18245353Y2473267D01*
G01X18250941Y2461837D01*
G01X18250941Y2450407D01*
G01X18245353Y2438977D01*
G01X18239511Y2433135D01*
G01X18222493Y2427547D01*
G01X18170931Y2427547D02*
G01X18222493Y2427547D01*
G01X18239511Y2421705D01*
G01X18245353Y2416117D01*
G01X18250941Y2404687D01*
G01X18250941Y2387415D01*
G01X18245353Y2375985D01*
G01X18239511Y2370397D01*
G01X18222493Y2364555D01*
G01X18170931Y2364555D01*
G01X18327395Y2444565D02*
G01X18315965Y2438977D01*
G01X18304535Y2427547D01*
G01X18298693Y2410275D01*
G01X18298693Y2398845D01*
G01X18304535Y2381827D01*
G01X18315965Y2370397D01*
G01X18327395Y2364555D01*
G01X18344413Y2364555D01*
G01X18355843Y2370397D01*
G01X18367273Y2381827D01*
G01X18373115Y2398845D01*
G01X18373115Y2410275D01*
G01X18367273Y2427547D01*
G01X18355843Y2438977D01*
G01X18344413Y2444565D01*
G01X18327395Y2444565D01*
G01X18438139Y2484697D02*
G01X18438139Y2387415D01*
G01X18443727Y2370397D01*
G01X18455157Y2364555D01*
G01X18466587Y2364555D01*
G01X18420867Y2444565D02*
G01X18460999Y2444565D01*
G01X18531611Y2484697D02*
G01X18531611Y2387415D01*
G01X18537199Y2370397D01*
G01X18548629Y2364555D01*
G01X18560059Y2364555D01*
G01X18514339Y2444565D02*
G01X18554471Y2444565D01*
G01X18636513Y2444565D02*
G01X18625083Y2438977D01*
G01X18613653Y2427547D01*
G01X18607811Y2410275D01*
G01X18607811Y2398845D01*
G01X18613653Y2381827D01*
G01X18625083Y2370397D01*
G01X18636513Y2364555D01*
G01X18653531Y2364555D01*
G01X18664961Y2370397D01*
G01X18676391Y2381827D01*
G01X18682233Y2398845D01*
G01X18682233Y2410275D01*
G01X18676391Y2427547D01*
G01X18664961Y2438977D01*
G01X18653531Y2444565D01*
G01X18636513Y2444565D01*
G01X18729985Y2444565D02*
G01X18729985Y2364555D01*
G01X18729985Y2421705D02*
G01X18747257Y2438977D01*
G01X18758687Y2444565D01*
G01X18775705Y2444565D01*
G01X18787135Y2438977D01*
G01X18792977Y2421705D01*
G01X18792977Y2364555D01*
G01X18792977Y2421705D02*
G01X18809995Y2438977D01*
G01X18821425Y2444565D01*
G01X18838697Y2444565D01*
G01X18850127Y2438977D01*
G01X18855715Y2421705D01*
G01X18855715Y2364555D01*
G01X19031483Y2484697D02*
G01X19031483Y2364555D01*
G01X19031483Y2364555D02*
G01X19100063Y2364555D01*
G01X19216395Y2444565D02*
G01X19216395Y2364555D01*
G01X19216395Y2427547D02*
G01X19204965Y2438977D01*
G01X19193535Y2444565D01*
G01X19176517Y2444565D01*
G01X19165087Y2438977D01*
G01X19153657Y2427547D01*
G01X19147815Y2410275D01*
G01X19147815Y2398845D01*
G01X19153657Y2381827D01*
G01X19165087Y2370397D01*
G01X19176517Y2364555D01*
G01X19193535Y2364555D01*
G01X19204965Y2370397D01*
G01X19216395Y2381827D01*
G01X19269989Y2444565D02*
G01X19304279Y2364555D01*
G01X19338569Y2444565D02*
G01X19304279Y2364555D01*
G01X19292849Y2341695D01*
G01X19281419Y2330265D01*
G01X19269989Y2324677D01*
G01X19264147Y2324677D01*
G01X19386321Y2410275D02*
G01X19454901Y2410275D01*
G01X19454901Y2421705D01*
G01X19449313Y2433135D01*
G01X19443471Y2438977D01*
G01X19432041Y2444565D01*
G01X19415023Y2444565D01*
G01X19403593Y2438977D01*
G01X19392163Y2427547D01*
G01X19386321Y2410275D01*
G01X19386321Y2398845D01*
G01X19392163Y2381827D01*
G01X19403593Y2370397D01*
G01X19415023Y2364555D01*
G01X19432041Y2364555D01*
G01X19443471Y2370397D01*
G01X19454901Y2381827D01*
G01X19502653Y2444565D02*
G01X19502653Y2364555D01*
G01X19502653Y2410275D02*
G01X19508495Y2427547D01*
G01X19519925Y2438977D01*
G01X19531355Y2444565D01*
G01X19548373Y2444565D01*
G01X5257716Y1875424D02*
G01X5257716Y1881266D01*
G01X5263304Y1892696D01*
G01X5269146Y1898284D01*
G01X5280576Y1904126D01*
G01X5303436Y1904126D01*
G01X5314866Y1898284D01*
G01X5320454Y1892696D01*
G01X5326296Y1881266D01*
G01X5326296Y1869836D01*
G01X5320454Y1858406D01*
G01X5309024Y1841134D01*
G01X5251874Y1783984D01*
G01X5331884Y1783984D01*
G01X6671879Y1875424D02*
G01X6671879Y1881266D01*
G01X6677467Y1892696D01*
G01X6683309Y1898284D01*
G01X6694739Y1904126D01*
G01X6717599Y1904126D01*
G01X6729029Y1898284D01*
G01X6734617Y1892696D01*
G01X6740459Y1881266D01*
G01X6740459Y1869836D01*
G01X6734617Y1858406D01*
G01X6723187Y1841134D01*
G01X6666037Y1783984D01*
G01X6746047Y1783984D01*
G01X6805229Y1904126D02*
G01X6868221Y1904126D01*
G01X6833931Y1858406D01*
G01X6850949Y1858406D01*
G01X6862379Y1852564D01*
G01X6868221Y1846976D01*
G01X6873809Y1829704D01*
G01X6873809Y1818274D01*
G01X6868221Y1801256D01*
G01X6856791Y1789826D01*
G01X6839519Y1783984D01*
G01X6822501Y1783984D01*
G01X6805229Y1789826D01*
G01X6799641Y1795414D01*
G01X6793799Y1806844D01*
G01X6927403Y1812686D02*
G01X6921561Y1806844D01*
G01X6927403Y1801256D01*
G01X6932991Y1806844D01*
G01X6927403Y1812686D01*
G01X7049323Y1886854D02*
G01X7043735Y1898284D01*
G01X7026463Y1904126D01*
G01X7015033Y1904126D01*
G01X6998015Y1898284D01*
G01X6986585Y1881266D01*
G01X6980743Y1852564D01*
G01X6980743Y1824116D01*
G01X6986585Y1801256D01*
G01X6998015Y1789826D01*
G01X7015033Y1783984D01*
G01X7020875Y1783984D01*
G01X7037893Y1789826D01*
G01X7049323Y1801256D01*
G01X7055165Y1818274D01*
G01X7055165Y1824116D01*
G01X7049323Y1841134D01*
G01X7037893Y1852564D01*
G01X7020875Y1858406D01*
G01X7015033Y1858406D01*
G01X6998015Y1852564D01*
G01X6986585Y1841134D01*
G01X6980743Y1824116D01*
G01X7102917Y1863994D02*
G01X7165909Y1783984D01*
G01X7165909Y1863994D02*
G01X7102917Y1783984D01*
G01X7282241Y1886854D02*
G01X7276653Y1898284D01*
G01X7259381Y1904126D01*
G01X7247951Y1904126D01*
G01X7230933Y1898284D01*
G01X7219503Y1881266D01*
G01X7213661Y1852564D01*
G01X7213661Y1824116D01*
G01X7219503Y1801256D01*
G01X7230933Y1789826D01*
G01X7247951Y1783984D01*
G01X7253793Y1783984D01*
G01X7270811Y1789826D01*
G01X7282241Y1801256D01*
G01X7288083Y1818274D01*
G01X7288083Y1824116D01*
G01X7282241Y1841134D01*
G01X7270811Y1852564D01*
G01X7253793Y1858406D01*
G01X7247951Y1858406D01*
G01X7230933Y1852564D01*
G01X7219503Y1841134D01*
G01X7213661Y1824116D01*
G01X7404415Y1886854D02*
G01X7398827Y1898284D01*
G01X7381555Y1904126D01*
G01X7370125Y1904126D01*
G01X7353107Y1898284D01*
G01X7341677Y1881266D01*
G01X7335835Y1852564D01*
G01X7335835Y1824116D01*
G01X7341677Y1801256D01*
G01X7353107Y1789826D01*
G01X7370125Y1783984D01*
G01X7375967Y1783984D01*
G01X7392985Y1789826D01*
G01X7404415Y1801256D01*
G01X7410257Y1818274D01*
G01X7410257Y1824116D01*
G01X7404415Y1841134D01*
G01X7392985Y1852564D01*
G01X7375967Y1858406D01*
G01X7370125Y1858406D01*
G01X7353107Y1852564D01*
G01X7341677Y1841134D01*
G01X7335835Y1824116D01*
G01X7463851Y1812686D02*
G01X7458009Y1806844D01*
G01X7463851Y1801256D01*
G01X7469439Y1806844D01*
G01X7463851Y1812686D01*
G01X7591613Y1863994D02*
G01X7585771Y1846976D01*
G01X7574341Y1835546D01*
G01X7557323Y1829704D01*
G01X7551481Y1829704D01*
G01X7534463Y1835546D01*
G01X7523033Y1846976D01*
G01X7517191Y1863994D01*
G01X7517191Y1869836D01*
G01X7523033Y1886854D01*
G01X7534463Y1898284D01*
G01X7551481Y1904126D01*
G01X7557323Y1904126D01*
G01X7574341Y1898284D01*
G01X7585771Y1886854D01*
G01X7591613Y1863994D01*
G01X7591613Y1835546D01*
G01X7585771Y1806844D01*
G01X7574341Y1789826D01*
G01X7557323Y1783984D01*
G01X7545893Y1783984D01*
G01X7528621Y1789826D01*
G01X7523033Y1801256D01*
G01X7639365Y1863994D02*
G01X7639365Y1783984D01*
G01X7639365Y1841134D02*
G01X7656637Y1858406D01*
G01X7668067Y1863994D01*
G01X7685085Y1863994D01*
G01X7696515Y1858406D01*
G01X7702357Y1841134D01*
G01X7702357Y1783984D01*
G01X7702357Y1841134D02*
G01X7719375Y1858406D01*
G01X7730805Y1863994D01*
G01X7748077Y1863994D01*
G01X7759507Y1858406D01*
G01X7765095Y1841134D01*
G01X7765095Y1783984D01*
G01X7812847Y1904126D02*
G01X7818689Y1898284D01*
G01X7824277Y1904126D01*
G01X7818689Y1909714D01*
G01X7812847Y1904126D01*
G01X7818689Y1863994D02*
G01X7818689Y1783984D01*
G01X7872029Y1904126D02*
G01X7872029Y1783984D01*
G01X7959913Y1926986D02*
G01X7948483Y1915556D01*
G01X7937053Y1898284D01*
G01X7925623Y1875424D01*
G01X7919781Y1846976D01*
G01X7919781Y1824116D01*
G01X7925623Y1795414D01*
G01X7937053Y1772554D01*
G01X7948483Y1755536D01*
G01X7959913Y1744106D01*
G01X8041955Y1904126D02*
G01X8024937Y1898284D01*
G01X8013507Y1881266D01*
G01X8007665Y1852564D01*
G01X8007665Y1835546D01*
G01X8013507Y1806844D01*
G01X8024937Y1789826D01*
G01X8041955Y1783984D01*
G01X8053385Y1783984D01*
G01X8070657Y1789826D01*
G01X8082087Y1806844D01*
G01X8087675Y1835546D01*
G01X8087675Y1852564D01*
G01X8082087Y1881266D01*
G01X8070657Y1898284D01*
G01X8053385Y1904126D01*
G01X8041955Y1904126D01*
G01X8141269Y1812686D02*
G01X8135427Y1806844D01*
G01X8141269Y1801256D01*
G01X8146857Y1806844D01*
G01X8141269Y1812686D01*
G01X8263189Y1886854D02*
G01X8257601Y1898284D01*
G01X8240329Y1904126D01*
G01X8228899Y1904126D01*
G01X8211881Y1898284D01*
G01X8200451Y1881266D01*
G01X8194609Y1852564D01*
G01X8194609Y1824116D01*
G01X8200451Y1801256D01*
G01X8211881Y1789826D01*
G01X8228899Y1783984D01*
G01X8234741Y1783984D01*
G01X8251759Y1789826D01*
G01X8263189Y1801256D01*
G01X8269031Y1818274D01*
G01X8269031Y1824116D01*
G01X8263189Y1841134D01*
G01X8251759Y1852564D01*
G01X8234741Y1858406D01*
G01X8228899Y1858406D01*
G01X8211881Y1852564D01*
G01X8200451Y1841134D01*
G01X8194609Y1824116D01*
G01X8351073Y1904126D02*
G01X8334055Y1898284D01*
G01X8322625Y1881266D01*
G01X8316783Y1852564D01*
G01X8316783Y1835546D01*
G01X8322625Y1806844D01*
G01X8334055Y1789826D01*
G01X8351073Y1783984D01*
G01X8362503Y1783984D01*
G01X8379775Y1789826D01*
G01X8391205Y1806844D01*
G01X8396793Y1835546D01*
G01X8396793Y1852564D01*
G01X8391205Y1881266D01*
G01X8379775Y1898284D01*
G01X8362503Y1904126D01*
G01X8351073Y1904126D01*
G01X8478835Y1904126D02*
G01X8461817Y1898284D01*
G01X8450387Y1881266D01*
G01X8444545Y1852564D01*
G01X8444545Y1835546D01*
G01X8450387Y1806844D01*
G01X8461817Y1789826D01*
G01X8478835Y1783984D01*
G01X8490265Y1783984D01*
G01X8507537Y1789826D01*
G01X8518967Y1806844D01*
G01X8524555Y1835546D01*
G01X8524555Y1852564D01*
G01X8518967Y1881266D01*
G01X8507537Y1898284D01*
G01X8490265Y1904126D01*
G01X8478835Y1904126D01*
G01X8572307Y1863994D02*
G01X8635299Y1783984D01*
G01X8635299Y1863994D02*
G01X8572307Y1783984D01*
G01X8683051Y1881266D02*
G01X8694481Y1886854D01*
G01X8711753Y1904126D01*
G01X8711753Y1783984D01*
G01X8765347Y1812686D02*
G01X8759505Y1806844D01*
G01X8765347Y1801256D01*
G01X8770935Y1806844D01*
G01X8765347Y1812686D01*
G01X8898697Y1904126D02*
G01X8841547Y1783984D01*
G01X8818687Y1904126D02*
G01X8898697Y1904126D01*
G01X8980739Y1904126D02*
G01X8963721Y1898284D01*
G01X8952291Y1881266D01*
G01X8946449Y1852564D01*
G01X8946449Y1835546D01*
G01X8952291Y1806844D01*
G01X8963721Y1789826D01*
G01X8980739Y1783984D01*
G01X8992169Y1783984D01*
G01X9009441Y1789826D01*
G01X9020871Y1806844D01*
G01X9026459Y1835546D01*
G01X9026459Y1852564D01*
G01X9020871Y1881266D01*
G01X9009441Y1898284D01*
G01X8992169Y1904126D01*
G01X8980739Y1904126D01*
G01X9108501Y1904126D02*
G01X9091483Y1898284D01*
G01X9080053Y1881266D01*
G01X9074211Y1852564D01*
G01X9074211Y1835546D01*
G01X9080053Y1806844D01*
G01X9091483Y1789826D01*
G01X9108501Y1783984D01*
G01X9119931Y1783984D01*
G01X9137203Y1789826D01*
G01X9148633Y1806844D01*
G01X9154221Y1835546D01*
G01X9154221Y1852564D01*
G01X9148633Y1881266D01*
G01X9137203Y1898284D01*
G01X9119931Y1904126D01*
G01X9108501Y1904126D01*
G01X9201973Y1863994D02*
G01X9201973Y1783984D01*
G01X9201973Y1841134D02*
G01X9219245Y1858406D01*
G01X9230675Y1863994D01*
G01X9247693Y1863994D01*
G01X9259123Y1858406D01*
G01X9264965Y1841134D01*
G01X9264965Y1783984D01*
G01X9264965Y1841134D02*
G01X9281983Y1858406D01*
G01X9293413Y1863994D01*
G01X9310685Y1863994D01*
G01X9322115Y1858406D01*
G01X9327703Y1841134D01*
G01X9327703Y1783984D01*
G01X9375455Y1863994D02*
G01X9375455Y1783984D01*
G01X9375455Y1841134D02*
G01X9392727Y1858406D01*
G01X9404157Y1863994D01*
G01X9421175Y1863994D01*
G01X9432605Y1858406D01*
G01X9438447Y1841134D01*
G01X9438447Y1783984D01*
G01X9438447Y1841134D02*
G01X9455465Y1858406D01*
G01X9466895Y1863994D01*
G01X9484167Y1863994D01*
G01X9495597Y1858406D01*
G01X9501185Y1841134D01*
G01X9501185Y1783984D01*
G01X9548937Y1926986D02*
G01X9560367Y1915556D01*
G01X9571797Y1898284D01*
G01X9583227Y1875424D01*
G01X9589069Y1846976D01*
G01X9589069Y1824116D01*
G01X9583227Y1795414D01*
G01X9571797Y1772554D01*
G01X9560367Y1755536D01*
G01X9548937Y1744106D01*
G01X10480247Y1904126D02*
G01X10480247Y1783984D01*
G01X10480247Y1904126D02*
G01X10531809Y1904126D01*
G01X10548827Y1898284D01*
G01X10554669Y1892696D01*
G01X10560257Y1881266D01*
G01X10560257Y1863994D01*
G01X10554669Y1852564D01*
G01X10548827Y1846976D01*
G01X10531809Y1841134D01*
G01X10480247Y1841134D01*
G01X10648141Y1904126D02*
G01X10648141Y1783984D01*
G01X10608009Y1904126D02*
G01X10688019Y1904126D01*
G01X10735771Y1904126D02*
G01X10735771Y1783984D01*
G01X10815781Y1904126D02*
G01X10815781Y1783984D01*
G01X10735771Y1846976D02*
G01X10815781Y1846976D01*
G01X12021664Y1886854D02*
G01X12010234Y1898284D01*
G01X11993216Y1904126D01*
G01X11970356Y1904126D01*
G01X11953084Y1898284D01*
G01X11941654Y1886854D01*
G01X11941654Y1875424D01*
G01X11947496Y1863994D01*
G01X11953084Y1858406D01*
G01X11964514Y1852564D01*
G01X11998804Y1841134D01*
G01X12010234Y1835546D01*
G01X12016076Y1829704D01*
G01X12021664Y1818274D01*
G01X12021664Y1801256D01*
G01X12010234Y1789826D01*
G01X11993216Y1783984D01*
G01X11970356Y1783984D01*
G01X11953084Y1789826D01*
G01X11941654Y1801256D01*
G01X12069416Y1904126D02*
G01X12069416Y1783984D01*
G01X12145870Y1863994D02*
G01X12134440Y1858406D01*
G01X12123010Y1846976D01*
G01X12117168Y1829704D01*
G01X12117168Y1818274D01*
G01X12123010Y1801256D01*
G01X12134440Y1789826D01*
G01X12145870Y1783984D01*
G01X12162888Y1783984D01*
G01X12174318Y1789826D01*
G01X12185748Y1801256D01*
G01X12191590Y1818274D01*
G01X12191590Y1829704D01*
G01X12185748Y1846976D01*
G01X12174318Y1858406D01*
G01X12162888Y1863994D01*
G01X12145870Y1863994D01*
G01X12256614Y1904126D02*
G01X12256614Y1806844D01*
G01X12262202Y1789826D01*
G01X12273632Y1783984D01*
G01X12285062Y1783984D01*
G01X12239342Y1863994D02*
G01X12279474Y1863994D01*
G01X13372835Y1904126D02*
G01X13372835Y1783984D01*
G01X13372835Y1904126D02*
G01X13424397Y1904126D01*
G01X13441415Y1898284D01*
G01X13447257Y1892696D01*
G01X13452845Y1881266D01*
G01X13452845Y1863994D01*
G01X13447257Y1852564D01*
G01X13441415Y1846976D01*
G01X13424397Y1841134D01*
G01X13372835Y1841134D01*
G01X13569177Y1863994D02*
G01X13569177Y1783984D01*
G01X13569177Y1846976D02*
G01X13557747Y1858406D01*
G01X13546317Y1863994D01*
G01X13529299Y1863994D01*
G01X13517869Y1858406D01*
G01X13506439Y1846976D01*
G01X13500597Y1829704D01*
G01X13500597Y1818274D01*
G01X13506439Y1801256D01*
G01X13517869Y1789826D01*
G01X13529299Y1783984D01*
G01X13546317Y1783984D01*
G01X13557747Y1789826D01*
G01X13569177Y1801256D01*
G01X13685509Y1904126D02*
G01X13685509Y1783984D01*
G01X13685509Y1846976D02*
G01X13674079Y1858406D01*
G01X13662649Y1863994D01*
G01X13645631Y1863994D01*
G01X13634201Y1858406D01*
G01X13622771Y1846976D01*
G01X13616929Y1829704D01*
G01X13616929Y1818274D01*
G01X13622771Y1801256D01*
G01X13634201Y1789826D01*
G01X13645631Y1783984D01*
G01X13662649Y1783984D01*
G01X13674079Y1789826D01*
G01X13685509Y1801256D01*
G01X15076304Y1904126D02*
G01X15064874Y1898284D01*
G01X15053444Y1886854D01*
G01X15047856Y1875424D01*
G01X15042014Y1858406D01*
G01X15042014Y1829704D01*
G01X15047856Y1812686D01*
G01X15053444Y1801256D01*
G01X15064874Y1789826D01*
G01X15076304Y1783984D01*
G01X15099164Y1783984D01*
G01X15110594Y1789826D01*
G01X15122024Y1801256D01*
G01X15127866Y1812686D01*
G01X15133454Y1829704D01*
G01X15133454Y1858406D01*
G01X15127866Y1875424D01*
G01X15122024Y1886854D01*
G01X15110594Y1898284D01*
G01X15099164Y1904126D01*
G01X15076304Y1904126D01*
G01X15181206Y1863994D02*
G01X15215496Y1783984D01*
G01X15249786Y1863994D02*
G01X15215496Y1783984D01*
G01X15366118Y1863994D02*
G01X15366118Y1783984D01*
G01X15366118Y1846976D02*
G01X15354688Y1858406D01*
G01X15343258Y1863994D01*
G01X15326240Y1863994D01*
G01X15314810Y1858406D01*
G01X15303380Y1846976D01*
G01X15297538Y1829704D01*
G01X15297538Y1818274D01*
G01X15303380Y1801256D01*
G01X15314810Y1789826D01*
G01X15326240Y1783984D01*
G01X15343258Y1783984D01*
G01X15354688Y1789826D01*
G01X15366118Y1801256D01*
G01X15413870Y1904126D02*
G01X15413870Y1783984D01*
G01X17001515Y1904126D02*
G01X17001515Y1783984D01*
G01X16961383Y1904126D02*
G01X17041393Y1904126D01*
G01X17117847Y1863994D02*
G01X17106417Y1858406D01*
G01X17094987Y1846976D01*
G01X17089145Y1829704D01*
G01X17089145Y1818274D01*
G01X17094987Y1801256D01*
G01X17106417Y1789826D01*
G01X17117847Y1783984D01*
G01X17134865Y1783984D01*
G01X17146295Y1789826D01*
G01X17157725Y1801256D01*
G01X17163567Y1818274D01*
G01X17163567Y1829704D01*
G01X17157725Y1846976D01*
G01X17146295Y1858406D01*
G01X17134865Y1863994D01*
G01X17117847Y1863994D01*
G01X17211319Y1863994D02*
G01X17211319Y1744106D01*
G01X17211319Y1846976D02*
G01X17222749Y1858406D01*
G01X17234179Y1863994D01*
G01X17251451Y1863994D01*
G01X17262881Y1858406D01*
G01X17274311Y1846976D01*
G01X17279899Y1829704D01*
G01X17279899Y1818274D01*
G01X17274311Y1801256D01*
G01X17262881Y1789826D01*
G01X17251451Y1783984D01*
G01X17234179Y1783984D01*
G01X17222749Y1789826D01*
G01X17211319Y1801256D01*
G01X17455667Y1904126D02*
G01X17455667Y1783984D01*
G01X17455667Y1783984D02*
G01X17524247Y1783984D01*
G01X17640579Y1863994D02*
G01X17640579Y1783984D01*
G01X17640579Y1846976D02*
G01X17629149Y1858406D01*
G01X17617719Y1863994D01*
G01X17600701Y1863994D01*
G01X17589271Y1858406D01*
G01X17577841Y1846976D01*
G01X17571999Y1829704D01*
G01X17571999Y1818274D01*
G01X17577841Y1801256D01*
G01X17589271Y1789826D01*
G01X17600701Y1783984D01*
G01X17617719Y1783984D01*
G01X17629149Y1789826D01*
G01X17640579Y1801256D01*
G01X17694173Y1863994D02*
G01X17728463Y1783984D01*
G01X17762753Y1863994D02*
G01X17728463Y1783984D01*
G01X17717033Y1761124D01*
G01X17705603Y1749694D01*
G01X17694173Y1744106D01*
G01X17688331Y1744106D01*
G01X17810505Y1829704D02*
G01X17879085Y1829704D01*
G01X17879085Y1841134D01*
G01X17873497Y1852564D01*
G01X17867655Y1858406D01*
G01X17856225Y1863994D01*
G01X17839207Y1863994D01*
G01X17827777Y1858406D01*
G01X17816347Y1846976D01*
G01X17810505Y1829704D01*
G01X17810505Y1818274D01*
G01X17816347Y1801256D01*
G01X17827777Y1789826D01*
G01X17839207Y1783984D01*
G01X17856225Y1783984D01*
G01X17867655Y1789826D01*
G01X17879085Y1801256D01*
G01X17926837Y1863994D02*
G01X17926837Y1783984D01*
G01X17926837Y1829704D02*
G01X17932679Y1846976D01*
G01X17944109Y1858406D01*
G01X17955539Y1863994D01*
G01X17972557Y1863994D01*
G01X18020309Y1835546D02*
G01X18123179Y1835546D01*
G01X18170931Y1904126D02*
G01X18170931Y1783984D01*
G01X18170931Y1904126D02*
G01X18222493Y1904126D01*
G01X18239511Y1898284D01*
G01X18245353Y1892696D01*
G01X18250941Y1881266D01*
G01X18250941Y1869836D01*
G01X18245353Y1858406D01*
G01X18239511Y1852564D01*
G01X18222493Y1846976D01*
G01X18170931Y1846976D02*
G01X18222493Y1846976D01*
G01X18239511Y1841134D01*
G01X18245353Y1835546D01*
G01X18250941Y1824116D01*
G01X18250941Y1806844D01*
G01X18245353Y1795414D01*
G01X18239511Y1789826D01*
G01X18222493Y1783984D01*
G01X18170931Y1783984D01*
G01X18327395Y1863994D02*
G01X18315965Y1858406D01*
G01X18304535Y1846976D01*
G01X18298693Y1829704D01*
G01X18298693Y1818274D01*
G01X18304535Y1801256D01*
G01X18315965Y1789826D01*
G01X18327395Y1783984D01*
G01X18344413Y1783984D01*
G01X18355843Y1789826D01*
G01X18367273Y1801256D01*
G01X18373115Y1818274D01*
G01X18373115Y1829704D01*
G01X18367273Y1846976D01*
G01X18355843Y1858406D01*
G01X18344413Y1863994D01*
G01X18327395Y1863994D01*
G01X18438139Y1904126D02*
G01X18438139Y1806844D01*
G01X18443727Y1789826D01*
G01X18455157Y1783984D01*
G01X18466587Y1783984D01*
G01X18420867Y1863994D02*
G01X18460999Y1863994D01*
G01X18531611Y1904126D02*
G01X18531611Y1806844D01*
G01X18537199Y1789826D01*
G01X18548629Y1783984D01*
G01X18560059Y1783984D01*
G01X18514339Y1863994D02*
G01X18554471Y1863994D01*
G01X18636513Y1863994D02*
G01X18625083Y1858406D01*
G01X18613653Y1846976D01*
G01X18607811Y1829704D01*
G01X18607811Y1818274D01*
G01X18613653Y1801256D01*
G01X18625083Y1789826D01*
G01X18636513Y1783984D01*
G01X18653531Y1783984D01*
G01X18664961Y1789826D01*
G01X18676391Y1801256D01*
G01X18682233Y1818274D01*
G01X18682233Y1829704D01*
G01X18676391Y1846976D01*
G01X18664961Y1858406D01*
G01X18653531Y1863994D01*
G01X18636513Y1863994D01*
G01X18729985Y1863994D02*
G01X18729985Y1783984D01*
G01X18729985Y1841134D02*
G01X18747257Y1858406D01*
G01X18758687Y1863994D01*
G01X18775705Y1863994D01*
G01X18787135Y1858406D01*
G01X18792977Y1841134D01*
G01X18792977Y1783984D01*
G01X18792977Y1841134D02*
G01X18809995Y1858406D01*
G01X18821425Y1863994D01*
G01X18838697Y1863994D01*
G01X18850127Y1858406D01*
G01X18855715Y1841134D01*
G01X18855715Y1783984D01*
G01X19031483Y1904126D02*
G01X19031483Y1783984D01*
G01X19031483Y1783984D02*
G01X19100063Y1783984D01*
G01X19216395Y1863994D02*
G01X19216395Y1783984D01*
G01X19216395Y1846976D02*
G01X19204965Y1858406D01*
G01X19193535Y1863994D01*
G01X19176517Y1863994D01*
G01X19165087Y1858406D01*
G01X19153657Y1846976D01*
G01X19147815Y1829704D01*
G01X19147815Y1818274D01*
G01X19153657Y1801256D01*
G01X19165087Y1789826D01*
G01X19176517Y1783984D01*
G01X19193535Y1783984D01*
G01X19204965Y1789826D01*
G01X19216395Y1801256D01*
G01X19269989Y1863994D02*
G01X19304279Y1783984D01*
G01X19338569Y1863994D02*
G01X19304279Y1783984D01*
G01X19292849Y1761124D01*
G01X19281419Y1749694D01*
G01X19269989Y1744106D01*
G01X19264147Y1744106D01*
G01X19386321Y1829704D02*
G01X19454901Y1829704D01*
G01X19454901Y1841134D01*
G01X19449313Y1852564D01*
G01X19443471Y1858406D01*
G01X19432041Y1863994D01*
G01X19415023Y1863994D01*
G01X19403593Y1858406D01*
G01X19392163Y1846976D01*
G01X19386321Y1829704D01*
G01X19386321Y1818274D01*
G01X19392163Y1801256D01*
G01X19403593Y1789826D01*
G01X19415023Y1783984D01*
G01X19432041Y1783984D01*
G01X19443471Y1789826D01*
G01X19454901Y1801256D01*
G01X19502653Y1863994D02*
G01X19502653Y1783984D01*
G01X19502653Y1829704D02*
G01X19508495Y1846976D01*
G01X19519925Y1858406D01*
G01X19531355Y1863994D01*
G01X19548373Y1863994D01*
G01X5257716Y1294852D02*
G01X5257716Y1300694D01*
G01X5263304Y1312124D01*
G01X5269146Y1317712D01*
G01X5280576Y1323554D01*
G01X5303436Y1323554D01*
G01X5314866Y1317712D01*
G01X5320454Y1312124D01*
G01X5326296Y1300694D01*
G01X5326296Y1289264D01*
G01X5320454Y1277834D01*
G01X5309024Y1260562D01*
G01X5251874Y1203412D01*
G01X5331884Y1203412D01*
G01X6671879Y1294852D02*
G01X6671879Y1300694D01*
G01X6677467Y1312124D01*
G01X6683309Y1317712D01*
G01X6694739Y1323554D01*
G01X6717599Y1323554D01*
G01X6729029Y1317712D01*
G01X6734617Y1312124D01*
G01X6740459Y1300694D01*
G01X6740459Y1289264D01*
G01X6734617Y1277834D01*
G01X6723187Y1260562D01*
G01X6666037Y1203412D01*
G01X6746047Y1203412D01*
G01X6862379Y1323554D02*
G01X6805229Y1323554D01*
G01X6799641Y1271992D01*
G01X6805229Y1277834D01*
G01X6822501Y1283422D01*
G01X6839519Y1283422D01*
G01X6856791Y1277834D01*
G01X6868221Y1266404D01*
G01X6873809Y1249132D01*
G01X6873809Y1237702D01*
G01X6868221Y1220684D01*
G01X6856791Y1209254D01*
G01X6839519Y1203412D01*
G01X6822501Y1203412D01*
G01X6805229Y1209254D01*
G01X6799641Y1214842D01*
G01X6793799Y1226272D01*
G01X6927403Y1232114D02*
G01X6921561Y1226272D01*
G01X6927403Y1220684D01*
G01X6932991Y1226272D01*
G01X6927403Y1232114D01*
G01X7049323Y1306282D02*
G01X7043735Y1317712D01*
G01X7026463Y1323554D01*
G01X7015033Y1323554D01*
G01X6998015Y1317712D01*
G01X6986585Y1300694D01*
G01X6980743Y1271992D01*
G01X6980743Y1243544D01*
G01X6986585Y1220684D01*
G01X6998015Y1209254D01*
G01X7015033Y1203412D01*
G01X7020875Y1203412D01*
G01X7037893Y1209254D01*
G01X7049323Y1220684D01*
G01X7055165Y1237702D01*
G01X7055165Y1243544D01*
G01X7049323Y1260562D01*
G01X7037893Y1271992D01*
G01X7020875Y1277834D01*
G01X7015033Y1277834D01*
G01X6998015Y1271992D01*
G01X6986585Y1260562D01*
G01X6980743Y1243544D01*
G01X7102917Y1283422D02*
G01X7102917Y1203412D01*
G01X7102917Y1260562D02*
G01X7120189Y1277834D01*
G01X7131619Y1283422D01*
G01X7148637Y1283422D01*
G01X7160067Y1277834D01*
G01X7165909Y1260562D01*
G01X7165909Y1203412D01*
G01X7165909Y1260562D02*
G01X7182927Y1277834D01*
G01X7194357Y1283422D01*
G01X7211629Y1283422D01*
G01X7223059Y1277834D01*
G01X7228647Y1260562D01*
G01X7228647Y1203412D01*
G01X7276399Y1323554D02*
G01X7282241Y1317712D01*
G01X7287829Y1323554D01*
G01X7282241Y1329142D01*
G01X7276399Y1323554D01*
G01X7282241Y1283422D02*
G01X7282241Y1203412D01*
G01X7335581Y1323554D02*
G01X7335581Y1203412D01*
G01X7423465Y1346414D02*
G01X7412035Y1334984D01*
G01X7400605Y1317712D01*
G01X7389175Y1294852D01*
G01X7383333Y1266404D01*
G01X7383333Y1243544D01*
G01X7389175Y1214842D01*
G01X7400605Y1191982D01*
G01X7412035Y1174964D01*
G01X7423465Y1163534D01*
G01X7505507Y1323554D02*
G01X7488489Y1317712D01*
G01X7477059Y1300694D01*
G01X7471217Y1271992D01*
G01X7471217Y1254974D01*
G01X7477059Y1226272D01*
G01X7488489Y1209254D01*
G01X7505507Y1203412D01*
G01X7516937Y1203412D01*
G01X7534209Y1209254D01*
G01X7545639Y1226272D01*
G01X7551227Y1254974D01*
G01X7551227Y1271992D01*
G01X7545639Y1300694D01*
G01X7534209Y1317712D01*
G01X7516937Y1323554D01*
G01X7505507Y1323554D01*
G01X7604821Y1232114D02*
G01X7598979Y1226272D01*
G01X7604821Y1220684D01*
G01X7610409Y1226272D01*
G01X7604821Y1232114D01*
G01X7726741Y1306282D02*
G01X7721153Y1317712D01*
G01X7703881Y1323554D01*
G01X7692451Y1323554D01*
G01X7675433Y1317712D01*
G01X7664003Y1300694D01*
G01X7658161Y1271992D01*
G01X7658161Y1243544D01*
G01X7664003Y1220684D01*
G01X7675433Y1209254D01*
G01X7692451Y1203412D01*
G01X7698293Y1203412D01*
G01X7715311Y1209254D01*
G01X7726741Y1220684D01*
G01X7732583Y1237702D01*
G01X7732583Y1243544D01*
G01X7726741Y1260562D01*
G01X7715311Y1271992D01*
G01X7698293Y1277834D01*
G01X7692451Y1277834D01*
G01X7675433Y1271992D01*
G01X7664003Y1260562D01*
G01X7658161Y1243544D01*
G01X7848915Y1323554D02*
G01X7791765Y1323554D01*
G01X7786177Y1271992D01*
G01X7791765Y1277834D01*
G01X7809037Y1283422D01*
G01X7826055Y1283422D01*
G01X7843327Y1277834D01*
G01X7854757Y1266404D01*
G01X7860345Y1249132D01*
G01X7860345Y1237702D01*
G01X7854757Y1220684D01*
G01X7843327Y1209254D01*
G01X7826055Y1203412D01*
G01X7809037Y1203412D01*
G01X7791765Y1209254D01*
G01X7786177Y1214842D01*
G01X7780335Y1226272D01*
G01X7942387Y1323554D02*
G01X7925369Y1317712D01*
G01X7913939Y1300694D01*
G01X7908097Y1271992D01*
G01X7908097Y1254974D01*
G01X7913939Y1226272D01*
G01X7925369Y1209254D01*
G01X7942387Y1203412D01*
G01X7953817Y1203412D01*
G01X7971089Y1209254D01*
G01X7982519Y1226272D01*
G01X7988107Y1254974D01*
G01X7988107Y1271992D01*
G01X7982519Y1300694D01*
G01X7971089Y1317712D01*
G01X7953817Y1323554D01*
G01X7942387Y1323554D01*
G01X8035859Y1283422D02*
G01X8035859Y1203412D01*
G01X8035859Y1260562D02*
G01X8053131Y1277834D01*
G01X8064561Y1283422D01*
G01X8081579Y1283422D01*
G01X8093009Y1277834D01*
G01X8098851Y1260562D01*
G01X8098851Y1203412D01*
G01X8098851Y1260562D02*
G01X8115869Y1277834D01*
G01X8127299Y1283422D01*
G01X8144571Y1283422D01*
G01X8156001Y1277834D01*
G01X8161589Y1260562D01*
G01X8161589Y1203412D01*
G01X8209341Y1283422D02*
G01X8209341Y1203412D01*
G01X8209341Y1260562D02*
G01X8226613Y1277834D01*
G01X8238043Y1283422D01*
G01X8255061Y1283422D01*
G01X8266491Y1277834D01*
G01X8272333Y1260562D01*
G01X8272333Y1203412D01*
G01X8272333Y1260562D02*
G01X8289351Y1277834D01*
G01X8300781Y1283422D01*
G01X8318053Y1283422D01*
G01X8329483Y1277834D01*
G01X8335071Y1260562D01*
G01X8335071Y1203412D01*
G01X8382823Y1346414D02*
G01X8394253Y1334984D01*
G01X8405683Y1317712D01*
G01X8417113Y1294852D01*
G01X8422955Y1266404D01*
G01X8422955Y1243544D01*
G01X8417113Y1214842D01*
G01X8405683Y1191982D01*
G01X8394253Y1174964D01*
G01X8382823Y1163534D01*
G01X10480247Y1323554D02*
G01X10480247Y1203412D01*
G01X10480247Y1323554D02*
G01X10560257Y1203412D01*
G01X10560257Y1323554D02*
G01X10560257Y1203412D01*
G01X10608009Y1323554D02*
G01X10608009Y1203412D01*
G01X10608009Y1323554D02*
G01X10659571Y1323554D01*
G01X10676589Y1317712D01*
G01X10682431Y1312124D01*
G01X10688019Y1300694D01*
G01X10688019Y1283422D01*
G01X10682431Y1271992D01*
G01X10676589Y1266404D01*
G01X10659571Y1260562D01*
G01X10608009Y1260562D01*
G01X10775903Y1323554D02*
G01X10775903Y1203412D01*
G01X10735771Y1323554D02*
G01X10815781Y1323554D01*
G01X10863533Y1323554D02*
G01X10863533Y1203412D01*
G01X10943543Y1323554D02*
G01X10943543Y1203412D01*
G01X10863533Y1266404D02*
G01X10943543Y1266404D01*
G01X11941654Y1323554D02*
G01X11941654Y1203412D01*
G01X11941654Y1323554D02*
G01X11993216Y1323554D01*
G01X12010234Y1317712D01*
G01X12016076Y1312124D01*
G01X12021664Y1300694D01*
G01X12021664Y1289264D01*
G01X12016076Y1277834D01*
G01X12010234Y1271992D01*
G01X11993216Y1266404D01*
G01X11941654Y1266404D01*
G01X11981786Y1266404D02*
G01X12021664Y1203412D01*
G01X12098118Y1283422D02*
G01X12086688Y1277834D01*
G01X12075258Y1266404D01*
G01X12069416Y1249132D01*
G01X12069416Y1237702D01*
G01X12075258Y1220684D01*
G01X12086688Y1209254D01*
G01X12098118Y1203412D01*
G01X12115136Y1203412D01*
G01X12126566Y1209254D01*
G01X12137996Y1220684D01*
G01X12143838Y1237702D01*
G01X12143838Y1249132D01*
G01X12137996Y1266404D01*
G01X12126566Y1277834D01*
G01X12115136Y1283422D01*
G01X12098118Y1283422D01*
G01X12191590Y1283422D02*
G01X12191590Y1226272D01*
G01X12197432Y1209254D01*
G01X12208862Y1203412D01*
G01X12225880Y1203412D01*
G01X12237310Y1209254D01*
G01X12254582Y1226272D01*
G01X12254582Y1283422D02*
G01X12254582Y1203412D01*
G01X12302334Y1283422D02*
G01X12302334Y1203412D01*
G01X12302334Y1260562D02*
G01X12319606Y1277834D01*
G01X12331036Y1283422D01*
G01X12348054Y1283422D01*
G01X12359484Y1277834D01*
G01X12365326Y1260562D01*
G01X12365326Y1203412D01*
G01X12481658Y1323554D02*
G01X12481658Y1203412D01*
G01X12481658Y1266404D02*
G01X12470228Y1277834D01*
G01X12458798Y1283422D01*
G01X12441780Y1283422D01*
G01X12430350Y1277834D01*
G01X12418920Y1266404D01*
G01X12413078Y1249132D01*
G01X12413078Y1237702D01*
G01X12418920Y1220684D01*
G01X12430350Y1209254D01*
G01X12441780Y1203412D01*
G01X12458798Y1203412D01*
G01X12470228Y1209254D01*
G01X12481658Y1220684D01*
G01X13372835Y1323554D02*
G01X13418555Y1203412D01*
G01X13464275Y1323554D02*
G01X13418555Y1203412D01*
G01X13512027Y1323554D02*
G01X13517869Y1317712D01*
G01X13523457Y1323554D01*
G01X13517869Y1329142D01*
G01X13512027Y1323554D01*
G01X13517869Y1283422D02*
G01X13517869Y1203412D01*
G01X13639789Y1283422D02*
G01X13639789Y1203412D01*
G01X13639789Y1266404D02*
G01X13628359Y1277834D01*
G01X13616929Y1283422D01*
G01X13599911Y1283422D01*
G01X13588481Y1277834D01*
G01X13577051Y1266404D01*
G01X13571209Y1249132D01*
G01X13571209Y1237702D01*
G01X13577051Y1220684D01*
G01X13588481Y1209254D01*
G01X13599911Y1203412D01*
G01X13616929Y1203412D01*
G01X13628359Y1209254D01*
G01X13639789Y1220684D01*
G01X17001515Y1323554D02*
G01X17001515Y1203412D01*
G01X16961383Y1323554D02*
G01X17041393Y1323554D01*
G01X17117847Y1283422D02*
G01X17106417Y1277834D01*
G01X17094987Y1266404D01*
G01X17089145Y1249132D01*
G01X17089145Y1237702D01*
G01X17094987Y1220684D01*
G01X17106417Y1209254D01*
G01X17117847Y1203412D01*
G01X17134865Y1203412D01*
G01X17146295Y1209254D01*
G01X17157725Y1220684D01*
G01X17163567Y1237702D01*
G01X17163567Y1249132D01*
G01X17157725Y1266404D01*
G01X17146295Y1277834D01*
G01X17134865Y1283422D01*
G01X17117847Y1283422D01*
G01X17211319Y1283422D02*
G01X17211319Y1163534D01*
G01X17211319Y1266404D02*
G01X17222749Y1277834D01*
G01X17234179Y1283422D01*
G01X17251451Y1283422D01*
G01X17262881Y1277834D01*
G01X17274311Y1266404D01*
G01X17279899Y1249132D01*
G01X17279899Y1237702D01*
G01X17274311Y1220684D01*
G01X17262881Y1209254D01*
G01X17251451Y1203412D01*
G01X17234179Y1203412D01*
G01X17222749Y1209254D01*
G01X17211319Y1220684D01*
G01X17455667Y1323554D02*
G01X17455667Y1203412D01*
G01X17455667Y1203412D02*
G01X17524247Y1203412D01*
G01X17640579Y1283422D02*
G01X17640579Y1203412D01*
G01X17640579Y1266404D02*
G01X17629149Y1277834D01*
G01X17617719Y1283422D01*
G01X17600701Y1283422D01*
G01X17589271Y1277834D01*
G01X17577841Y1266404D01*
G01X17571999Y1249132D01*
G01X17571999Y1237702D01*
G01X17577841Y1220684D01*
G01X17589271Y1209254D01*
G01X17600701Y1203412D01*
G01X17617719Y1203412D01*
G01X17629149Y1209254D01*
G01X17640579Y1220684D01*
G01X17694173Y1283422D02*
G01X17728463Y1203412D01*
G01X17762753Y1283422D02*
G01X17728463Y1203412D01*
G01X17717033Y1180552D01*
G01X17705603Y1169122D01*
G01X17694173Y1163534D01*
G01X17688331Y1163534D01*
G01X17810505Y1249132D02*
G01X17879085Y1249132D01*
G01X17879085Y1260562D01*
G01X17873497Y1271992D01*
G01X17867655Y1277834D01*
G01X17856225Y1283422D01*
G01X17839207Y1283422D01*
G01X17827777Y1277834D01*
G01X17816347Y1266404D01*
G01X17810505Y1249132D01*
G01X17810505Y1237702D01*
G01X17816347Y1220684D01*
G01X17827777Y1209254D01*
G01X17839207Y1203412D01*
G01X17856225Y1203412D01*
G01X17867655Y1209254D01*
G01X17879085Y1220684D01*
G01X17926837Y1283422D02*
G01X17926837Y1203412D01*
G01X17926837Y1249132D02*
G01X17932679Y1266404D01*
G01X17944109Y1277834D01*
G01X17955539Y1283422D01*
G01X17972557Y1283422D01*
G01X18020309Y1254974D02*
G01X18123179Y1254974D01*
G01X18170931Y1323554D02*
G01X18170931Y1203412D01*
G01X18170931Y1323554D02*
G01X18222493Y1323554D01*
G01X18239511Y1317712D01*
G01X18245353Y1312124D01*
G01X18250941Y1300694D01*
G01X18250941Y1289264D01*
G01X18245353Y1277834D01*
G01X18239511Y1271992D01*
G01X18222493Y1266404D01*
G01X18170931Y1266404D02*
G01X18222493Y1266404D01*
G01X18239511Y1260562D01*
G01X18245353Y1254974D01*
G01X18250941Y1243544D01*
G01X18250941Y1226272D01*
G01X18245353Y1214842D01*
G01X18239511Y1209254D01*
G01X18222493Y1203412D01*
G01X18170931Y1203412D01*
G01X18327395Y1283422D02*
G01X18315965Y1277834D01*
G01X18304535Y1266404D01*
G01X18298693Y1249132D01*
G01X18298693Y1237702D01*
G01X18304535Y1220684D01*
G01X18315965Y1209254D01*
G01X18327395Y1203412D01*
G01X18344413Y1203412D01*
G01X18355843Y1209254D01*
G01X18367273Y1220684D01*
G01X18373115Y1237702D01*
G01X18373115Y1249132D01*
G01X18367273Y1266404D01*
G01X18355843Y1277834D01*
G01X18344413Y1283422D01*
G01X18327395Y1283422D01*
G01X18438139Y1323554D02*
G01X18438139Y1226272D01*
G01X18443727Y1209254D01*
G01X18455157Y1203412D01*
G01X18466587Y1203412D01*
G01X18420867Y1283422D02*
G01X18460999Y1283422D01*
G01X18531611Y1323554D02*
G01X18531611Y1226272D01*
G01X18537199Y1209254D01*
G01X18548629Y1203412D01*
G01X18560059Y1203412D01*
G01X18514339Y1283422D02*
G01X18554471Y1283422D01*
G01X18636513Y1283422D02*
G01X18625083Y1277834D01*
G01X18613653Y1266404D01*
G01X18607811Y1249132D01*
G01X18607811Y1237702D01*
G01X18613653Y1220684D01*
G01X18625083Y1209254D01*
G01X18636513Y1203412D01*
G01X18653531Y1203412D01*
G01X18664961Y1209254D01*
G01X18676391Y1220684D01*
G01X18682233Y1237702D01*
G01X18682233Y1249132D01*
G01X18676391Y1266404D01*
G01X18664961Y1277834D01*
G01X18653531Y1283422D01*
G01X18636513Y1283422D01*
G01X18729985Y1283422D02*
G01X18729985Y1203412D01*
G01X18729985Y1260562D02*
G01X18747257Y1277834D01*
G01X18758687Y1283422D01*
G01X18775705Y1283422D01*
G01X18787135Y1277834D01*
G01X18792977Y1260562D01*
G01X18792977Y1203412D01*
G01X18792977Y1260562D02*
G01X18809995Y1277834D01*
G01X18821425Y1283422D01*
G01X18838697Y1283422D01*
G01X18850127Y1277834D01*
G01X18855715Y1260562D01*
G01X18855715Y1203412D01*
G01X19031483Y1323554D02*
G01X19031483Y1203412D01*
G01X19031483Y1203412D02*
G01X19100063Y1203412D01*
G01X19216395Y1283422D02*
G01X19216395Y1203412D01*
G01X19216395Y1266404D02*
G01X19204965Y1277834D01*
G01X19193535Y1283422D01*
G01X19176517Y1283422D01*
G01X19165087Y1277834D01*
G01X19153657Y1266404D01*
G01X19147815Y1249132D01*
G01X19147815Y1237702D01*
G01X19153657Y1220684D01*
G01X19165087Y1209254D01*
G01X19176517Y1203412D01*
G01X19193535Y1203412D01*
G01X19204965Y1209254D01*
G01X19216395Y1220684D01*
G01X19269989Y1283422D02*
G01X19304279Y1203412D01*
G01X19338569Y1283422D02*
G01X19304279Y1203412D01*
G01X19292849Y1180552D01*
G01X19281419Y1169122D01*
G01X19269989Y1163534D01*
G01X19264147Y1163534D01*
G01X19386321Y1249132D02*
G01X19454901Y1249132D01*
G01X19454901Y1260562D01*
G01X19449313Y1271992D01*
G01X19443471Y1277834D01*
G01X19432041Y1283422D01*
G01X19415023Y1283422D01*
G01X19403593Y1277834D01*
G01X19392163Y1266404D01*
G01X19386321Y1249132D01*
G01X19386321Y1237702D01*
G01X19392163Y1220684D01*
G01X19403593Y1209254D01*
G01X19415023Y1203412D01*
G01X19432041Y1203412D01*
G01X19443471Y1209254D01*
G01X19454901Y1220684D01*
G01X19502653Y1283422D02*
G01X19502653Y1203412D01*
G01X19502653Y1249132D02*
G01X19508495Y1266404D01*
G01X19519925Y1277834D01*
G01X19531355Y1283422D01*
G01X19548373Y1283422D01*
G01X5251874Y720123D02*
G01X5263304Y725711D01*
G01X5280576Y742983D01*
G01X5280576Y622841D01*
G01X5362618Y742983D02*
G01X5345600Y737141D01*
G01X5334170Y720123D01*
G01X5328328Y691421D01*
G01X5328328Y674403D01*
G01X5334170Y645701D01*
G01X5345600Y628683D01*
G01X5362618Y622841D01*
G01X5374048Y622841D01*
G01X5391320Y628683D01*
G01X5402750Y645701D01*
G01X5408338Y674403D01*
G01X5408338Y691421D01*
G01X5402750Y720123D01*
G01X5391320Y737141D01*
G01X5374048Y742983D01*
G01X5362618Y742983D01*
G01X6723187Y742983D02*
G01X6666037Y662973D01*
G01X6751889Y662973D01*
G01X6723187Y742983D02*
G01X6723187Y622841D01*
G01X6811071Y742983D02*
G01X6874063Y742983D01*
G01X6839773Y697263D01*
G01X6856791Y697263D01*
G01X6868221Y691421D01*
G01X6874063Y685833D01*
G01X6879651Y668561D01*
G01X6879651Y657131D01*
G01X6874063Y640113D01*
G01X6862633Y628683D01*
G01X6845361Y622841D01*
G01X6828343Y622841D01*
G01X6811071Y628683D01*
G01X6805483Y634271D01*
G01X6799641Y645701D01*
G01X6933245Y651543D02*
G01X6927403Y645701D01*
G01X6933245Y640113D01*
G01X6938833Y645701D01*
G01X6933245Y651543D01*
G01X6998015Y742983D02*
G01X7061007Y742983D01*
G01X7026717Y697263D01*
G01X7043735Y697263D01*
G01X7055165Y691421D01*
G01X7061007Y685833D01*
G01X7066595Y668561D01*
G01X7066595Y657131D01*
G01X7061007Y640113D01*
G01X7049577Y628683D01*
G01X7032305Y622841D01*
G01X7015287Y622841D01*
G01X6998015Y628683D01*
G01X6992427Y634271D01*
G01X6986585Y645701D01*
G01X7114347Y702851D02*
G01X7177339Y622841D01*
G01X7177339Y702851D02*
G01X7114347Y622841D01*
G01X7282241Y742983D02*
G01X7225091Y662973D01*
G01X7310943Y662973D01*
G01X7282241Y742983D02*
G01X7282241Y622841D01*
G01X7370125Y742983D02*
G01X7433117Y742983D01*
G01X7398827Y697263D01*
G01X7415845Y697263D01*
G01X7427275Y691421D01*
G01X7433117Y685833D01*
G01X7438705Y668561D01*
G01X7438705Y657131D01*
G01X7433117Y640113D01*
G01X7421687Y628683D01*
G01X7404415Y622841D01*
G01X7387397Y622841D01*
G01X7370125Y628683D01*
G01X7364537Y634271D01*
G01X7358695Y645701D01*
G01X7492299Y651543D02*
G01X7486457Y645701D01*
G01X7492299Y640113D01*
G01X7497887Y645701D01*
G01X7492299Y651543D01*
G01X7557069Y742983D02*
G01X7620061Y742983D01*
G01X7585771Y697263D01*
G01X7602789Y697263D01*
G01X7614219Y691421D01*
G01X7620061Y685833D01*
G01X7625649Y668561D01*
G01X7625649Y657131D01*
G01X7620061Y640113D01*
G01X7608631Y628683D01*
G01X7591359Y622841D01*
G01X7574341Y622841D01*
G01X7557069Y628683D01*
G01X7551481Y634271D01*
G01X7545639Y645701D01*
G01X7673401Y702851D02*
G01X7673401Y622841D01*
G01X7673401Y679991D02*
G01X7690673Y697263D01*
G01X7702103Y702851D01*
G01X7719121Y702851D01*
G01X7730551Y697263D01*
G01X7736393Y679991D01*
G01X7736393Y622841D01*
G01X7736393Y679991D02*
G01X7753411Y697263D01*
G01X7764841Y702851D01*
G01X7782113Y702851D01*
G01X7793543Y697263D01*
G01X7799131Y679991D01*
G01X7799131Y622841D01*
G01X7846883Y742983D02*
G01X7852725Y737141D01*
G01X7858313Y742983D01*
G01X7852725Y748571D01*
G01X7846883Y742983D01*
G01X7852725Y702851D02*
G01X7852725Y622841D01*
G01X7906065Y742983D02*
G01X7906065Y622841D01*
G01X7993949Y765843D02*
G01X7982519Y754413D01*
G01X7971089Y737141D01*
G01X7959659Y714281D01*
G01X7953817Y685833D01*
G01X7953817Y662973D01*
G01X7959659Y634271D01*
G01X7971089Y611411D01*
G01X7982519Y594393D01*
G01X7993949Y582963D01*
G01X8041701Y720123D02*
G01X8053131Y725711D01*
G01X8070403Y742983D01*
G01X8070403Y622841D01*
G01X8123997Y651543D02*
G01X8118155Y645701D01*
G01X8123997Y640113D01*
G01X8129585Y645701D01*
G01X8123997Y651543D01*
G01X8177337Y720123D02*
G01X8188767Y725711D01*
G01X8206039Y742983D01*
G01X8206039Y622841D01*
G01X8288081Y742983D02*
G01X8271063Y737141D01*
G01X8259633Y720123D01*
G01X8253791Y691421D01*
G01X8253791Y674403D01*
G01X8259633Y645701D01*
G01X8271063Y628683D01*
G01X8288081Y622841D01*
G01X8299511Y622841D01*
G01X8316783Y628683D01*
G01X8328213Y645701D01*
G01X8333801Y674403D01*
G01X8333801Y691421D01*
G01X8328213Y720123D01*
G01X8316783Y737141D01*
G01X8299511Y742983D01*
G01X8288081Y742983D01*
G01X8415843Y742983D02*
G01X8398825Y737141D01*
G01X8387395Y720123D01*
G01X8381553Y691421D01*
G01X8381553Y674403D01*
G01X8387395Y645701D01*
G01X8398825Y628683D01*
G01X8415843Y622841D01*
G01X8427273Y622841D01*
G01X8444545Y628683D01*
G01X8455975Y645701D01*
G01X8461563Y674403D01*
G01X8461563Y691421D01*
G01X8455975Y720123D01*
G01X8444545Y737141D01*
G01X8427273Y742983D01*
G01X8415843Y742983D01*
G01X8509315Y702851D02*
G01X8572307Y622841D01*
G01X8572307Y702851D02*
G01X8509315Y622841D01*
G01X8620059Y720123D02*
G01X8631489Y725711D01*
G01X8648761Y742983D01*
G01X8648761Y622841D01*
G01X8702355Y651543D02*
G01X8696513Y645701D01*
G01X8702355Y640113D01*
G01X8707943Y645701D01*
G01X8702355Y651543D01*
G01X8755695Y720123D02*
G01X8767125Y725711D01*
G01X8784397Y742983D01*
G01X8784397Y622841D01*
G01X8866439Y742983D02*
G01X8849421Y737141D01*
G01X8837991Y720123D01*
G01X8832149Y691421D01*
G01X8832149Y674403D01*
G01X8837991Y645701D01*
G01X8849421Y628683D01*
G01X8866439Y622841D01*
G01X8877869Y622841D01*
G01X8895141Y628683D01*
G01X8906571Y645701D01*
G01X8912159Y674403D01*
G01X8912159Y691421D01*
G01X8906571Y720123D01*
G01X8895141Y737141D01*
G01X8877869Y742983D01*
G01X8866439Y742983D01*
G01X8994201Y742983D02*
G01X8977183Y737141D01*
G01X8965753Y720123D01*
G01X8959911Y691421D01*
G01X8959911Y674403D01*
G01X8965753Y645701D01*
G01X8977183Y628683D01*
G01X8994201Y622841D01*
G01X9005631Y622841D01*
G01X9022903Y628683D01*
G01X9034333Y645701D01*
G01X9039921Y674403D01*
G01X9039921Y691421D01*
G01X9034333Y720123D01*
G01X9022903Y737141D01*
G01X9005631Y742983D01*
G01X8994201Y742983D01*
G01X9087673Y702851D02*
G01X9087673Y622841D01*
G01X9087673Y679991D02*
G01X9104945Y697263D01*
G01X9116375Y702851D01*
G01X9133393Y702851D01*
G01X9144823Y697263D01*
G01X9150665Y679991D01*
G01X9150665Y622841D01*
G01X9150665Y679991D02*
G01X9167683Y697263D01*
G01X9179113Y702851D01*
G01X9196385Y702851D01*
G01X9207815Y697263D01*
G01X9213403Y679991D01*
G01X9213403Y622841D01*
G01X9261155Y702851D02*
G01X9261155Y622841D01*
G01X9261155Y679991D02*
G01X9278427Y697263D01*
G01X9289857Y702851D01*
G01X9306875Y702851D01*
G01X9318305Y697263D01*
G01X9324147Y679991D01*
G01X9324147Y622841D01*
G01X9324147Y679991D02*
G01X9341165Y697263D01*
G01X9352595Y702851D01*
G01X9369867Y702851D01*
G01X9381297Y697263D01*
G01X9386885Y679991D01*
G01X9386885Y622841D01*
G01X9434637Y765843D02*
G01X9446067Y754413D01*
G01X9457497Y737141D01*
G01X9468927Y714281D01*
G01X9474769Y685833D01*
G01X9474769Y662973D01*
G01X9468927Y634271D01*
G01X9457497Y611411D01*
G01X9446067Y594393D01*
G01X9434637Y582963D01*
G01X10480247Y742983D02*
G01X10480247Y622841D01*
G01X10480247Y742983D02*
G01X10531809Y742983D01*
G01X10548827Y737141D01*
G01X10554669Y731553D01*
G01X10560257Y720123D01*
G01X10560257Y702851D01*
G01X10554669Y691421D01*
G01X10548827Y685833D01*
G01X10531809Y679991D01*
G01X10480247Y679991D01*
G01X10648141Y742983D02*
G01X10648141Y622841D01*
G01X10608009Y742983D02*
G01X10688019Y742983D01*
G01X10735771Y742983D02*
G01X10735771Y622841D01*
G01X10815781Y742983D02*
G01X10815781Y622841D01*
G01X10735771Y685833D02*
G01X10815781Y685833D01*
G01X11941654Y742983D02*
G01X11941654Y622841D01*
G01X11941654Y742983D02*
G01X11993216Y742983D01*
G01X12010234Y737141D01*
G01X12016076Y731553D01*
G01X12021664Y720123D01*
G01X12021664Y708693D01*
G01X12016076Y697263D01*
G01X12010234Y691421D01*
G01X11993216Y685833D01*
G01X11941654Y685833D01*
G01X11981786Y685833D02*
G01X12021664Y622841D01*
G01X12098118Y702851D02*
G01X12086688Y697263D01*
G01X12075258Y685833D01*
G01X12069416Y668561D01*
G01X12069416Y657131D01*
G01X12075258Y640113D01*
G01X12086688Y628683D01*
G01X12098118Y622841D01*
G01X12115136Y622841D01*
G01X12126566Y628683D01*
G01X12137996Y640113D01*
G01X12143838Y657131D01*
G01X12143838Y668561D01*
G01X12137996Y685833D01*
G01X12126566Y697263D01*
G01X12115136Y702851D01*
G01X12098118Y702851D01*
G01X12191590Y702851D02*
G01X12191590Y645701D01*
G01X12197432Y628683D01*
G01X12208862Y622841D01*
G01X12225880Y622841D01*
G01X12237310Y628683D01*
G01X12254582Y645701D01*
G01X12254582Y702851D02*
G01X12254582Y622841D01*
G01X12302334Y702851D02*
G01X12302334Y622841D01*
G01X12302334Y679991D02*
G01X12319606Y697263D01*
G01X12331036Y702851D01*
G01X12348054Y702851D01*
G01X12359484Y697263D01*
G01X12365326Y679991D01*
G01X12365326Y622841D01*
G01X12481658Y742983D02*
G01X12481658Y622841D01*
G01X12481658Y685833D02*
G01X12470228Y697263D01*
G01X12458798Y702851D01*
G01X12441780Y702851D01*
G01X12430350Y697263D01*
G01X12418920Y685833D01*
G01X12413078Y668561D01*
G01X12413078Y657131D01*
G01X12418920Y640113D01*
G01X12430350Y628683D01*
G01X12441780Y622841D01*
G01X12458798Y622841D01*
G01X12470228Y628683D01*
G01X12481658Y640113D01*
G01X13372835Y742983D02*
G01X13372835Y622841D01*
G01X13372835Y742983D02*
G01X13424397Y742983D01*
G01X13441415Y737141D01*
G01X13447257Y731553D01*
G01X13452845Y720123D01*
G01X13452845Y702851D01*
G01X13447257Y691421D01*
G01X13441415Y685833D01*
G01X13424397Y679991D01*
G01X13372835Y679991D01*
G01X13569177Y702851D02*
G01X13569177Y622841D01*
G01X13569177Y685833D02*
G01X13557747Y697263D01*
G01X13546317Y702851D01*
G01X13529299Y702851D01*
G01X13517869Y697263D01*
G01X13506439Y685833D01*
G01X13500597Y668561D01*
G01X13500597Y657131D01*
G01X13506439Y640113D01*
G01X13517869Y628683D01*
G01X13529299Y622841D01*
G01X13546317Y622841D01*
G01X13557747Y628683D01*
G01X13569177Y640113D01*
G01X13685509Y742983D02*
G01X13685509Y622841D01*
G01X13685509Y685833D02*
G01X13674079Y697263D01*
G01X13662649Y702851D01*
G01X13645631Y702851D01*
G01X13634201Y697263D01*
G01X13622771Y685833D01*
G01X13616929Y668561D01*
G01X13616929Y657131D01*
G01X13622771Y640113D01*
G01X13634201Y628683D01*
G01X13645631Y622841D01*
G01X13662649Y622841D01*
G01X13674079Y628683D01*
G01X13685509Y640113D01*
G01X15082146Y765843D02*
G01X15070716Y754413D01*
G01X15059286Y737141D01*
G01X15047856Y714281D01*
G01X15042014Y685833D01*
G01X15042014Y662973D01*
G01X15047856Y634271D01*
G01X15059286Y611411D01*
G01X15070716Y594393D01*
G01X15082146Y582963D01*
G01X15129898Y742983D02*
G01X15129898Y622841D01*
G01X15129898Y742983D02*
G01X15175618Y622841D01*
G01X15221338Y742983D02*
G01X15175618Y622841D01*
G01X15221338Y742983D02*
G01X15221338Y622841D01*
G01X15269090Y742983D02*
G01X15274932Y737141D01*
G01X15280520Y742983D01*
G01X15274932Y748571D01*
G01X15269090Y742983D01*
G01X15274932Y702851D02*
G01X15274932Y622841D01*
G01X15328272Y702851D02*
G01X15391264Y622841D01*
G01X15391264Y702851D02*
G01X15328272Y622841D01*
G01X15439016Y668561D02*
G01X15507596Y668561D01*
G01X15507596Y679991D01*
G01X15502008Y691421D01*
G01X15496166Y697263D01*
G01X15484736Y702851D01*
G01X15467718Y702851D01*
G01X15456288Y697263D01*
G01X15444858Y685833D01*
G01X15439016Y668561D01*
G01X15439016Y657131D01*
G01X15444858Y640113D01*
G01X15456288Y628683D01*
G01X15467718Y622841D01*
G01X15484736Y622841D01*
G01X15496166Y628683D01*
G01X15507596Y640113D01*
G01X15623928Y742983D02*
G01X15623928Y622841D01*
G01X15623928Y685833D02*
G01X15612498Y697263D01*
G01X15601068Y702851D01*
G01X15584050Y702851D01*
G01X15572620Y697263D01*
G01X15561190Y685833D01*
G01X15555348Y668561D01*
G01X15555348Y657131D01*
G01X15561190Y640113D01*
G01X15572620Y628683D01*
G01X15584050Y622841D01*
G01X15601068Y622841D01*
G01X15612498Y628683D01*
G01X15623928Y640113D01*
G01X15671680Y765843D02*
G01X15683110Y754413D01*
G01X15694540Y737141D01*
G01X15705970Y714281D01*
G01X15711812Y685833D01*
G01X15711812Y662973D01*
G01X15705970Y634271D01*
G01X15694540Y611411D01*
G01X15683110Y594393D01*
G01X15671680Y582963D01*
G01X17001515Y742983D02*
G01X17001515Y622841D01*
G01X16961383Y742983D02*
G01X17041393Y742983D01*
G01X17117847Y702851D02*
G01X17106417Y697263D01*
G01X17094987Y685833D01*
G01X17089145Y668561D01*
G01X17089145Y657131D01*
G01X17094987Y640113D01*
G01X17106417Y628683D01*
G01X17117847Y622841D01*
G01X17134865Y622841D01*
G01X17146295Y628683D01*
G01X17157725Y640113D01*
G01X17163567Y657131D01*
G01X17163567Y668561D01*
G01X17157725Y685833D01*
G01X17146295Y697263D01*
G01X17134865Y702851D01*
G01X17117847Y702851D01*
G01X17211319Y702851D02*
G01X17211319Y582963D01*
G01X17211319Y685833D02*
G01X17222749Y697263D01*
G01X17234179Y702851D01*
G01X17251451Y702851D01*
G01X17262881Y697263D01*
G01X17274311Y685833D01*
G01X17279899Y668561D01*
G01X17279899Y657131D01*
G01X17274311Y640113D01*
G01X17262881Y628683D01*
G01X17251451Y622841D01*
G01X17234179Y622841D01*
G01X17222749Y628683D01*
G01X17211319Y640113D01*
G01X17455667Y742983D02*
G01X17455667Y622841D01*
G01X17455667Y622841D02*
G01X17524247Y622841D01*
G01X17640579Y702851D02*
G01X17640579Y622841D01*
G01X17640579Y685833D02*
G01X17629149Y697263D01*
G01X17617719Y702851D01*
G01X17600701Y702851D01*
G01X17589271Y697263D01*
G01X17577841Y685833D01*
G01X17571999Y668561D01*
G01X17571999Y657131D01*
G01X17577841Y640113D01*
G01X17589271Y628683D01*
G01X17600701Y622841D01*
G01X17617719Y622841D01*
G01X17629149Y628683D01*
G01X17640579Y640113D01*
G01X17694173Y702851D02*
G01X17728463Y622841D01*
G01X17762753Y702851D02*
G01X17728463Y622841D01*
G01X17717033Y599981D01*
G01X17705603Y588551D01*
G01X17694173Y582963D01*
G01X17688331Y582963D01*
G01X17810505Y668561D02*
G01X17879085Y668561D01*
G01X17879085Y679991D01*
G01X17873497Y691421D01*
G01X17867655Y697263D01*
G01X17856225Y702851D01*
G01X17839207Y702851D01*
G01X17827777Y697263D01*
G01X17816347Y685833D01*
G01X17810505Y668561D01*
G01X17810505Y657131D01*
G01X17816347Y640113D01*
G01X17827777Y628683D01*
G01X17839207Y622841D01*
G01X17856225Y622841D01*
G01X17867655Y628683D01*
G01X17879085Y640113D01*
G01X17926837Y702851D02*
G01X17926837Y622841D01*
G01X17926837Y668561D02*
G01X17932679Y685833D01*
G01X17944109Y697263D01*
G01X17955539Y702851D01*
G01X17972557Y702851D01*
G01X18020309Y674403D02*
G01X18123179Y674403D01*
G01X18170931Y742983D02*
G01X18170931Y622841D01*
G01X18170931Y742983D02*
G01X18222493Y742983D01*
G01X18239511Y737141D01*
G01X18245353Y731553D01*
G01X18250941Y720123D01*
G01X18250941Y708693D01*
G01X18245353Y697263D01*
G01X18239511Y691421D01*
G01X18222493Y685833D01*
G01X18170931Y685833D02*
G01X18222493Y685833D01*
G01X18239511Y679991D01*
G01X18245353Y674403D01*
G01X18250941Y662973D01*
G01X18250941Y645701D01*
G01X18245353Y634271D01*
G01X18239511Y628683D01*
G01X18222493Y622841D01*
G01X18170931Y622841D01*
G01X18327395Y702851D02*
G01X18315965Y697263D01*
G01X18304535Y685833D01*
G01X18298693Y668561D01*
G01X18298693Y657131D01*
G01X18304535Y640113D01*
G01X18315965Y628683D01*
G01X18327395Y622841D01*
G01X18344413Y622841D01*
G01X18355843Y628683D01*
G01X18367273Y640113D01*
G01X18373115Y657131D01*
G01X18373115Y668561D01*
G01X18367273Y685833D01*
G01X18355843Y697263D01*
G01X18344413Y702851D01*
G01X18327395Y702851D01*
G01X18438139Y742983D02*
G01X18438139Y645701D01*
G01X18443727Y628683D01*
G01X18455157Y622841D01*
G01X18466587Y622841D01*
G01X18420867Y702851D02*
G01X18460999Y702851D01*
G01X18531611Y742983D02*
G01X18531611Y645701D01*
G01X18537199Y628683D01*
G01X18548629Y622841D01*
G01X18560059Y622841D01*
G01X18514339Y702851D02*
G01X18554471Y702851D01*
G01X18636513Y702851D02*
G01X18625083Y697263D01*
G01X18613653Y685833D01*
G01X18607811Y668561D01*
G01X18607811Y657131D01*
G01X18613653Y640113D01*
G01X18625083Y628683D01*
G01X18636513Y622841D01*
G01X18653531Y622841D01*
G01X18664961Y628683D01*
G01X18676391Y640113D01*
G01X18682233Y657131D01*
G01X18682233Y668561D01*
G01X18676391Y685833D01*
G01X18664961Y697263D01*
G01X18653531Y702851D01*
G01X18636513Y702851D01*
G01X18729985Y702851D02*
G01X18729985Y622841D01*
G01X18729985Y679991D02*
G01X18747257Y697263D01*
G01X18758687Y702851D01*
G01X18775705Y702851D01*
G01X18787135Y697263D01*
G01X18792977Y679991D01*
G01X18792977Y622841D01*
G01X18792977Y679991D02*
G01X18809995Y697263D01*
G01X18821425Y702851D01*
G01X18838697Y702851D01*
G01X18850127Y697263D01*
G01X18855715Y679991D01*
G01X18855715Y622841D01*
G01X19031483Y742983D02*
G01X19031483Y622841D01*
G01X19031483Y622841D02*
G01X19100063Y622841D01*
G01X19216395Y702851D02*
G01X19216395Y622841D01*
G01X19216395Y685833D02*
G01X19204965Y697263D01*
G01X19193535Y702851D01*
G01X19176517Y702851D01*
G01X19165087Y697263D01*
G01X19153657Y685833D01*
G01X19147815Y668561D01*
G01X19147815Y657131D01*
G01X19153657Y640113D01*
G01X19165087Y628683D01*
G01X19176517Y622841D01*
G01X19193535Y622841D01*
G01X19204965Y628683D01*
G01X19216395Y640113D01*
G01X19269989Y702851D02*
G01X19304279Y622841D01*
G01X19338569Y702851D02*
G01X19304279Y622841D01*
G01X19292849Y599981D01*
G01X19281419Y588551D01*
G01X19269989Y582963D01*
G01X19264147Y582963D01*
G01X19386321Y668561D02*
G01X19454901Y668561D01*
G01X19454901Y679991D01*
G01X19449313Y691421D01*
G01X19443471Y697263D01*
G01X19432041Y702851D01*
G01X19415023Y702851D01*
G01X19403593Y697263D01*
G01X19392163Y685833D01*
G01X19386321Y668561D01*
G01X19386321Y657131D01*
G01X19392163Y640113D01*
G01X19403593Y628683D01*
G01X19415023Y622841D01*
G01X19432041Y622841D01*
G01X19443471Y628683D01*
G01X19454901Y640113D01*
G01X19502653Y702851D02*
G01X19502653Y622841D01*
G01X19502653Y668561D02*
G01X19508495Y685833D01*
G01X19519925Y697263D01*
G01X19531355Y702851D01*
G01X19548373Y702851D01*
G01X5263304Y162412D02*
G01X5326296Y162412D01*
G01X5292006Y116692D01*
G01X5309024Y116692D01*
G01X5320454Y110850D01*
G01X5326296Y105262D01*
G01X5331884Y87990D01*
G01X5331884Y76560D01*
G01X5326296Y59542D01*
G01X5314866Y48112D01*
G01X5297594Y42270D01*
G01X5280576Y42270D01*
G01X5263304Y48112D01*
G01X5257716Y53700D01*
G01X5251874Y65130D01*
G01X5459646Y162412D02*
G01X5402496Y42270D01*
G01X5379636Y162412D02*
G01X5459646Y162412D01*
G01X6666037Y139552D02*
G01X6677467Y145140D01*
G01X6694739Y162412D01*
G01X6694739Y42270D01*
G01X6748333Y133710D02*
G01X6748333Y139552D01*
G01X6753921Y150982D01*
G01X6759763Y156570D01*
G01X6771193Y162412D01*
G01X6794053Y162412D01*
G01X6805483Y156570D01*
G01X6811071Y150982D01*
G01X6816913Y139552D01*
G01X6816913Y128122D01*
G01X6811071Y116692D01*
G01X6799641Y99420D01*
G01X6742491Y42270D01*
G01X6822501Y42270D01*
G01X6876095Y70972D02*
G01X6870253Y65130D01*
G01X6876095Y59542D01*
G01X6881683Y65130D01*
G01X6876095Y70972D01*
G01X6963725Y162412D02*
G01X6946707Y156570D01*
G01X6935277Y139552D01*
G01X6929435Y110850D01*
G01X6929435Y93832D01*
G01X6935277Y65130D01*
G01X6946707Y48112D01*
G01X6963725Y42270D01*
G01X6975155Y42270D01*
G01X6992427Y48112D01*
G01X7003857Y65130D01*
G01X7009445Y93832D01*
G01X7009445Y110850D01*
G01X7003857Y139552D01*
G01X6992427Y156570D01*
G01X6975155Y162412D01*
G01X6963725Y162412D01*
G01X7057197Y122280D02*
G01X7057197Y42270D01*
G01X7057197Y99420D02*
G01X7074469Y116692D01*
G01X7085899Y122280D01*
G01X7102917Y122280D01*
G01X7114347Y116692D01*
G01X7120189Y99420D01*
G01X7120189Y42270D01*
G01X7120189Y99420D02*
G01X7137207Y116692D01*
G01X7148637Y122280D01*
G01X7165909Y122280D01*
G01X7177339Y116692D01*
G01X7182927Y99420D01*
G01X7182927Y42270D01*
G01X7230679Y162412D02*
G01X7236521Y156570D01*
G01X7242109Y162412D01*
G01X7236521Y168000D01*
G01X7230679Y162412D01*
G01X7236521Y122280D02*
G01X7236521Y42270D01*
G01X7289861Y162412D02*
G01X7289861Y42270D01*
G01X7377745Y185272D02*
G01X7366315Y173842D01*
G01X7354885Y156570D01*
G01X7343455Y133710D01*
G01X7337613Y105262D01*
G01X7337613Y82402D01*
G01X7343455Y53700D01*
G01X7354885Y30840D01*
G01X7366315Y13822D01*
G01X7377745Y2392D01*
G01X7459787Y162412D02*
G01X7442769Y156570D01*
G01X7431339Y139552D01*
G01X7425497Y110850D01*
G01X7425497Y93832D01*
G01X7431339Y65130D01*
G01X7442769Y48112D01*
G01X7459787Y42270D01*
G01X7471217Y42270D01*
G01X7488489Y48112D01*
G01X7499919Y65130D01*
G01X7505507Y93832D01*
G01X7505507Y110850D01*
G01X7499919Y139552D01*
G01X7488489Y156570D01*
G01X7471217Y162412D01*
G01X7459787Y162412D01*
G01X7559101Y70972D02*
G01X7553259Y65130D01*
G01X7559101Y59542D01*
G01X7564689Y65130D01*
G01X7559101Y70972D01*
G01X7623871Y162412D02*
G01X7686863Y162412D01*
G01X7652573Y116692D01*
G01X7669591Y116692D01*
G01X7681021Y110850D01*
G01X7686863Y105262D01*
G01X7692451Y87990D01*
G01X7692451Y76560D01*
G01X7686863Y59542D01*
G01X7675433Y48112D01*
G01X7658161Y42270D01*
G01X7641143Y42270D01*
G01X7623871Y48112D01*
G01X7618283Y53700D01*
G01X7612441Y65130D01*
G01X7774493Y162412D02*
G01X7757475Y156570D01*
G01X7746045Y139552D01*
G01X7740203Y110850D01*
G01X7740203Y93832D01*
G01X7746045Y65130D01*
G01X7757475Y48112D01*
G01X7774493Y42270D01*
G01X7785923Y42270D01*
G01X7803195Y48112D01*
G01X7814625Y65130D01*
G01X7820213Y93832D01*
G01X7820213Y110850D01*
G01X7814625Y139552D01*
G01X7803195Y156570D01*
G01X7785923Y162412D01*
G01X7774493Y162412D01*
G01X7936545Y162412D02*
G01X7879395Y162412D01*
G01X7873807Y110850D01*
G01X7879395Y116692D01*
G01X7896667Y122280D01*
G01X7913685Y122280D01*
G01X7930957Y116692D01*
G01X7942387Y105262D01*
G01X7947975Y87990D01*
G01X7947975Y76560D01*
G01X7942387Y59542D01*
G01X7930957Y48112D01*
G01X7913685Y42270D01*
G01X7896667Y42270D01*
G01X7879395Y48112D01*
G01X7873807Y53700D01*
G01X7867965Y65130D01*
G01X7995727Y122280D02*
G01X7995727Y42270D01*
G01X7995727Y99420D02*
G01X8012999Y116692D01*
G01X8024429Y122280D01*
G01X8041447Y122280D01*
G01X8052877Y116692D01*
G01X8058719Y99420D01*
G01X8058719Y42270D01*
G01X8058719Y99420D02*
G01X8075737Y116692D01*
G01X8087167Y122280D01*
G01X8104439Y122280D01*
G01X8115869Y116692D01*
G01X8121457Y99420D01*
G01X8121457Y42270D01*
G01X8169209Y122280D02*
G01X8169209Y42270D01*
G01X8169209Y99420D02*
G01X8186481Y116692D01*
G01X8197911Y122280D01*
G01X8214929Y122280D01*
G01X8226359Y116692D01*
G01X8232201Y99420D01*
G01X8232201Y42270D01*
G01X8232201Y99420D02*
G01X8249219Y116692D01*
G01X8260649Y122280D01*
G01X8277921Y122280D01*
G01X8289351Y116692D01*
G01X8294939Y99420D01*
G01X8294939Y42270D01*
G01X8342691Y185272D02*
G01X8354121Y173842D01*
G01X8365551Y156570D01*
G01X8376981Y133710D01*
G01X8382823Y105262D01*
G01X8382823Y82402D01*
G01X8376981Y53700D01*
G01X8365551Y30840D01*
G01X8354121Y13822D01*
G01X8342691Y2392D01*
G01X10480247Y162412D02*
G01X10480247Y42270D01*
G01X10480247Y162412D02*
G01X10531809Y162412D01*
G01X10548827Y156570D01*
G01X10554669Y150982D01*
G01X10560257Y139552D01*
G01X10560257Y122280D01*
G01X10554669Y110850D01*
G01X10548827Y105262D01*
G01X10531809Y99420D01*
G01X10480247Y99420D01*
G01X10648141Y162412D02*
G01X10648141Y42270D01*
G01X10608009Y162412D02*
G01X10688019Y162412D01*
G01X10735771Y162412D02*
G01X10735771Y42270D01*
G01X10815781Y162412D02*
G01X10815781Y42270D01*
G01X10735771Y105262D02*
G01X10815781Y105262D01*
G01X11941654Y162412D02*
G01X11941654Y42270D01*
G01X11941654Y162412D02*
G01X11993216Y162412D01*
G01X12010234Y156570D01*
G01X12016076Y150982D01*
G01X12021664Y139552D01*
G01X12021664Y128122D01*
G01X12016076Y116692D01*
G01X12010234Y110850D01*
G01X11993216Y105262D01*
G01X11941654Y105262D01*
G01X11981786Y105262D02*
G01X12021664Y42270D01*
G01X12098118Y122280D02*
G01X12086688Y116692D01*
G01X12075258Y105262D01*
G01X12069416Y87990D01*
G01X12069416Y76560D01*
G01X12075258Y59542D01*
G01X12086688Y48112D01*
G01X12098118Y42270D01*
G01X12115136Y42270D01*
G01X12126566Y48112D01*
G01X12137996Y59542D01*
G01X12143838Y76560D01*
G01X12143838Y87990D01*
G01X12137996Y105262D01*
G01X12126566Y116692D01*
G01X12115136Y122280D01*
G01X12098118Y122280D01*
G01X12191590Y122280D02*
G01X12191590Y65130D01*
G01X12197432Y48112D01*
G01X12208862Y42270D01*
G01X12225880Y42270D01*
G01X12237310Y48112D01*
G01X12254582Y65130D01*
G01X12254582Y122280D02*
G01X12254582Y42270D01*
G01X12302334Y122280D02*
G01X12302334Y42270D01*
G01X12302334Y99420D02*
G01X12319606Y116692D01*
G01X12331036Y122280D01*
G01X12348054Y122280D01*
G01X12359484Y116692D01*
G01X12365326Y99420D01*
G01X12365326Y42270D01*
G01X12481658Y162412D02*
G01X12481658Y42270D01*
G01X12481658Y105262D02*
G01X12470228Y116692D01*
G01X12458798Y122280D01*
G01X12441780Y122280D01*
G01X12430350Y116692D01*
G01X12418920Y105262D01*
G01X12413078Y87990D01*
G01X12413078Y76560D01*
G01X12418920Y59542D01*
G01X12430350Y48112D01*
G01X12441780Y42270D01*
G01X12458798Y42270D01*
G01X12470228Y48112D01*
G01X12481658Y59542D01*
G01X13372835Y162412D02*
G01X13418555Y42270D01*
G01X13464275Y162412D02*
G01X13418555Y42270D01*
G01X13512027Y162412D02*
G01X13517869Y156570D01*
G01X13523457Y162412D01*
G01X13517869Y168000D01*
G01X13512027Y162412D01*
G01X13517869Y122280D02*
G01X13517869Y42270D01*
G01X13639789Y122280D02*
G01X13639789Y42270D01*
G01X13639789Y105262D02*
G01X13628359Y116692D01*
G01X13616929Y122280D01*
G01X13599911Y122280D01*
G01X13588481Y116692D01*
G01X13577051Y105262D01*
G01X13571209Y87990D01*
G01X13571209Y76560D01*
G01X13577051Y59542D01*
G01X13588481Y48112D01*
G01X13599911Y42270D01*
G01X13616929Y42270D01*
G01X13628359Y48112D01*
G01X13639789Y59542D01*
G01X17001515Y162412D02*
G01X17001515Y42270D01*
G01X16961383Y162412D02*
G01X17041393Y162412D01*
G01X17117847Y122280D02*
G01X17106417Y116692D01*
G01X17094987Y105262D01*
G01X17089145Y87990D01*
G01X17089145Y76560D01*
G01X17094987Y59542D01*
G01X17106417Y48112D01*
G01X17117847Y42270D01*
G01X17134865Y42270D01*
G01X17146295Y48112D01*
G01X17157725Y59542D01*
G01X17163567Y76560D01*
G01X17163567Y87990D01*
G01X17157725Y105262D01*
G01X17146295Y116692D01*
G01X17134865Y122280D01*
G01X17117847Y122280D01*
G01X17211319Y122280D02*
G01X17211319Y2392D01*
G01X17211319Y105262D02*
G01X17222749Y116692D01*
G01X17234179Y122280D01*
G01X17251451Y122280D01*
G01X17262881Y116692D01*
G01X17274311Y105262D01*
G01X17279899Y87990D01*
G01X17279899Y76560D01*
G01X17274311Y59542D01*
G01X17262881Y48112D01*
G01X17251451Y42270D01*
G01X17234179Y42270D01*
G01X17222749Y48112D01*
G01X17211319Y59542D01*
G01X17455667Y162412D02*
G01X17455667Y42270D01*
G01X17455667Y42270D02*
G01X17524247Y42270D01*
G01X17640579Y122280D02*
G01X17640579Y42270D01*
G01X17640579Y105262D02*
G01X17629149Y116692D01*
G01X17617719Y122280D01*
G01X17600701Y122280D01*
G01X17589271Y116692D01*
G01X17577841Y105262D01*
G01X17571999Y87990D01*
G01X17571999Y76560D01*
G01X17577841Y59542D01*
G01X17589271Y48112D01*
G01X17600701Y42270D01*
G01X17617719Y42270D01*
G01X17629149Y48112D01*
G01X17640579Y59542D01*
G01X17694173Y122280D02*
G01X17728463Y42270D01*
G01X17762753Y122280D02*
G01X17728463Y42270D01*
G01X17717033Y19410D01*
G01X17705603Y7980D01*
G01X17694173Y2392D01*
G01X17688331Y2392D01*
G01X17810505Y87990D02*
G01X17879085Y87990D01*
G01X17879085Y99420D01*
G01X17873497Y110850D01*
G01X17867655Y116692D01*
G01X17856225Y122280D01*
G01X17839207Y122280D01*
G01X17827777Y116692D01*
G01X17816347Y105262D01*
G01X17810505Y87990D01*
G01X17810505Y76560D01*
G01X17816347Y59542D01*
G01X17827777Y48112D01*
G01X17839207Y42270D01*
G01X17856225Y42270D01*
G01X17867655Y48112D01*
G01X17879085Y59542D01*
G01X17926837Y122280D02*
G01X17926837Y42270D01*
G01X17926837Y87990D02*
G01X17932679Y105262D01*
G01X17944109Y116692D01*
G01X17955539Y122280D01*
G01X17972557Y122280D01*
G01X18020309Y93832D02*
G01X18123179Y93832D01*
G01X18170931Y162412D02*
G01X18170931Y42270D01*
G01X18170931Y162412D02*
G01X18222493Y162412D01*
G01X18239511Y156570D01*
G01X18245353Y150982D01*
G01X18250941Y139552D01*
G01X18250941Y128122D01*
G01X18245353Y116692D01*
G01X18239511Y110850D01*
G01X18222493Y105262D01*
G01X18170931Y105262D02*
G01X18222493Y105262D01*
G01X18239511Y99420D01*
G01X18245353Y93832D01*
G01X18250941Y82402D01*
G01X18250941Y65130D01*
G01X18245353Y53700D01*
G01X18239511Y48112D01*
G01X18222493Y42270D01*
G01X18170931Y42270D01*
G01X18327395Y122280D02*
G01X18315965Y116692D01*
G01X18304535Y105262D01*
G01X18298693Y87990D01*
G01X18298693Y76560D01*
G01X18304535Y59542D01*
G01X18315965Y48112D01*
G01X18327395Y42270D01*
G01X18344413Y42270D01*
G01X18355843Y48112D01*
G01X18367273Y59542D01*
G01X18373115Y76560D01*
G01X18373115Y87990D01*
G01X18367273Y105262D01*
G01X18355843Y116692D01*
G01X18344413Y122280D01*
G01X18327395Y122280D01*
G01X18438139Y162412D02*
G01X18438139Y65130D01*
G01X18443727Y48112D01*
G01X18455157Y42270D01*
G01X18466587Y42270D01*
G01X18420867Y122280D02*
G01X18460999Y122280D01*
G01X18531611Y162412D02*
G01X18531611Y65130D01*
G01X18537199Y48112D01*
G01X18548629Y42270D01*
G01X18560059Y42270D01*
G01X18514339Y122280D02*
G01X18554471Y122280D01*
G01X18636513Y122280D02*
G01X18625083Y116692D01*
G01X18613653Y105262D01*
G01X18607811Y87990D01*
G01X18607811Y76560D01*
G01X18613653Y59542D01*
G01X18625083Y48112D01*
G01X18636513Y42270D01*
G01X18653531Y42270D01*
G01X18664961Y48112D01*
G01X18676391Y59542D01*
G01X18682233Y76560D01*
G01X18682233Y87990D01*
G01X18676391Y105262D01*
G01X18664961Y116692D01*
G01X18653531Y122280D01*
G01X18636513Y122280D01*
G01X18729985Y122280D02*
G01X18729985Y42270D01*
G01X18729985Y99420D02*
G01X18747257Y116692D01*
G01X18758687Y122280D01*
G01X18775705Y122280D01*
G01X18787135Y116692D01*
G01X18792977Y99420D01*
G01X18792977Y42270D01*
G01X18792977Y99420D02*
G01X18809995Y116692D01*
G01X18821425Y122280D01*
G01X18838697Y122280D01*
G01X18850127Y116692D01*
G01X18855715Y99420D01*
G01X18855715Y42270D01*
G01X19031483Y162412D02*
G01X19031483Y42270D01*
G01X19031483Y42270D02*
G01X19100063Y42270D01*
G01X19216395Y122280D02*
G01X19216395Y42270D01*
G01X19216395Y105262D02*
G01X19204965Y116692D01*
G01X19193535Y122280D01*
G01X19176517Y122280D01*
G01X19165087Y116692D01*
G01X19153657Y105262D01*
G01X19147815Y87990D01*
G01X19147815Y76560D01*
G01X19153657Y59542D01*
G01X19165087Y48112D01*
G01X19176517Y42270D01*
G01X19193535Y42270D01*
G01X19204965Y48112D01*
G01X19216395Y59542D01*
G01X19269989Y122280D02*
G01X19304279Y42270D01*
G01X19338569Y122280D02*
G01X19304279Y42270D01*
G01X19292849Y19410D01*
G01X19281419Y7980D01*
G01X19269989Y2392D01*
G01X19264147Y2392D01*
G01X19386321Y87990D02*
G01X19454901Y87990D01*
G01X19454901Y99420D01*
G01X19449313Y110850D01*
G01X19443471Y116692D01*
G01X19432041Y122280D01*
G01X19415023Y122280D01*
G01X19403593Y116692D01*
G01X19392163Y105262D01*
G01X19386321Y87990D01*
G01X19386321Y76560D01*
G01X19392163Y59542D01*
G01X19403593Y48112D01*
G01X19415023Y42270D01*
G01X19432041Y42270D01*
G01X19443471Y48112D01*
G01X19454901Y59542D01*
G01X19502653Y122280D02*
G01X19502653Y42270D01*
G01X19502653Y87990D02*
G01X19508495Y105262D01*
G01X19519925Y116692D01*
G01X19531355Y122280D01*
G01X19548373Y122280D01*

G04 Image Start*
G36*
G01X4087263Y562371D02*
G01X3981649Y573852D01*
G01X3938774Y476646D01*
G01X3895899Y573852D01*
G01X3790286Y562371D01*
G01X3853049Y648096D01*
G01X3813327Y702350D01*
G01X3844820Y702350D01*
G01X3884520Y648096D01*
G01X3844820Y593841D01*
G01X3911647Y601106D01*
G01X3911647Y601106D01*
G01X3938774Y539612D01*
G01X3965901Y601106D01*
G01X4032729Y593841D01*
G01X3993029Y648096D01*
G01X4032703Y702325D01*
G01X3965876Y695060D01*
G01X3938774Y756579D01*
G01X3911647Y695086D01*
G01X3844820Y702350D01*
G01X3813327Y702350D01*
G01X3790286Y733821D01*
G01X3895924Y722340D01*
G01X3938774Y819546D01*
G01X3981649Y722340D01*
G01X4087263Y733821D01*
G01X4024499Y648096D01*
G01X4087263Y562371D01*
G37*
G36*
G01X3958269Y1676675D02*
G01X3950529Y1676087D01*
G01X3942686Y1675889D01*
G01X3934843Y1676087D01*
G01X3927103Y1676675D01*
G01X3919475Y1677644D01*
G01X3911970Y1678985D01*
G01X3897364Y1682740D01*
G01X3883362Y1687864D01*
G01X3870040Y1694281D01*
G01X3857474Y1701914D01*
G01X3845742Y1710687D01*
G01X3834920Y1720523D01*
G01X3825084Y1731345D01*
G01X3816311Y1743077D01*
G01X3808678Y1755642D01*
G01X3802261Y1768965D01*
G01X3797137Y1782967D01*
G01X3793382Y1797573D01*
G01X3792042Y1805078D01*
G01X3791072Y1812705D01*
G01X3790484Y1820446D01*
G01X3790286Y1828289D01*
G01X3815686Y1828289D01*
G01X3816343Y1815322D01*
G01X3818271Y1802726D01*
G01X3821405Y1790564D01*
G01X3825682Y1778902D01*
G01X3831037Y1767803D01*
G01X3837405Y1757331D01*
G01X3844723Y1747552D01*
G01X3852925Y1738528D01*
G01X3861949Y1730326D01*
G01X3871728Y1723008D01*
G01X3882200Y1716640D01*
G01X3893299Y1711285D01*
G01X3904962Y1707008D01*
G01X3917123Y1703873D01*
G01X3917123Y1703873D01*
G01X3929719Y1701946D01*
G01X3942686Y1701289D01*
G01X3955652Y1701946D01*
G01X3968248Y1703873D01*
G01X3980410Y1707008D01*
G01X3992072Y1711285D01*
G01X4003172Y1716640D01*
G01X4013643Y1723008D01*
G01X4023423Y1730326D01*
G01X4032446Y1738528D01*
G01X4040649Y1747552D01*
G01X4047967Y1757331D01*
G01X4054335Y1767803D01*
G01X4059690Y1778902D01*
G01X4063966Y1790564D01*
G01X4067101Y1802726D01*
G01X4069029Y1815322D01*
G01X4069686Y1828289D01*
G01X4069029Y1841255D01*
G01X4067101Y1853851D01*
G01X4063966Y1866013D01*
G01X4059690Y1877675D01*
G01X4054335Y1888775D01*
G01X4047967Y1899246D01*
G01X4040649Y1909026D01*
G01X4032446Y1918049D01*
G01X4023423Y1926252D01*
G01X4013643Y1933569D01*
G01X4003172Y1939938D01*
G01X3992072Y1945293D01*
G01X3980410Y1949569D01*
G01X3968248Y1952704D01*
G01X3955652Y1954632D01*
G01X3942686Y1955289D01*
G01X3929719Y1954632D01*
G01X3917123Y1952704D01*
G01X3904962Y1949569D01*
G01X3893299Y1945293D01*
G01X3882200Y1939938D01*
G01X3871728Y1933569D01*
G01X3861949Y1926252D01*
G01X3852925Y1918049D01*
G01X3844723Y1909026D01*
G01X3837405Y1899246D01*
G01X3831037Y1888775D01*
G01X3825682Y1877675D01*
G01X3821405Y1866013D01*
G01X3818271Y1853851D01*
G01X3816343Y1841255D01*
G01X3815686Y1828289D01*
G01X3790286Y1828289D01*
G01X3790484Y1836132D01*
G01X3791072Y1843872D01*
G01X3792042Y1851499D01*
G01X3793382Y1859005D01*
G01X3797137Y1873611D01*
G01X3802261Y1887613D01*
G01X3808678Y1900935D01*
G01X3816311Y1913500D01*
G01X3825084Y1925232D01*
G01X3834920Y1936055D01*
G01X3845742Y1945890D01*
G01X3857474Y1954663D01*
G01X3870040Y1962296D01*
G01X3883362Y1968713D01*
G01X3897364Y1973838D01*
G01X3911970Y1977593D01*
G01X3919475Y1978933D01*
G01X3927103Y1979902D01*
G01X3934843Y1980490D01*
G01X3942686Y1980689D01*
G01X3950529Y1980490D01*
G01X3958269Y1979902D01*
G01X3965896Y1978933D01*
G01X3973402Y1977593D01*
G01X3988008Y1973838D01*
G01X4002010Y1968713D01*
G01X4015332Y1962296D01*
G01X4027897Y1954663D01*
G01X4039629Y1945890D01*
G01X4050452Y1936055D01*
G01X4060287Y1925232D01*
G01X4069060Y1913500D01*
G01X4076693Y1900935D01*
G01X4083110Y1887613D01*
G01X4088235Y1873611D01*
G01X4091990Y1859005D01*
G01X4093330Y1851499D01*
G01X4094299Y1843872D01*
G01X4094887Y1836132D01*
G01X4095086Y1828289D01*
G01X4094887Y1820446D01*
G01X4094299Y1812705D01*
G01X4093330Y1805078D01*
G01X4091990Y1797573D01*
G01X4088235Y1782967D01*
G01X4083110Y1768965D01*
G01X4076693Y1755642D01*
G01X4069060Y1743077D01*
G01X4060287Y1731345D01*
G01X4050452Y1720523D01*
G01X4039629Y1710687D01*
G01X4027897Y1701914D01*
G01X4015332Y1694281D01*
G01X4002010Y1687864D01*
G01X3988008Y1682740D01*
G01X3973402Y1678985D01*
G01X3965896Y1677644D01*
G01X3958269Y1676675D01*
G37*
G36*
G01X4095086Y238974D02*
G01X4025058Y86574D01*
G01X4095086Y-65826D01*
G01X3942686Y4202D01*
G01X3790286Y-65826D01*
G01X3814049Y-14111D01*
G01X3842000Y-14111D01*
G01X3932069Y27291D01*
G01X3942686Y32168D01*
G01X3953303Y27291D01*
G01X4043371Y-14111D01*
G01X4001969Y75957D01*
G01X3997093Y86574D01*
G01X4001969Y97192D01*
G01X4043371Y187260D01*
G01X3953303Y145858D01*
G01X3942686Y140981D01*
G01X3932069Y145858D01*
G01X3842000Y187260D01*
G01X3883402Y97192D01*
G01X3888279Y86574D01*
G01X3883402Y75957D01*
G01X3883402Y75957D01*
G01X3842000Y-14111D01*
G01X3814049Y-14111D01*
G01X3860314Y86574D01*
G01X3790286Y238974D01*
G01X3942686Y168947D01*
G01X4095086Y238974D01*
G37*
G36*
G01X3790286Y1400117D02*
G01X4095086Y1400117D01*
G01X3942686Y1136160D01*
G01X3804951Y1374717D01*
G01X3834279Y1374717D01*
G01X3942686Y1186960D01*
G01X4051093Y1374717D01*
G01X4051093Y1374717D01*
G01X3834279Y1374717D01*
G01X3804951Y1374717D01*
G01X3790286Y1400117D01*
G37*
G36*
G01X3790286Y2561260D02*
G01X4069686Y2561260D01*
G01X4069686Y2281860D01*
G01X3790286Y2281860D01*
G01X3790286Y2535860D01*
G01X3815686Y2535860D01*
G01X3815686Y2307260D01*
G01X4044286Y2307260D01*
G01X4044286Y2535860D01*
G01X4044286Y2535860D01*
G01X3815686Y2535860D01*
G01X3790286Y2535860D01*
G01X3790286Y2561260D01*
G37*

G04 PolygonModel Start*
G54D16*
G01X3500000Y-196454D02*
G01X20139105Y-196454D01*
G01X3500000Y384117D02*
G01X20139105Y384117D01*
G01X3500000Y964689D02*
G01X20139105Y964689D01*
G01X3500000Y1545260D02*
G01X20139105Y1545260D01*
G01X3500000Y2125832D02*
G01X20139105Y2125832D01*
G01X3500000Y2706403D02*
G01X20139105Y2706403D01*
G01X3500000Y3286974D02*
G01X20139105Y3286974D01*
G01X3500000Y3286974D02*
G01X3500000Y-171054D01*
G01X4951429Y3286974D02*
G01X4951429Y-171054D01*
G01X6365592Y3286974D02*
G01X6365592Y-171054D01*
G01X10179801Y3286974D02*
G01X10179801Y-171054D01*
G01X11641208Y3286974D02*
G01X11641208Y-171054D01*
G01X13072389Y3286974D02*
G01X13072389Y-171054D01*
G01X14741568Y3286974D02*
G01X14741568Y-171054D01*
G01X16660937Y3286974D02*
G01X16660937Y-171054D01*
G01X20139105Y3286974D02*
G01X20139105Y-171054D01*

M02*

