G04 Layer: TopSolderMaskLayer*
G04 EasyEDA Pro v3.2.148, 2026-07-26 13:42:08*
G04 Gerber Generator version 0.3*
G04 Scale: 100 percent, Rotated: No, Reflected: No*
G04 Dimensions in millimeters*
G04 Leading zeros omitted, absolute positions, 4 integers and 5 decimals*
G04 Generated by one-click*
G04 Object Configs: Pad,Via,Track,Text,Image,Dimension,BoardOutline,BoardCutout,CopperFilled,SolidRegion,FPCStiffener,Line,PlaneZone,ComponentProperty,ComponentSilkscreen,TearDrop*
G04 Layer Configs: 1,2,3,4,5,6,7,8,9,10,11,13,14,56*
G04 Copper Areas: 0*
%FSLAX45Y45*%
%MOMM*%
%AMRoundRect*1,1,$1,$2,$3*1,1,$1,$4,$5*1,1,$1,0-$2,0-$3*1,1,$1,0-$4,0-$5*20,1,$1,$2,$3,$4,$5,0*20,1,$1,$4,$5,0-$2,0-$3,0*20,1,$1,0-$2,0-$3,0-$4,0-$5,0*20,1,$1,0-$4,0-$5,$2,$3,0*4,1,4,$2,$3,$4,$5,0-$2,0-$3,0-$4,0-$5,$2,$3,0*%
%ADD10RoundRect,0.1016X-0.4X0.45X0.4X0.45*%
%ADD11RoundRect,0.1016X-0.45X-0.4X-0.45X0.4*%
%ADD12RoundRect,0.1016X-0.4X-0.4X-0.4X0.4*%
%ADD13RoundRect,0.1016X-0.266X0.536X0.266X0.536*%
%ADD14RoundRect,0.1016X-0.70334X1.7496X0.70334X1.7496*%
%ADD15RoundRect,0.1013X-0.432X-0.40324X-0.432X0.40324*%
%ADD16RoundRect,0.1016X-0.432X-0.40324X-0.432X0.40324*%
%ADD17RoundRect,0.1016X-0.40324X0.432X0.40324X0.432*%
%ADD18RoundRect,0.1016X-0.75601X-0.9925X-0.75601X0.99251*%
%ADD19RoundRect,0.10003X-1.0X0.45X1.0X0.45*%
%ADD20RoundRect,0.10003X-0.45X-1.0X-0.45X1.0*%
%ADD21RoundRect,0.10003X-2.05X2.05X2.05X2.05*%
%ADD22RoundRect,0.10003X-0.3X0.65X0.3X0.65*%
%ADD23RoundRect,0.10003X-0.15X0.65X0.15X0.65*%
%ADD24O,1.10002X1.90002*%
%ADD25O,1.10002X2.20002*%
%ADD26RoundRect,0.1016X-1.25X0.55X1.25X0.55*%
%ADD27RoundRect,0.1016X-1.17X1.8X1.17X1.8*%
%ADD28O,0.66159X1.84661*%
%ADD29RoundRect,0.1X-0.75X0.4X0.75X0.4*%
%ADD30RoundRect,0.1X-0.4X-0.75X-0.4X0.75*%
%ADD31RoundRect,0.1X-2.4X-2.4X-2.4X2.4*%
%ADD32RoundRect,0.1016X-0.29249X0.224X0.29249X0.224*%
%ADD33RoundRect,0.1016X-0.62501X0.825X0.62501X0.825*%
%ADD34O,0.46561X0.8686*%
%ADD35RoundRect,0.1016X-0.85X-0.85X-0.85X0.85*%
%ADD36C,1.8016*%
G75*


G04 Pad Start*
G54D10*
G01X-1060668Y-2490209D03*
G01X-1200672Y-2490209D03*
G01X-890486Y-2486627D03*
G01X-750482Y-2486627D03*
G01X-66756Y849424D03*
G01X73249Y849424D03*
G01X-593227Y-428039D03*
G01X-733231Y-428039D03*
G01X-732224Y156161D03*
G01X-592219Y156161D03*
G01X-832512Y1069134D03*
G01X-972516Y1069134D03*
G01X970888Y1069134D03*
G01X830884Y1069134D03*
G01X-1207986Y-2674919D03*
G01X-1067982Y-2674919D03*
G54D11*
G01X279400Y-1466698D03*
G01X279400Y-1606702D03*
G54D10*
G01X476402Y838200D03*
G01X336398Y838200D03*
G01X476402Y-469900D03*
G01X336398Y-469900D03*
G54D11*
G01X-241300Y-1505102D03*
G01X-241300Y-1365098D03*
G01X-916725Y-1364640D03*
G01X-916725Y-1504645D03*
G54D12*
G01X330530Y-2854635D03*
G01X330530Y-2613639D03*
G54D13*
G01X-628396Y-2299310D03*
G01X-533400Y-2299310D03*
G01X-438404Y-2299310D03*
G01X-438404Y-2069490D03*
G01X-533400Y-2069490D03*
G01X-628396Y-2069490D03*
G54D14*
G01X185344Y-2209800D03*
G01X-185344Y-2209800D03*
G54D12*
G01X-1052800Y-2235543D03*
G01X-903000Y-2234857D03*
G54D16*
G01X-567767Y-3311304D03*
G01X-567767Y-3461977D03*
G54D17*
G01X65506Y-2565914D03*
G01X-85167Y-2565914D03*
G54D16*
G01X-1157374Y2806088D03*
G01X-1157374Y2956760D03*
G01X1104086Y2289198D03*
G01X1104086Y2439870D03*
G01X1106574Y2974473D03*
G01X1106574Y2823800D03*
G54D17*
G01X-902564Y-1943100D03*
G01X-1053236Y-1943100D03*
G54D18*
G01X993260Y-3566626D03*
G01X993260Y-2928121D03*
G01X-992000Y-3546378D03*
G01X-992000Y-2907873D03*
G54D19*
G01X-900815Y3074545D03*
G01X-900815Y2947545D03*
G01X-900815Y2820545D03*
G01X-900815Y2693545D03*
G01X-900815Y2566545D03*
G01X-900815Y2439545D03*
G01X-900815Y2312545D03*
G01X-900815Y2185545D03*
G01X-900815Y2058545D03*
G01X-900815Y1931545D03*
G01X-900815Y1804545D03*
G01X-900815Y1677545D03*
G01X-900815Y1550545D03*
G01X-900815Y1423545D03*
G54D20*
G01X-572317Y1273533D03*
G01X-445317Y1273533D03*
G01X-318317Y1273533D03*
G01X-191317Y1273533D03*
G01X-64317Y1273533D03*
G01X62683Y1273533D03*
G01X189683Y1273533D03*
G01X316683Y1273533D03*
G01X443683Y1273533D03*
G01X570683Y1273533D03*
G54D19*
G01X899182Y1423545D03*
G01X899182Y1550545D03*
G01X899182Y1677545D03*
G01X899182Y1804545D03*
G01X899182Y1931545D03*
G01X899182Y2058545D03*
G01X899182Y2185545D03*
G01X899182Y2312545D03*
G01X899182Y2439545D03*
G01X899182Y2566545D03*
G01X899182Y2693545D03*
G01X899182Y2820545D03*
G01X899182Y2947545D03*
G01X899182Y3074545D03*
G54D21*
G01X-68812Y2340511D03*
G54D22*
G01X-321415Y-3090827D03*
G01X-241405Y-3090827D03*
G01X318589Y-3090827D03*
G01X238605Y-3090827D03*
G54D23*
G01X173606Y-3090827D03*
G01X123593Y-3090827D03*
G01X73606Y-3090827D03*
G01X23594Y-3090827D03*
G01X-26394Y-3090827D03*
G01X-76406Y-3090827D03*
G01X-126393Y-3090827D03*
G01X-176406Y-3090827D03*
G54D24*
G01X430603Y-3566619D03*
G01X-433403Y-3566619D03*
G54D25*
G01X430603Y-3148637D03*
G01X-433403Y-3148637D03*
G54D26*
G01X693935Y-2148540D03*
G01X693935Y-2378537D03*
G01X693935Y-2608534D03*
G54D27*
G01X1287927Y-2378537D03*
G54D28*
G01X469900Y-1836649D03*
G01X596900Y-1836649D03*
G01X723900Y-1836649D03*
G01X850900Y-1836649D03*
G01X977900Y-1836649D03*
G01X1104900Y-1836649D03*
G01X1231900Y-1836649D03*
G01X1358900Y-1836649D03*
G01X469900Y-1262151D03*
G01X596900Y-1262151D03*
G01X723900Y-1262151D03*
G01X850900Y-1262151D03*
G01X977900Y-1262151D03*
G01X1104900Y-1262151D03*
G01X1231900Y-1262151D03*
G01X1358900Y-1262151D03*
G54D29*
G01X198476Y432965D03*
G01X198476Y307971D03*
G01X198476Y182978D03*
G01X198476Y57959D03*
G01X198476Y-67034D03*
G54D30*
G01X348463Y-217047D03*
G01X473456Y-217047D03*
G01X598475Y-217047D03*
G01X723468Y-217047D03*
G01X848462Y-217047D03*
G54D29*
G01X998474Y-67034D03*
G01X998474Y57959D03*
G01X998474Y182978D03*
G01X998474Y307971D03*
G01X998474Y432965D03*
G54D30*
G01X848462Y582952D03*
G01X723468Y582952D03*
G01X598475Y582952D03*
G01X473456Y582952D03*
G01X348463Y582952D03*
G54D31*
G01X598475Y182952D03*
G54D32*
G01X-683666Y-1354633D03*
G01X-683666Y-1434643D03*
G01X-683666Y-1514653D03*
G01X-456184Y-1514653D03*
G01X-456184Y-1434643D03*
G01X-456184Y-1354633D03*
G54D33*
G01X-569925Y-1434643D03*
G54D34*
G01X-574154Y-7757D03*
G01X-639178Y-7757D03*
G01X-704176Y-7757D03*
G01X-769175Y-7757D03*
G01X-769175Y-259471D03*
G01X-704176Y-259471D03*
G01X-639178Y-259471D03*
G01X-574154Y-259471D03*
G54D35*
G01X-1257300Y-1041400D03*
G54D36*
G01X-1257300Y-787400D03*
G01X-1257300Y-533400D03*
G01X-1257300Y-279400D03*
G01X-1257300Y-25400D03*
G01X-1257300Y228600D03*
G54D35*
G01X1295400Y-749300D03*
G54D36*
G01X1295400Y-495300D03*
G01X1295400Y-241300D03*
G01X1295400Y12700D03*
G04 Pad End*

M02*

