G04 Layer: TopPasteMaskLayer*
G04 EasyEDA Pro v3.2.148, 2026-07-26 13:42:08*
G04 Gerber Generator version 0.3*
G04 Scale: 100 percent, Rotated: No, Reflected: No*
G04 Dimensions in millimeters*
G04 Leading zeros omitted, absolute positions, 4 integers and 5 decimals*
G04 Generated by one-click*
G04 Object Configs: Pad,Via,Track,Text,Image,Dimension,BoardOutline,BoardCutout,CopperFilled,SolidRegion,FPCStiffener,Line,PlaneZone,ComponentProperty,ComponentSilkscreen,TearDrop*
G04 Layer Configs: 1,2,3,4,5,6,7,8,9,10,11,13,14,56*
G04 Copper Areas: 0*
%FSLAX45Y45*%
%MOMM*%
%ADD10R,0.8X0.9*%
%ADD11R,0.9X0.8*%
%ADD12R,0.8X0.8*%
%ADD13R,0.532X1.07201*%
%ADD14R,1.51201X1.98501*%
%ADD15R,2.0X0.9*%
%ADD16R,0.9X2.0*%
%ADD17R,4.1003X4.09999*%
%ADD18R,4.09999X4.09999*%
%ADD19R,2.49999X1.1*%
%ADD20R,2.34X3.59999*%
%ADD21O,0.55999X1.74501*%
%ADD22R,1.5X0.8*%
%ADD23R,0.8X1.5*%
%ADD24R,4.79999X4.79999*%
%ADD25R,0.58499X0.44801*%
%ADD26R,1.25001X1.65001*%
%ADD27O,0.36401X0.767*%
G75*


G04 PolygonModel Start*
G36*
G01X115001Y-2374760D02*
G01X115001Y-2279287D01*
G01X125001Y-2269287D01*
G01X152827Y-2269287D01*
G01X162827Y-2259287D01*
G01X162827Y-2160313D01*
G01X152827Y-2150313D01*
G01X125001Y-2150313D01*
G01X115001Y-2140313D01*
G01X115001Y-2044840D01*
G01X125001Y-2034840D01*
G01X245666Y-2034840D01*
G01X255666Y-2044840D01*
G01X255666Y-2374760D01*
G01X245666Y-2384760D01*
G01X125001Y-2384760D01*
G01X115001Y-2374760D01*
G37*
G36*
G01X-115001Y-2374760D02*
G01X-125001Y-2384760D01*
G01X-245666Y-2384760D01*
G01X-255666Y-2374760D01*
G01X-255666Y-2044840D01*
G01X-245666Y-2034840D01*
G01X-125001Y-2034840D01*
G01X-115001Y-2044840D01*
G01X-115001Y-2140313D01*
G01X-125001Y-2150313D01*
G01X-152827Y-2150313D01*
G01X-162827Y-2160313D01*
G01X-162827Y-2259287D01*
G01X-152827Y-2269287D01*
G01X-125001Y-2269287D01*
G01X-115001Y-2279287D01*
G01X-115001Y-2374760D01*
G37*
G36*
G01X-612765Y-3267138D02*
G01X-607764Y-3262140D01*
G01X-527764Y-3262140D01*
G01X-522766Y-3267138D01*
G01X-522766Y-3347138D01*
G01X-527764Y-3352139D01*
G01X-551968Y-3352139D01*
G01X-551968Y-3315139D01*
G01X-584968Y-3315139D01*
G01X-584968Y-3352139D01*
G01X-607764Y-3352139D01*
G01X-612765Y-3347138D01*
G01X-612765Y-3267138D01*
G37*
G36*
G01X-522768Y-3506142D02*
G01X-527769Y-3511141D01*
G01X-607769Y-3511141D01*
G01X-612768Y-3506142D01*
G01X-612768Y-3426142D01*
G01X-607769Y-3421141D01*
G01X-583566Y-3421141D01*
G01X-583566Y-3458141D01*
G01X-550566Y-3458141D01*
G01X-550566Y-3421141D01*
G01X-527769Y-3421141D01*
G01X-522768Y-3426142D01*
G01X-522768Y-3506142D01*
G37*
G36*
G01X109672Y-2520915D02*
G01X114670Y-2525917D01*
G01X114670Y-2605917D01*
G01X109672Y-2610915D01*
G01X29672Y-2610915D01*
G01X24671Y-2605917D01*
G01X24671Y-2581713D01*
G01X61671Y-2581713D01*
G01X61671Y-2548713D01*
G01X24671Y-2548713D01*
G01X24671Y-2525917D01*
G01X29672Y-2520915D01*
G01X109672Y-2520915D01*
G37*
G36*
G01X-129332Y-2610913D02*
G01X-134331Y-2605911D01*
G01X-134331Y-2525912D01*
G01X-129332Y-2520913D01*
G01X-49332Y-2520913D01*
G01X-44331Y-2525912D01*
G01X-44331Y-2550115D01*
G01X-81331Y-2550115D01*
G01X-81331Y-2583115D01*
G01X-44331Y-2583115D01*
G01X-44331Y-2605911D01*
G01X-49332Y-2610913D01*
G01X-129332Y-2610913D01*
G37*
G36*
G01X-1112375Y2761922D02*
G01X-1117376Y2756923D01*
G01X-1197376Y2756923D01*
G01X-1202375Y2761922D01*
G01X-1202375Y2841922D01*
G01X-1197376Y2846923D01*
G01X-1173173Y2846923D01*
G01X-1173173Y2809923D01*
G01X-1140173Y2809923D01*
G01X-1140173Y2846923D01*
G01X-1117376Y2846923D01*
G01X-1112375Y2841922D01*
G01X-1112375Y2761922D01*
G37*
G36*
G01X-1202372Y3000926D02*
G01X-1197371Y3005925D01*
G01X-1117371Y3005925D01*
G01X-1112373Y3000926D01*
G01X-1112373Y2920926D01*
G01X-1117371Y2915925D01*
G01X-1141575Y2915925D01*
G01X-1141575Y2952925D01*
G01X-1174575Y2952925D01*
G01X-1174575Y2915925D01*
G01X-1197371Y2915925D01*
G01X-1202372Y2920926D01*
G01X-1202372Y3000926D01*
G37*
G36*
G01X1149085Y2245032D02*
G01X1144083Y2240033D01*
G01X1064083Y2240033D01*
G01X1059085Y2245032D01*
G01X1059085Y2325032D01*
G01X1064083Y2330033D01*
G01X1088287Y2330033D01*
G01X1088287Y2293033D01*
G01X1121287Y2293033D01*
G01X1121287Y2330033D01*
G01X1144083Y2330033D01*
G01X1149085Y2325032D01*
G01X1149085Y2245032D01*
G37*
G36*
G01X1059087Y2484036D02*
G01X1064089Y2489035D01*
G01X1144088Y2489035D01*
G01X1149087Y2484036D01*
G01X1149087Y2404036D01*
G01X1144088Y2399035D01*
G01X1119885Y2399035D01*
G01X1119885Y2436035D01*
G01X1086885Y2436035D01*
G01X1086885Y2399035D01*
G01X1064089Y2399035D01*
G01X1059087Y2404036D01*
G01X1059087Y2484036D01*
G37*
G36*
G01X1061575Y3018639D02*
G01X1066576Y3023637D01*
G01X1146576Y3023637D01*
G01X1151575Y3018639D01*
G01X1151575Y2938639D01*
G01X1146576Y2933638D01*
G01X1122373Y2933638D01*
G01X1122373Y2970638D01*
G01X1089373Y2970638D01*
G01X1089373Y2933638D01*
G01X1066576Y2933638D01*
G01X1061575Y2938639D01*
G01X1061575Y3018639D01*
G37*
G36*
G01X1151573Y2779635D02*
G01X1146571Y2774636D01*
G01X1066571Y2774636D01*
G01X1061573Y2779635D01*
G01X1061573Y2859635D01*
G01X1066571Y2864636D01*
G01X1090775Y2864636D01*
G01X1090775Y2827636D01*
G01X1123775Y2827636D01*
G01X1123775Y2864636D01*
G01X1146571Y2864636D01*
G01X1151573Y2859635D01*
G01X1151573Y2779635D01*
G37*
G36*
G01X-858398Y-1898101D02*
G01X-853399Y-1903103D01*
G01X-853399Y-1983102D01*
G01X-858398Y-1988101D01*
G01X-938398Y-1988101D01*
G01X-943399Y-1983102D01*
G01X-943399Y-1958899D01*
G01X-906399Y-1958899D01*
G01X-906399Y-1925899D01*
G01X-943399Y-1925899D01*
G01X-943399Y-1903103D01*
G01X-938398Y-1898101D01*
G01X-858398Y-1898101D01*
G37*
G36*
G01X-1097402Y-1988099D02*
G01X-1102401Y-1983097D01*
G01X-1102401Y-1903098D01*
G01X-1097402Y-1898099D01*
G01X-1017402Y-1898099D01*
G01X-1012401Y-1903098D01*
G01X-1012401Y-1927301D01*
G01X-1049401Y-1927301D01*
G01X-1049401Y-1960301D01*
G01X-1012401Y-1960301D01*
G01X-1012401Y-1983097D01*
G01X-1017402Y-1988099D01*
G01X-1097402Y-1988099D01*
G37*
G36*
G01X-351412Y-3025826D02*
G01X-291412Y-3025826D01*
G01X-291412Y-3155828D01*
G01X-351412Y-3155828D01*
G01X-351412Y-3025826D01*
G37*
G36*
G01X-271402Y-3025826D02*
G01X-211402Y-3025826D01*
G01X-211402Y-3155828D01*
G01X-271402Y-3155828D01*
G01X-271402Y-3025826D01*
G37*
G36*
G01X288592Y-3025826D02*
G01X348592Y-3025826D01*
G01X348592Y-3155828D01*
G01X288592Y-3155828D01*
G01X288592Y-3025826D01*
G37*
G36*
G01X208607Y-3025826D02*
G01X268607Y-3025826D01*
G01X268607Y-3155828D01*
G01X208607Y-3155828D01*
G01X208607Y-3025826D01*
G37*
G36*
G01X158610Y-3025826D02*
G01X188610Y-3025826D01*
G01X188610Y-3155828D01*
G01X158610Y-3155828D01*
G01X158610Y-3025826D01*
G37*
G36*
G01X108597Y-3025826D02*
G01X138597Y-3025826D01*
G01X138597Y-3155828D01*
G01X108597Y-3155828D01*
G01X108597Y-3025826D01*
G37*
G36*
G01X58610Y-3025826D02*
G01X88610Y-3025826D01*
G01X88610Y-3155828D01*
G01X58610Y-3155828D01*
G01X58610Y-3025826D01*
G37*
G36*
G01X8597Y-3025826D02*
G01X38597Y-3025826D01*
G01X38597Y-3155828D01*
G01X8597Y-3155828D01*
G01X8597Y-3025826D01*
G37*
G36*
G01X-41390Y-3025826D02*
G01X-11390Y-3025826D01*
G01X-11390Y-3155828D01*
G01X-41390Y-3155828D01*
G01X-41390Y-3025826D01*
G37*
G36*
G01X-91402Y-3025826D02*
G01X-61402Y-3025826D01*
G01X-61402Y-3155828D01*
G01X-91402Y-3155828D01*
G01X-91402Y-3025826D01*
G37*
G36*
G01X-141390Y-3025826D02*
G01X-111390Y-3025826D01*
G01X-111390Y-3155828D01*
G01X-141390Y-3155828D01*
G01X-141390Y-3025826D01*
G37*
G36*
G01X-191402Y-3025826D02*
G01X-161402Y-3025826D01*
G01X-161402Y-3155828D01*
G01X-191402Y-3155828D01*
G01X-191402Y-3025826D01*
G37*
G36*
G01X380606Y-3526622D02*
G02X480606Y-3526622I50000J0D01*
G01X480606Y-3606622D01*
G02X380606Y-3606622I-50000J0D01*
G01X380606Y-3526622D01*
G37*
G36*
G01X-483401Y-3526622D02*
G02X-383401Y-3526622I50000J0D01*
G01X-383401Y-3606622D01*
G02X-483401Y-3606622I-50000J0D01*
G01X-483401Y-3526622D01*
G37*
G36*
G01X380606Y-3093636D02*
G02X480606Y-3093636I50000J0D01*
G01X480606Y-3203638D01*
G02X380606Y-3203638I-50000J0D01*
G01X380606Y-3093636D01*
G37*
G36*
G01X-483401Y-3093636D02*
G02X-383401Y-3093636I50000J0D01*
G01X-383401Y-3203638D01*
G02X-483401Y-3203638I-50000J0D01*
G01X-483401Y-3093636D01*
G37*

G04 Pad Start*
G54D10*
G01X-1060668Y-2490209D03*
G01X-1200672Y-2490209D03*
G01X-890486Y-2486627D03*
G01X-750482Y-2486627D03*
G01X-66756Y849424D03*
G01X73249Y849424D03*
G01X-593227Y-428039D03*
G01X-733231Y-428039D03*
G01X-732224Y156161D03*
G01X-592219Y156161D03*
G01X-832512Y1069134D03*
G01X-972516Y1069134D03*
G01X970888Y1069134D03*
G01X830884Y1069134D03*
G01X-1207986Y-2674919D03*
G01X-1067982Y-2674919D03*
G54D11*
G01X279400Y-1466698D03*
G01X279400Y-1606702D03*
G54D10*
G01X476402Y838200D03*
G01X336398Y838200D03*
G01X476402Y-469900D03*
G01X336398Y-469900D03*
G54D11*
G01X-241300Y-1505102D03*
G01X-241300Y-1365098D03*
G01X-916725Y-1364640D03*
G01X-916725Y-1504645D03*
G54D12*
G01X330530Y-2854635D03*
G01X330530Y-2613639D03*
G54D13*
G01X-628396Y-2299310D03*
G01X-533400Y-2299310D03*
G01X-438404Y-2299310D03*
G01X-438404Y-2069490D03*
G01X-533400Y-2069490D03*
G01X-628396Y-2069490D03*
G54D12*
G01X-1052800Y-2235543D03*
G01X-903000Y-2234857D03*
G54D14*
G01X993260Y-3566626D03*
G01X993260Y-2928121D03*
G01X-992000Y-3546378D03*
G01X-992000Y-2907873D03*
G54D15*
G01X-900815Y3074545D03*
G01X-900815Y2947545D03*
G01X-900815Y2820545D03*
G01X-900815Y2693545D03*
G01X-900815Y2566545D03*
G01X-900815Y2439545D03*
G01X-900815Y2312545D03*
G01X-900815Y2185545D03*
G01X-900815Y2058545D03*
G01X-900815Y1931545D03*
G01X-900815Y1804545D03*
G01X-900815Y1677545D03*
G01X-900815Y1550545D03*
G01X-900815Y1423545D03*
G54D16*
G01X-572317Y1273533D03*
G01X-445317Y1273533D03*
G01X-318317Y1273533D03*
G01X-191317Y1273533D03*
G01X-64317Y1273533D03*
G01X62683Y1273533D03*
G01X189683Y1273533D03*
G01X316683Y1273533D03*
G01X443683Y1273533D03*
G01X570683Y1273533D03*
G54D15*
G01X899182Y1423545D03*
G01X899182Y1550545D03*
G01X899182Y1677545D03*
G01X899182Y1804545D03*
G01X899182Y1931545D03*
G01X899182Y2058545D03*
G01X899182Y2185545D03*
G01X899182Y2312545D03*
G01X899182Y2439545D03*
G01X899182Y2566545D03*
G01X899182Y2693545D03*
G01X899182Y2820545D03*
G01X899182Y2947545D03*
G01X899182Y3074545D03*
G54D18*
G01X-68812Y2340511D03*
G54D19*
G01X693935Y-2148540D03*
G01X693935Y-2378537D03*
G01X693935Y-2608534D03*
G54D20*
G01X1287927Y-2378537D03*
G54D21*
G01X469900Y-1836649D03*
G01X596900Y-1836649D03*
G01X723900Y-1836649D03*
G01X850900Y-1836649D03*
G01X977900Y-1836649D03*
G01X1104900Y-1836649D03*
G01X1231900Y-1836649D03*
G01X1358900Y-1836649D03*
G01X469900Y-1262151D03*
G01X596900Y-1262151D03*
G01X723900Y-1262151D03*
G01X850900Y-1262151D03*
G01X977900Y-1262151D03*
G01X1104900Y-1262151D03*
G01X1231900Y-1262151D03*
G01X1358900Y-1262151D03*
G54D22*
G01X198476Y432965D03*
G01X198476Y307971D03*
G01X198476Y182978D03*
G01X198476Y57959D03*
G01X198476Y-67034D03*
G54D23*
G01X348463Y-217047D03*
G01X473456Y-217047D03*
G01X598475Y-217047D03*
G01X723468Y-217047D03*
G01X848462Y-217047D03*
G54D22*
G01X998474Y-67034D03*
G01X998474Y57959D03*
G01X998474Y182978D03*
G01X998474Y307971D03*
G01X998474Y432965D03*
G54D23*
G01X848462Y582952D03*
G01X723468Y582952D03*
G01X598475Y582952D03*
G01X473456Y582952D03*
G01X348463Y582952D03*
G54D24*
G01X598475Y182952D03*
G54D25*
G01X-683666Y-1354633D03*
G01X-683666Y-1434643D03*
G01X-683666Y-1514653D03*
G01X-456184Y-1514653D03*
G01X-456184Y-1434643D03*
G01X-456184Y-1354633D03*
G54D26*
G01X-569925Y-1434643D03*
G54D27*
G01X-574154Y-7757D03*
G01X-639178Y-7757D03*
G01X-704176Y-7757D03*
G01X-769175Y-7757D03*
G01X-769175Y-259471D03*
G01X-704176Y-259471D03*
G01X-639178Y-259471D03*
G01X-574154Y-259471D03*
G04 Pad End*

M02*

