;TYPE=PLATED
;Layer: PTH_Through
;EasyEDA Pro v3.2.148, 2026-07-26 13:32:23
;Gerber Generator version 0.3
M48
METRIC,LZ,0000.00000
;Hole size 1 = 0.30500 METRIC
T01C0.30500
;Hole size 2 = 1.10002 METRIC
T02C1.10002
%
G05
G90
T01
X6.72444Y-6.24366
X6.72444Y-2.94344
X14.40744Y-6.24455
X21.07544Y-2.94344
T02
X3.82799Y17.631
X3.82799Y20.171
X3.82799Y22.711
X3.82799Y25.251
X3.82799Y27.791
X3.82799Y30.331
X3.82799Y32.871
X2.286Y2.286
X2.286Y4.826
X2.286Y7.366
X2.286Y9.906
X19.18799Y17.631
X19.18799Y20.171
X19.18799Y22.711
X19.18799Y25.251
X19.18799Y27.791
X19.18799Y30.331
X19.18799Y32.871
M30