G04 Layer: BottomSilkscreenLayer*
G04 EasyEDA Pro v3.2.148, 2026-07-26 13:32:23*
G04 Gerber Generator version 0.3*
G04 Scale: 100 percent, Rotated: No, Reflected: No*
G04 Dimensions in millimeters*
G04 Leading zeros omitted, absolute positions, 4 integers and 5 decimals*
G04 Generated by one-click*
G04 Object Configs: Pad,Via,Track,Text,Image,Dimension,BoardOutline,BoardCutout,CopperFilled,SolidRegion,FPCStiffener,Line,PlaneZone,ComponentProperty,ComponentSilkscreen,TearDrop*
G04 Layer Configs: 1,2,3,4,5,6,7,8,9,10,11,13,14,71,72,56*
G04 Copper Areas: 0*
%FSLAX45Y45*%
%MOMM*%
%ADD10C,0.254*%
%ADD11C,0.9962*%
G75*


G04 Image Start*
G36*
G01X1419054Y1170458D02*
G01X1358554Y1098062D01*
G01X1298054Y1025667D01*
G01X998568Y1025719D01*
G01X996781Y1026967D01*
G01X994995Y1028215D01*
G01X935195Y1099822D01*
G01X875395Y1171428D01*
G01X875395Y1235163D01*
G01X992621Y1235163D01*
G01X1008761Y1216645D01*
G01X1050940Y1166677D01*
G01X1147926Y1166770D01*
G01X1244913Y1166862D01*
G01X1273242Y1200323D01*
G01X1301572Y1233785D01*
G01X1301699Y1365692D01*
G01X1301827Y1497599D01*
G01X1294520Y1505853D01*
G01X1287212Y1514106D01*
G01X1243667Y1565924D01*
G01X1147451Y1565830D01*
G01X1051235Y1565737D01*
G01X1021928Y1530894D01*
G01X992621Y1496051D01*
G01X992621Y1423214D01*
G01X1104796Y1423214D01*
G01X1103901Y1308537D01*
G01X996869Y1307777D01*
G01X992621Y1307688D01*
G01X992621Y1235163D01*
G01X992621Y1235163D01*
G01X875395Y1235163D01*
G01X875395Y1307642D01*
G01X762416Y1308537D01*
G01X761521Y1423214D01*
G01X875395Y1423214D01*
G01X875395Y1560229D01*
G01X935864Y1632732D01*
G01X996334Y1705235D01*
G01X1147806Y1705183D01*
G01X1299279Y1705131D01*
G01X1359100Y1633404D01*
G01X1418922Y1561676D01*
G01X1418988Y1366067D01*
G01X1419054Y1170458D01*
G37*
G36*
G01X1419079Y1847944D02*
G01X875395Y1847944D01*
G01X875395Y1982159D01*
G01X1274830Y1982159D01*
G01X1273795Y1997715D01*
G01X1117050Y2082839D01*
G01X960304Y2167963D01*
G01X960748Y2237721D01*
G01X961191Y2307480D01*
G01X1117861Y2392437D01*
G01X1274532Y2477395D01*
G01X1274588Y2485465D01*
G01X1274644Y2493534D01*
G01X875395Y2493534D01*
G01X875395Y2627749D01*
G01X1419054Y2627749D01*
G01X1419054Y2415783D01*
G01X1264378Y2332023D01*
G01X1109702Y2248263D01*
G01X1110200Y2238331D01*
G01X1110697Y2228398D01*
G01X1264451Y2145520D01*
G01X1418204Y2062641D01*
G01X1418642Y1955293D01*
G01X1419079Y1847944D01*
G37*
G36*
G01X918718Y204238D02*
G01X875395Y203200D01*
G01X875395Y335584D01*
G01X929768Y364870D01*
G01X984142Y394156D01*
G01X983708Y575702D01*
G01X1101309Y575702D01*
G01X1101756Y516436D01*
G01X1102203Y457170D01*
G01X1303526Y565959D01*
G01X1303466Y584797D01*
G01X1102203Y692613D01*
G01X1101756Y634157D01*
G01X1101309Y575702D01*
G01X1101309Y575702D01*
G01X983708Y575702D01*
G01X983277Y755850D01*
G01X929342Y785001D01*
G01X875407Y814151D01*
G01X875401Y881683D01*
G01X875395Y949215D01*
G01X918776Y949215D01*
G01X1168490Y809139D01*
G01X1418204Y669063D01*
G01X1418643Y576651D01*
G01X1419082Y484238D01*
G01X1168900Y344238D01*
G01X918718Y204238D01*
G37*
G36*
G01X1216456Y2870799D02*
G01X1104751Y2870695D01*
G01X1104751Y3472113D01*
G01X1120041Y3472113D01*
G01X1120041Y2885985D01*
G01X1120041Y2885985D01*
G01X1318621Y2885985D01*
G01X1359069Y2933903D01*
G01X1399516Y2981822D01*
G01X1410966Y2995489D01*
G01X1422417Y3009157D01*
G01X1422451Y3312313D01*
G01X1456484Y3353188D01*
G01X1517236Y3353188D01*
G01X1534403Y3332929D01*
G01X1551570Y3312669D01*
G01X1551570Y2911469D01*
G01X1646711Y2911469D01*
G01X1646672Y3143796D01*
G01X1646633Y3376124D01*
G01X1605473Y3425811D01*
G01X1564312Y3475497D01*
G01X1487647Y3475504D01*
G01X1410981Y3475511D01*
G01X1369146Y3425873D01*
G01X1327311Y3376236D01*
G01X1327311Y3066596D01*
G01X1303951Y3037541D01*
G01X1280591Y3008486D01*
G01X1248736Y3008397D01*
G01X1216881Y3008308D01*
G01X1216881Y3472113D01*
G01X1120041Y3472113D01*
G01X1104751Y3472113D01*
G01X1104751Y3487403D01*
G01X1232171Y3487403D01*
G01X1232171Y3025502D01*
G01X1251985Y3024975D01*
G01X1271798Y3024447D01*
G01X1282967Y3038039D01*
G01X1297494Y3055862D01*
G01X1312021Y3073685D01*
G01X1312021Y3383949D01*
G01X1357467Y3438180D01*
G01X1402914Y3492411D01*
G01X1487308Y3492456D01*
G01X1571703Y3492500D01*
G01X1617701Y3437251D01*
G01X1663700Y3382003D01*
G01X1663700Y2896179D01*
G01X1536280Y2896179D01*
G01X1536280Y3304956D01*
G01X1522446Y3321427D01*
G01X1508611Y3337898D01*
G01X1465145Y3337898D01*
G01X1452293Y3322187D01*
G01X1439441Y3306476D01*
G01X1439441Y3003808D01*
G01X1427124Y2989087D01*
G01X1414806Y2974367D01*
G01X1371483Y2922636D01*
G01X1328161Y2870904D01*
G01X1216456Y2870799D01*
G37*
G36*
G01X607966Y-313755D02*
G01X610463Y-313755D01*
G01X610463Y-317500D01*
G01X586128Y-317500D01*
G01X584562Y-316139D01*
G01X582997Y-314778D01*
G01X582997Y-311258D01*
G01X580500Y-311258D01*
G01X580500Y-308761D01*
G01X578588Y-308761D01*
G01X577803Y-306577D01*
G01X576655Y-305460D01*
G01X575506Y-304343D01*
G01X575506Y-301271D01*
G01X573595Y-301271D01*
G01X572810Y-299086D01*
G01X571661Y-297970D01*
G01X570513Y-296853D01*
G01X570513Y-294081D01*
G01X568016Y-292522D01*
G01X568016Y-288787D01*
G01X565519Y-288787D01*
G01X565519Y-286591D01*
G01X563022Y-285031D01*
G01X563022Y-281297D01*
G01X561110Y-281297D01*
G01X560703Y-280204D01*
G01X560295Y-279112D01*
G01X559162Y-278296D01*
G01X558028Y-277481D01*
G01X558028Y-273952D01*
G01X556780Y-273626D01*
G01X555531Y-273299D01*
G01X555531Y-268813D01*
G01X553035Y-268813D01*
G01X553035Y-266616D01*
G01X550538Y-265057D01*
G01X550538Y-261623D01*
G01X548041Y-260064D01*
G01X548041Y-256475D01*
G01X546792Y-256148D01*
G01X545544Y-255822D01*
G01X545544Y-251335D01*
G01X543047Y-251335D01*
G01X543047Y-249139D01*
G01X540550Y-247580D01*
G01X540550Y-244145D01*
G01X538053Y-242586D01*
G01X538053Y-238997D01*
G01X536805Y-238671D01*
G01X535556Y-238344D01*
G01X535556Y-234004D01*
G01X534308Y-233677D01*
G01X533060Y-233351D01*
G01X533060Y-229010D01*
G01X531811Y-228684D01*
G01X530563Y-228357D01*
G01X530563Y-224016D01*
G01X529314Y-223690D01*
G01X528066Y-223363D01*
G01X528066Y-219023D01*
G01X526817Y-218696D01*
G01X525569Y-218370D01*
G01X525569Y-214029D01*
G01X524320Y-213703D01*
G01X523072Y-213376D01*
G01X523072Y-209036D01*
G01X521824Y-208709D01*
G01X520575Y-208383D01*
G01X520575Y-204042D01*
G01X519327Y-203716D01*
G01X518078Y-203389D01*
G01X518078Y-199049D01*
G01X516830Y-198722D01*
G01X515581Y-198396D01*
G01X515581Y-194055D01*
G01X514333Y-193729D01*
G01X513085Y-193402D01*
G01X513085Y-189216D01*
G01X510588Y-187657D01*
G01X510588Y-184223D01*
G01X508091Y-182663D01*
G01X508091Y-179206D01*
G01X506842Y-178137D01*
G01X505594Y-177068D01*
G01X505594Y-171584D01*
G01X504346Y-171258D01*
G01X503097Y-170931D01*
G01X503097Y-166745D01*
G01X500600Y-165186D01*
G01X500600Y-161752D01*
G01X498103Y-160192D01*
G01X498103Y-154107D01*
G01X496855Y-153780D01*
G01X495606Y-153454D01*
G01X495606Y-149268D01*
G01X493110Y-147709D01*
G01X493110Y-141623D01*
G01X491861Y-141296D01*
G01X490613Y-140970D01*
G01X490613Y-136784D01*
G01X488116Y-135225D01*
G01X488116Y-129139D01*
G01X486867Y-128812D01*
G01X485619Y-128486D01*
G01X485619Y-121649D01*
G01X484371Y-121322D01*
G01X483122Y-120996D01*
G01X483122Y-116810D01*
G01X480625Y-115250D01*
G01X480625Y-109165D01*
G01X479377Y-108838D01*
G01X478128Y-108512D01*
G01X478128Y-101674D01*
G01X476880Y-101348D01*
G01X475631Y-101021D01*
G01X475631Y-94184D01*
G01X474383Y-93858D01*
G01X473135Y-93531D01*
G01X473135Y-86694D01*
G01X471886Y-86367D01*
G01X470638Y-86041D01*
G01X470638Y-79203D01*
G01X469389Y-78877D01*
G01X468141Y-78550D01*
G01X468141Y-71713D01*
G01X466892Y-71387D01*
G01X465644Y-71060D01*
G01X465644Y-64223D01*
G01X464396Y-63896D01*
G01X463147Y-63570D01*
G01X463147Y-56887D01*
G01X460650Y-55328D01*
G01X460650Y-46745D01*
G01X459402Y-46419D01*
G01X458153Y-46092D01*
G01X456905Y-46419D01*
G01X455657Y-46745D01*
G01X455657Y-49707D01*
G01X441550Y-64077D01*
G01X438178Y-64077D01*
G01X438178Y-66574D01*
G01X435682Y-66574D01*
G01X435682Y-69071D01*
G01X433485Y-69071D01*
G01X431926Y-71567D01*
G01X428191Y-71567D01*
G01X428191Y-74064D01*
G01X425994Y-74064D01*
G01X424435Y-76561D01*
G01X420700Y-76561D01*
G01X420700Y-78473D01*
G01X419608Y-78880D01*
G01X418516Y-79288D01*
G01X417700Y-80421D01*
G01X416884Y-81554D01*
G01X413510Y-81554D01*
G01X411951Y-84051D01*
G01X408516Y-84051D01*
G01X406957Y-86548D01*
G01X403523Y-86548D01*
G01X401963Y-89045D01*
G01X398529Y-89045D01*
G01X396969Y-91542D01*
G01X393535Y-91542D01*
G01X391976Y-94038D01*
G01X385890Y-94038D01*
G01X385563Y-95287D01*
G01X385237Y-96535D01*
G01X381051Y-96535D01*
G01X379491Y-99032D01*
G01X373405Y-99032D01*
G01X373079Y-100280D01*
G01X372752Y-101529D01*
G01X368566Y-101529D01*
G01X367007Y-104025D01*
G01X360921Y-104025D01*
G01X360595Y-105274D01*
G01X360268Y-106522D01*
G01X353430Y-106522D01*
G01X353104Y-107771D01*
G01X352777Y-109019D01*
G01X345940Y-109019D01*
G01X345613Y-110267D01*
G01X345287Y-111516D01*
G01X338604Y-111516D01*
G01X337045Y-114013D01*
G01X331090Y-114013D01*
G01X330021Y-115261D01*
G01X328953Y-116509D01*
G01X320971Y-116509D01*
G01X320645Y-117758D01*
G01X320318Y-119006D01*
G01X313612Y-119006D01*
G01X312543Y-120255D01*
G01X311474Y-121503D01*
G01X303625Y-121503D01*
G01X302556Y-122751D01*
G01X301487Y-124000D01*
G01X293637Y-124000D01*
G01X292568Y-125248D01*
G01X291499Y-126496D01*
G01X281021Y-126496D01*
G01X280695Y-127745D01*
G01X280368Y-128993D01*
G01X268537Y-128993D01*
G01X268210Y-130242D01*
G01X267884Y-131490D01*
G01X256184Y-131490D01*
G01X255115Y-132738D01*
G01X254046Y-133987D01*
G01X238706Y-133987D01*
G01X237637Y-135235D01*
G01X236568Y-136484D01*
G01X167278Y-136484D01*
G01X165719Y-133987D01*
G01X154794Y-133987D01*
G01X153235Y-131490D01*
G01X145408Y-131490D01*
G01X144339Y-130242D01*
G01X143270Y-128993D01*
G01X139061Y-128993D01*
G01X138735Y-127745D01*
G01X138408Y-126496D01*
G01X132924Y-126496D01*
G01X131855Y-125248D01*
G01X130786Y-124000D01*
G01X127991Y-124000D01*
G01X126874Y-122851D01*
G01X125757Y-121703D01*
G01X123573Y-120918D01*
G01X123573Y-119006D01*
G01X120500Y-119006D01*
G01X119383Y-117858D01*
G01X118267Y-116709D01*
G01X116082Y-115924D01*
G01X116082Y-118729D01*
G01X117330Y-119798D01*
G01X118579Y-120866D01*
G01X118579Y-141200D01*
G01X119827Y-142269D01*
G01X121076Y-143337D01*
G01X121076Y-158677D01*
G01X122324Y-159746D01*
G01X123573Y-160815D01*
G01X123573Y-173790D01*
G01X124821Y-174116D01*
G01X126069Y-174443D01*
G01X126069Y-186274D01*
G01X127318Y-186600D01*
G01X128566Y-186926D01*
G01X128566Y-196106D01*
G01X131063Y-197665D01*
G01X131063Y-206093D01*
G01X133560Y-207652D01*
G01X133560Y-216235D01*
G01X134809Y-216561D01*
G01X136057Y-216888D01*
G01X136057Y-223571D01*
G01X138554Y-225130D01*
G01X138554Y-231061D01*
G01X141051Y-232620D01*
G01X141051Y-238551D01*
G01X143548Y-240110D01*
G01X143548Y-246042D01*
G01X146044Y-247601D01*
G01X146044Y-253687D01*
G01X147293Y-254013D01*
G01X148541Y-254339D01*
G01X148541Y-258525D01*
G01X151038Y-260085D01*
G01X151038Y-266170D01*
G01X152287Y-266497D01*
G01X153535Y-266823D01*
G01X153535Y-271164D01*
G01X154783Y-271490D01*
G01X156032Y-271817D01*
G01X156032Y-276003D01*
G01X158529Y-277562D01*
G01X158529Y-280996D01*
G01X161026Y-282556D01*
G01X161026Y-286145D01*
G01X162274Y-286471D01*
G01X163523Y-286798D01*
G01X163523Y-291284D01*
G01X166019Y-291284D01*
G01X166019Y-293480D01*
G01X168516Y-295040D01*
G01X168516Y-298774D01*
G01X171013Y-298774D01*
G01X171013Y-300971D01*
G01X173510Y-302530D01*
G01X173510Y-306264D01*
G01X176007Y-306264D01*
G01X176007Y-308761D01*
G01X177919Y-308761D01*
G01X178326Y-309854D01*
G01X178734Y-310946D01*
G01X179867Y-311762D01*
G01X181001Y-312577D01*
G01X181001Y-317500D01*
G01X158529Y-317500D01*
G01X158529Y-316252D01*
G01X156032Y-316252D01*
G01X156032Y-313755D01*
G01X153535Y-313755D01*
G01X153535Y-308761D01*
G01X151038Y-308761D01*
G01X151038Y-306264D01*
G01X148541Y-306264D01*
G01X148541Y-301271D01*
G01X146044Y-301271D01*
G01X146044Y-296277D01*
G01X143548Y-296277D01*
G01X143548Y-293781D01*
G01X141051Y-293781D01*
G01X141051Y-288787D01*
G01X138554Y-288787D01*
G01X138554Y-283939D01*
G01X137305Y-283613D01*
G01X136057Y-283286D01*
G01X136057Y-276303D01*
G01X133560Y-276303D01*
G01X133560Y-271310D01*
G01X131063Y-271310D01*
G01X131063Y-263819D01*
G01X128566Y-263819D01*
G01X128566Y-258826D01*
G01X126069Y-258826D01*
G01X126069Y-251335D01*
G01X123573Y-251335D01*
G01X123573Y-243845D01*
G01X121076Y-243845D01*
G01X121076Y-236355D01*
G01X118579Y-236355D01*
G01X118579Y-228864D01*
G01X116082Y-228864D01*
G01X116082Y-221520D01*
G01X114834Y-221193D01*
G01X113585Y-220867D01*
G01X113585Y-211387D01*
G01X111088Y-211387D01*
G01X111088Y-201545D01*
G01X109840Y-201219D01*
G01X108591Y-200892D01*
G01X108591Y-188916D01*
G01X106094Y-188916D01*
G01X106094Y-176432D01*
G01X103598Y-176432D01*
G01X103598Y-161451D01*
G01X101101Y-161451D01*
G01X101101Y-143974D01*
G01X98604Y-143974D01*
G01X98604Y-119006D01*
G01X96107Y-119006D01*
G01X96107Y-74342D01*
G01X118579Y-74342D01*
G01X118579Y-86248D01*
G01X121076Y-87807D01*
G01X121076Y-91542D01*
G01X122988Y-91542D01*
G01X123358Y-92506D01*
G01X123728Y-93471D01*
G01X126431Y-96174D01*
G01X129134Y-98877D01*
G01X130098Y-99247D01*
G01X131063Y-99617D01*
G01X131063Y-101529D01*
G01X133560Y-101529D01*
G01X133560Y-104025D01*
G01X138046Y-104025D01*
G01X138373Y-105274D01*
G01X138699Y-106522D01*
G01X143040Y-106522D01*
G01X143367Y-107771D01*
G01X143693Y-109019D01*
G01X149178Y-109019D01*
G01X150247Y-110267D01*
G01X151316Y-111516D01*
G01X156668Y-111516D01*
G01X157737Y-112764D01*
G01X158806Y-114013D01*
G01X167257Y-114013D01*
G01X168817Y-116509D01*
G01X191625Y-116509D01*
G01X192693Y-117758D01*
G01X193762Y-119006D01*
G01X193762Y-119006D01*
G01X205692Y-119006D01*
G01X206761Y-117758D01*
G01X207830Y-116509D01*
G01X235631Y-116509D01*
G01X237191Y-114013D01*
G01X253264Y-114013D01*
G01X253591Y-112764D01*
G01X253917Y-111516D01*
G01X265594Y-111516D01*
G01X267153Y-109019D01*
G01X278233Y-109019D01*
G01X278559Y-107771D01*
G01X278886Y-106522D01*
G01X288066Y-106522D01*
G01X289625Y-104025D01*
G01X298053Y-104025D01*
G01X299613Y-101529D01*
G01X308195Y-101529D01*
G01X308522Y-100280D01*
G01X308848Y-99032D01*
G01X315554Y-99032D01*
G01X316623Y-97784D01*
G01X317692Y-96535D01*
G01X325674Y-96535D01*
G01X326000Y-95287D01*
G01X326327Y-94038D01*
G01X333009Y-94038D01*
G01X334569Y-91542D01*
G01X340500Y-91542D01*
G01X342059Y-89045D01*
G01X347991Y-89045D01*
G01X349550Y-86548D01*
G01X355481Y-86548D01*
G01X357041Y-84051D01*
G01X363127Y-84051D01*
G01X363453Y-82803D01*
G01X363780Y-81554D01*
G01X367966Y-81554D01*
G01X369525Y-79058D01*
G01X375611Y-79058D01*
G01X375937Y-77809D01*
G01X376264Y-76561D01*
G01X380450Y-76561D01*
G01X382009Y-74064D01*
G01X385444Y-74064D01*
G01X387003Y-71567D01*
G01X390438Y-71567D01*
G01X391997Y-69071D01*
G01X395431Y-69071D01*
G01X396991Y-66574D01*
G01X400425Y-66574D01*
G01X401984Y-64077D01*
G01X405419Y-64077D01*
G01X406978Y-61580D01*
G01X410713Y-61580D01*
G01X410713Y-59083D01*
G01X412909Y-59083D01*
G01X414469Y-56587D01*
G01X418203Y-56587D01*
G01X418203Y-54090D01*
G01X419974Y-54090D01*
G01X425172Y-49096D01*
G01X428191Y-49096D01*
G01X428191Y-46600D01*
G01X430688Y-46600D01*
G01X430688Y-44103D01*
G01X433185Y-44103D01*
G01X433185Y-41606D01*
G01X435682Y-41606D01*
G01X435682Y-39109D01*
G01X438178Y-39109D01*
G01X438178Y-36037D01*
G01X439327Y-34920D01*
G01X440475Y-33804D01*
G01X441260Y-31619D01*
G01X443172Y-31619D01*
G01X443172Y-28486D01*
G01X444421Y-27417D01*
G01X445669Y-26348D01*
G01X445669Y-22891D01*
G01X448166Y-21331D01*
G01X448166Y-11008D01*
G01X449414Y-9939D01*
G01X450663Y-8870D01*
G01X450663Y-4455D01*
G01X448166Y-2895D01*
G01X448166Y10681D01*
G01X446917Y11007D01*
G01X445669Y11334D01*
G01X445669Y15520D01*
G01X443172Y17079D01*
G01X443172Y20513D01*
G01X440675Y22072D01*
G01X440675Y25807D01*
G01X438763Y25807D01*
G01X438356Y26899D01*
G01X437949Y27992D01*
G01X436815Y28807D01*
G01X435682Y29623D01*
G01X435682Y33297D01*
G01X433185Y33297D01*
G01X433185Y35794D01*
G01X430688Y35794D01*
G01X430688Y38291D01*
G01X428191Y38291D01*
G01X428191Y40788D01*
G01X425118Y40788D01*
G01X424002Y41936D01*
G01X422885Y43085D01*
G01X420700Y43869D01*
G01X420700Y45781D01*
G01X417567Y45781D01*
G01X416498Y47030D01*
G01X415429Y48278D01*
G01X412573Y48278D01*
G01X411504Y49526D01*
G01X410435Y50775D01*
G01X407580Y50775D01*
G01X406511Y52023D01*
G01X405442Y53272D01*
G01X399487Y53272D01*
G01X397928Y55768D01*
G01X396009Y55768D01*
G01X394940Y54520D01*
G01X393871Y53272D01*
G01X388241Y53272D01*
G01X388241Y48785D01*
G01X386993Y48459D01*
G01X385744Y48132D01*
G01X385744Y41295D01*
G01X384496Y40969D01*
G01X383247Y40642D01*
G01X383239Y38686D01*
G01X383230Y36730D01*
G01X382477Y33922D01*
G01X380750Y33922D01*
G01X380750Y29623D01*
G01X379586Y28807D01*
G01X378421Y27992D01*
G01X377976Y25963D01*
G01X377530Y23934D01*
G01X375757Y23934D01*
G01X375757Y20813D01*
G01X373260Y20813D01*
G01X373260Y17139D01*
G01X372126Y16323D01*
G01X370993Y15508D01*
G01X370585Y14415D01*
G01X370178Y13323D01*
G01X368266Y13323D01*
G01X368266Y11334D01*
G01X367018Y11007D01*
G01X365769Y10681D01*
G01X365769Y8837D01*
G01X364521Y8510D01*
G01X363272Y8184D01*
G01X363272Y6418D01*
G01X362180Y6010D01*
G01X361088Y5603D01*
G01X360272Y4469D01*
G01X359456Y3336D01*
G01X355782Y3336D01*
G01X355782Y839D01*
G01X353585Y839D01*
G01X352026Y-1658D01*
G01X337305Y-1658D01*
G01X335807Y-159D01*
G01X335807Y3190D01*
G01X334558Y3517D01*
G01X333310Y3843D01*
G01X333310Y15674D01*
G01X332061Y16001D01*
G01X330813Y16327D01*
G01X330813Y28304D01*
G01X325965Y28304D01*
G01X325638Y27055D01*
G01X325312Y25807D01*
G01X321126Y25807D01*
G01X319566Y23310D01*
G01X313480Y23310D01*
G01X313154Y22062D01*
G01X312827Y20813D01*
G01X308487Y20813D01*
G01X308160Y19565D01*
G01X307834Y18317D01*
G01X305844Y18317D01*
G01X305844Y11334D01*
G01X304596Y11007D01*
G01X303347Y10681D01*
G01X303339Y8725D01*
G01X303330Y6769D01*
G01X302577Y3960D01*
G01X300850Y3960D01*
G01X300850Y-338D01*
G01X299686Y-1154D01*
G01X298521Y-1970D01*
G01X298076Y-3998D01*
G01X297630Y-6027D01*
G01X295857Y-6027D01*
G01X295857Y-9148D01*
G01X293360Y-9148D01*
G01X293360Y-12822D01*
G01X292226Y-13638D01*
G01X291093Y-14454D01*
G01X290685Y-15546D01*
G01X290278Y-16638D01*
G01X288366Y-16638D01*
G01X288366Y-18628D01*
G01X287118Y-18954D01*
G01X285869Y-19281D01*
G01X285869Y-21124D01*
G01X284621Y-21451D01*
G01X283372Y-21777D01*
G01X283372Y-23544D01*
G01X282280Y-23951D01*
G01X281188Y-24358D01*
G01X280372Y-25492D01*
G01X279556Y-26625D01*
G01X275882Y-26625D01*
G01X275882Y-29122D01*
G01X273685Y-29122D01*
G01X272126Y-31619D01*
G01X257405Y-31619D01*
G01X255907Y-30121D01*
G01X255907Y-26771D01*
G01X254658Y-26444D01*
G01X253410Y-26118D01*
G01X253410Y-14287D01*
G01X252161Y-13961D01*
G01X250913Y-13634D01*
G01X250913Y-4154D01*
G01X246065Y-4154D01*
G01X245738Y-5403D01*
G01X245412Y-6651D01*
G01X241226Y-6651D01*
G01X239667Y-9148D01*
G01X233581Y-9148D01*
G01X233254Y-10396D01*
G01X232928Y-11645D01*
G01X228742Y-11645D01*
G01X227182Y-14141D01*
G01X221096Y-14141D01*
G01X220770Y-15390D01*
G01X220443Y-16638D01*
G01X215957Y-16638D01*
G01X215957Y-20313D01*
G01X214792Y-21128D01*
G01X213628Y-21944D01*
G01X213182Y-23972D01*
G01X212737Y-26001D01*
G01X210963Y-26001D01*
G01X210963Y-29122D01*
G01X208466Y-29122D01*
G01X208466Y-32796D01*
G01X207333Y-33612D01*
G01X206199Y-34428D01*
G01X205792Y-35520D01*
G01X205384Y-36612D01*
G01X203618Y-36612D01*
G01X203292Y-37861D01*
G01X202965Y-39109D01*
G01X201121Y-39109D01*
G01X200795Y-40358D01*
G01X200468Y-41606D01*
G01X198479Y-41606D01*
G01X198479Y-43518D01*
G01X197386Y-43925D01*
G01X196294Y-44333D01*
G01X195478Y-45466D01*
G01X194663Y-46600D01*
G01X190988Y-46600D01*
G01X190988Y-49096D01*
G01X188792Y-49096D01*
G01X187232Y-51593D01*
G01X172511Y-51593D01*
G01X171013Y-50095D01*
G01X171013Y-46745D01*
G01X169765Y-46419D01*
G01X168516Y-46092D01*
G01X168516Y-34261D01*
G01X167268Y-33935D01*
G01X166019Y-33608D01*
G01X166019Y-24129D01*
G01X163523Y-24129D01*
G01X163523Y-26625D01*
G01X161611Y-26625D01*
G01X159315Y-29122D01*
G01X157020Y-31619D01*
G01X153535Y-31619D01*
G01X153535Y-34116D01*
G01X151038Y-34116D01*
G01X151038Y-36027D01*
G01X150118Y-36381D01*
G01X149198Y-36734D01*
G01X145409Y-40418D01*
G01X141619Y-44103D01*
G01X138554Y-44103D01*
G01X138554Y-46600D01*
G01X136057Y-46600D01*
G01X136057Y-49096D01*
G01X133560Y-49096D01*
G01X133560Y-52115D01*
G01X131142Y-54632D01*
G01X128724Y-57149D01*
G01X128352Y-58116D01*
G01X127981Y-59083D01*
G01X126069Y-59083D01*
G01X126069Y-62217D01*
G01X124821Y-63286D01*
G01X123573Y-64354D01*
G01X123573Y-66574D01*
G01X121076Y-66574D01*
G01X121076Y-72204D01*
G01X119827Y-73273D01*
G01X118579Y-74342D01*
G01X96107Y-74342D01*
G01X96107Y-69071D01*
G01X98604Y-69071D01*
G01X98604Y-66574D01*
G01X101101Y-66574D01*
G01X101101Y-61580D01*
G01X103598Y-61580D01*
G01X103598Y-56587D01*
G01X106094Y-56587D01*
G01X106094Y-51593D01*
G01X108591Y-51593D01*
G01X108591Y-47107D01*
G01X109840Y-46780D01*
G01X111088Y-46454D01*
G01X111088Y-44103D01*
G01X113585Y-44103D01*
G01X113585Y-41606D01*
G01X116082Y-41606D01*
G01X116082Y-39109D01*
G01X118579Y-39109D01*
G01X118579Y-36612D01*
G01X121076Y-36612D01*
G01X121076Y-32126D01*
G01X122266Y-31815D01*
G01X123457Y-31503D01*
G01X123769Y-30313D01*
G01X124080Y-29122D01*
G01X128566Y-29122D01*
G01X128566Y-26625D01*
G01X131063Y-26625D01*
G01X131063Y-24129D01*
G01X133560Y-24129D01*
G01X133560Y-21632D01*
G01X136057Y-21632D01*
G01X136057Y-19135D01*
G01X138554Y-19135D01*
G01X138554Y-16638D01*
G01X143548Y-16638D01*
G01X143548Y-14141D01*
G01X146044Y-14141D01*
G01X146044Y-11645D01*
G01X148541Y-11645D01*
G01X148541Y-9148D01*
G01X153535Y-9148D01*
G01X153535Y-6651D01*
G01X143548Y-6651D01*
G01X143548Y-4154D01*
G01X138554Y-4154D01*
G01X138554Y-1658D01*
G01X134067Y-1658D01*
G01X133741Y-409D01*
G01X133414Y839D01*
G01X131063Y839D01*
G01X131063Y5833D01*
G01X128566Y5833D01*
G01X128566Y8330D01*
G01X126069Y8330D01*
G01X126069Y15820D01*
G01X123573Y15820D01*
G01X123573Y30801D01*
G01X143548Y30801D01*
G01X143548Y21114D01*
G01X146044Y19555D01*
G01X146044Y15820D01*
G01X148541Y15820D01*
G01X148541Y13323D01*
G01X155886Y13323D01*
G01X156213Y14572D01*
G01X156539Y15820D01*
G01X168009Y15820D01*
G01X168335Y14572D01*
G01X168662Y13323D01*
G01X173003Y13323D01*
G01X173329Y12075D01*
G01X173656Y10826D01*
G01X175422Y10826D01*
G01X175829Y9734D01*
G01X176237Y8642D01*
G01X177370Y7826D01*
G01X178504Y7010D01*
G01X178504Y3636D01*
G01X181001Y2077D01*
G01X181001Y-3854D01*
G01X183498Y-5413D01*
G01X183498Y-16493D01*
G01X184746Y-16819D01*
G01X185994Y-17146D01*
G01X185994Y-17146D01*
G01X185994Y-24636D01*
G01X187243Y-24309D01*
G01X188491Y-23983D01*
G01X188491Y-22139D01*
G01X189740Y-21813D01*
G01X190988Y-21486D01*
G01X190988Y-19135D01*
G01X193485Y-19135D01*
G01X193485Y-15461D01*
G01X194650Y-14645D01*
G01X195814Y-13829D01*
G01X196260Y-11801D01*
G01X196705Y-9772D01*
G01X198479Y-9772D01*
G01X198479Y-4662D01*
G01X199727Y-4335D01*
G01X200976Y-4009D01*
G01X200984Y-2053D01*
G01X200993Y-97D01*
G01X201745Y2712D01*
G01X203472Y2712D01*
G01X203472Y12064D01*
G01X205969Y13623D01*
G01X205969Y16444D01*
G01X204242Y16444D01*
G01X203490Y19253D01*
G01X203481Y22380D01*
G01X203472Y25507D01*
G01X200976Y27066D01*
G01X200976Y30801D01*
G01X199064Y30801D01*
G01X198681Y31799D01*
G01X198297Y32798D01*
G01X196890Y34205D01*
G01X195482Y35613D01*
G01X194484Y35996D01*
G01X193485Y36379D01*
G01X193485Y38291D01*
G01X190988Y38291D01*
G01X190988Y40788D01*
G01X186502Y40788D01*
G01X186175Y42036D01*
G01X185849Y43284D01*
G01X179011Y43284D01*
G01X178685Y44533D01*
G01X178358Y45781D01*
G01X166165Y45781D01*
G01X165839Y44533D01*
G01X165512Y43284D01*
G01X158674Y43284D01*
G01X158348Y42036D01*
G01X158021Y40788D01*
G01X153535Y40788D01*
G01X153535Y38291D01*
G01X151761Y38291D01*
G01X148903Y35433D01*
G01X146044Y32575D01*
G01X146044Y30801D01*
G01X143548Y30801D01*
G01X123573Y30801D01*
G01X123573Y35287D01*
G01X124821Y35613D01*
G01X126069Y35940D01*
G01X126069Y40788D01*
G01X128566Y40788D01*
G01X128566Y45781D01*
G01X131063Y45781D01*
G01X131063Y48278D01*
G01X133560Y48278D01*
G01X133560Y50775D01*
G01X136057Y50775D01*
G01X228441Y50775D01*
G01X228441Y41088D01*
G01X230938Y39529D01*
G01X230938Y35794D01*
G01X233435Y35794D01*
G01X233435Y33297D01*
G01X240780Y33297D01*
G01X241106Y34546D01*
G01X241433Y35794D01*
G01X252903Y35794D01*
G01X253229Y34546D01*
G01X253556Y33297D01*
G01X257896Y33297D01*
G01X258223Y32049D01*
G01X258549Y30801D01*
G01X260316Y30801D01*
G01X260723Y29708D01*
G01X261130Y28616D01*
G01X262264Y27800D01*
G01X263397Y26985D01*
G01X263397Y23611D01*
G01X265894Y22051D01*
G01X265894Y16120D01*
G01X268391Y14561D01*
G01X268391Y3482D01*
G01X269640Y3155D01*
G01X269640Y3155D01*
G01X270888Y2829D01*
G01X270888Y-4662D01*
G01X272136Y-4335D01*
G01X273385Y-4009D01*
G01X273385Y-2165D01*
G01X274633Y-1838D01*
G01X275882Y-1512D01*
G01X275882Y839D01*
G01X278379Y839D01*
G01X278379Y4514D01*
G01X279543Y5329D01*
G01X280708Y6145D01*
G01X281153Y8174D01*
G01X281599Y10202D01*
G01X283372Y10202D01*
G01X283372Y15313D01*
G01X284621Y15639D01*
G01X285869Y15966D01*
G01X285878Y17921D01*
G01X285886Y19877D01*
G01X286639Y22686D01*
G01X288366Y22686D01*
G01X288366Y32038D01*
G01X290863Y33598D01*
G01X290863Y36418D01*
G01X289136Y36418D01*
G01X288383Y39227D01*
G01X288375Y42354D01*
G01X288366Y45481D01*
G01X285869Y47040D01*
G01X285869Y50775D01*
G01X283957Y50775D01*
G01X283574Y51773D01*
G01X283191Y52772D01*
G01X281783Y54179D01*
G01X280376Y55587D01*
G01X279377Y55970D01*
G01X278379Y56353D01*
G01X278379Y58265D01*
G01X275882Y58265D01*
G01X275882Y60762D01*
G01X271395Y60762D01*
G01X271069Y62010D01*
G01X270742Y63259D01*
G01X263905Y63259D01*
G01X263578Y64507D01*
G01X263252Y65755D01*
G01X251059Y65755D01*
G01X250732Y64507D01*
G01X250406Y63259D01*
G01X243568Y63259D01*
G01X243242Y62010D01*
G01X242915Y60762D01*
G01X238429Y60762D01*
G01X238429Y58265D01*
G01X236655Y58265D01*
G01X233796Y55407D01*
G01X230938Y52549D01*
G01X230938Y50775D01*
G01X228441Y50775D01*
G01X136057Y50775D01*
G01X136057Y53272D01*
G01X138554Y53272D01*
G01X138554Y55768D01*
G01X143548Y55768D01*
G01X143548Y58265D01*
G01X148541Y58265D01*
G01X148541Y60762D01*
G01X153535Y60762D01*
G01X153535Y63259D01*
G01X163377Y63259D01*
G01X163703Y64507D01*
G01X164030Y65755D01*
G01X180493Y65755D01*
G01X180820Y64507D01*
G01X181146Y63259D01*
G01X190988Y63259D01*
G01X190988Y60762D01*
G01X197971Y60762D01*
G01X198298Y59514D01*
G01X198624Y58265D01*
G01X200976Y58265D01*
G01X200976Y55768D01*
G01X205969Y55768D01*
G01X205969Y53272D01*
G01X208466Y53272D01*
G01X208466Y55261D01*
G01X209715Y55588D01*
G01X210963Y55914D01*
G01X210963Y60762D01*
G01X213460Y60762D01*
G01X213460Y65755D01*
G01X215957Y65755D01*
G01X215957Y68252D01*
G01X218454Y68252D01*
G01X218454Y70749D01*
G01X220951Y70749D01*
G01X220951Y71049D01*
G01X308341Y71049D01*
G01X310838Y69490D01*
G01X310838Y65755D01*
G01X313335Y65755D01*
G01X313335Y63259D01*
G01X320680Y63259D01*
G01X321006Y64507D01*
G01X321333Y65755D01*
G01X332802Y65755D01*
G01X333129Y64507D01*
G01X333455Y63259D01*
G01X337796Y63259D01*
G01X338123Y62010D01*
G01X338449Y60762D01*
G01X340215Y60762D01*
G01X340623Y59670D01*
G01X341030Y58577D01*
G01X342164Y57762D01*
G01X343297Y56946D01*
G01X343297Y53572D01*
G01X345794Y52013D01*
G01X345794Y46082D01*
G01X348291Y44522D01*
G01X348291Y33443D01*
G01X349539Y33117D01*
G01X349539Y33117D01*
G01X350788Y32790D01*
G01X350788Y25300D01*
G01X352036Y25626D01*
G01X353285Y25953D01*
G01X353285Y27796D01*
G01X354533Y28123D01*
G01X355782Y28449D01*
G01X355782Y30801D01*
G01X358279Y30801D01*
G01X358279Y34475D01*
G01X359443Y35291D01*
G01X360608Y36106D01*
G01X361053Y38135D01*
G01X361499Y40164D01*
G01X363272Y40164D01*
G01X363272Y45274D01*
G01X364521Y45600D01*
G01X365769Y45927D01*
G01X365778Y47883D01*
G01X365786Y49839D01*
G01X366539Y52647D01*
G01X368266Y52647D01*
G01X368266Y62000D01*
G01X370763Y63559D01*
G01X370763Y66380D01*
G01X369036Y66380D01*
G01X368283Y69189D01*
G01X368275Y72315D01*
G01X368266Y75442D01*
G01X365769Y77002D01*
G01X365769Y80736D01*
G01X363857Y80736D01*
G01X363474Y81735D01*
G01X363091Y82733D01*
G01X361683Y84141D01*
G01X360276Y85548D01*
G01X359277Y85932D01*
G01X358279Y86315D01*
G01X358279Y88226D01*
G01X355782Y88226D01*
G01X355782Y90723D01*
G01X351295Y90723D01*
G01X350969Y91972D01*
G01X350642Y93220D01*
G01X343805Y93220D01*
G01X343478Y94468D01*
G01X343152Y95717D01*
G01X330959Y95717D01*
G01X330632Y94468D01*
G01X330306Y93220D01*
G01X323468Y93220D01*
G01X323141Y91972D01*
G01X322815Y90723D01*
G01X318329Y90723D01*
G01X318329Y88226D01*
G01X316554Y88226D01*
G01X313696Y85368D01*
G01X310838Y82510D01*
G01X310838Y80736D01*
G01X308341Y80736D01*
G01X308341Y71049D01*
G01X220951Y71049D01*
G01X220951Y73246D01*
G01X223447Y73246D01*
G01X223447Y75743D01*
G01X228441Y75743D01*
G01X228441Y78239D01*
G01X233435Y78239D01*
G01X233435Y80736D01*
G01X238429Y80736D01*
G01X238429Y83233D01*
G01X248271Y83233D01*
G01X248597Y84481D01*
G01X248924Y85730D01*
G01X265387Y85730D01*
G01X265713Y84481D01*
G01X266040Y83233D01*
G01X275882Y83233D01*
G01X275882Y80736D01*
G01X282865Y80736D01*
G01X283192Y79488D01*
G01X283518Y78239D01*
G01X285869Y78239D01*
G01X285869Y75743D01*
G01X288366Y75743D01*
G01X288366Y85222D01*
G01X289615Y85549D01*
G01X290863Y85875D01*
G01X290863Y90723D01*
G01X293360Y90723D01*
G01X293360Y95717D01*
G01X295857Y95717D01*
G01X295857Y98214D01*
G01X298354Y98214D01*
G01X298354Y100710D01*
G01X300850Y100710D01*
G01X300850Y103207D01*
G01X303347Y103207D01*
G01X303347Y105704D01*
G01X308341Y105704D01*
G01X308341Y108201D01*
G01X313335Y108201D01*
G01X313335Y110697D01*
G01X318329Y110697D01*
G01X318329Y113194D01*
G01X328170Y113194D01*
G01X328497Y114443D01*
G01X328823Y115691D01*
G01X345287Y115691D01*
G01X345613Y114443D01*
G01X345940Y113194D01*
G01X355782Y113194D01*
G01X355782Y110697D01*
G01X362765Y110697D01*
G01X363091Y109449D01*
G01X363418Y108201D01*
G01X365769Y108201D01*
G01X365769Y105704D01*
G01X370763Y105704D01*
G01X370763Y103207D01*
G01X373260Y103207D01*
G01X373260Y100710D01*
G01X375757Y100710D01*
G01X375757Y98214D01*
G01X378253Y98214D01*
G01X378253Y95717D01*
G01X380750Y95717D01*
G01X380750Y90723D01*
G01X383247Y90723D01*
G01X383247Y88226D01*
G01X385744Y88226D01*
G01X385744Y80736D01*
G01X388241Y80736D01*
G01X388241Y75743D01*
G01X393235Y75743D01*
G01X393235Y78239D01*
G01X398228Y78239D01*
G01X398228Y80736D01*
G01X405719Y80736D01*
G01X405719Y83233D01*
G01X410713Y83233D01*
G01X410713Y85730D01*
G01X418203Y85730D01*
G01X418203Y88226D01*
G01X423197Y88226D01*
G01X423197Y90723D01*
G01X430688Y90723D01*
G01X430688Y155640D01*
G01X428191Y155640D01*
G01X428191Y175468D01*
G01X426942Y175795D01*
G01X425694Y176121D01*
G01X425694Y190449D01*
G01X424446Y190775D01*
G01X423197Y191102D01*
G01X423197Y205575D01*
G01X420700Y205575D01*
G01X420700Y218059D01*
G01X418203Y218059D01*
G01X418203Y228046D01*
G01X415707Y228046D01*
G01X415707Y237888D01*
G01X414458Y238214D01*
G01X413210Y238541D01*
G01X413210Y250517D01*
G01X410713Y250517D01*
G01X410713Y260504D01*
G01X408216Y260504D01*
G01X408216Y267849D01*
G01X406968Y268175D01*
G01X405719Y268502D01*
G01X405719Y277836D01*
G01X463147Y277836D01*
G01X463147Y269867D01*
G01X465020Y269867D01*
G01X465020Y267995D01*
G01X467634Y267995D01*
G01X467960Y266746D01*
G01X468287Y265498D01*
G01X477983Y265498D01*
G01X478309Y266746D01*
G01X478636Y267995D01*
G01X487970Y267995D01*
G01X488297Y269243D01*
G01X488623Y270491D01*
G01X500455Y270491D01*
G01X500787Y271761D01*
G01X501118Y273030D01*
G01X508194Y272853D01*
G01X515269Y272676D01*
G01X515653Y267370D01*
G01X517308Y267370D01*
G01X518061Y264561D01*
G01X518070Y262683D01*
G01X518078Y260804D01*
G01X520575Y259245D01*
G01X520575Y253159D01*
G01X521824Y252833D01*
G01X523072Y252507D01*
G01X523072Y248321D01*
G01X525569Y246761D01*
G01X525569Y240676D01*
G01X526817Y240349D01*
G01X528066Y240023D01*
G01X528066Y236121D01*
G01X526973Y235714D01*
G01X525881Y235307D01*
G01X525065Y234173D01*
G01X524250Y233040D01*
G01X520875Y233040D01*
G01X519316Y230543D01*
G01X515882Y230543D01*
G01X514322Y228046D01*
G01X510888Y228046D01*
G01X509329Y225549D01*
G01X505894Y225549D01*
G01X504335Y223053D01*
G01X500746Y223053D01*
G01X500419Y221804D01*
G01X500093Y220556D01*
G01X497479Y220556D01*
G01X497479Y218740D01*
G01X493110Y217920D01*
G01X493110Y215562D01*
G01X490613Y215562D01*
G01X490613Y211888D01*
G01X489448Y211072D01*
G01X488284Y210256D01*
G01X487838Y208228D01*
G01X487392Y206199D01*
G01X485619Y206199D01*
G01X485619Y198085D01*
G01X487608Y198085D01*
G01X487935Y196836D01*
G01X488261Y195588D01*
G01X490217Y195579D01*
G01X492173Y195571D01*
G01X494982Y194818D01*
G01X494982Y193091D01*
G01X494982Y193091D01*
G01X497958Y193091D01*
G01X498284Y194340D01*
G01X498611Y195588D01*
G01X508715Y195588D01*
G01X508715Y197315D01*
G01X511524Y198068D01*
G01X513403Y198076D01*
G01X515281Y198085D01*
G01X516840Y200582D01*
G01X522926Y200582D01*
G01X523253Y201830D01*
G01X523579Y203078D01*
G01X530262Y203078D01*
G01X531822Y205575D01*
G01X538678Y205575D01*
G01X538678Y207302D01*
G01X541486Y208055D01*
G01X544614Y208063D01*
G01X547740Y208072D01*
G01X549300Y210569D01*
G01X557883Y210569D01*
G01X558209Y211817D01*
G01X558536Y213065D01*
G01X567870Y213065D01*
G01X568197Y214314D01*
G01X568523Y215562D01*
G01X580354Y215562D01*
G01X580681Y216811D01*
G01X581007Y218059D01*
G01X592839Y218059D01*
G01X593165Y219307D01*
G01X593492Y220556D01*
G01X600475Y220556D01*
G01X600475Y222545D01*
G01X601666Y222857D01*
G01X602857Y223168D01*
G01X603168Y224359D01*
G01X603479Y225549D01*
G01X605469Y225549D01*
G01X605469Y230036D01*
G01X606873Y230420D01*
G01X608278Y230804D01*
G01X607185Y231032D01*
G01X606093Y231259D01*
G01X605309Y236161D01*
G01X603596Y236161D01*
G01X603596Y238150D01*
G01X602348Y238477D01*
G01X601099Y238803D01*
G01X601099Y240530D01*
G01X599237Y240530D01*
G01X597678Y243027D01*
G01X593492Y243027D01*
G01X593165Y244275D01*
G01X592839Y245524D01*
G01X589635Y245532D01*
G01X586430Y245541D01*
G01X583621Y246293D01*
G01X583621Y248020D01*
G01X565819Y248020D01*
G01X564260Y245524D01*
G01X553035Y245524D01*
G01X553035Y247875D01*
G01X551786Y248201D01*
G01X550538Y248528D01*
G01X550538Y252868D01*
G01X549289Y253195D01*
G01X548041Y253521D01*
G01X548041Y258632D01*
G01X546314Y258632D01*
G01X545561Y261440D01*
G01X545552Y263319D01*
G01X545544Y265197D01*
G01X543047Y266757D01*
G01X543047Y272842D01*
G01X541799Y273169D01*
G01X540550Y273495D01*
G01X540550Y277397D01*
G01X541643Y277804D01*
G01X542735Y278212D01*
G01X543551Y279345D01*
G01X544366Y280478D01*
G01X550392Y280478D01*
G01X550718Y281727D01*
G01X551045Y282975D01*
G01X555386Y282975D01*
G01X555712Y284224D01*
G01X556039Y285472D01*
G01X560380Y285472D01*
G01X560706Y286720D01*
G01X561032Y287969D01*
G01X565373Y287969D01*
G01X565700Y289217D01*
G01X566026Y290466D01*
G01X570367Y290466D01*
G01X570693Y291714D01*
G01X571020Y292962D01*
G01X575361Y292962D01*
G01X575687Y294211D01*
G01X576014Y295459D01*
G01X580500Y295459D01*
G01X580500Y297371D01*
G01X581465Y297741D01*
G01X582430Y298111D01*
G01X587891Y303573D01*
G01X588303Y305446D01*
G01X588714Y307319D01*
G01X590488Y307319D01*
G01X590488Y310139D01*
G01X587991Y311699D01*
G01X587991Y315433D01*
G01X586001Y315433D01*
G01X585690Y316623D01*
G01X585379Y317813D01*
G01X583252Y318212D01*
G01X581124Y318611D01*
G01X581124Y320427D01*
G01X573155Y320427D01*
G01X572829Y319178D01*
G01X572502Y317930D01*
G01X563322Y317930D01*
G01X561763Y315433D01*
G01X553335Y315433D01*
G01X551776Y312937D01*
G01X543193Y312937D01*
G01X542866Y311688D01*
G01X542540Y310440D01*
G01X535857Y310440D01*
G01X534297Y307943D01*
G01X525715Y307943D01*
G01X525388Y306695D01*
G01X525062Y305446D01*
G01X518224Y305446D01*
G01X517897Y304198D01*
G01X517571Y302949D01*
G01X510733Y302949D01*
G01X510407Y301701D01*
G01X510080Y300453D01*
G01X503397Y300453D01*
G01X501838Y297956D01*
G01X495907Y297956D01*
G01X494347Y295459D01*
G01X488416Y295459D01*
G01X486857Y292962D01*
G01X480926Y292962D01*
G01X479366Y290466D01*
G01X475932Y290466D01*
G01X474373Y287969D01*
G01X470638Y287969D01*
G01X470638Y285472D01*
G01X468141Y285472D01*
G01X468141Y282975D01*
G01X465644Y282975D01*
G01X465644Y278489D01*
G01X464396Y278162D01*
G01X463147Y277836D01*
G01X405719Y277836D01*
G01X405719Y277982D01*
G01X403222Y277982D01*
G01X403222Y287969D01*
G01X400725Y287969D01*
G01X400725Y297956D01*
G01X398228Y297956D01*
G01X398228Y305446D01*
G01X395732Y305446D01*
G01X395732Y315433D01*
G01X393235Y315433D01*
G01X393235Y322924D01*
G01X390738Y322924D01*
G01X390738Y330268D01*
G01X389489Y330595D01*
G01X388241Y330921D01*
G01X388241Y340401D01*
G01X385744Y340401D01*
G01X385744Y347891D01*
G01X383247Y347891D01*
G01X383247Y355236D01*
G01X381999Y355563D01*
G01X380750Y355889D01*
G01X380750Y365369D01*
G01X378253Y365369D01*
G01X378253Y372859D01*
G01X375757Y372859D01*
G01X375757Y377707D01*
G01X435682Y377707D01*
G01X435682Y373582D01*
G01X438540Y370724D01*
G01X441398Y367866D01*
G01X448020Y367866D01*
G01X448347Y369114D01*
G01X448673Y370362D01*
G01X455511Y370362D01*
G01X455837Y371611D01*
G01X456164Y372859D01*
G01X463002Y372859D01*
G01X463328Y374108D01*
G01X463655Y375356D01*
G01X470492Y375356D01*
G01X470819Y376604D01*
G01X471145Y377853D01*
G01X476630Y377853D01*
G01X478128Y376355D01*
G01X478128Y359751D01*
G01X479855Y359751D01*
G01X480608Y356942D01*
G01X480617Y351917D01*
G01X480625Y346893D01*
G01X479127Y345395D01*
G01X475777Y345395D01*
G01X475451Y344146D01*
G01X475124Y342898D01*
G01X470638Y342898D01*
G01X470638Y340401D01*
G01X468141Y340401D01*
G01X468141Y338489D01*
G01X467048Y338082D01*
G01X465956Y337674D01*
G01X465140Y336541D01*
G01X464325Y335408D01*
G01X462523Y335408D01*
G01X462523Y333535D01*
G01X460650Y333535D01*
G01X460650Y331733D01*
G01X459517Y330918D01*
G01X458383Y330102D01*
G01X457976Y329010D01*
G01X457568Y327917D01*
G01X455657Y327917D01*
G01X455657Y322299D01*
G01X457529Y322299D01*
G01X457529Y320586D01*
G01X457529Y320586D01*
G01X462523Y319788D01*
G01X462602Y317618D01*
G01X463731Y320427D01*
G01X470638Y320427D01*
G01X470638Y322924D01*
G01X472834Y322924D01*
G01X474394Y325420D01*
G01X477828Y325420D01*
G01X479387Y327917D01*
G01X482976Y327917D01*
G01X483303Y329166D01*
G01X483629Y330414D01*
G01X488116Y330414D01*
G01X488116Y332326D01*
G01X489208Y332733D01*
G01X490301Y333141D01*
G01X491116Y334274D01*
G01X491932Y335408D01*
G01X495306Y335408D01*
G01X496865Y337904D01*
G01X500300Y337904D01*
G01X501859Y340401D01*
G01X505448Y340401D01*
G01X505775Y341649D01*
G01X506101Y342898D01*
G01X510588Y342898D01*
G01X510588Y344810D01*
G01X511680Y345217D01*
G01X512772Y345625D01*
G01X513588Y346758D01*
G01X514404Y347891D01*
G01X517778Y347891D01*
G01X519337Y350388D01*
G01X522772Y350388D01*
G01X524331Y352885D01*
G01X527920Y352885D01*
G01X528247Y354133D01*
G01X528573Y355382D01*
G01X532914Y355382D01*
G01X533240Y356630D01*
G01X533567Y357879D01*
G01X538053Y357879D01*
G01X538053Y359790D01*
G01X539146Y360198D01*
G01X540238Y360605D01*
G01X541054Y361739D01*
G01X541869Y362872D01*
G01X545244Y362872D01*
G01X546803Y365369D01*
G01X550237Y365369D01*
G01X551797Y367866D01*
G01X555231Y367866D01*
G01X556790Y370362D01*
G01X560225Y370362D01*
G01X561784Y372859D01*
G01X565519Y372859D01*
G01X565519Y375356D01*
G01X567870Y375356D01*
G01X568197Y376604D01*
G01X568523Y377853D01*
G01X570367Y377853D01*
G01X570693Y379101D01*
G01X571020Y380350D01*
G01X573009Y380350D01*
G01X573009Y382339D01*
G01X574258Y382666D01*
G01X575506Y382992D01*
G01X575506Y389078D01*
G01X578003Y390637D01*
G01X578003Y392833D01*
G01X576014Y392833D01*
G01X575687Y394082D01*
G01X575361Y395330D01*
G01X573517Y395330D01*
G01X573205Y396521D01*
G01X572894Y397712D01*
G01X571703Y398023D01*
G01X570513Y398334D01*
G01X570513Y400324D01*
G01X566026Y400324D01*
G01X565700Y401572D01*
G01X565373Y402821D01*
G01X556790Y402821D01*
G01X555231Y405317D01*
G01X515882Y405317D01*
G01X514322Y402821D01*
G01X497479Y402821D01*
G01X497479Y401094D01*
G01X494670Y400341D01*
G01X489046Y400332D01*
G01X483422Y400324D01*
G01X481863Y397827D01*
G01X470783Y397827D01*
G01X470457Y396579D01*
G01X470130Y395330D01*
G01X460796Y395330D01*
G01X460469Y394082D01*
G01X460143Y392833D01*
G01X453460Y392833D01*
G01X451901Y390337D01*
G01X447542Y390337D01*
G01X447542Y388521D01*
G01X443172Y387701D01*
G01X443172Y385343D01*
G01X440814Y385343D01*
G01X439995Y380974D01*
G01X438178Y380974D01*
G01X438178Y378360D01*
G01X436930Y378034D01*
G01X435682Y377707D01*
G01X375757Y377707D01*
G01X375757Y380350D01*
G01X373260Y380350D01*
G01X373260Y390337D01*
G01X370763Y390337D01*
G01X370763Y397827D01*
G01X368266Y397827D01*
G01X368266Y405317D01*
G01X365769Y405317D01*
G01X365769Y415304D01*
G01X363272Y415304D01*
G01X363272Y422795D01*
G01X360775Y422795D01*
G01X360775Y432782D01*
G01X358279Y432782D01*
G01X358279Y440272D01*
G01X355782Y440272D01*
G01X355782Y450259D01*
G01X353285Y450259D01*
G01X353285Y460101D01*
G01X413210Y460101D01*
G01X413210Y457895D01*
G01X414458Y457569D01*
G01X415707Y457242D01*
G01X415707Y447908D01*
G01X416955Y447582D01*
G01X418203Y447255D01*
G01X418203Y443069D01*
G01X420700Y441510D01*
G01X420700Y437775D01*
G01X423197Y437775D01*
G01X423197Y435279D01*
G01X425694Y435279D01*
G01X425694Y432782D01*
G01X429369Y432782D01*
G01X430184Y431617D01*
G01X431000Y430453D01*
G01X433029Y430007D01*
G01X435057Y429562D01*
G01X435057Y427788D01*
G01X437398Y427780D01*
G01X439739Y427771D01*
G01X442548Y427019D01*
G01X442548Y425292D01*
G01X456894Y425292D01*
G01X458454Y422795D01*
G01X458454Y422795D01*
G01X467841Y422795D01*
G01X469400Y425292D01*
G01X485319Y425292D01*
G01X486878Y427788D01*
G01X495461Y427788D01*
G01X495787Y429037D01*
G01X496114Y430285D01*
G01X502951Y430285D01*
G01X503278Y431534D01*
G01X503604Y432782D01*
G01X507791Y432782D01*
G01X509350Y435279D01*
G01X515581Y435279D01*
G01X515581Y437190D01*
G01X516674Y437598D01*
G01X517766Y438005D01*
G01X518582Y439139D01*
G01X519398Y440272D01*
G01X522772Y440272D01*
G01X524331Y442769D01*
G01X528066Y442769D01*
G01X528066Y445266D01*
G01X530563Y445266D01*
G01X530563Y447178D01*
G01X531527Y447548D01*
G01X532492Y447918D01*
G01X535195Y450621D01*
G01X537898Y453324D01*
G01X538268Y454288D01*
G01X538638Y455253D01*
G01X540405Y455253D01*
G01X540731Y456501D01*
G01X541058Y457750D01*
G01X543047Y457750D01*
G01X543047Y462236D01*
G01X544295Y462562D01*
G01X545544Y462889D01*
G01X545552Y468590D01*
G01X545561Y474291D01*
G01X546314Y477100D01*
G01X548041Y477100D01*
G01X548041Y480075D01*
G01X546792Y480402D01*
G01X545544Y480728D01*
G01X545544Y487411D01*
G01X543047Y488970D01*
G01X543047Y492705D01*
G01X540550Y492705D01*
G01X540550Y495062D01*
G01X536181Y495882D01*
G01X536181Y497539D01*
G01X531187Y498337D01*
G01X531187Y500195D01*
G01X520721Y500195D01*
G01X520394Y498947D01*
G01X520068Y497698D01*
G01X518078Y497698D01*
G01X518078Y490508D01*
G01X520575Y488949D01*
G01X520575Y487087D01*
G01X522448Y487087D01*
G01X522448Y485510D01*
G01X523852Y484894D01*
G01X525257Y484278D01*
G01X525634Y472418D01*
G01X524888Y468361D01*
G01X523072Y468361D01*
G01X523072Y465825D01*
G01X521980Y465418D01*
G01X520887Y465010D01*
G01X520072Y463877D01*
G01X519256Y462743D01*
G01X517454Y462743D01*
G01X517454Y460970D01*
G01X515425Y460524D01*
G01X513397Y460079D01*
G01X512581Y458914D01*
G01X511765Y457750D01*
G01X508236Y457750D01*
G01X507910Y456501D01*
G01X507583Y455253D01*
G01X503397Y455253D01*
G01X501838Y452756D01*
G01X495752Y452756D01*
G01X495426Y451508D01*
G01X495099Y450259D01*
G01X488261Y450259D01*
G01X487935Y449011D01*
G01X487608Y447763D01*
G01X480001Y447763D01*
G01X480001Y446036D01*
G01X477192Y445283D01*
G01X449102Y445283D01*
G01X446293Y446036D01*
G01X446293Y447763D01*
G01X441995Y447763D01*
G01X441179Y448896D01*
G01X440363Y450029D01*
G01X439271Y450437D01*
G01X438178Y450844D01*
G01X438178Y452456D01*
G01X435682Y454015D01*
G01X435682Y457604D01*
G01X434433Y457931D01*
G01X433185Y458257D01*
G01X433185Y472591D01*
G01X428815Y473411D01*
G01X428815Y475227D01*
G01X425994Y475227D01*
G01X424435Y472730D01*
G01X420700Y472730D01*
G01X420700Y470234D01*
G01X418342Y470234D01*
G01X417523Y465864D01*
G01X415707Y465864D01*
G01X415707Y460754D01*
G01X414458Y460427D01*
G01X413210Y460101D01*
G01X353285Y460101D01*
G01X353285Y460246D01*
G01X350788Y460246D01*
G01X350788Y470234D01*
G01X348291Y470234D01*
G01X348291Y480221D01*
G01X345794Y480221D01*
G01X345794Y492705D01*
G01X343297Y492705D01*
G01X343297Y502546D01*
G01X342049Y502873D01*
G01X340800Y503199D01*
G01X340800Y515030D01*
G01X339552Y515356D01*
G01X338304Y515683D01*
G01X338304Y530156D01*
G01X335807Y530156D01*
G01X335807Y544991D01*
G01X334558Y545318D01*
G01X333310Y545644D01*
G01X333310Y562469D01*
G01X332061Y562795D01*
G01X331605Y562915D01*
G01X385744Y562915D01*
G01X388241Y561355D01*
G01X388241Y557621D01*
G01X390738Y557621D01*
G01X390738Y555263D01*
G01X395107Y554443D01*
G01X395107Y552627D01*
G01X401194Y552619D01*
G01X407280Y552610D01*
G01X410089Y551857D01*
G01X410089Y550130D01*
G01X414926Y550122D01*
G01X419764Y550113D01*
G01X422573Y549361D01*
G01X422573Y547634D01*
G01X427411Y547625D01*
G01X432248Y547617D01*
G01X435057Y546864D01*
G01X435057Y545187D01*
G01X440207Y545006D01*
G01X445357Y544825D01*
G01X445536Y538362D01*
G01X445714Y531899D01*
G01X444268Y530156D01*
G01X438324Y530156D01*
G01X437998Y528908D01*
G01X437671Y527659D01*
G01X433485Y527659D01*
G01X431926Y525163D01*
G01X425694Y525163D01*
G01X425694Y523251D01*
G01X424602Y522844D01*
G01X423509Y522436D01*
G01X422694Y521303D01*
G01X421878Y520169D01*
G01X418203Y520169D01*
G01X418203Y518257D01*
G01X417253Y517893D01*
G01X416302Y517528D01*
G01X408361Y509587D01*
G01X407996Y508636D01*
G01X407631Y507685D01*
G01X405858Y507685D01*
G01X405038Y503316D01*
G01X403222Y503316D01*
G01X403222Y495201D01*
G01X403222Y495201D01*
G01X406718Y495201D01*
G01X408216Y493703D01*
G01X409714Y495201D01*
G01X415561Y495201D01*
G01X415887Y496450D01*
G01X416214Y497698D01*
G01X420555Y497698D01*
G01X420881Y498947D01*
G01X421208Y500195D01*
G01X425694Y500195D01*
G01X425694Y502107D01*
G01X426786Y502514D01*
G01X427879Y502922D01*
G01X428694Y504055D01*
G01X429510Y505188D01*
G01X432884Y505188D01*
G01X434444Y507685D01*
G01X437878Y507685D01*
G01X439437Y510182D01*
G01X445523Y510182D01*
G01X445850Y511430D01*
G01X446176Y512679D01*
G01X450362Y512679D01*
G01X451922Y515176D01*
G01X457853Y515176D01*
G01X459412Y517672D01*
G01X467841Y517672D01*
G01X469400Y520169D01*
G01X486243Y520169D01*
G01X486243Y521896D01*
G01X489052Y522649D01*
G01X502244Y522657D01*
G01X515436Y522666D01*
G01X515762Y523914D01*
G01X516089Y525163D01*
G01X522926Y525163D01*
G01X523253Y526411D01*
G01X523579Y527659D01*
G01X525430Y527659D01*
G01X526250Y532029D01*
G01X528378Y532108D01*
G01X525569Y533237D01*
G01X525569Y537647D01*
G01X523072Y537647D01*
G01X523072Y540004D01*
G01X518703Y540824D01*
G01X518703Y542481D01*
G01X513709Y543279D01*
G01X513709Y545137D01*
G01X492485Y545137D01*
G01X492485Y543410D01*
G01X489676Y542657D01*
G01X482727Y542649D01*
G01X475777Y542640D01*
G01X475443Y541363D01*
G01X475109Y540087D01*
G01X470533Y540271D01*
G01X465956Y540455D01*
G01X465558Y544607D01*
G01X466792Y544930D01*
G01X468025Y545252D01*
G01X468337Y546443D01*
G01X468648Y547634D01*
G01X470638Y547634D01*
G01X470638Y549623D01*
G01X471886Y549950D01*
G01X473135Y550276D01*
G01X473135Y552120D01*
G01X474383Y552446D01*
G01X475631Y552773D01*
G01X475631Y554617D01*
G01X476880Y554943D01*
G01X478128Y555270D01*
G01X478128Y557113D01*
G01X479377Y557440D01*
G01X480625Y557766D01*
G01X480625Y559610D01*
G01X481874Y559937D01*
G01X483122Y560263D01*
G01X483122Y562614D01*
G01X485480Y562614D01*
G01X486300Y566984D01*
G01X488116Y566984D01*
G01X488116Y568786D01*
G01X489249Y569601D01*
G01X490383Y570417D01*
G01X490790Y571509D01*
G01X491198Y572601D01*
G01X492964Y572601D01*
G01X493290Y573850D01*
G01X493617Y575098D01*
G01X495606Y575098D01*
G01X495606Y579584D01*
G01X496855Y579911D01*
G01X498103Y580237D01*
G01X498103Y587582D01*
G01X488116Y587582D01*
G01X488116Y585670D01*
G01X487023Y585263D01*
G01X485931Y584855D01*
G01X485115Y583722D01*
G01X484300Y582589D01*
G01X480625Y582589D01*
G01X480625Y580092D01*
G01X478128Y580092D01*
G01X478128Y578180D01*
G01X477036Y577773D01*
G01X475944Y577365D01*
G01X475128Y576232D01*
G01X474312Y575098D01*
G01X472510Y575098D01*
G01X472510Y573282D01*
G01X468141Y572463D01*
G01X468141Y570105D01*
G01X465644Y570105D01*
G01X465644Y567608D01*
G01X463147Y567608D01*
G01X463147Y565111D01*
G01X460650Y565111D01*
G01X460650Y562614D01*
G01X458153Y562614D01*
G01X458153Y560118D01*
G01X455802Y560118D01*
G01X455476Y558869D01*
G01X455149Y557621D01*
G01X453374Y557629D01*
G01X451599Y557638D01*
G01X448790Y558391D01*
G01X448790Y560118D01*
G01X446928Y560118D01*
G01X445369Y562614D01*
G01X441183Y562614D01*
G01X440856Y563863D01*
G01X440530Y565111D01*
G01X438574Y565120D01*
G01X436618Y565128D01*
G01X433809Y565881D01*
G01X433809Y567608D01*
G01X431468Y567616D01*
G01X429127Y567625D01*
G01X426318Y568378D01*
G01X426318Y570105D01*
G01X423977Y570113D01*
G01X421637Y570122D01*
G01X418828Y570875D01*
G01X418828Y572601D01*
G01X409475Y572601D01*
G01X407916Y575098D01*
G01X396032Y575098D01*
G01X394473Y572601D01*
G01X391419Y572601D01*
G01X388422Y569605D01*
G01X388039Y568607D01*
G01X387656Y567608D01*
G01X385744Y567608D01*
G01X385744Y562915D01*
G01X331605Y562915D01*
G01X330813Y563122D01*
G01X330813Y585085D01*
G01X328316Y585085D01*
G01X328316Y612550D01*
G01X325819Y612550D01*
G01X325819Y662340D01*
G01X324571Y662666D01*
G01X323322Y662993D01*
G01X323322Y692147D01*
G01X380750Y692147D01*
G01X380750Y676842D01*
G01X382477Y676842D01*
G01X383230Y674033D01*
G01X383239Y672004D01*
G01X383247Y669976D01*
G01X385159Y669976D01*
G01X385567Y668884D01*
G01X385974Y667791D01*
G01X387107Y666976D01*
G01X388241Y666160D01*
G01X388241Y664358D01*
G01X390114Y664358D01*
G01X390114Y662486D01*
G01X391916Y662486D01*
G01X392731Y661352D01*
G01X393547Y660219D01*
G01X394639Y659811D01*
G01X395732Y659404D01*
G01X395732Y657492D01*
G01X399466Y657492D01*
G01X401026Y654995D01*
G01X405212Y654995D01*
G01X405538Y653747D01*
G01X405865Y652498D01*
G01X409069Y652490D01*
G01X412273Y652481D01*
G01X415082Y651729D01*
G01X415082Y650002D01*
G01X415082Y650002D01*
G01X431926Y650002D01*
G01X433485Y647505D01*
G01X443796Y647505D01*
G01X443796Y649232D01*
G01X446605Y649985D01*
G01X453940Y649993D01*
G01X461274Y650002D01*
G01X461274Y651729D01*
G01X464083Y652481D01*
G01X467288Y652490D01*
G01X470492Y652498D01*
G01X470819Y653747D01*
G01X471145Y654995D01*
G01X475486Y654995D01*
G01X475812Y656244D01*
G01X476139Y657492D01*
G01X480625Y657492D01*
G01X480625Y659989D01*
G01X483122Y659989D01*
G01X483122Y662486D01*
G01X485480Y662486D01*
G01X486300Y666855D01*
G01X488116Y666855D01*
G01X488116Y669469D01*
G01X489364Y669795D01*
G01X490613Y670121D01*
G01X490613Y676207D01*
G01X493110Y677766D01*
G01X493110Y679817D01*
G01X491861Y680144D01*
G01X490613Y680470D01*
G01X490613Y687453D01*
G01X488701Y687453D01*
G01X488331Y688418D01*
G01X487960Y689383D01*
G01X485258Y692086D01*
G01X482555Y694788D01*
G01X481590Y695158D01*
G01X480625Y695529D01*
G01X480625Y697440D01*
G01X478597Y697449D01*
G01X476568Y697457D01*
G01X473759Y698210D01*
G01X473759Y699880D01*
G01X470638Y696759D01*
G01X470638Y689950D01*
G01X473135Y689950D01*
G01X473135Y687754D01*
G01X475631Y686194D01*
G01X475631Y675477D01*
G01X474442Y675166D01*
G01X473252Y674854D01*
G01X472866Y672796D01*
G01X472480Y670738D01*
G01X471247Y670415D01*
G01X470014Y670093D01*
G01X470014Y668202D01*
G01X467985Y667757D01*
G01X465956Y667311D01*
G01X465140Y666147D01*
G01X464325Y664982D01*
G01X458299Y664982D01*
G01X457973Y663734D01*
G01X457646Y662486D01*
G01X443387Y662494D01*
G01X429127Y662503D01*
G01X426318Y663255D01*
G01X426318Y664982D01*
G01X418711Y664982D01*
G01X418384Y666231D01*
G01X418058Y667479D01*
G01X413717Y667479D01*
G01X413391Y668727D01*
G01X413064Y669976D01*
G01X408723Y669976D01*
G01X408397Y671224D01*
G01X408070Y672473D01*
G01X405719Y672473D01*
G01X405719Y674969D01*
G01X403222Y674969D01*
G01X403222Y677466D01*
G01X400725Y677466D01*
G01X400725Y679663D01*
G01X398228Y681222D01*
G01X398237Y687615D01*
G01X398246Y694007D01*
G01X398998Y696816D01*
G01X400725Y696816D01*
G01X400734Y699157D01*
G01X400742Y701498D01*
G01X401495Y704307D01*
G01X402515Y704346D01*
G01X403534Y704386D01*
G01X400725Y705515D01*
G01X400725Y707428D01*
G01X397054Y707428D01*
G01X396634Y708106D01*
G01X396215Y708785D01*
G01X394858Y707428D01*
G01X391461Y707428D01*
G01X385899Y701867D01*
G01X385529Y700902D01*
G01X385159Y699937D01*
G01X383247Y699937D01*
G01X383247Y693706D01*
G01X380750Y692147D01*
G01X323322Y692147D01*
G01X323322Y697440D01*
G01X325819Y697440D01*
G01X325819Y722408D01*
G01X328316Y722408D01*
G01X328316Y736882D01*
G01X329564Y737208D01*
G01X330813Y737534D01*
G01X330813Y747376D01*
G01X333310Y747376D01*
G01X333310Y757363D01*
G01X335807Y757363D01*
G01X335807Y759560D01*
G01X395732Y759560D01*
G01X395732Y735031D01*
G01X400101Y734211D01*
G01X400101Y732395D01*
G01X419441Y732395D01*
G01X421001Y729899D01*
G01X430370Y729890D01*
G01X439739Y729881D01*
G01X442548Y729129D01*
G01X442548Y727402D01*
G01X449883Y727393D01*
G01X457217Y727385D01*
G01X460026Y726632D01*
G01X460026Y724905D01*
G01X469857Y724896D01*
G01X479689Y724888D01*
G01X482498Y724135D01*
G01X482498Y722408D01*
G01X482498Y722408D01*
G01X486243Y722408D01*
G01X486243Y724135D01*
G01X489052Y724888D01*
G01X490740Y724896D01*
G01X492429Y724905D01*
G01X495479Y727955D01*
G01X496132Y729586D01*
G01X495869Y730418D01*
G01X495606Y731249D01*
G01X495606Y732395D01*
G01X493617Y732395D01*
G01X493290Y733644D01*
G01X492964Y734892D01*
G01X488623Y734892D01*
G01X488297Y736140D01*
G01X487970Y737389D01*
G01X479387Y737389D01*
G01X477828Y739886D01*
G01X473453Y739894D01*
G01X469077Y739903D01*
G01X466268Y740655D01*
G01X466268Y742382D01*
G01X456437Y742391D01*
G01X446605Y742399D01*
G01X443796Y743152D01*
G01X443796Y744879D01*
G01X428971Y744888D01*
G01X414146Y744896D01*
G01X412757Y745269D01*
G01X411368Y745641D01*
G01X410982Y747699D01*
G01X410595Y749758D01*
G01X409406Y750069D01*
G01X408216Y750380D01*
G01X408225Y754652D01*
G01X408233Y758924D01*
G01X408986Y761732D01*
G01X410713Y761732D01*
G01X410721Y767818D01*
G01X410730Y773904D01*
G01X411483Y776713D01*
G01X413210Y776713D01*
G01X413210Y784320D01*
G01X414458Y784647D01*
G01X415707Y784973D01*
G01X415707Y787179D01*
G01X414458Y787505D01*
G01X413210Y787832D01*
G01X413210Y794815D01*
G01X408216Y794815D01*
G01X408216Y792318D01*
G01X405858Y792318D01*
G01X405038Y787949D01*
G01X403222Y787949D01*
G01X403222Y781093D01*
G01X400725Y779534D01*
G01X400717Y776407D01*
G01X400708Y773280D01*
G01X399955Y770471D01*
G01X398228Y770471D01*
G01X398228Y761119D01*
G01X395732Y759560D01*
G01X335807Y759560D01*
G01X335807Y766843D01*
G01X337055Y767169D01*
G01X338304Y767496D01*
G01X338304Y774333D01*
G01X339552Y774660D01*
G01X340800Y774986D01*
G01X340800Y781824D01*
G01X342049Y782150D01*
G01X343297Y782477D01*
G01X343297Y789314D01*
G01X344546Y789640D01*
G01X345794Y789967D01*
G01X345794Y794815D01*
G01X348291Y794815D01*
G01X348291Y801798D01*
G01X349539Y802124D01*
G01X350788Y802451D01*
G01X350788Y807299D01*
G01X353285Y807299D01*
G01X353285Y814282D01*
G01X354533Y814608D01*
G01X355782Y814935D01*
G01X355782Y819783D01*
G01X358279Y819783D01*
G01X358279Y824776D01*
G01X360775Y824776D01*
G01X360775Y829770D01*
G01X363272Y829770D01*
G01X363272Y834763D01*
G01X365769Y834763D01*
G01X365769Y839611D01*
G01X420700Y839611D01*
G01X420700Y829915D01*
G01X421949Y829589D01*
G01X423197Y829262D01*
G01X423197Y822580D01*
G01X425694Y821020D01*
G01X425694Y817586D01*
G01X428191Y816027D01*
G01X428191Y814165D01*
G01X430064Y814165D01*
G01X430064Y812175D01*
G01X431312Y811849D01*
G01X432560Y811522D01*
G01X432560Y809795D01*
G01X434362Y809795D01*
G01X435178Y808662D01*
G01X435994Y807529D01*
G01X437086Y807121D01*
G01X438178Y806714D01*
G01X438178Y804802D01*
G01X442665Y804802D01*
G01X442991Y803553D01*
G01X443318Y802305D01*
G01X450155Y802305D01*
G01X450482Y801057D01*
G01X450808Y799808D01*
G01X454013Y799800D01*
G01X457217Y799791D01*
G01X460026Y799039D01*
G01X460026Y797312D01*
G01X467634Y797312D01*
G01X467960Y796063D01*
G01X468287Y794815D01*
G01X471491Y794806D01*
G01X474695Y794798D01*
G01X477504Y794045D01*
G01X477504Y792318D01*
G01X485112Y792318D01*
G01X485438Y791070D01*
G01X485765Y789821D01*
G01X491466Y789813D01*
G01X497167Y789804D01*
G01X499976Y789051D01*
G01X499976Y789051D01*
G01X500016Y788032D01*
G01X500055Y787012D01*
G01X501184Y789821D01*
G01X505448Y789821D01*
G01X505775Y791070D01*
G01X506101Y792318D01*
G01X508091Y792318D01*
G01X508091Y794514D01*
G01X505594Y796074D01*
G01X505594Y797936D01*
G01X503721Y797936D01*
G01X503721Y799649D01*
G01X498728Y800447D01*
G01X498728Y802305D01*
G01X491872Y802305D01*
G01X490312Y804802D01*
G01X481884Y804802D01*
G01X480325Y807299D01*
G01X475950Y807307D01*
G01X471574Y807316D01*
G01X468765Y808068D01*
G01X468765Y809795D01*
G01X465176Y809804D01*
G01X461587Y809812D01*
G01X458778Y810565D01*
G01X458778Y812292D01*
G01X451922Y812292D01*
G01X450362Y814789D01*
G01X443680Y814789D01*
G01X443353Y816037D01*
G01X443027Y817286D01*
G01X438686Y817286D01*
G01X438374Y818476D01*
G01X438063Y819667D01*
G01X436872Y819978D01*
G01X435682Y820290D01*
G01X435682Y824630D01*
G01X434433Y824957D01*
G01X433185Y825283D01*
G01X433193Y829555D01*
G01X433202Y833827D01*
G01X433955Y836636D01*
G01X435385Y836636D01*
G01X436002Y838040D01*
G01X436618Y839445D01*
G01X438959Y839638D01*
G01X441300Y839832D01*
G01X441300Y841484D01*
G01X444108Y842237D01*
G01X456744Y842245D01*
G01X469379Y842254D01*
G01X470938Y839757D01*
G01X486857Y839757D01*
G01X488416Y837260D01*
G01X497596Y837260D01*
G01X497923Y836012D01*
G01X498249Y834763D01*
G01X515581Y834763D01*
G01X515581Y841573D01*
G01X512585Y844569D01*
G01X511586Y844952D01*
G01X510588Y845335D01*
G01X510588Y847108D01*
G01X506218Y847928D01*
G01X506218Y849744D01*
G01X503877Y849752D01*
G01X501537Y849761D01*
G01X498728Y850514D01*
G01X498728Y852241D01*
G01X489375Y852241D01*
G01X487816Y854737D01*
G01X482192Y854746D01*
G01X476568Y854754D01*
G01X473759Y855507D01*
G01X473759Y857234D01*
G01X440821Y857234D01*
G01X440494Y855986D01*
G01X440168Y854737D01*
G01X435057Y854737D01*
G01X435057Y852964D01*
G01X433029Y852519D01*
G01X431000Y852073D01*
G01X430184Y850908D01*
G01X429369Y849744D01*
G01X427567Y849744D01*
G01X427567Y847871D01*
G01X425694Y847871D01*
G01X425694Y846009D01*
G01X423197Y844450D01*
G01X423197Y840264D01*
G01X421949Y839938D01*
G01X420700Y839611D01*
G01X365769Y839611D01*
G01X365769Y841746D01*
G01X367018Y842073D01*
G01X368266Y842399D01*
G01X368266Y846740D01*
G01X369514Y847066D01*
G01X370763Y847393D01*
G01X370763Y851733D01*
G01X372011Y852060D01*
G01X373260Y852386D01*
G01X373260Y854737D01*
G01X375757Y854737D01*
G01X375757Y859731D01*
G01X378253Y859731D01*
G01X378253Y864725D01*
G01X380750Y864725D01*
G01X380750Y869718D01*
G01X383247Y869718D01*
G01X383247Y874712D01*
G01X385744Y874712D01*
G01X385744Y879198D01*
G01X386993Y879524D01*
G01X388241Y879851D01*
G01X388241Y882202D01*
G01X390738Y882202D01*
G01X390738Y887196D01*
G01X393235Y887196D01*
G01X393235Y891682D01*
G01X394483Y892008D01*
G01X395732Y892335D01*
G01X395732Y894686D01*
G01X398228Y894686D01*
G01X398228Y899379D01*
G01X448166Y899379D01*
G01X448166Y889831D01*
G01X452535Y889012D01*
G01X452535Y887196D01*
G01X456125Y887187D01*
G01X459714Y887179D01*
G01X462523Y886426D01*
G01X462523Y884699D01*
G01X470130Y884699D01*
G01X470457Y883450D01*
G01X470783Y882202D01*
G01X473988Y882193D01*
G01X477192Y882185D01*
G01X480001Y881432D01*
G01X480001Y879705D01*
G01X487608Y879705D01*
G01X487935Y878457D01*
G01X488261Y877208D01*
G01X491466Y877200D01*
G01X494670Y877191D01*
G01X497479Y876439D01*
G01X497479Y874712D01*
G01X499820Y874703D01*
G01X502161Y874695D01*
G01X504970Y873942D01*
G01X504970Y872215D01*
G01X512577Y872215D01*
G01X512904Y870967D01*
G01X513230Y869718D01*
G01X516434Y869710D01*
G01X519639Y869701D01*
G01X522448Y868948D01*
G01X522487Y867929D01*
G01X522487Y867929D01*
G01X522527Y866909D01*
G01X523656Y869718D01*
G01X524888Y869718D01*
G01X527884Y872714D01*
G01X528268Y873713D01*
G01X528651Y874712D01*
G01X530424Y874712D01*
G01X531243Y879081D01*
G01X532900Y879081D01*
G01X533698Y884075D01*
G01X535397Y884075D01*
G01X536195Y889068D01*
G01X538053Y889068D01*
G01X538053Y894179D01*
G01X539302Y894505D01*
G01X540550Y894832D01*
G01X540550Y903414D01*
G01X543047Y904973D01*
G01X543047Y907794D01*
G01X541320Y907794D01*
G01X540567Y910603D01*
G01X540559Y912559D01*
G01X540550Y914515D01*
G01X539302Y914841D01*
G01X538053Y915167D01*
G01X538053Y917157D01*
G01X536064Y917157D01*
G01X535737Y918405D01*
G01X535411Y919654D01*
G01X528573Y919654D01*
G01X528247Y920902D01*
G01X527920Y922150D01*
G01X520721Y922150D01*
G01X520394Y920902D01*
G01X520068Y919654D01*
G01X513230Y919654D01*
G01X512896Y918377D01*
G01X512562Y917100D01*
G01X507986Y917285D01*
G01X503409Y917469D01*
G01X503035Y924647D01*
G01X500600Y924647D01*
G01X500600Y927144D01*
G01X498103Y927144D01*
G01X498103Y929502D01*
G01X493734Y930322D01*
G01X493734Y931978D01*
G01X488740Y932777D01*
G01X488740Y934634D01*
G01X470638Y934634D01*
G01X470638Y932723D01*
G01X469687Y932358D01*
G01X468736Y931993D01*
G01X460795Y924052D01*
G01X460430Y923101D01*
G01X460065Y922150D01*
G01X458153Y922150D01*
G01X458153Y918476D01*
G01X456989Y917660D01*
G01X455824Y916845D01*
G01X455379Y914816D01*
G01X454933Y912788D01*
G01X453160Y912788D01*
G01X453160Y907677D01*
G01X451911Y907351D01*
G01X450663Y907024D01*
G01X450663Y900938D01*
G01X448166Y899379D01*
G01X398228Y899379D01*
G01X398228Y899679D01*
G01X400725Y899679D01*
G01X400725Y904166D01*
G01X401974Y904492D01*
G01X403222Y904819D01*
G01X403222Y907170D01*
G01X405719Y907170D01*
G01X405719Y912163D01*
G01X408216Y912163D01*
G01X408216Y916650D01*
G01X409464Y916976D01*
G01X410713Y917303D01*
G01X410713Y919654D01*
G01X413210Y919654D01*
G01X413210Y924140D01*
G01X414458Y924466D01*
G01X415707Y924793D01*
G01X415707Y927144D01*
G01X418203Y927144D01*
G01X418203Y931630D01*
G01X419452Y931957D01*
G01X420700Y932283D01*
G01X420700Y934634D01*
G01X423197Y934634D01*
G01X423197Y939121D01*
G01X424446Y939447D01*
G01X425694Y939774D01*
G01X425694Y942125D01*
G01X428191Y942125D01*
G01X428191Y946611D01*
G01X429439Y946937D01*
G01X430688Y947264D01*
G01X430688Y949615D01*
G01X433185Y949615D01*
G01X433185Y952112D01*
G01X435682Y952112D01*
G01X435682Y957105D01*
G01X438178Y957105D01*
G01X438178Y959602D01*
G01X440675Y959602D01*
G01X440675Y964088D01*
G01X441924Y964415D01*
G01X443172Y964741D01*
G01X443172Y967092D01*
G01X445669Y967092D01*
G01X445669Y969589D01*
G01X448166Y969589D01*
G01X448166Y974583D01*
G01X450663Y974583D01*
G01X450663Y977080D01*
G01X453160Y977080D01*
G01X453160Y981566D01*
G01X454408Y981892D01*
G01X455657Y982219D01*
G01X455657Y984570D01*
G01X458153Y984570D01*
G01X458153Y987067D01*
G01X460650Y987067D01*
G01X460650Y989563D01*
G01X463147Y989563D01*
G01X463147Y994557D01*
G01X465644Y994557D01*
G01X465644Y997054D01*
G01X468141Y997054D01*
G01X468141Y999551D01*
G01X470638Y999551D01*
G01X470638Y1004037D01*
G01X471886Y1004363D01*
G01X473135Y1004690D01*
G01X473135Y1007041D01*
G01X475631Y1007041D01*
G01X475631Y1009538D01*
G01X478128Y1009538D01*
G01X478128Y1012034D01*
G01X480625Y1012034D01*
G01X480625Y1017028D01*
G01X483122Y1017028D01*
G01X483122Y1019525D01*
G01X485619Y1019525D01*
G01X485619Y1022022D01*
G01X488116Y1022022D01*
G01X488116Y1024518D01*
G01X490613Y1024518D01*
G01X490613Y1029005D01*
G01X491861Y1029331D01*
G01X493110Y1029658D01*
G01X493110Y1032009D01*
G01X495606Y1032009D01*
G01X495606Y1034505D01*
G01X498103Y1034505D01*
G01X498103Y1037002D01*
G01X500600Y1037002D01*
G01X500600Y1039499D01*
G01X503097Y1039499D01*
G01X503097Y1043985D01*
G01X504346Y1044312D01*
G01X505594Y1044638D01*
G01X505594Y1046989D01*
G01X508091Y1046989D01*
G01X508091Y1049486D01*
G01X510588Y1049486D01*
G01X510588Y1051983D01*
G01X513085Y1051983D01*
G01X513085Y1054480D01*
G01X515581Y1054480D01*
G01X515581Y1056976D01*
G01X518078Y1056976D01*
G01X518078Y1061463D01*
G01X519269Y1061774D01*
G01X520460Y1062085D01*
G01X520771Y1063276D01*
G01X521083Y1064467D01*
G01X523072Y1064467D01*
G01X523072Y1066964D01*
G01X525569Y1066964D01*
G01X525569Y1069460D01*
G01X528066Y1069460D01*
G01X528066Y1071957D01*
G01X530563Y1071957D01*
G01X530563Y1074454D01*
G01X533060Y1074454D01*
G01X533060Y1076951D01*
G01X535556Y1076951D01*
G01X535556Y1079500D01*
G01X540394Y1079318D01*
G01X545232Y1079135D01*
G01X545403Y1068314D01*
G01X545574Y1057492D01*
G01X543047Y1056831D01*
G01X543047Y1037148D01*
G01X544295Y1036821D01*
G01X545544Y1036495D01*
G01X545544Y987067D01*
G01X550538Y987067D01*
G01X550538Y989563D01*
G01X555531Y989563D01*
G01X555531Y992060D01*
G01X560525Y992060D01*
G01X560525Y994557D01*
G01X565519Y994557D01*
G01X565519Y997054D01*
G01X570513Y997054D01*
G01X570513Y999551D01*
G01X575506Y999551D01*
G01X575506Y1002047D01*
G01X580500Y1002047D01*
G01X580500Y1004544D01*
G01X585494Y1004544D01*
G01X585494Y1007041D01*
G01X590488Y1007041D01*
G01X590488Y1009538D01*
G01X595481Y1009538D01*
G01X595481Y1012034D01*
G01X597978Y1012034D01*
G01X597978Y1014531D01*
G01X602972Y1014531D01*
G01X602972Y1017028D01*
G01X607966Y1017028D01*
G01X607966Y1019525D01*
G01X612959Y1019525D01*
G01X612959Y1022022D01*
G01X617953Y1022022D01*
G01X617953Y1024518D01*
G01X622947Y1024518D01*
G01X622947Y1027015D01*
G01X632934Y1027015D01*
G01X632934Y1017535D01*
G01X631686Y1017209D01*
G01X630438Y1016882D01*
G01X630438Y1014531D01*
G01X627941Y1014531D01*
G01X627941Y1009538D01*
G01X625444Y1009538D01*
G01X625444Y1005051D01*
G01X624195Y1004725D01*
G01X622947Y1004399D01*
G01X622947Y1000058D01*
G01X621698Y999731D01*
G01X620450Y999405D01*
G01X620450Y997054D01*
G01X617953Y997054D01*
G01X617953Y992060D01*
G01X615456Y992060D01*
G01X615456Y987067D01*
G01X612959Y987067D01*
G01X612959Y982073D01*
G01X610463Y982073D01*
G01X610463Y977080D01*
G01X607966Y977080D01*
G01X607966Y972086D01*
G01X605469Y972086D01*
G01X605469Y967092D01*
G01X602972Y967092D01*
G01X602972Y960109D01*
G01X601724Y959783D01*
G01X600475Y959457D01*
G01X600475Y955116D01*
G01X599227Y954789D01*
G01X597978Y954463D01*
G01X597978Y949615D01*
G01X595481Y949615D01*
G01X595481Y944621D01*
G01X592984Y944621D01*
G01X592984Y937638D01*
G01X591736Y937312D01*
G01X590488Y936986D01*
G01X590488Y932138D01*
G01X587991Y932138D01*
G01X587991Y925155D01*
G01X586742Y924828D01*
G01X585494Y924502D01*
G01X585494Y917664D01*
G01X584245Y917338D01*
G01X582997Y917011D01*
G01X582997Y912163D01*
G01X580500Y912163D01*
G01X580500Y904673D01*
G01X578003Y904673D01*
G01X578003Y897690D01*
G01X576755Y897364D01*
G01X575506Y897037D01*
G01X575506Y890200D01*
G01X574258Y889873D01*
G01X573009Y889547D01*
G01X573009Y882202D01*
G01X570513Y882202D01*
G01X570513Y874712D01*
G01X568016Y874712D01*
G01X568016Y865232D01*
G01X566767Y864905D01*
G01X565519Y864579D01*
G01X565519Y855245D01*
G01X564270Y854918D01*
G01X563022Y854592D01*
G01X563022Y847247D01*
G01X560525Y847247D01*
G01X560525Y835271D01*
G01X559277Y834944D01*
G01X558028Y834618D01*
G01X558028Y824776D01*
G01X555531Y824776D01*
G01X555531Y812292D01*
G01X553035Y812292D01*
G01X553035Y797819D01*
G01X551786Y797492D01*
G01X550538Y797166D01*
G01X550538Y780341D01*
G01X549289Y780015D01*
G01X548041Y779688D01*
G01X548041Y757870D01*
G01X546792Y757544D01*
G01X545544Y757217D01*
G01X545544Y670121D01*
G01X546792Y669795D01*
G01X548041Y669469D01*
G01X548041Y647505D01*
G01X550538Y647505D01*
G01X550538Y632670D01*
G01X551786Y632343D01*
G01X553035Y632017D01*
G01X553035Y620186D01*
G01X554283Y619859D01*
G01X555531Y619533D01*
G01X555531Y607556D01*
G01X558028Y607556D01*
G01X558028Y597569D01*
G01X560525Y597569D01*
G01X560525Y587582D01*
G01X563022Y587582D01*
G01X563022Y580092D01*
G01X565519Y580092D01*
G01X565519Y572601D01*
G01X568016Y572601D01*
G01X568016Y565111D01*
G01X570513Y565111D01*
G01X570513Y557621D01*
G01X573009Y557621D01*
G01X573009Y550130D01*
G01X575506Y550130D01*
G01X575506Y545137D01*
G01X578003Y545137D01*
G01X578003Y537647D01*
G01X580500Y537647D01*
G01X580500Y532653D01*
G01X582997Y532653D01*
G01X582997Y527659D01*
G01X585494Y527659D01*
G01X585494Y520169D01*
G01X587991Y520169D01*
G01X587991Y515176D01*
G01X590488Y515176D01*
G01X590488Y510182D01*
G01X592984Y510182D01*
G01X592984Y505188D01*
G01X595481Y505188D01*
G01X595481Y500195D01*
G01X597978Y500195D01*
G01X597978Y495201D01*
G01X600475Y495201D01*
G01X600475Y490208D01*
G01X602972Y490208D01*
G01X602972Y482717D01*
G01X605469Y482717D01*
G01X605469Y477724D01*
G01X607966Y477724D01*
G01X607966Y472730D01*
G01X610463Y472730D01*
G01X610463Y467882D01*
G01X611711Y467556D01*
G01X612959Y467229D01*
G01X612959Y460246D01*
G01X615456Y460246D01*
G01X615456Y455253D01*
G01X617953Y455253D01*
G01X617953Y447763D01*
G01X620450Y447763D01*
G01X620450Y442915D01*
G01X621698Y442588D01*
G01X622947Y442262D01*
G01X622947Y435279D01*
G01X625444Y435279D01*
G01X625444Y427788D01*
G01X627941Y427788D01*
G01X627941Y420298D01*
G01X630438Y420298D01*
G01X630438Y415450D01*
G01X631686Y415124D01*
G01X632934Y414797D01*
G01X632934Y407960D01*
G01X634183Y407633D01*
G01X635431Y407307D01*
G01X635431Y397827D01*
G01X637928Y397827D01*
G01X637928Y390337D01*
G01X640425Y390337D01*
G01X640425Y382846D01*
G01X642922Y382846D01*
G01X642922Y372859D01*
G01X645419Y372859D01*
G01X645419Y362872D01*
G01X647916Y362872D01*
G01X647916Y352885D01*
G01X650413Y352885D01*
G01X650413Y342898D01*
G01X652909Y342898D01*
G01X652909Y330414D01*
G01X655406Y330414D01*
G01X655406Y315433D01*
G01X657903Y315433D01*
G01X657903Y298101D01*
G01X659152Y297775D01*
G01X660400Y297449D01*
G01X660400Y215562D01*
G01X657903Y215562D01*
G01X657903Y200582D01*
G01X655406Y200582D01*
G01X655406Y188605D01*
G01X654158Y188278D01*
G01X652909Y187952D01*
G01X652909Y180607D01*
G01X650413Y180607D01*
G01X650413Y173117D01*
G01X647916Y173117D01*
G01X647916Y166134D01*
G01X646667Y165807D01*
G01X645419Y165481D01*
G01X645419Y161140D01*
G01X644170Y160814D01*
G01X642922Y160487D01*
G01X642922Y156147D01*
G01X641673Y155820D01*
G01X640425Y155494D01*
G01X640425Y153143D01*
G01X635431Y153143D01*
G01X635431Y150646D01*
G01X630583Y150646D01*
G01X630257Y149398D01*
G01X629930Y148149D01*
G01X622947Y148149D01*
G01X622947Y145652D01*
G01X617953Y145652D01*
G01X617953Y143156D01*
G01X610463Y143156D01*
G01X610463Y140659D01*
G01X605469Y140659D01*
G01X605469Y138162D01*
G01X597978Y138162D01*
G01X597978Y135665D01*
G01X592984Y135665D01*
G01X592984Y133168D01*
G01X585494Y133168D01*
G01X585494Y130672D01*
G01X580500Y130672D01*
G01X580500Y128175D01*
G01X573009Y128175D01*
G01X573009Y125678D01*
G01X568016Y125678D01*
G01X568016Y123181D01*
G01X560525Y123181D01*
G01X560525Y120685D01*
G01X555531Y120685D01*
G01X555531Y118188D01*
G01X548041Y118188D01*
G01X548041Y115691D01*
G01X543047Y115691D01*
G01X543047Y113194D01*
G01X535556Y113194D01*
G01X535556Y110697D01*
G01X530563Y110697D01*
G01X530563Y108201D01*
G01X523072Y108201D01*
G01X523072Y105704D01*
G01X518078Y105704D01*
G01X518078Y103207D01*
G01X513230Y103207D01*
G01X512904Y101959D01*
G01X512577Y100710D01*
G01X505594Y100710D01*
G01X505594Y98214D01*
G01X500600Y98214D01*
G01X500600Y95717D01*
G01X493110Y95717D01*
G01X493110Y93220D01*
G01X488116Y93220D01*
G01X488116Y90723D01*
G01X480625Y90723D01*
G01X480625Y88226D01*
G01X475631Y88226D01*
G01X475631Y85730D01*
G01X468141Y85730D01*
G01X468141Y83233D01*
G01X463147Y83233D01*
G01X463147Y80736D01*
G01X455657Y80736D01*
G01X455657Y78239D01*
G01X450663Y78239D01*
G01X450663Y75743D01*
G01X443172Y75743D01*
G01X443172Y73246D01*
G01X438178Y73246D01*
G01X438178Y70749D01*
G01X430688Y70749D01*
G01X430688Y68252D01*
G01X425694Y68252D01*
G01X425694Y65755D01*
G01X428191Y65755D01*
G01X428191Y63259D01*
G01X432677Y63259D01*
G01X433004Y62010D01*
G01X433330Y60762D01*
G01X435682Y60762D01*
G01X435682Y58265D01*
G01X438178Y58265D01*
G01X438178Y55768D01*
G01X442665Y55768D01*
G01X442991Y54520D01*
G01X443318Y53272D01*
G01X445669Y53272D01*
G01X445669Y50775D01*
G01X448166Y50775D01*
G01X448166Y48424D01*
G01X449414Y48097D01*
G01X450663Y47771D01*
G01X450663Y43284D01*
G01X453160Y43284D01*
G01X453160Y40788D01*
G01X455657Y40788D01*
G01X455657Y38291D01*
G01X458153Y38291D01*
G01X458153Y33297D01*
G01X460650Y33297D01*
G01X460650Y28304D01*
G01X463147Y28304D01*
G01X463147Y23310D01*
G01X465644Y23310D01*
G01X465644Y15966D01*
G01X466892Y15639D01*
G01X468141Y15313D01*
G01X468141Y-6651D01*
G01X470638Y-6651D01*
G01X470638Y-16638D01*
G01X473135Y-16638D01*
G01X473135Y-23983D01*
G01X474383Y-24309D01*
G01X475631Y-24636D01*
G01X475631Y-34116D01*
G01X478128Y-34116D01*
G01X478128Y-44103D01*
G01X480625Y-44103D01*
G01X480625Y-51593D01*
G01X483122Y-51593D01*
G01X483122Y-59083D01*
G01X485619Y-59083D01*
G01X485619Y-66574D01*
G01X488116Y-66574D01*
G01X488116Y-73918D01*
G01X489364Y-74245D01*
G01X490613Y-74571D01*
G01X490613Y-81409D01*
G01X491861Y-81735D01*
G01X493110Y-82062D01*
G01X493110Y-89045D01*
G01X495606Y-89045D01*
G01X495606Y-96535D01*
G01X498103Y-96535D01*
G01X498103Y-104025D01*
G01X500600Y-104025D01*
G01X500600Y-111516D01*
G01X503097Y-111516D01*
G01X503097Y-116509D01*
G01X505594Y-116509D01*
G01X505594Y-124000D01*
G01X508091Y-124000D01*
G01X508091Y-131490D01*
G01X510588Y-131490D01*
G01X510588Y-136484D01*
G01X513085Y-136484D01*
G01X513085Y-143974D01*
G01X515581Y-143974D01*
G01X515581Y-148967D01*
G01X518078Y-148967D01*
G01X518078Y-153961D01*
G01X520575Y-153961D01*
G01X520575Y-161451D01*
G01X523072Y-161451D01*
G01X523072Y-166445D01*
G01X525569Y-166445D01*
G01X525569Y-171438D01*
G01X528066Y-171438D01*
G01X528066Y-176432D01*
G01X530563Y-176432D01*
G01X530563Y-181280D01*
G01X531811Y-181606D01*
G01X533060Y-181933D01*
G01X533060Y-188916D01*
G01X535556Y-188916D01*
G01X535556Y-193909D01*
G01X538053Y-193909D01*
G01X538053Y-198903D01*
G01X540550Y-198903D01*
G01X540550Y-203897D01*
G01X543047Y-203897D01*
G01X543047Y-208890D01*
G01X545544Y-208890D01*
G01X545544Y-213884D01*
G01X548041Y-213884D01*
G01X548041Y-218877D01*
G01X550538Y-218877D01*
G01X550538Y-223871D01*
G01X553035Y-223871D01*
G01X553035Y-226368D01*
G01X555531Y-226368D01*
G01X555531Y-231361D01*
G01X558028Y-231361D01*
G01X558028Y-236355D01*
G01X560525Y-236355D01*
G01X560525Y-241348D01*
G01X563022Y-241348D01*
G01X563022Y-246342D01*
G01X565519Y-246342D01*
G01X565519Y-248839D01*
G01X568016Y-248839D01*
G01X568016Y-253832D01*
G01X570513Y-253832D01*
G01X570513Y-258826D01*
G01X573009Y-258826D01*
G01X573009Y-261322D01*
G01X575506Y-261322D01*
G01X575506Y-266316D01*
G01X578003Y-266316D01*
G01X578003Y-271310D01*
G01X580500Y-271310D01*
G01X580500Y-273806D01*
G01X582997Y-273806D01*
G01X582997Y-278800D01*
G01X585494Y-278800D01*
G01X585494Y-281297D01*
G01X587991Y-281297D01*
G01X587991Y-286290D01*
G01X590488Y-286290D01*
G01X590488Y-288787D01*
G01X592984Y-288787D01*
G01X592984Y-293781D01*
G01X595481Y-293781D01*
G01X595481Y-296277D01*
G01X597978Y-296277D01*
G01X597978Y-301271D01*
G01X600475Y-301271D01*
G01X600475Y-303768D01*
G01X602972Y-303768D01*
G01X602972Y-308761D01*
G01X605469Y-308761D01*
G01X605469Y-311258D01*
G01X607966Y-311258D01*
G01X607966Y-313755D01*
G37*
G36*
G01X513199Y360258D02*
G01X512888Y359068D01*
G01X512577Y357879D01*
G01X505594Y357879D01*
G01X505594Y365223D01*
G01X504346Y365550D01*
G01X503097Y365876D01*
G01X503097Y380204D01*
G01X501849Y380530D01*
G01X500600Y380857D01*
G01X500600Y386342D01*
G01X502098Y387840D01*
G01X512784Y387840D01*
G01X514344Y390337D01*
G01X545037Y390337D01*
G01X545348Y389146D01*
G01X545659Y387955D01*
G01X546850Y387644D01*
G01X548041Y387333D01*
G01X548041Y383354D01*
G01X546792Y383027D01*
G01X545544Y382701D01*
G01X545544Y380935D01*
G01X544452Y380527D01*
G01X543359Y380120D01*
G01X542543Y378986D01*
G01X541728Y377853D01*
G01X538053Y377853D01*
G01X538053Y375941D01*
G01X536961Y375534D01*
G01X535869Y375126D01*
G01X535053Y373993D01*
G01X534237Y372859D01*
G01X530563Y372859D01*
G01X530563Y370362D01*
G01X528366Y370362D01*
G01X526807Y367866D01*
G01X523072Y367866D01*
G01X523072Y365369D01*
G01X520721Y365369D01*
G01X520394Y364120D01*
G01X520068Y362872D01*
G01X517454Y362872D01*
G01X517454Y361056D01*
G01X515327Y360657D01*
G01X513199Y360258D01*
G37*
G36*
G01X524799Y882826D02*
G01X523072Y882826D01*
G01X523072Y879705D01*
G01X516089Y879705D01*
G01X515762Y880954D01*
G01X515436Y882202D01*
G01X513480Y882211D01*
G01X511524Y882219D01*
G01X508715Y882972D01*
G01X508715Y884699D01*
G01X503604Y884699D01*
G01X503287Y885913D01*
G01X502969Y887128D01*
G01X500692Y887318D01*
G01X498415Y887508D01*
G01X498225Y890834D01*
G01X498035Y894161D01*
G01X500600Y894832D01*
G01X500600Y898421D01*
G01X503097Y899980D01*
G01X503097Y902176D01*
G01X505455Y902176D01*
G01X505852Y904292D01*
G01X506249Y906408D01*
G01X507482Y906730D01*
G01X508715Y907053D01*
G01X508715Y908943D01*
G01X510744Y909389D01*
G01X512772Y909834D01*
G01X513588Y910999D01*
G01X514404Y912163D01*
G01X522565Y912163D01*
G01X522891Y910915D01*
G01X523218Y909667D01*
G01X526568Y909667D01*
G01X528066Y908169D01*
G01X528066Y890200D01*
G01X526817Y889873D01*
G01X525569Y889547D01*
G01X525560Y887591D01*
G01X525552Y885635D01*
G01X524799Y882826D01*
G37*
G36*
G01X490613Y895945D02*
G01X488116Y894386D01*
G01X488116Y892189D01*
G01X481093Y892198D01*
G01X474071Y892206D01*
G01X471262Y892959D01*
G01X471262Y894686D01*
G01X467673Y894694D01*
G01X464083Y894703D01*
G01X461274Y895456D01*
G01X461274Y897096D01*
G01X459870Y897295D01*
G01X458466Y897495D01*
G01X458067Y901646D01*
G01X459359Y901984D01*
G01X460650Y902322D01*
G01X460659Y904278D01*
G01X460667Y906234D01*
G01X461420Y909042D01*
G01X463147Y909042D01*
G01X463147Y913341D01*
G01X464312Y914157D01*
G01X465476Y914972D01*
G01X465922Y917001D01*
G01X466367Y919029D01*
G01X468141Y919029D01*
G01X468141Y921565D01*
G01X469233Y921973D01*
G01X470326Y922380D01*
G01X471141Y923514D01*
G01X471957Y924647D01*
G01X475486Y924647D01*
G01X475812Y925896D01*
G01X476139Y927144D01*
G01X479162Y927135D01*
G01X482186Y927127D01*
G01X484995Y926374D01*
G01X484995Y924647D01*
G01X487023Y924641D01*
G01X489052Y924634D01*
G01X493110Y920457D01*
G01X493037Y911473D01*
G01X492965Y902488D01*
G01X492394Y900304D01*
G01X490613Y900304D01*
G01X490613Y895945D01*
G37*
G04 Image End*

G04 Text Start*
G36*
G01X829656Y3159529D02*
G01X814878Y3159529D01*
G01X814878Y3291609D01*
G01X855518Y3291609D01*
G01X855518Y3226954D01*
G01X857366Y3227416D01*
G01X861060Y3229264D01*
G01X890154Y3248660D01*
G01X894773Y3251431D01*
G01X903086Y3256973D01*
G01X925253Y3270827D01*
G01X934489Y3276369D01*
G01X938646Y3278678D01*
G01X941878Y3280526D01*
G01X952962Y3286067D01*
G01X957118Y3287914D01*
G01X966354Y3291609D01*
G01X970973Y3292994D01*
G01X975129Y3293918D01*
G01X978824Y3294842D01*
G01X984366Y3295766D01*
G01X990831Y3296689D01*
G01X999606Y3297151D01*
G01X1006533Y3296689D01*
G01X1011613Y3295766D01*
G01X1017154Y3294380D01*
G01X1020849Y3292994D01*
G01X1024082Y3291609D01*
G01X1027776Y3289762D01*
G01X1031009Y3287914D01*
G01X1034242Y3285606D01*
G01X1037474Y3282834D01*
G01X1044402Y3275907D01*
G01X1046711Y3273136D01*
G01X1048558Y3269904D01*
G01X1050406Y3266209D01*
G01X1052253Y3262976D01*
G01X1053638Y3259744D01*
G01X1055024Y3256049D01*
G01X1056409Y3251893D01*
G01X1057333Y3247736D01*
G01X1058256Y3242194D01*
G01X1059180Y3235729D01*
G01X1059642Y3223722D01*
G01X1059180Y3212638D01*
G01X1058256Y3206173D01*
G01X1056871Y3201554D01*
G01X1055024Y3195551D01*
G01X1053176Y3191394D01*
G01X1051329Y3188162D01*
G01X1048558Y3184006D01*
G01X1045787Y3180311D01*
G01X1041169Y3175693D01*
G01X1038860Y3173846D01*
G01X1036551Y3172460D01*
G01X1033318Y3170151D01*
G01X1029624Y3167842D01*
G01X1025929Y3165994D01*
G01X1020849Y3164147D01*
G01X1014846Y3162300D01*
G01X1009304Y3161376D01*
G01X1005609Y3160914D01*
G01X991754Y3159991D01*
G01X982056Y3159529D01*
G01X973744Y3159529D01*
G01X973744Y3213100D01*
G01X987598Y3213100D01*
G01X1002838Y3213562D01*
G01X1012998Y3214486D01*
G01X1016693Y3215871D01*
G01X1020387Y3219104D01*
G01X1022234Y3223722D01*
G01X1022696Y3229264D01*
G01X1022234Y3232266D01*
G01X1020849Y3234806D01*
G01X1016693Y3238038D01*
G01X1011151Y3239886D01*
G01X1002838Y3240809D01*
G01X996373Y3240347D01*
G01X992216Y3239424D01*
G01X987598Y3238038D01*
G01X979286Y3235267D01*
G01X975129Y3233420D01*
G01X970511Y3231573D01*
G01X963122Y3227878D01*
G01X946496Y3218642D01*
G01X930333Y3209406D01*
G01X927562Y3207558D01*
G01X917864Y3202016D01*
G01X914169Y3199707D01*
G01X872606Y3174769D01*
G01X865216Y3170151D01*
G01X851362Y3161838D01*
G01X846744Y3159991D01*
G01X829656Y3159529D01*
G37*
G36*
G01X830118Y2950787D02*
G01X814878Y2950787D01*
G01X814878Y3082867D01*
G01X855518Y3082867D01*
G01X855518Y3017289D01*
G01X857366Y3017751D01*
G01X860136Y3019136D01*
G01X863369Y3021446D01*
G01X896620Y3043613D01*
G01X901238Y3046384D01*
G01X909551Y3051926D01*
G01X914169Y3054696D01*
G01X928947Y3063933D01*
G01X933104Y3066242D01*
G01X942802Y3071784D01*
G01X953886Y3077326D01*
G01X963122Y3081020D01*
G01X968202Y3082867D01*
G01X973282Y3084253D01*
G01X976976Y3085176D01*
G01X981594Y3086100D01*
G01X987136Y3087024D01*
G01X998682Y3087486D01*
G01X1009304Y3087024D01*
G01X1013460Y3086100D01*
G01X1018078Y3084714D01*
G01X1021773Y3083329D01*
G01X1025006Y3081944D01*
G01X1028700Y3080096D01*
G01X1031933Y3078249D01*
G01X1038860Y3072707D01*
G01X1041169Y3070398D01*
G01X1044864Y3065780D01*
G01X1047173Y3062547D01*
G01X1049944Y3058391D01*
G01X1052253Y3053773D01*
G01X1054100Y3049154D01*
G01X1055947Y3044074D01*
G01X1057333Y3038071D01*
G01X1058256Y3033453D01*
G01X1059180Y3026064D01*
G01X1059642Y3014518D01*
G01X1059180Y3002973D01*
G01X1058256Y2996507D01*
G01X1056871Y2991889D01*
G01X1055024Y2986809D01*
G01X1053638Y2983576D01*
G01X1052253Y2980806D01*
G01X1050406Y2977573D01*
G01X1047634Y2973416D01*
G01X1038398Y2964180D01*
G01X1036089Y2962333D01*
G01X1032856Y2960486D01*
G01X1028700Y2958176D01*
G01X1025006Y2956329D01*
G01X1021311Y2954944D01*
G01X1013922Y2953096D01*
G01X1009304Y2952173D01*
G01X1004686Y2951711D01*
G01X1000991Y2951249D01*
G01X986674Y2950787D01*
G01X973744Y2950787D01*
G01X973744Y3004358D01*
G01X991293Y3004358D01*
G01X1010227Y3004820D01*
G01X1013922Y3005744D01*
G01X1018540Y3008053D01*
G01X1021773Y3012209D01*
G01X1022696Y3018674D01*
G01X1021773Y3024216D01*
G01X1019926Y3026987D01*
G01X1017154Y3028834D01*
G01X1013460Y3030220D01*
G01X1003300Y3031144D01*
G01X993602Y3030682D01*
G01X988984Y3029296D01*
G01X982980Y3027449D01*
G01X978362Y3025602D01*
G01X974206Y3023754D01*
G01X969587Y3021907D01*
G01X962198Y3018213D01*
G01X955733Y3014518D01*
G01X943264Y3007591D01*
G01X939569Y3005282D01*
G01X929871Y2999740D01*
G01X926176Y2997431D01*
G01X922020Y2995122D01*
G01X918787Y2993274D01*
G01X915093Y2990966D01*
G01X868911Y2963256D01*
G01X861522Y2958638D01*
G01X852286Y2953096D01*
G01X847667Y2951249D01*
G01X830118Y2950787D01*
G37*
G36*
G01X819034Y2783147D02*
G01X814878Y2783609D01*
G01X814878Y2862118D01*
G01X819034Y2862580D01*
G01X922482Y2877358D01*
G01X929871Y2878282D01*
G01X1007456Y2889366D01*
G01X1009996Y2889366D01*
G01X1011151Y2888442D01*
G01X1011613Y2862118D01*
G01X1011613Y2837180D01*
G01X1009304Y2836718D01*
G01X1003762Y2836256D01*
G01X989907Y2834871D01*
G01X969587Y2833024D01*
G01X947420Y2831176D01*
G01X911398Y2828406D01*
G01X889231Y2826558D01*
G01X879071Y2825634D01*
G01X872144Y2824942D01*
G01X871682Y2824249D01*
G01X874914Y2823326D01*
G01X887384Y2821940D01*
G01X894773Y2821016D01*
G01X911398Y2819169D01*
G01X918787Y2818246D01*
G01X927100Y2817322D01*
G01X934489Y2816398D01*
G01X942802Y2815474D01*
G01X950191Y2814551D01*
G01X958504Y2813627D01*
G01X965893Y2812704D01*
G01X982518Y2810856D01*
G01X989907Y2809933D01*
G01X998220Y2809009D01*
G01X1009304Y2807624D01*
G01X1011613Y2807624D01*
G01X1011613Y2756824D01*
G01X1000529Y2756824D01*
G01X988060Y2757286D01*
G01X981594Y2758209D01*
G01X976053Y2759133D01*
G01X969587Y2760056D01*
G01X964046Y2760980D01*
G01X957580Y2761904D01*
G01X952038Y2762827D01*
G01X945573Y2763751D01*
G01X940031Y2764674D01*
G01X927100Y2766522D01*
G01X921558Y2767446D01*
G01X915093Y2768369D01*
G01X909551Y2769293D01*
G01X903086Y2770216D01*
G01X897544Y2771140D01*
G01X891078Y2772064D01*
G01X885536Y2772987D01*
G01X879071Y2773911D01*
G01X873529Y2774834D01*
G01X867064Y2775758D01*
G01X861522Y2776682D01*
G01X848591Y2778529D01*
G01X843049Y2779453D01*
G01X836584Y2780376D01*
G01X831042Y2781300D01*
G01X824576Y2782224D01*
G01X819034Y2783147D01*
G37*
G36*
G01X839354Y3100416D02*
G01X814878Y3100416D01*
G01X814878Y3145674D01*
G01X863831Y3145674D01*
G01X863831Y3100416D01*
G01X839354Y3100416D01*
G37*
G04 Text End*
G54D10*

M02*

