G04 Layer: TopSilkscreenLayer*
G04 EasyEDA Pro v3.2.148, 2026-07-26 13:32:23*
G04 Gerber Generator version 0.3*
G04 Scale: 100 percent, Rotated: No, Reflected: No*
G04 Dimensions in millimeters*
G04 Leading zeros omitted, absolute positions, 4 integers and 5 decimals*
G04 Generated by one-click*
G04 Object Configs: Pad,Via,Track,Text,Image,Dimension,BoardOutline,BoardCutout,CopperFilled,SolidRegion,FPCStiffener,Line,PlaneZone,ComponentProperty,ComponentSilkscreen,TearDrop*
G04 Layer Configs: 1,2,3,4,5,6,7,8,9,10,11,13,14,71,72,56*
G04 Copper Areas: 0*
%FSLAX45Y45*%
%MOMM*%
%ADD10C,0.1524*%
%ADD11C,0.254*%
%ADD12C,0.2032*%
%ADD13C,0.203*%
%ADD14C,0.6327*%
G75*


G04 Image Start*
G36*
G01X1338232Y1025719D02*
G01X1038746Y1025667D01*
G01X978246Y1098062D01*
G01X917746Y1170458D01*
G01X917812Y1366067D01*
G01X917857Y1497599D01*
G01X1034973Y1497599D01*
G01X1035101Y1365692D01*
G01X1035228Y1233785D01*
G01X1063558Y1200323D01*
G01X1091887Y1166862D01*
G01X1188874Y1166770D01*
G01X1188874Y1166770D01*
G01X1285860Y1166677D01*
G01X1328039Y1216645D01*
G01X1344179Y1235163D01*
G01X1344179Y1307688D01*
G01X1339931Y1307777D01*
G01X1232899Y1308537D01*
G01X1232004Y1423214D01*
G01X1344179Y1423214D01*
G01X1344179Y1496051D01*
G01X1314872Y1530894D01*
G01X1285565Y1565737D01*
G01X1189349Y1565830D01*
G01X1093133Y1565924D01*
G01X1049588Y1514106D01*
G01X1042280Y1505853D01*
G01X1034973Y1497599D01*
G01X917857Y1497599D01*
G01X917878Y1561676D01*
G01X977700Y1633404D01*
G01X1037521Y1705131D01*
G01X1188994Y1705183D01*
G01X1340466Y1705235D01*
G01X1400936Y1632732D01*
G01X1461405Y1560229D01*
G01X1461405Y1423214D01*
G01X1575279Y1423214D01*
G01X1574384Y1308537D01*
G01X1461405Y1307642D01*
G01X1461405Y1171428D01*
G01X1401605Y1099822D01*
G01X1341805Y1028215D01*
G01X1340019Y1026967D01*
G01X1338232Y1025719D01*
G37*
G36*
G01X1061970Y1982159D02*
G01X1461405Y1982159D01*
G01X1461405Y1847944D01*
G01X917721Y1847944D01*
G01X918158Y1955293D01*
G01X918596Y2062641D01*
G01X1072349Y2145520D01*
G01X1226103Y2228398D01*
G01X1226600Y2238331D01*
G01X1227098Y2248263D01*
G01X1072422Y2332023D01*
G01X917746Y2415783D01*
G01X917746Y2627749D01*
G01X1461405Y2627749D01*
G01X1461405Y2493534D01*
G01X1062156Y2493534D01*
G01X1062212Y2485465D01*
G01X1062268Y2477395D01*
G01X1218939Y2392437D01*
G01X1375609Y2307480D01*
G01X1376052Y2237721D01*
G01X1376496Y2167963D01*
G01X1219750Y2082839D01*
G01X1063005Y1997715D01*
G01X1061970Y1982159D01*
G37*
G36*
G01X1407032Y364870D02*
G01X1461405Y335584D01*
G01X1461405Y203200D01*
G01X1418082Y204238D01*
G01X1167900Y344238D01*
G01X917718Y484238D01*
G01X918106Y565959D01*
G01X1033274Y565959D01*
G01X1234597Y457170D01*
G01X1235044Y516436D01*
G01X1235491Y575702D01*
G01X1235044Y634157D01*
G01X1234597Y692613D01*
G01X1033334Y584797D01*
G01X1033274Y565959D01*
G01X1033274Y565959D01*
G01X918106Y565959D01*
G01X918157Y576651D01*
G01X918596Y669063D01*
G01X1168310Y809139D01*
G01X1418024Y949215D01*
G01X1461405Y949215D01*
G01X1461399Y881683D01*
G01X1461393Y814151D01*
G01X1407458Y785001D01*
G01X1353523Y755850D01*
G01X1352658Y394156D01*
G01X1407032Y364870D01*
G37*
G36*
G01X1104629Y3487403D02*
G01X1232049Y3487403D01*
G01X1232049Y2870695D01*
G01X1120344Y2870799D01*
G01X1008639Y2870904D01*
G01X965317Y2922636D01*
G01X921994Y2974367D01*
G01X909676Y2989087D01*
G01X897359Y3003808D01*
G01X897359Y3306476D01*
G01X884507Y3322187D01*
G01X871655Y3337898D01*
G01X828189Y3337898D01*
G01X814354Y3321427D01*
G01X800520Y3304956D01*
G01X800520Y2896179D01*
G01X673100Y2896179D01*
G01X673100Y2911469D01*
G01X690089Y2911469D01*
G01X785230Y2911469D01*
G01X785230Y3312669D01*
G01X802397Y3332929D01*
G01X819564Y3353188D01*
G01X880316Y3353188D01*
G01X914349Y3312313D01*
G01X914383Y3009157D01*
G01X925834Y2995489D01*
G01X937284Y2981822D01*
G01X937284Y2981822D01*
G01X977731Y2933903D01*
G01X1018179Y2885985D01*
G01X1216759Y2885985D01*
G01X1216759Y3472113D01*
G01X1119919Y3472113D01*
G01X1119919Y3008308D01*
G01X1088064Y3008397D01*
G01X1056209Y3008486D01*
G01X1032849Y3037541D01*
G01X1009489Y3066596D01*
G01X1009489Y3376236D01*
G01X967654Y3425873D01*
G01X925819Y3475511D01*
G01X849153Y3475504D01*
G01X772488Y3475497D01*
G01X731327Y3425811D01*
G01X690167Y3376124D01*
G01X690128Y3143796D01*
G01X690089Y2911469D01*
G01X673100Y2911469D01*
G01X673100Y3382003D01*
G01X719099Y3437251D01*
G01X765097Y3492500D01*
G01X849492Y3492456D01*
G01X933886Y3492411D01*
G01X979333Y3438180D01*
G01X1024779Y3383949D01*
G01X1024779Y3073685D01*
G01X1039306Y3055862D01*
G01X1053833Y3038039D01*
G01X1065002Y3024447D01*
G01X1084815Y3024975D01*
G01X1104629Y3025502D01*
G01X1104629Y3487403D01*
G37*
G04 Image End*

G04 Text Start*
G36*
G01X1507144Y3159529D02*
G01X1521922Y3159529D01*
G01X1521922Y3291609D01*
G01X1481282Y3291609D01*
G01X1481282Y3226954D01*
G01X1479434Y3227416D01*
G01X1475740Y3229264D01*
G01X1446646Y3248660D01*
G01X1442027Y3251431D01*
G01X1433714Y3256973D01*
G01X1411547Y3270827D01*
G01X1402311Y3276369D01*
G01X1398154Y3278678D01*
G01X1394922Y3280526D01*
G01X1383838Y3286067D01*
G01X1379682Y3287914D01*
G01X1370446Y3291609D01*
G01X1365827Y3292994D01*
G01X1361671Y3293918D01*
G01X1357976Y3294842D01*
G01X1352434Y3295766D01*
G01X1345969Y3296689D01*
G01X1337194Y3297151D01*
G01X1330267Y3296689D01*
G01X1325187Y3295766D01*
G01X1319646Y3294380D01*
G01X1315951Y3292994D01*
G01X1312718Y3291609D01*
G01X1309024Y3289762D01*
G01X1305791Y3287914D01*
G01X1302558Y3285606D01*
G01X1299326Y3282834D01*
G01X1292398Y3275907D01*
G01X1290089Y3273136D01*
G01X1288242Y3269904D01*
G01X1286394Y3266209D01*
G01X1284547Y3262976D01*
G01X1283162Y3259744D01*
G01X1281776Y3256049D01*
G01X1280391Y3251893D01*
G01X1279467Y3247736D01*
G01X1278544Y3242194D01*
G01X1277620Y3235729D01*
G01X1277158Y3223722D01*
G01X1277620Y3212638D01*
G01X1278544Y3206173D01*
G01X1279929Y3201554D01*
G01X1281776Y3195551D01*
G01X1283624Y3191394D01*
G01X1285471Y3188162D01*
G01X1288242Y3184006D01*
G01X1291013Y3180311D01*
G01X1295631Y3175693D01*
G01X1297940Y3173846D01*
G01X1300249Y3172460D01*
G01X1303482Y3170151D01*
G01X1307176Y3167842D01*
G01X1310871Y3165994D01*
G01X1315951Y3164147D01*
G01X1321954Y3162300D01*
G01X1327496Y3161376D01*
G01X1331191Y3160914D01*
G01X1345046Y3159991D01*
G01X1354744Y3159529D01*
G01X1363056Y3159529D01*
G01X1363056Y3213100D01*
G01X1349202Y3213100D01*
G01X1333962Y3213562D01*
G01X1323802Y3214486D01*
G01X1320107Y3215871D01*
G01X1316413Y3219104D01*
G01X1314566Y3223722D01*
G01X1314104Y3229264D01*
G01X1314566Y3232266D01*
G01X1315951Y3234806D01*
G01X1320107Y3238038D01*
G01X1325649Y3239886D01*
G01X1333962Y3240809D01*
G01X1340427Y3240347D01*
G01X1344584Y3239424D01*
G01X1349202Y3238038D01*
G01X1357514Y3235267D01*
G01X1361671Y3233420D01*
G01X1366289Y3231573D01*
G01X1373678Y3227878D01*
G01X1390304Y3218642D01*
G01X1406467Y3209406D01*
G01X1409238Y3207558D01*
G01X1418936Y3202016D01*
G01X1422631Y3199707D01*
G01X1464194Y3174769D01*
G01X1471584Y3170151D01*
G01X1485438Y3161838D01*
G01X1490056Y3159991D01*
G01X1507144Y3159529D01*
G37*
G36*
G01X1506682Y2950787D02*
G01X1521922Y2950787D01*
G01X1521922Y3082867D01*
G01X1481282Y3082867D01*
G01X1481282Y3017289D01*
G01X1479434Y3017751D01*
G01X1476664Y3019136D01*
G01X1473431Y3021446D01*
G01X1440180Y3043613D01*
G01X1435562Y3046384D01*
G01X1427249Y3051926D01*
G01X1422631Y3054696D01*
G01X1407853Y3063933D01*
G01X1403696Y3066242D01*
G01X1393998Y3071784D01*
G01X1382914Y3077326D01*
G01X1373678Y3081020D01*
G01X1368598Y3082867D01*
G01X1363518Y3084253D01*
G01X1359824Y3085176D01*
G01X1355206Y3086100D01*
G01X1349664Y3087024D01*
G01X1338118Y3087486D01*
G01X1327496Y3087024D01*
G01X1323340Y3086100D01*
G01X1318722Y3084714D01*
G01X1315027Y3083329D01*
G01X1311794Y3081944D01*
G01X1308100Y3080096D01*
G01X1304867Y3078249D01*
G01X1297940Y3072707D01*
G01X1295631Y3070398D01*
G01X1291936Y3065780D01*
G01X1289627Y3062547D01*
G01X1286856Y3058391D01*
G01X1284547Y3053773D01*
G01X1282700Y3049154D01*
G01X1280853Y3044074D01*
G01X1279467Y3038071D01*
G01X1278544Y3033453D01*
G01X1277620Y3026064D01*
G01X1277158Y3014518D01*
G01X1277620Y3002973D01*
G01X1278544Y2996507D01*
G01X1279929Y2991889D01*
G01X1281776Y2986809D01*
G01X1283162Y2983576D01*
G01X1284547Y2980806D01*
G01X1286394Y2977573D01*
G01X1289166Y2973416D01*
G01X1298402Y2964180D01*
G01X1300711Y2962333D01*
G01X1303944Y2960486D01*
G01X1308100Y2958176D01*
G01X1311794Y2956329D01*
G01X1315489Y2954944D01*
G01X1322878Y2953096D01*
G01X1327496Y2952173D01*
G01X1332114Y2951711D01*
G01X1335809Y2951249D01*
G01X1350126Y2950787D01*
G01X1363056Y2950787D01*
G01X1363056Y3004358D01*
G01X1345507Y3004358D01*
G01X1326573Y3004820D01*
G01X1322878Y3005744D01*
G01X1318260Y3008053D01*
G01X1315027Y3012209D01*
G01X1314104Y3018674D01*
G01X1315027Y3024216D01*
G01X1316874Y3026987D01*
G01X1319646Y3028834D01*
G01X1323340Y3030220D01*
G01X1333500Y3031144D01*
G01X1343198Y3030682D01*
G01X1347816Y3029296D01*
G01X1353820Y3027449D01*
G01X1358438Y3025602D01*
G01X1362594Y3023754D01*
G01X1367213Y3021907D01*
G01X1374602Y3018213D01*
G01X1381067Y3014518D01*
G01X1393536Y3007591D01*
G01X1397231Y3005282D01*
G01X1406929Y2999740D01*
G01X1410624Y2997431D01*
G01X1414780Y2995122D01*
G01X1418013Y2993274D01*
G01X1421707Y2990966D01*
G01X1467889Y2963256D01*
G01X1475278Y2958638D01*
G01X1484514Y2953096D01*
G01X1489133Y2951249D01*
G01X1506682Y2950787D01*
G37*
G36*
G01X1517766Y2783147D02*
G01X1521922Y2783609D01*
G01X1521922Y2862118D01*
G01X1517766Y2862580D01*
G01X1414318Y2877358D01*
G01X1406929Y2878282D01*
G01X1329344Y2889366D01*
G01X1326804Y2889366D01*
G01X1325649Y2888442D01*
G01X1325187Y2862118D01*
G01X1325187Y2837180D01*
G01X1327496Y2836718D01*
G01X1333038Y2836256D01*
G01X1346893Y2834871D01*
G01X1367213Y2833024D01*
G01X1389380Y2831176D01*
G01X1425402Y2828406D01*
G01X1447569Y2826558D01*
G01X1457729Y2825634D01*
G01X1464656Y2824942D01*
G01X1465118Y2824249D01*
G01X1461886Y2823326D01*
G01X1449416Y2821940D01*
G01X1442027Y2821016D01*
G01X1425402Y2819169D01*
G01X1418013Y2818246D01*
G01X1409700Y2817322D01*
G01X1402311Y2816398D01*
G01X1393998Y2815474D01*
G01X1386609Y2814551D01*
G01X1378296Y2813627D01*
G01X1370907Y2812704D01*
G01X1354282Y2810856D01*
G01X1346893Y2809933D01*
G01X1338580Y2809009D01*
G01X1327496Y2807624D01*
G01X1325187Y2807624D01*
G01X1325187Y2756824D01*
G01X1336271Y2756824D01*
G01X1348740Y2757286D01*
G01X1355206Y2758209D01*
G01X1360747Y2759133D01*
G01X1367213Y2760056D01*
G01X1372754Y2760980D01*
G01X1379220Y2761904D01*
G01X1384762Y2762827D01*
G01X1391227Y2763751D01*
G01X1396769Y2764674D01*
G01X1409700Y2766522D01*
G01X1415242Y2767446D01*
G01X1421707Y2768369D01*
G01X1427249Y2769293D01*
G01X1433714Y2770216D01*
G01X1439256Y2771140D01*
G01X1445722Y2772064D01*
G01X1451264Y2772987D01*
G01X1457729Y2773911D01*
G01X1463271Y2774834D01*
G01X1469736Y2775758D01*
G01X1475278Y2776682D01*
G01X1488209Y2778529D01*
G01X1493751Y2779453D01*
G01X1500216Y2780376D01*
G01X1505758Y2781300D01*
G01X1512224Y2782224D01*
G01X1517766Y2783147D01*
G37*
G36*
G01X1497446Y3100416D02*
G01X1521922Y3100416D01*
G01X1521922Y3145674D01*
G01X1472969Y3145674D01*
G01X1472969Y3100416D01*
G01X1497446Y3100416D01*
G37*
G54D10*
G01X1120704Y-532253D02*
G01X1114354Y-535301D01*
G01X1108258Y-541651D01*
G01X1105210Y-547747D01*
G01X1105210Y-560193D01*
G01X1108258Y-566289D01*
G01X1114354Y-572639D01*
G01X1120704Y-575687D01*
G01X1129848Y-578735D01*
G01X1145342Y-578735D01*
G01X1154740Y-575687D01*
G01X1160836Y-572639D01*
G01X1167186Y-566289D01*
G01X1170234Y-560193D01*
G01X1170234Y-547747D01*
G01X1167186Y-541651D01*
G01X1160836Y-535301D01*
G01X1154740Y-532253D01*
G01X1117656Y-502027D02*
G01X1114354Y-495931D01*
G01X1105210Y-486787D01*
G01X1170234Y-486787D01*
G01X1125784Y-348357D02*
G01X1132134Y-345309D01*
G01X1138230Y-338959D01*
G01X1141278Y-332863D01*
G01X1141278Y-320417D01*
G01X1138230Y-314321D01*
G01X1132134Y-307971D01*
G01X1125784Y-304923D01*
G01X1116640Y-301875D01*
G01X1101146Y-301875D01*
G01X1091748Y-304923D01*
G01X1085652Y-307971D01*
G01X1079302Y-314321D01*
G01X1076254Y-320417D01*
G01X1076254Y-332863D01*
G01X1079302Y-338959D01*
G01X1085652Y-345309D01*
G01X1091748Y-348357D01*
G01X1125784Y-381631D02*
G01X1128832Y-381631D01*
G01X1135182Y-384679D01*
G01X1138230Y-387727D01*
G01X1141278Y-393823D01*
G01X1141278Y-406269D01*
G01X1138230Y-412619D01*
G01X1135182Y-415667D01*
G01X1128832Y-418715D01*
G01X1122736Y-418715D01*
G01X1116640Y-415667D01*
G01X1107242Y-409317D01*
G01X1076254Y-378583D01*
G01X1076254Y-421763D01*
G01X567965Y1656420D02*
G01X632989Y1656420D01*
G01X567965Y1656420D02*
G01X567965Y1696552D01*
G01X598953Y1656420D02*
G01X598953Y1681312D01*
G01X632989Y1656420D02*
G01X632989Y1696552D01*
G01X577109Y1769958D02*
G01X571013Y1763862D01*
G01X567965Y1754464D01*
G01X567965Y1742018D01*
G01X571013Y1732874D01*
G01X577109Y1726778D01*
G01X583459Y1726778D01*
G01X589555Y1729826D01*
G01X592603Y1732874D01*
G01X595651Y1738970D01*
G01X602001Y1757512D01*
G01X605049Y1763862D01*
G01X608097Y1766910D01*
G01X614447Y1769958D01*
G01X623591Y1769958D01*
G01X629941Y1763862D01*
G01X632989Y1754464D01*
G01X632989Y1742018D01*
G01X629941Y1732874D01*
G01X623591Y1726778D01*
G01X567965Y1800184D02*
G01X632989Y1800184D01*
G01X567965Y1800184D02*
G01X567965Y1827870D01*
G01X571013Y1837268D01*
G01X574061Y1840316D01*
G01X580411Y1843364D01*
G01X589555Y1843364D01*
G01X595651Y1840316D01*
G01X598953Y1837268D01*
G01X602001Y1827870D01*
G01X602001Y1800184D01*
G01X567965Y1879686D02*
G01X567965Y1913722D01*
G01X592603Y1895180D01*
G01X592603Y1904324D01*
G01X595651Y1910674D01*
G01X598953Y1913722D01*
G01X608097Y1916770D01*
G01X614447Y1916770D01*
G01X623591Y1913722D01*
G01X629941Y1907626D01*
G01X632989Y1898228D01*
G01X632989Y1888830D01*
G01X629941Y1879686D01*
G01X626639Y1876638D01*
G01X620543Y1873590D01*
G01X583459Y1950044D02*
G01X580411Y1950044D01*
G01X574061Y1953092D01*
G01X571013Y1956140D01*
G01X567965Y1962236D01*
G01X567965Y1974682D01*
G01X571013Y1981032D01*
G01X574061Y1984080D01*
G01X580411Y1987128D01*
G01X586507Y1987128D01*
G01X592603Y1984080D01*
G01X602001Y1977730D01*
G01X632989Y1946996D01*
G01X632989Y1990176D01*
G01X583459Y2135972D02*
G01X577109Y2132924D01*
G01X571013Y2126828D01*
G01X567965Y2120478D01*
G01X567965Y2108286D01*
G01X571013Y2101936D01*
G01X577109Y2095840D01*
G01X583459Y2092792D01*
G01X592603Y2089744D01*
G01X608097Y2089744D01*
G01X617495Y2092792D01*
G01X623591Y2095840D01*
G01X629941Y2101936D01*
G01X632989Y2108286D01*
G01X632989Y2120478D01*
G01X629941Y2126828D01*
G01X623591Y2132924D01*
G01X617495Y2135972D01*
G01X567965Y2172294D02*
G01X567965Y2206330D01*
G01X592603Y2187788D01*
G01X592603Y2196932D01*
G01X595651Y2203282D01*
G01X598953Y2206330D01*
G01X608097Y2209378D01*
G01X614447Y2209378D01*
G01X623591Y2206330D01*
G01X629941Y2200234D01*
G01X632989Y2190836D01*
G01X632989Y2181438D01*
G01X629941Y2172294D01*
G01X626639Y2169246D01*
G01X620543Y2166198D01*
G01X567965Y2308946D02*
G01X632989Y2308946D01*
G01X632989Y2308946D02*
G01X632989Y2346030D01*
G01X139954Y59690D02*
G01X133604Y65786D01*
G01X124460Y68834D01*
G01X112014Y68834D01*
G01X102616Y65786D01*
G01X96520Y59690D01*
G01X96520Y53340D01*
G01X99568Y47244D01*
G01X102616Y44196D01*
G01X108966Y41148D01*
G01X127508Y34798D01*
G01X133604Y31750D01*
G01X136652Y28702D01*
G01X139954Y22352D01*
G01X139954Y13208D01*
G01X133604Y6858D01*
G01X124460Y3810D01*
G01X112014Y3810D01*
G01X102616Y6858D01*
G01X96520Y13208D01*
G01X216408Y53340D02*
G01X213360Y59690D01*
G01X207264Y65786D01*
G01X200914Y68834D01*
G01X188722Y68834D01*
G01X182372Y65786D01*
G01X176276Y59690D01*
G01X173228Y53340D01*
G01X170180Y44196D01*
G01X170180Y28702D01*
G01X173228Y19304D01*
G01X176276Y13208D01*
G01X182372Y6858D01*
G01X188722Y3810D01*
G01X200914Y3810D01*
G01X207264Y6858D01*
G01X213360Y13208D01*
G01X216408Y19304D01*
G01X246634Y68834D02*
G01X246634Y3810D01*
G01X246634Y68834D02*
G01X268224Y68834D01*
G01X277368Y65786D01*
G01X283718Y59690D01*
G01X286766Y53340D01*
G01X289814Y44196D01*
G01X289814Y28702D01*
G01X286766Y19304D01*
G01X283718Y13208D01*
G01X277368Y6858D01*
G01X268224Y3810D01*
G01X246634Y3810D01*
G01X350774Y68834D02*
G01X320040Y25654D01*
G01X366268Y25654D01*
G01X350774Y68834D02*
G01X350774Y3810D01*
G01X396494Y56388D02*
G01X402590Y59690D01*
G01X411734Y68834D01*
G01X411734Y3810D01*
G01X1672165Y1669120D02*
G01X1737189Y1669120D01*
G01X1672165Y1669120D02*
G01X1672165Y1709252D01*
G01X1703153Y1669120D02*
G01X1703153Y1694012D01*
G01X1737189Y1669120D02*
G01X1737189Y1709252D01*
G01X1681309Y1782658D02*
G01X1675213Y1776562D01*
G01X1672165Y1767164D01*
G01X1672165Y1754718D01*
G01X1675213Y1745574D01*
G01X1681309Y1739478D01*
G01X1687659Y1739478D01*
G01X1693755Y1742526D01*
G01X1696803Y1745574D01*
G01X1699851Y1751670D01*
G01X1706201Y1770212D01*
G01X1709249Y1776562D01*
G01X1712297Y1779610D01*
G01X1718647Y1782658D01*
G01X1727791Y1782658D01*
G01X1734141Y1776562D01*
G01X1737189Y1767164D01*
G01X1737189Y1754718D01*
G01X1734141Y1745574D01*
G01X1727791Y1739478D01*
G01X1672165Y1812884D02*
G01X1737189Y1812884D01*
G01X1672165Y1812884D02*
G01X1672165Y1840570D01*
G01X1675213Y1849968D01*
G01X1678261Y1853016D01*
G01X1684611Y1856064D01*
G01X1693755Y1856064D01*
G01X1699851Y1853016D01*
G01X1703153Y1849968D01*
G01X1706201Y1840570D01*
G01X1706201Y1812884D01*
G01X1672165Y1892386D02*
G01X1672165Y1926422D01*
G01X1696803Y1907880D01*
G01X1696803Y1917024D01*
G01X1699851Y1923374D01*
G01X1703153Y1926422D01*
G01X1712297Y1929470D01*
G01X1718647Y1929470D01*
G01X1727791Y1926422D01*
G01X1734141Y1920326D01*
G01X1737189Y1910928D01*
G01X1737189Y1901530D01*
G01X1734141Y1892386D01*
G01X1730839Y1889338D01*
G01X1724743Y1886290D01*
G01X1687659Y1962744D02*
G01X1684611Y1962744D01*
G01X1678261Y1965792D01*
G01X1675213Y1968840D01*
G01X1672165Y1974936D01*
G01X1672165Y1987382D01*
G01X1675213Y1993732D01*
G01X1678261Y1996780D01*
G01X1684611Y1999828D01*
G01X1690707Y1999828D01*
G01X1696803Y1996780D01*
G01X1706201Y1990430D01*
G01X1737189Y1959696D01*
G01X1737189Y2002876D01*
G01X1687659Y2148672D02*
G01X1681309Y2145624D01*
G01X1675213Y2139528D01*
G01X1672165Y2133178D01*
G01X1672165Y2120986D01*
G01X1675213Y2114636D01*
G01X1681309Y2108540D01*
G01X1687659Y2105492D01*
G01X1696803Y2102444D01*
G01X1712297Y2102444D01*
G01X1721695Y2105492D01*
G01X1727791Y2108540D01*
G01X1734141Y2114636D01*
G01X1737189Y2120986D01*
G01X1737189Y2133178D01*
G01X1734141Y2139528D01*
G01X1727791Y2145624D01*
G01X1721695Y2148672D01*
G01X1672165Y2184994D02*
G01X1672165Y2219030D01*
G01X1696803Y2200488D01*
G01X1696803Y2209632D01*
G01X1699851Y2215982D01*
G01X1703153Y2219030D01*
G01X1712297Y2222078D01*
G01X1718647Y2222078D01*
G01X1727791Y2219030D01*
G01X1734141Y2212934D01*
G01X1737189Y2203536D01*
G01X1737189Y2194138D01*
G01X1734141Y2184994D01*
G01X1730839Y2181946D01*
G01X1724743Y2178898D01*
G01X1672165Y2321646D02*
G01X1737189Y2321646D01*
G01X1672165Y2321646D02*
G01X1672165Y2349332D01*
G01X1675213Y2358730D01*
G01X1678261Y2361778D01*
G01X1684611Y2364826D01*
G01X1690707Y2364826D01*
G01X1696803Y2361778D01*
G01X1699851Y2358730D01*
G01X1703153Y2349332D01*
G01X1703153Y2321646D01*
G01X1703153Y2343236D02*
G01X1737189Y2364826D01*
G04 Text End*

G04 PolygonModel Start*
G54D11*
G01X1371193Y-482205D02*
G01X1371193Y-562202D01*
G01X1371239Y-426160D02*
G01X1371239Y-346162D01*
G01X1229225Y-482205D02*
G01X1229225Y-562202D01*
G01X1229273Y-426160D02*
G01X1229273Y-346162D01*
G01X1340210Y-593177D02*
G01X1260206Y-593177D01*
G01X1260259Y-315185D02*
G01X1340261Y-315185D01*
G01X1229273Y-346167D02*
G02X1260259Y-315185I30983J0D01*
G01X1340256Y-315185D02*
G02X1371239Y-346167I0J-30983D01*
G01X1371193Y-562197D02*
G02X1340210Y-593177I-30983J3D01*
G01X1260213Y-593177D02*
G02X1229225Y-562197I-5J30983D01*
G01X1018182Y-482205D02*
G01X1018182Y-562202D01*
G01X1018227Y-426160D02*
G01X1018227Y-346162D01*
G01X876213Y-482205D02*
G01X876213Y-562202D01*
G01X876262Y-426160D02*
G01X876262Y-346162D01*
G01X987199Y-593177D02*
G01X907194Y-593177D01*
G01X907247Y-315185D02*
G01X987249Y-315185D01*
G01X876262Y-346167D02*
G02X907247Y-315185I30983J0D01*
G01X987244Y-315185D02*
G02X1018227Y-346167I0J-30983D01*
G01X1018182Y-562197D02*
G02X987199Y-593177I-30983J3D01*
G01X907201Y-593177D02*
G02X876213Y-562197I-5J30983D01*
G01X257800Y1890103D02*
G01X507800Y1890103D01*
G01X507800Y1636103D02*
G01X507800Y3414098D01*
G01X257800Y1636103D02*
G01X507800Y1636103D01*
G01X507800Y3414098D02*
G01X257800Y3414098D01*
G01X257800Y3414098D02*
G01X257800Y1636103D01*
G54D12*
G01X101600Y1117600D02*
G01X355600Y1117600D01*
G01X355600Y1117600D02*
G01X355600Y101600D01*
G01X355600Y101600D02*
G01X101600Y101600D01*
G01X101600Y101600D02*
G01X101600Y292100D01*
G54D13*
G01X101600Y1117600D02*
G01X101600Y292100D01*
G54D11*
G01X1618551Y-216236D02*
G01X1618551Y-205355D01*
G01X1618551Y-536236D02*
G01X1618551Y-382467D01*
G01X2126551Y-702463D02*
G01X2126551Y-713355D01*
G01X2126551Y-713355D02*
G01X1618551Y-713355D01*
G01X1618551Y-713355D02*
G01X1618551Y-702463D01*
G01X2126551Y-382467D02*
G01X2126551Y-536236D01*
G01X1618551Y-205355D02*
G01X2126551Y-205355D01*
G01X2126551Y-205355D02*
G01X2126551Y-216236D01*
G36*
G01X2082690Y-767886D02*
G01X2150000Y-695496D01*
G01X2150000Y-767886D01*
G01X2082690Y-767886D01*
G37*
G01X183451Y-216236D02*
G01X183451Y-205355D01*
G01X183451Y-536236D02*
G01X183451Y-382467D01*
G01X691451Y-702463D02*
G01X691451Y-713355D01*
G01X691451Y-713355D02*
G01X183451Y-713355D01*
G01X183451Y-713355D02*
G01X183451Y-702463D01*
G01X691451Y-382467D02*
G01X691451Y-536236D01*
G01X183451Y-205355D02*
G01X691451Y-205355D01*
G01X691451Y-205355D02*
G01X691451Y-216236D01*
G36*
G01X647591Y-767886D02*
G01X714901Y-695496D01*
G01X714901Y-767886D01*
G01X647591Y-767886D01*
G37*
G01X1793800Y1890103D02*
G01X2043800Y1890103D01*
G01X2043800Y1636103D02*
G01X2043800Y3414098D01*
G01X1793800Y1636103D02*
G01X2043800Y1636103D01*
G01X2043800Y3414098D02*
G01X1793800Y3414098D01*
G01X1793800Y3414098D02*
G01X1793800Y1636103D01*

G04 Rect Start*
G01X61600Y-53400D02*
G01X61600Y1272600D01*
G01X2231600Y1272600D01*
G01X2231600Y-53400D01*
G01X61600Y-53400D01*
G01X253800Y1457100D02*
G01X253800Y3593100D01*
G01X2043800Y3593100D01*
G01X2043800Y1457100D01*
G01X253800Y1457100D01*
G01X698800Y3593100D02*
G01X698800Y3723100D01*
G01X1598800Y3723100D01*
G01X1598800Y3593100D01*
G01X698800Y3593100D01*
G04 Rect End*

M02*

