ISO-10303-21;
HEADER;
/* Generated by software containing ST-Developer
 * from STEP Tools, Inc. (www.steptools.com) 
 */
/* OPTION: using custom renumber hook */

FILE_DESCRIPTION(
/* description */ ('STEP AP242 Edition 2',
'CAx-IF Rec.Pracs.---Representation and Presentation of Product Manufa
cturing Information (PMI)---4.0---2014-10-13',
'CAx-IF Rec.Pracs.---3D Tessellated Geometry---0.4---2014-09-14','2;1',
'CAx-IF Rec.Pracs.---User Defined Attributes---1.5---2016-08-15'),
/* implementation_level */ '2;1');

FILE_NAME(
/* name */ '3D_PCB2_2026-05-29 (3) - Cover',
/* time_stamp */ '2026-05-30T02:17:11Z',
/* author */ (''),
/* organization */ (''),
/* preprocessor_version */ 'ST-DEVELOPER v20',
/* originating_system */ 'ONSHAPE BY PTC INC, 1.215',
/* authorisation */ '  ');

FILE_SCHEMA (('AP242_MANAGED_MODEL_BASED_3D_ENGINEERING_MIM_LF { 1 0 10303 442 3 1 4 }'));
ENDSEC;

DATA;
#10=SHAPE_REPRESENTATION_RELATIONSHIP('','',#407,#11);
#11=ADVANCED_BREP_SHAPE_REPRESENTATION('',(#405),#657);
#12=PLANE('',#421);
#13=PLANE('',#422);
#14=PLANE('',#423);
#15=PLANE('',#424);
#16=PLANE('',#425);
#17=PLANE('',#426);
#18=PLANE('',#427);
#19=PLANE('',#428);
#20=PLANE('',#429);
#21=PLANE('',#430);
#22=PLANE('',#431);
#23=PLANE('',#432);
#24=PLANE('',#433);
#25=PLANE('',#434);
#26=PLANE('',#435);
#27=PLANE('',#436);
#28=PLANE('',#437);
#29=CIRCLE('',#410,0.00127);
#30=CIRCLE('',#411,0.00127);
#31=CIRCLE('',#413,0.00127);
#32=CIRCLE('',#414,0.00127);
#33=CIRCLE('',#416,0.00127);
#34=CIRCLE('',#417,0.00127);
#35=CIRCLE('',#419,0.00127);
#36=CIRCLE('',#420,0.00127);
#37=ORIENTED_EDGE('',*,*,#145,.F.);
#38=ORIENTED_EDGE('',*,*,#146,.T.);
#39=ORIENTED_EDGE('',*,*,#147,.F.);
#40=ORIENTED_EDGE('',*,*,#148,.F.);
#41=ORIENTED_EDGE('',*,*,#149,.F.);
#42=ORIENTED_EDGE('',*,*,#150,.T.);
#43=ORIENTED_EDGE('',*,*,#151,.F.);
#44=ORIENTED_EDGE('',*,*,#152,.F.);
#45=ORIENTED_EDGE('',*,*,#153,.F.);
#46=ORIENTED_EDGE('',*,*,#154,.T.);
#47=ORIENTED_EDGE('',*,*,#155,.F.);
#48=ORIENTED_EDGE('',*,*,#156,.F.);
#49=ORIENTED_EDGE('',*,*,#157,.F.);
#50=ORIENTED_EDGE('',*,*,#158,.T.);
#51=ORIENTED_EDGE('',*,*,#159,.F.);
#52=ORIENTED_EDGE('',*,*,#160,.F.);
#53=ORIENTED_EDGE('',*,*,#161,.F.);
#54=ORIENTED_EDGE('',*,*,#157,.T.);
#55=ORIENTED_EDGE('',*,*,#162,.T.);
#56=ORIENTED_EDGE('',*,*,#155,.T.);
#57=ORIENTED_EDGE('',*,*,#163,.F.);
#58=ORIENTED_EDGE('',*,*,#149,.T.);
#59=ORIENTED_EDGE('',*,*,#164,.T.);
#60=ORIENTED_EDGE('',*,*,#159,.T.);
#61=ORIENTED_EDGE('',*,*,#165,.F.);
#62=ORIENTED_EDGE('',*,*,#145,.T.);
#63=ORIENTED_EDGE('',*,*,#166,.T.);
#64=ORIENTED_EDGE('',*,*,#151,.T.);
#65=ORIENTED_EDGE('',*,*,#167,.F.);
#66=ORIENTED_EDGE('',*,*,#153,.T.);
#67=ORIENTED_EDGE('',*,*,#168,.T.);
#68=ORIENTED_EDGE('',*,*,#147,.T.);
#69=ORIENTED_EDGE('',*,*,#166,.F.);
#70=ORIENTED_EDGE('',*,*,#148,.T.);
#71=ORIENTED_EDGE('',*,*,#168,.F.);
#72=ORIENTED_EDGE('',*,*,#156,.T.);
#73=ORIENTED_EDGE('',*,*,#162,.F.);
#74=ORIENTED_EDGE('',*,*,#160,.T.);
#75=ORIENTED_EDGE('',*,*,#164,.F.);
#76=ORIENTED_EDGE('',*,*,#152,.T.);
#77=ORIENTED_EDGE('',*,*,#169,.F.);
#78=ORIENTED_EDGE('',*,*,#170,.T.);
#79=ORIENTED_EDGE('',*,*,#171,.T.);
#80=ORIENTED_EDGE('',*,*,#172,.F.);
#81=ORIENTED_EDGE('',*,*,#173,.F.);
#82=ORIENTED_EDGE('',*,*,#174,.F.);
#83=ORIENTED_EDGE('',*,*,#175,.F.);
#84=ORIENTED_EDGE('',*,*,#176,.F.);
#85=ORIENTED_EDGE('',*,*,#177,.F.);
#86=ORIENTED_EDGE('',*,*,#178,.F.);
#87=ORIENTED_EDGE('',*,*,#179,.F.);
#88=ORIENTED_EDGE('',*,*,#180,.F.);
#89=ORIENTED_EDGE('',*,*,#181,.F.);
#90=ORIENTED_EDGE('',*,*,#182,.T.);
#91=ORIENTED_EDGE('',*,*,#183,.T.);
#92=ORIENTED_EDGE('',*,*,#184,.F.);
#93=ORIENTED_EDGE('',*,*,#185,.F.);
#94=ORIENTED_EDGE('',*,*,#170,.F.);
#95=ORIENTED_EDGE('',*,*,#186,.F.);
#96=ORIENTED_EDGE('',*,*,#182,.F.);
#97=ORIENTED_EDGE('',*,*,#167,.T.);
#98=ORIENTED_EDGE('',*,*,#146,.F.);
#99=ORIENTED_EDGE('',*,*,#165,.T.);
#100=ORIENTED_EDGE('',*,*,#150,.F.);
#101=ORIENTED_EDGE('',*,*,#163,.T.);
#102=ORIENTED_EDGE('',*,*,#158,.F.);
#103=ORIENTED_EDGE('',*,*,#161,.T.);
#104=ORIENTED_EDGE('',*,*,#154,.F.);
#105=ORIENTED_EDGE('',*,*,#183,.F.);
#106=ORIENTED_EDGE('',*,*,#186,.T.);
#107=ORIENTED_EDGE('',*,*,#169,.T.);
#108=ORIENTED_EDGE('',*,*,#187,.F.);
#109=ORIENTED_EDGE('',*,*,#171,.F.);
#110=ORIENTED_EDGE('',*,*,#185,.T.);
#111=ORIENTED_EDGE('',*,*,#181,.T.);
#112=ORIENTED_EDGE('',*,*,#188,.F.);
#113=ORIENTED_EDGE('',*,*,#189,.T.);
#114=ORIENTED_EDGE('',*,*,#190,.F.);
#115=ORIENTED_EDGE('',*,*,#191,.T.);
#116=ORIENTED_EDGE('',*,*,#178,.T.);
#117=ORIENTED_EDGE('',*,*,#192,.T.);
#118=ORIENTED_EDGE('',*,*,#179,.T.);
#119=ORIENTED_EDGE('',*,*,#191,.F.);
#120=ORIENTED_EDGE('',*,*,#193,.T.);
#121=ORIENTED_EDGE('',*,*,#189,.F.);
#122=ORIENTED_EDGE('',*,*,#177,.T.);
#123=ORIENTED_EDGE('',*,*,#194,.T.);
#124=ORIENTED_EDGE('',*,*,#195,.T.);
#125=ORIENTED_EDGE('',*,*,#173,.T.);
#126=ORIENTED_EDGE('',*,*,#195,.F.);
#127=ORIENTED_EDGE('',*,*,#196,.T.);
#128=ORIENTED_EDGE('',*,*,#197,.T.);
#129=ORIENTED_EDGE('',*,*,#174,.T.);
#130=ORIENTED_EDGE('',*,*,#198,.T.);
#131=ORIENTED_EDGE('',*,*,#175,.T.);
#132=ORIENTED_EDGE('',*,*,#197,.F.);
#133=ORIENTED_EDGE('',*,*,#192,.F.);
#134=ORIENTED_EDGE('',*,*,#190,.T.);
#135=ORIENTED_EDGE('',*,*,#193,.F.);
#136=ORIENTED_EDGE('',*,*,#176,.T.);
#137=ORIENTED_EDGE('',*,*,#198,.F.);
#138=ORIENTED_EDGE('',*,*,#196,.F.);
#139=ORIENTED_EDGE('',*,*,#194,.F.);
#140=ORIENTED_EDGE('',*,*,#172,.T.);
#141=ORIENTED_EDGE('',*,*,#188,.T.);
#142=ORIENTED_EDGE('',*,*,#184,.T.);
#143=ORIENTED_EDGE('',*,*,#187,.T.);
#144=ORIENTED_EDGE('',*,*,#180,.T.);
#145=EDGE_CURVE('',#199,#200,#235,.F.);
#146=EDGE_CURVE('',#199,#201,#29,.F.);
#147=EDGE_CURVE('',#202,#201,#236,.T.);
#148=EDGE_CURVE('',#200,#202,#30,.F.);
#149=EDGE_CURVE('',#203,#204,#237,.F.);
#150=EDGE_CURVE('',#203,#205,#31,.F.);
#151=EDGE_CURVE('',#206,#205,#238,.T.);
#152=EDGE_CURVE('',#204,#206,#32,.F.);
#153=EDGE_CURVE('',#207,#208,#239,.F.);
#154=EDGE_CURVE('',#207,#209,#33,.F.);
#155=EDGE_CURVE('',#210,#209,#240,.T.);
#156=EDGE_CURVE('',#208,#210,#34,.F.);
#157=EDGE_CURVE('',#211,#212,#241,.F.);
#158=EDGE_CURVE('',#211,#213,#35,.F.);
#159=EDGE_CURVE('',#214,#213,#242,.T.);
#160=EDGE_CURVE('',#212,#214,#36,.F.);
#161=EDGE_CURVE('',#211,#209,#243,.T.);
#162=EDGE_CURVE('',#212,#210,#244,.T.);
#163=EDGE_CURVE('',#203,#213,#245,.T.);
#164=EDGE_CURVE('',#204,#214,#246,.T.);
#165=EDGE_CURVE('',#199,#205,#247,.T.);
#166=EDGE_CURVE('',#200,#206,#248,.T.);
#167=EDGE_CURVE('',#207,#201,#249,.T.);
#168=EDGE_CURVE('',#208,#202,#250,.T.);
#169=EDGE_CURVE('',#215,#216,#251,.T.);
#170=EDGE_CURVE('',#215,#217,#252,.T.);
#171=EDGE_CURVE('',#217,#218,#253,.T.);
#172=EDGE_CURVE('',#219,#218,#254,.T.);
#173=EDGE_CURVE('',#220,#219,#255,.T.);
#174=EDGE_CURVE('',#221,#220,#256,.T.);
#175=EDGE_CURVE('',#222,#221,#257,.T.);
#176=EDGE_CURVE('',#223,#222,#258,.T.);
#177=EDGE_CURVE('',#224,#223,#259,.T.);
#178=EDGE_CURVE('',#225,#224,#260,.T.);
#179=EDGE_CURVE('',#226,#225,#261,.T.);
#180=EDGE_CURVE('',#216,#226,#262,.T.);
#181=EDGE_CURVE('',#227,#228,#263,.T.);
#182=EDGE_CURVE('',#227,#229,#264,.T.);
#183=EDGE_CURVE('',#229,#230,#265,.T.);
#184=EDGE_CURVE('',#228,#230,#266,.T.);
#185=EDGE_CURVE('',#217,#227,#267,.T.);
#186=EDGE_CURVE('',#229,#215,#268,.T.);
#187=EDGE_CURVE('',#230,#216,#269,.T.);
#188=EDGE_CURVE('',#218,#228,#270,.T.);
#189=EDGE_CURVE('',#224,#231,#271,.F.);
#190=EDGE_CURVE('',#232,#231,#272,.T.);
#191=EDGE_CURVE('',#232,#225,#273,.F.);
#192=EDGE_CURVE('',#232,#226,#274,.T.);
#193=EDGE_CURVE('',#223,#231,#275,.F.);
#194=EDGE_CURVE('',#219,#233,#276,.F.);
#195=EDGE_CURVE('',#233,#220,#277,.T.);
#196=EDGE_CURVE('',#233,#234,#278,.T.);
#197=EDGE_CURVE('',#234,#221,#279,.F.);
#198=EDGE_CURVE('',#234,#222,#280,.T.);
#199=VERTEX_POINT('',#547);
#200=VERTEX_POINT('',#548);
#201=VERTEX_POINT('',#550);
#202=VERTEX_POINT('',#552);
#203=VERTEX_POINT('',#556);
#204=VERTEX_POINT('',#557);
#205=VERTEX_POINT('',#559);
#206=VERTEX_POINT('',#561);
#207=VERTEX_POINT('',#565);
#208=VERTEX_POINT('',#566);
#209=VERTEX_POINT('',#568);
#210=VERTEX_POINT('',#570);
#211=VERTEX_POINT('',#574);
#212=VERTEX_POINT('',#575);
#213=VERTEX_POINT('',#577);
#214=VERTEX_POINT('',#579);
#215=VERTEX_POINT('',#596);
#216=VERTEX_POINT('',#597);
#217=VERTEX_POINT('',#599);
#218=VERTEX_POINT('',#601);
#219=VERTEX_POINT('',#603);
#220=VERTEX_POINT('',#605);
#221=VERTEX_POINT('',#607);
#222=VERTEX_POINT('',#609);
#223=VERTEX_POINT('',#611);
#224=VERTEX_POINT('',#613);
#225=VERTEX_POINT('',#615);
#226=VERTEX_POINT('',#617);
#227=VERTEX_POINT('',#621);
#228=VERTEX_POINT('',#622);
#229=VERTEX_POINT('',#624);
#230=VERTEX_POINT('',#626);
#231=VERTEX_POINT('',#637);
#232=VERTEX_POINT('',#639);
#233=VERTEX_POINT('',#647);
#234=VERTEX_POINT('',#651);
#235=LINE('',#546,#281);
#236=LINE('',#551,#282);
#237=LINE('',#555,#283);
#238=LINE('',#560,#284);
#239=LINE('',#564,#285);
#240=LINE('',#569,#286);
#241=LINE('',#573,#287);
#242=LINE('',#578,#288);
#243=LINE('',#582,#289);
#244=LINE('',#583,#290);
#245=LINE('',#585,#291);
#246=LINE('',#586,#292);
#247=LINE('',#588,#293);
#248=LINE('',#589,#294);
#249=LINE('',#591,#295);
#250=LINE('',#592,#296);
#251=LINE('',#595,#297);
#252=LINE('',#598,#298);
#253=LINE('',#600,#299);
#254=LINE('',#602,#300);
#255=LINE('',#604,#301);
#256=LINE('',#606,#302);
#257=LINE('',#608,#303);
#258=LINE('',#610,#304);
#259=LINE('',#612,#305);
#260=LINE('',#614,#306);
#261=LINE('',#616,#307);
#262=LINE('',#618,#308);
#263=LINE('',#620,#309);
#264=LINE('',#623,#310);
#265=LINE('',#625,#311);
#266=LINE('',#627,#312);
#267=LINE('',#629,#313);
#268=LINE('',#630,#314);
#269=LINE('',#632,#315);
#270=LINE('',#634,#316);
#271=LINE('',#636,#317);
#272=LINE('',#638,#318);
#273=LINE('',#640,#319);
#274=LINE('',#642,#320);
#275=LINE('',#644,#321);
#276=LINE('',#646,#322);
#277=LINE('',#648,#323);
#278=LINE('',#650,#324);
#279=LINE('',#652,#325);
#280=LINE('',#654,#326);
#281=VECTOR('',#442,1.);
#282=VECTOR('',#445,1.);
#283=VECTOR('',#450,1.);
#284=VECTOR('',#453,1.);
#285=VECTOR('',#458,1.);
#286=VECTOR('',#461,1.);
#287=VECTOR('',#466,1.);
#288=VECTOR('',#469,1.);
#289=VECTOR('',#474,1.);
#290=VECTOR('',#475,1.);
#291=VECTOR('',#478,1.);
#292=VECTOR('',#479,1.);
#293=VECTOR('',#482,1.);
#294=VECTOR('',#483,1.);
#295=VECTOR('',#486,1.);
#296=VECTOR('',#487,1.);
#297=VECTOR('',#492,1.);
#298=VECTOR('',#493,1.);
#299=VECTOR('',#494,1.);
#300=VECTOR('',#495,1.);
#301=VECTOR('',#496,1.);
#302=VECTOR('',#497,1.);
#303=VECTOR('',#498,1.);
#304=VECTOR('',#499,1.);
#305=VECTOR('',#500,1.);
#306=VECTOR('',#501,1.);
#307=VECTOR('',#502,1.);
#308=VECTOR('',#503,1.);
#309=VECTOR('',#506,1.);
#310=VECTOR('',#507,1.);
#311=VECTOR('',#508,1.);
#312=VECTOR('',#509,1.);
#313=VECTOR('',#512,1.);
#314=VECTOR('',#513,1.);
#315=VECTOR('',#516,1.);
#316=VECTOR('',#519,1.);
#317=VECTOR('',#522,1.);
#318=VECTOR('',#523,1.);
#319=VECTOR('',#524,1.);
#320=VECTOR('',#527,1.);
#321=VECTOR('',#530,1.);
#322=VECTOR('',#533,1.);
#323=VECTOR('',#534,1.);
#324=VECTOR('',#537,1.);
#325=VECTOR('',#538,1.);
#326=VECTOR('',#541,1.);
#327=EDGE_LOOP('',(#37,#38,#39,#40));
#328=EDGE_LOOP('',(#41,#42,#43,#44));
#329=EDGE_LOOP('',(#45,#46,#47,#48));
#330=EDGE_LOOP('',(#49,#50,#51,#52));
#331=EDGE_LOOP('',(#53,#54,#55,#56));
#332=EDGE_LOOP('',(#57,#58,#59,#60));
#333=EDGE_LOOP('',(#61,#62,#63,#64));
#334=EDGE_LOOP('',(#65,#66,#67,#68));
#335=EDGE_LOOP('',(#69,#70,#71,#72,#73,#74,#75,#76));
#336=EDGE_LOOP('',(#77,#78,#79,#80,#81,#82,#83,#84,#85,#86,#87,#88));
#337=EDGE_LOOP('',(#89,#90,#91,#92));
#338=EDGE_LOOP('',(#93,#94,#95,#96));
#339=EDGE_LOOP('',(#97,#98,#99,#100,#101,#102,#103,#104));
#340=EDGE_LOOP('',(#105,#106,#107,#108));
#341=EDGE_LOOP('',(#109,#110,#111,#112));
#342=EDGE_LOOP('',(#113,#114,#115,#116));
#343=EDGE_LOOP('',(#117,#118,#119));
#344=EDGE_LOOP('',(#120,#121,#122));
#345=EDGE_LOOP('',(#123,#124,#125));
#346=EDGE_LOOP('',(#126,#127,#128,#129));
#347=EDGE_LOOP('',(#130,#131,#132));
#348=EDGE_LOOP('',(#133,#134,#135,#136,#137,#138,#139,#140,#141,#142,#143,
#144));
#349=FACE_BOUND('',#327,.T.);
#350=FACE_BOUND('',#328,.T.);
#351=FACE_BOUND('',#329,.T.);
#352=FACE_BOUND('',#330,.T.);
#353=FACE_BOUND('',#331,.T.);
#354=FACE_BOUND('',#332,.T.);
#355=FACE_BOUND('',#333,.T.);
#356=FACE_BOUND('',#334,.T.);
#357=FACE_BOUND('',#335,.T.);
#358=FACE_BOUND('',#336,.T.);
#359=FACE_BOUND('',#337,.T.);
#360=FACE_BOUND('',#338,.T.);
#361=FACE_BOUND('',#339,.T.);
#362=FACE_BOUND('',#340,.T.);
#363=FACE_BOUND('',#341,.T.);
#364=FACE_BOUND('',#342,.T.);
#365=FACE_BOUND('',#343,.T.);
#366=FACE_BOUND('',#344,.T.);
#367=FACE_BOUND('',#345,.T.);
#368=FACE_BOUND('',#346,.T.);
#369=FACE_BOUND('',#347,.T.);
#370=FACE_BOUND('',#348,.T.);
#371=CYLINDRICAL_SURFACE('',#409,0.00127);
#372=CYLINDRICAL_SURFACE('',#412,0.00127);
#373=CYLINDRICAL_SURFACE('',#415,0.00127);
#374=CYLINDRICAL_SURFACE('',#418,0.00127);
#375=ADVANCED_FACE('',(#349),#371,.T.);
#376=ADVANCED_FACE('',(#350),#372,.T.);
#377=ADVANCED_FACE('',(#351),#373,.T.);
#378=ADVANCED_FACE('',(#352),#374,.T.);
#379=ADVANCED_FACE('',(#353),#12,.T.);
#380=ADVANCED_FACE('',(#354),#13,.T.);
#381=ADVANCED_FACE('',(#355),#14,.T.);
#382=ADVANCED_FACE('',(#356),#15,.T.);
#383=ADVANCED_FACE('',(#357),#16,.F.);
#384=ADVANCED_FACE('',(#358),#17,.T.);
#385=ADVANCED_FACE('',(#359),#18,.T.);
#386=ADVANCED_FACE('',(#360,#361),#19,.T.);
#387=ADVANCED_FACE('',(#362),#20,.T.);
#388=ADVANCED_FACE('',(#363),#21,.T.);
#389=ADVANCED_FACE('',(#364),#22,.T.);
#390=ADVANCED_FACE('',(#365),#23,.F.);
#391=ADVANCED_FACE('',(#366),#24,.T.);
#392=ADVANCED_FACE('',(#367),#25,.T.);
#393=ADVANCED_FACE('',(#368),#26,.F.);
#394=ADVANCED_FACE('',(#369),#27,.F.);
#395=ADVANCED_FACE('',(#370),#28,.T.);
#396=CLOSED_SHELL('',(#375,#376,#377,#378,#379,#380,#381,#382,#383,#384,
#385,#386,#387,#388,#389,#390,#391,#392,#393,#394,#395));
#397=STYLED_ITEM('',(#398),#405);
#398=PRESENTATION_STYLE_ASSIGNMENT((#399));
#399=SURFACE_STYLE_USAGE(.BOTH.,#400);
#400=SURFACE_SIDE_STYLE('',(#401));
#401=SURFACE_STYLE_FILL_AREA(#402);
#402=FILL_AREA_STYLE('',(#403));
#403=FILL_AREA_STYLE_COLOUR('',#404);
#404=COLOUR_RGB('',0.231372549019608,0.380392156862745,0.705882352941177);
#405=MANIFOLD_SOLID_BREP('Cover',#396);
#406=SHAPE_DEFINITION_REPRESENTATION(#662,#407);
#407=SHAPE_REPRESENTATION('Cover',(#408),#657);
#408=AXIS2_PLACEMENT_3D('',#544,#438,#439);
#409=AXIS2_PLACEMENT_3D('',#545,#440,#441);
#410=AXIS2_PLACEMENT_3D('',#549,#443,#444);
#411=AXIS2_PLACEMENT_3D('',#553,#446,#447);
#412=AXIS2_PLACEMENT_3D('',#554,#448,#449);
#413=AXIS2_PLACEMENT_3D('',#558,#451,#452);
#414=AXIS2_PLACEMENT_3D('',#562,#454,#455);
#415=AXIS2_PLACEMENT_3D('',#563,#456,#457);
#416=AXIS2_PLACEMENT_3D('',#567,#459,#460);
#417=AXIS2_PLACEMENT_3D('',#571,#462,#463);
#418=AXIS2_PLACEMENT_3D('',#572,#464,#465);
#419=AXIS2_PLACEMENT_3D('',#576,#467,#468);
#420=AXIS2_PLACEMENT_3D('',#580,#470,#471);
#421=AXIS2_PLACEMENT_3D('',#581,#472,#473);
#422=AXIS2_PLACEMENT_3D('',#584,#476,#477);
#423=AXIS2_PLACEMENT_3D('',#587,#480,#481);
#424=AXIS2_PLACEMENT_3D('',#590,#484,#485);
#425=AXIS2_PLACEMENT_3D('',#593,#488,#489);
#426=AXIS2_PLACEMENT_3D('',#594,#490,#491);
#427=AXIS2_PLACEMENT_3D('',#619,#504,#505);
#428=AXIS2_PLACEMENT_3D('',#628,#510,#511);
#429=AXIS2_PLACEMENT_3D('',#631,#514,#515);
#430=AXIS2_PLACEMENT_3D('',#633,#517,#518);
#431=AXIS2_PLACEMENT_3D('',#635,#520,#521);
#432=AXIS2_PLACEMENT_3D('',#641,#525,#526);
#433=AXIS2_PLACEMENT_3D('',#643,#528,#529);
#434=AXIS2_PLACEMENT_3D('',#645,#531,#532);
#435=AXIS2_PLACEMENT_3D('',#649,#535,#536);
#436=AXIS2_PLACEMENT_3D('',#653,#539,#540);
#437=AXIS2_PLACEMENT_3D('',#655,#542,#543);
#438=DIRECTION('',(0.,0.,1.));
#439=DIRECTION('',(1.,0.,0.));
#440=DIRECTION('',(0.,0.,-1.));
#441=DIRECTION('',(-1.,0.,0.));
#442=DIRECTION('',(0.,0.,-1.));
#443=DIRECTION('',(0.,0.,-1.));
#444=DIRECTION('',(-1.,0.,0.));
#445=DIRECTION('',(0.,0.,-1.));
#446=DIRECTION('',(0.,0.,-1.));
#447=DIRECTION('',(-1.,0.,0.));
#448=DIRECTION('',(0.,0.,-1.));
#449=DIRECTION('',(-1.,0.,0.));
#450=DIRECTION('',(0.,0.,-1.));
#451=DIRECTION('',(0.,0.,-1.));
#452=DIRECTION('',(-1.,0.,0.));
#453=DIRECTION('',(0.,0.,-1.));
#454=DIRECTION('',(0.,0.,-1.));
#455=DIRECTION('',(-1.,0.,0.));
#456=DIRECTION('',(0.,0.,-1.));
#457=DIRECTION('',(-1.,0.,0.));
#458=DIRECTION('',(0.,0.,-1.));
#459=DIRECTION('',(0.,0.,-1.));
#460=DIRECTION('',(-1.,0.,0.));
#461=DIRECTION('',(0.,0.,-1.));
#462=DIRECTION('',(0.,0.,-1.));
#463=DIRECTION('',(-1.,0.,0.));
#464=DIRECTION('',(0.,0.,-1.));
#465=DIRECTION('',(-1.,0.,0.));
#466=DIRECTION('',(0.,0.,-1.));
#467=DIRECTION('',(0.,0.,-1.));
#468=DIRECTION('',(-1.,0.,0.));
#469=DIRECTION('',(0.,0.,-1.));
#470=DIRECTION('',(0.,0.,-1.));
#471=DIRECTION('',(-1.,0.,0.));
#472=DIRECTION('',(0.,1.,0.));
#473=DIRECTION('',(0.,0.,1.));
#474=DIRECTION('',(1.,0.,0.));
#475=DIRECTION('',(1.,0.,0.));
#476=DIRECTION('',(-1.,6.60149409939568E-17,0.));
#477=DIRECTION('',(-6.60149409939568E-17,-1.,0.));
#478=DIRECTION('',(6.60149409939568E-17,1.,0.));
#479=DIRECTION('',(6.60149409939568E-17,1.,0.));
#480=DIRECTION('',(1.42482419097994E-16,-1.,0.));
#481=DIRECTION('',(1.,1.42482419097994E-16,0.));
#482=DIRECTION('',(-1.,-1.42482419097994E-16,0.));
#483=DIRECTION('',(-1.,-1.42482419097994E-16,0.));
#484=DIRECTION('',(1.,7.54456468502364E-17,0.));
#485=DIRECTION('',(-7.54456468502364E-17,1.,0.));
#486=DIRECTION('',(7.54456468502364E-17,-1.,0.));
#487=DIRECTION('',(7.54456468502364E-17,-1.,0.));
#488=DIRECTION('',(0.,0.,-1.));
#489=DIRECTION('',(1.,0.,0.));
#490=DIRECTION('',(1.42482419097994E-16,-1.,0.));
#491=DIRECTION('',(1.,1.42482419097994E-16,0.));
#492=DIRECTION('',(0.,0.,-1.));
#493=DIRECTION('',(-1.,-1.42482419097994E-16,0.));
#494=DIRECTION('',(0.,0.,-1.));
#495=DIRECTION('',(-1.,-1.42482419097994E-16,0.));
#496=DIRECTION('',(0.,0.,-1.));
#497=DIRECTION('',(-1.,-1.42482419097994E-16,0.));
#498=DIRECTION('',(0.,0.,1.));
#499=DIRECTION('',(-1.,-1.42482419097994E-16,0.));
#500=DIRECTION('',(3.40531766907777E-16,4.85197899287343E-32,-1.));
#501=DIRECTION('',(-1.,-1.42482419097994E-16,-4.88998854326057E-16));
#502=DIRECTION('',(-6.81063533815555E-16,-9.70395798574685E-32,1.));
#503=DIRECTION('',(-1.,-1.42482419097994E-16,0.));
#504=DIRECTION('',(0.,1.,0.));
#505=DIRECTION('',(0.,0.,1.));
#506=DIRECTION('',(0.,0.,-1.));
#507=DIRECTION('',(1.,0.,0.));
#508=DIRECTION('',(0.,0.,-1.));
#509=DIRECTION('',(1.,0.,0.));
#510=DIRECTION('',(0.,0.,-1.));
#511=DIRECTION('',(1.,0.,0.));
#512=DIRECTION('',(6.60149409939568E-17,1.,0.));
#513=DIRECTION('',(7.54456468502364E-17,-1.,0.));
#514=DIRECTION('',(1.,7.54456468502364E-17,0.));
#515=DIRECTION('',(-7.54456468502364E-17,1.,0.));
#516=DIRECTION('',(7.54456468502364E-17,-1.,0.));
#517=DIRECTION('',(-1.,6.60149409939568E-17,0.));
#518=DIRECTION('',(-6.60149409939568E-17,-1.,0.));
#519=DIRECTION('',(6.60149409939568E-17,1.,0.));
#520=DIRECTION('',(-2.45024121142354E-16,-0.707106781186546,0.707106781186549));
#521=DIRECTION('',(-1.,-1.42482419097994E-16,-4.88998854326057E-16));
#522=DIRECTION('',(-0.577350269189627,0.577350269189627,0.577350269189624));
#523=DIRECTION('',(-1.,-1.42482419097994E-16,-4.88998854326057E-16));
#524=DIRECTION('',(-0.577350269189627,-0.577350269189627,-0.577350269189624));
#525=DIRECTION('',(-0.707106781186547,0.707106781186548,-4.81584643179852E-16));
#526=DIRECTION('',(-6.81063533815555E-16,-9.70395798574685E-32,1.));
#527=DIRECTION('',(0.707106781186548,0.707106781186547,0.));
#528=DIRECTION('',(-0.707106781186548,-0.707106781186547,-2.40792321589926E-16));
#529=DIRECTION('',(3.40531766907777E-16,4.85197899287343E-32,-1.));
#530=DIRECTION('',(-0.707106781186547,0.707106781186548,0.));
#531=DIRECTION('',(-0.707106781186548,-0.707106781186548,0.));
#532=DIRECTION('',(0.,0.,-1.));
#533=DIRECTION('',(-0.707106781186548,0.707106781186548,0.));
#534=DIRECTION('',(-0.577350269189626,0.577350269189626,0.577350269189625));
#535=DIRECTION('',(-1.00750284744055E-16,0.707106781186547,-0.707106781186548));
#536=DIRECTION('',(-1.,-1.42482419097994E-16,0.));
#537=DIRECTION('',(1.,1.42482419097994E-16,0.));
#538=DIRECTION('',(-0.577350269189626,-0.577350269189626,-0.577350269189625));
#539=DIRECTION('',(-0.707106781186548,0.707106781186548,0.));
#540=DIRECTION('',(0.,0.,1.));
#541=DIRECTION('',(0.707106781186548,0.707106781186548,0.));
#542=DIRECTION('',(0.,0.,-1.));
#543=DIRECTION('',(1.,0.,0.));
#544=CARTESIAN_POINT('',(0.,0.,0.));
#545=CARTESIAN_POINT('',(0.022413022770688,-0.007599995084633,0.013386050800102));
#546=CARTESIAN_POINT('',(0.022413022770688,-0.008869995084633,0.013386050800102));
#547=CARTESIAN_POINT('',(0.022413022770688,-0.008869995084633,0.012116050800102));
#548=CARTESIAN_POINT('',(0.022413022770688,-0.008869995084633,0.013386050800102));
#549=CARTESIAN_POINT('',(0.022413022770688,-0.007599995084633,0.012116050800102));
#550=CARTESIAN_POINT('',(0.023683022770688,-0.007599995084633,0.012116050800102));
#551=CARTESIAN_POINT('',(0.023683022770688,-0.007599995084633,0.013386050800102));
#552=CARTESIAN_POINT('',(0.023683022770688,-0.007599995084633,0.013386050800102));
#553=CARTESIAN_POINT('',(0.022413022770688,-0.007599995084633,0.013386050800102));
#554=CARTESIAN_POINT('',(0.000603022441402002,-0.007599995084633,0.013386050800102));
#555=CARTESIAN_POINT('',(-0.000666977558597999,-0.007599995084633,0.013386050800102));
#556=CARTESIAN_POINT('',(-0.000666977558597999,-0.007599995084633,0.012116050800102));
#557=CARTESIAN_POINT('',(-0.000666977558597999,-0.007599995084633,0.013386050800102));
#558=CARTESIAN_POINT('',(0.000603022441402002,-0.007599995084633,0.012116050800102));
#559=CARTESIAN_POINT('',(0.000603022441402002,-0.008869995084633,0.012116050800102));
#560=CARTESIAN_POINT('',(0.000603022441402002,-0.008869995084633,0.013386050800102));
#561=CARTESIAN_POINT('',(0.000603022441402002,-0.008869995084633,0.013386050800102));
#562=CARTESIAN_POINT('',(0.000603022441402002,-0.007599995084633,0.013386050800102));
#563=CARTESIAN_POINT('',(0.022413022770688,0.035846050456744,0.013386050800102));
#564=CARTESIAN_POINT('',(0.023683022770688,0.035846050456744,0.013386050800102));
#565=CARTESIAN_POINT('',(0.023683022770688,0.035846050456744,0.012116050800102));
#566=CARTESIAN_POINT('',(0.023683022770688,0.035846050456744,0.013386050800102));
#567=CARTESIAN_POINT('',(0.022413022770688,0.035846050456744,0.012116050800102));
#568=CARTESIAN_POINT('',(0.022413022770688,0.037116050456744,0.012116050800102));
#569=CARTESIAN_POINT('',(0.022413022770688,0.037116050456744,0.013386050800102));
#570=CARTESIAN_POINT('',(0.022413022770688,0.037116050456744,0.013386050800102));
#571=CARTESIAN_POINT('',(0.022413022770688,0.035846050456744,0.013386050800102));
#572=CARTESIAN_POINT('',(0.000603022441402004,0.035846050456744,0.013386050800102));
#573=CARTESIAN_POINT('',(0.000603022441402005,0.037116050456744,0.013386050800102));
#574=CARTESIAN_POINT('',(0.000603022441402005,0.037116050456744,0.012116050800102));
#575=CARTESIAN_POINT('',(0.000603022441402005,0.037116050456744,0.013386050800102));
#576=CARTESIAN_POINT('',(0.000603022441402004,0.035846050456744,0.012116050800102));
#577=CARTESIAN_POINT('',(-0.000666977558597996,0.035846050456744,0.012116050800102));
#578=CARTESIAN_POINT('',(-0.000666977558597996,0.035846050456744,0.013386050800102));
#579=CARTESIAN_POINT('',(-0.000666977558597996,0.035846050456744,0.013386050800102));
#580=CARTESIAN_POINT('',(0.000603022441402004,0.035846050456744,0.013386050800102));
#581=CARTESIAN_POINT('',(0.011508022606045,0.037116050456744,0.013386050800102));
#582=CARTESIAN_POINT('',(0.011508022606045,0.037116050456744,0.012116050800102));
#583=CARTESIAN_POINT('',(0.011508022606045,0.037116050456744,0.013386050800102));
#584=CARTESIAN_POINT('',(-0.000666977558597997,0.0141230276860555,0.013386050800102));
#585=CARTESIAN_POINT('',(-0.000666977558597997,0.0141230276860555,0.012116050800102));
#586=CARTESIAN_POINT('',(-0.000666977558597997,0.0141230276860555,0.013386050800102));
#587=CARTESIAN_POINT('',(0.011508022606045,-0.008869995084633,0.013386050800102));
#588=CARTESIAN_POINT('',(0.011508022606045,-0.008869995084633,0.012116050800102));
#589=CARTESIAN_POINT('',(0.011508022606045,-0.008869995084633,0.013386050800102));
#590=CARTESIAN_POINT('',(0.023683022770688,0.0141230276860555,0.013386050800102));
#591=CARTESIAN_POINT('',(0.023683022770688,0.0141230276860555,0.012116050800102));
#592=CARTESIAN_POINT('',(0.023683022770688,0.0141230276860555,0.013386050800102));
#593=CARTESIAN_POINT('',(0.011508022606045,0.0141230276860555,0.013386050800102));
#594=CARTESIAN_POINT('',(0.011508022606045,-0.007882316484633,0.012116050800102));
#595=CARTESIAN_POINT('',(0.022695344170688,-0.007882316484633,0.012116050800102));
#596=CARTESIAN_POINT('',(0.022695344170688,-0.007882316484633,0.012116050800102));
#597=CARTESIAN_POINT('',(0.022695344170688,-0.007882316484633,0.010846050800102));
#598=CARTESIAN_POINT('',(0.011508022606045,-0.007882316484633,0.012116050800102));
#599=CARTESIAN_POINT('',(0.000320701041402002,-0.007882316484633,0.012116050800102));
#600=CARTESIAN_POINT('',(0.000320701041402002,-0.007882316484633,0.012116050800102));
#601=CARTESIAN_POINT('',(0.000320701041402002,-0.007882316484633,0.010846050800102));
#602=CARTESIAN_POINT('',(0.011508022606045,-0.007882316484633,0.010846050800102));
#603=CARTESIAN_POINT('',(0.001285342641402,-0.007882316484633,0.010846050800102));
#604=CARTESIAN_POINT('',(0.001285342641402,-0.007882316484633,0.012116050800102));
#605=CARTESIAN_POINT('',(0.001285342641402,-0.007882316484633,0.011433730600102));
#606=CARTESIAN_POINT('',(0.001873022441402,-0.007882316484633,0.011433730600102));
#607=CARTESIAN_POINT('',(0.009555702406045,-0.007882316484633,0.011433730600102));
#608=CARTESIAN_POINT('',(0.009555702406045,-0.007882316484633,0.010846050800102));
#609=CARTESIAN_POINT('',(0.009555702406045,-0.007882316484633,0.010846050800102));
#610=CARTESIAN_POINT('',(0.011508022606045,-0.007882316484633,0.010846050800102));
#611=CARTESIAN_POINT('',(0.013460342806045,-0.007882316484633,0.010846050800102));
#612=CARTESIAN_POINT('',(0.013460342806045,-0.007882316484633,0.012116050800102));
#613=CARTESIAN_POINT('',(0.013460342806045,-0.007882316484633,0.011433730600102));
#614=CARTESIAN_POINT('',(0.011508022606045,-0.007882316484633,0.011433730600102));
#615=CARTESIAN_POINT('',(0.021730702570688,-0.007882316484633,0.011433730600102));
#616=CARTESIAN_POINT('',(0.021730702570688,-0.007882316484633,0.010846050800102));
#617=CARTESIAN_POINT('',(0.021730702570688,-0.007882316484633,0.010846050800102));
#618=CARTESIAN_POINT('',(0.011508022606045,-0.007882316484633,0.010846050800102));
#619=CARTESIAN_POINT('',(0.011508022606045,0.036128371856744,0.012116050800102));
#620=CARTESIAN_POINT('',(0.000320701041402004,0.036128371856744,0.012116050800102));
#621=CARTESIAN_POINT('',(0.000320701041402004,0.036128371856744,0.012116050800102));
#622=CARTESIAN_POINT('',(0.000320701041402004,0.036128371856744,0.010846050800102));
#623=CARTESIAN_POINT('',(0.011508022606045,0.036128371856744,0.012116050800102));
#624=CARTESIAN_POINT('',(0.022695344170688,0.036128371856744,0.012116050800102));
#625=CARTESIAN_POINT('',(0.022695344170688,0.036128371856744,0.012116050800102));
#626=CARTESIAN_POINT('',(0.022695344170688,0.036128371856744,0.010846050800102));
#627=CARTESIAN_POINT('',(0.011508022606045,0.036128371856744,0.010846050800102));
#628=CARTESIAN_POINT('',(0.011508022606045,0.0141230276860555,0.012116050800102));
#629=CARTESIAN_POINT('',(0.000320701041402003,0.0141230276860555,0.012116050800102));
#630=CARTESIAN_POINT('',(0.022695344170688,0.0141230276860555,0.012116050800102));
#631=CARTESIAN_POINT('',(0.022695344170688,0.0141230276860555,0.012116050800102));
#632=CARTESIAN_POINT('',(0.022695344170688,0.0141230276860555,0.010846050800102));
#633=CARTESIAN_POINT('',(0.000320701041402003,0.0141230276860555,0.012116050800102));
#634=CARTESIAN_POINT('',(0.000320701041402003,0.0141230276860555,0.010846050800102));
#635=CARTESIAN_POINT('',(0.011508022606045,-0.007882316484633,0.011433730600102));
#636=CARTESIAN_POINT('',(0.0132329027393783,-0.00765487641796633,0.0116611706667687));
#637=CARTESIAN_POINT('',(0.014048022606045,-0.008469995084633,0.010846050800102));
#638=CARTESIAN_POINT('',(0.0175955226883665,-0.008469995084633,0.010846050800102));
#639=CARTESIAN_POINT('',(0.021143022770688,-0.008469995084633,0.010846050800102));
#640=CARTESIAN_POINT('',(0.0183231425824736,-0.0112898764728473,0.00802617061188768));
#641=CARTESIAN_POINT('',(0.021143022770688,-0.008469996284633,0.005751890300102));
#642=CARTESIAN_POINT('',(0.0276220346737108,-0.00199098438161026,0.010846050800102));
#643=CARTESIAN_POINT('',(0.013460342806045,-0.007882316484633,0.012116050800102));
#644=CARTESIAN_POINT('',(0.00148151062070075,0.00409651570071125,0.010846050800102));
#645=CARTESIAN_POINT('',(0.001285342641402,-0.007882316484633,0.012116050800102));
#646=CARTESIAN_POINT('',(-0.00460598946162075,-0.00199098438161025,0.010846050800102));
#647=CARTESIAN_POINT('',(0.001873022441402,-0.008469995084633,0.010846050800102));
#648=CARTESIAN_POINT('',(0.0030555224688425,-0.0096524963120735,0.0096635507726615));
#649=CARTESIAN_POINT('',(0.0054205225237235,-0.008469996284633,0.010846050800102));
#650=CARTESIAN_POINT('',(0.0054205225237235,-0.008469995084633,0.010846050800102));
#651=CARTESIAN_POINT('',(0.008968023806045,-0.008469995084633,0.010846050800102));
#652=CARTESIAN_POINT('',(0.007269969106045,-0.010168049784633,0.00914799730010201));
#653=CARTESIAN_POINT('',(0.008968022606045,-0.008469996284633,0.005751890300102));
#654=CARTESIAN_POINT('',(0.0215345345913893,0.00409651570071125,0.010846050800102));
#655=CARTESIAN_POINT('',(0.011508022606045,0.0141230276860555,0.010846050800102));
#656=MECHANICAL_DESIGN_GEOMETRIC_PRESENTATION_REPRESENTATION('',(#397),
#657);
#657=(
GEOMETRIC_REPRESENTATION_CONTEXT(3)
GLOBAL_UNCERTAINTY_ASSIGNED_CONTEXT((#658))
GLOBAL_UNIT_ASSIGNED_CONTEXT((#661,#660,#659))
REPRESENTATION_CONTEXT('Cover','TOP_LEVEL_ASSEMBLY_PART')
);
#658=UNCERTAINTY_MEASURE_WITH_UNIT(LENGTH_MEASURE(1.E-8),#661,
'DISTANCE_ACCURACY_VALUE','Maximum Tolerance applied to model');
#659=(
NAMED_UNIT(*)
SI_UNIT($,.STERADIAN.)
SOLID_ANGLE_UNIT()
);
#660=(
NAMED_UNIT(*)
PLANE_ANGLE_UNIT()
SI_UNIT($,.RADIAN.)
);
#661=(
LENGTH_UNIT()
NAMED_UNIT(*)
SI_UNIT($,.METRE.)
);
#662=PRODUCT_DEFINITION_SHAPE('','',#663);
#663=PRODUCT_DEFINITION('','',#665,#664);
#664=PRODUCT_DEFINITION_CONTEXT('',#671,'design');
#665=PRODUCT_DEFINITION_FORMATION_WITH_SPECIFIED_SOURCE('','',#667,
 .NOT_KNOWN.);
#666=PRODUCT_RELATED_PRODUCT_CATEGORY('','',(#667));
#667=PRODUCT('Cover','Cover','Cover',(#669));
#668=PRODUCT_CATEGORY('','');
#669=PRODUCT_CONTEXT('',#671,'mechanical');
#670=APPLICATION_PROTOCOL_DEFINITION('international standard',
'ap242_managed_model_based_3d_engineering',2020,#671);
#671=APPLICATION_CONTEXT('managed model based 3d engineering');
ENDSEC;
END-ISO-10303-21;
