500 0 1 0                                           
20 Datakit CrossCadWare 5 V26.2 24 Thu Jun 11 22:49:36 2026 
1 9.9999999999999995e-007 1e-010
-0 body $1 $3 $-1 $-1 #
-1 rgb_color-st-attrib $-1 $2 $-1 $0 0.231373 0.376471 0.705882 #
-2 string_attrib-name_attrib-gen-attrib $-1 $-1 $1 $0 keep keep_kept ignore 17 ATTRIB_XACIS_NAME 5 Cover #
-3 lump $-1 $-1 $4 $0 #
-4 shell $-1 $-1 $-1 $5 $-1 $3 #
-5 face $6 $7 $68 $4 $-1 $47 forward single #
-6 rgb_color-st-attrib $-1 $-1 $-1 $5 0.231373 0.376471 0.705882 #
-7 face $8 $9 $69 $4 $-1 $48 forward single #
-8 rgb_color-st-attrib $-1 $-1 $-1 $7 0.231373 0.376471 0.705882 #
-9 face $10 $11 $70 $4 $-1 $49 forward single #
-10 rgb_color-st-attrib $-1 $-1 $-1 $9 0.231373 0.376471 0.705882 #
-11 face $12 $13 $71 $4 $-1 $50 forward single #
-12 rgb_color-st-attrib $-1 $-1 $-1 $11 0.231373 0.376471 0.705882 #
-13 face $14 $15 $72 $4 $-1 $51 forward single #
-14 rgb_color-st-attrib $-1 $-1 $-1 $13 0.231373 0.376471 0.705882 #
-15 face $16 $17 $73 $4 $-1 $52 forward single #
-16 rgb_color-st-attrib $-1 $-1 $-1 $15 0.231373 0.376471 0.705882 #
-17 face $18 $19 $74 $4 $-1 $53 forward single #
-18 rgb_color-st-attrib $-1 $-1 $-1 $17 0.231373 0.376471 0.705882 #
-19 face $20 $21 $75 $4 $-1 $54 forward single #
-20 rgb_color-st-attrib $-1 $-1 $-1 $19 0.231373 0.376471 0.705882 #
-21 face $22 $23 $76 $4 $-1 $55 reversed single #
-22 rgb_color-st-attrib $-1 $-1 $-1 $21 0.231373 0.376471 0.705882 #
-23 face $24 $25 $77 $4 $-1 $56 forward single #
-24 rgb_color-st-attrib $-1 $-1 $-1 $23 0.231373 0.376471 0.705882 #
-25 face $26 $27 $78 $4 $-1 $57 forward single #
-26 rgb_color-st-attrib $-1 $-1 $-1 $25 0.231373 0.376471 0.705882 #
-27 face $28 $29 $79 $4 $-1 $58 forward single #
-28 rgb_color-st-attrib $-1 $-1 $-1 $27 0.231373 0.376471 0.705882 #
-29 face $30 $31 $81 $4 $-1 $59 forward single #
-30 rgb_color-st-attrib $-1 $-1 $-1 $29 0.231373 0.376471 0.705882 #
-31 face $32 $33 $82 $4 $-1 $60 forward single #
-32 rgb_color-st-attrib $-1 $-1 $-1 $31 0.231373 0.376471 0.705882 #
-33 face $34 $35 $83 $4 $-1 $61 forward single #
-34 rgb_color-st-attrib $-1 $-1 $-1 $33 0.231373 0.376471 0.705882 #
-35 face $36 $37 $84 $4 $-1 $62 reversed single #
-36 rgb_color-st-attrib $-1 $-1 $-1 $35 0.231373 0.376471 0.705882 #
-37 face $38 $39 $85 $4 $-1 $63 forward single #
-38 rgb_color-st-attrib $-1 $-1 $-1 $37 0.231373 0.376471 0.705882 #
-39 face $40 $41 $86 $4 $-1 $64 forward single #
-40 rgb_color-st-attrib $-1 $-1 $-1 $39 0.231373 0.376471 0.705882 #
-41 face $42 $43 $87 $4 $-1 $65 reversed single #
-42 rgb_color-st-attrib $-1 $-1 $-1 $41 0.231373 0.376471 0.705882 #
-43 face $44 $45 $88 $4 $-1 $66 reversed single #
-44 rgb_color-st-attrib $-1 $-1 $-1 $43 0.231373 0.376471 0.705882 #
-45 face $46 $-1 $89 $4 $-1 $67 forward single #
-46 rgb_color-st-attrib $-1 $-1 $-1 $45 0.231373 0.376471 0.705882 #
-47 cone-surface $-1 22.4130227707 -7.5999950846 13.3860508001 0.0000000000 0.0000000000 -1.0000000000 -0.8980256121 0.8980256121 0.0000000000 1 I I 0 1 1 forward I I I I #
-48 cone-surface $-1 0.6030224414 -7.5999950846 13.3860508001 0.0000000000 0.0000000000 -1.0000000000 0.8980256121 0.8980256121 0.0000000000 1 I I 0 1 1 forward I I I I #
-49 cone-surface $-1 22.4130227707 35.8460504567 13.3860508001 -0.0000000000 0.0000000000 -1.0000000000 -0.8980256121 -0.8980256121 0.0000000000 1 I I 0 1 1 forward I I I I #
-50 cone-surface $-1 0.6030224414 35.8460504567 13.3860508001 0.0000000000 0.0000000000 -1.0000000000 0.8980256121 -0.8980256121 0.0000000000 1 I I 0 1 1 forward I I I I #
-51 plane-surface $-1 11.5080226060 37.1160504567 13.3860508001 0.0000000000 1.0000000000 0.0000000000 0.0000000000 0.0000000000 1.0000000000 forward_v I I I I #
-52 plane-surface $-1 -0.6669775586 14.1230276861 13.3860508001 -1.0000000000 0.0000000000 0.0000000000 -0.0000000000 -1.0000000000 0.0000000000 forward_v I I I I #
-53 plane-surface $-1 11.5080226060 -8.8699950846 13.3860508001 0.0000000000 -1.0000000000 0.0000000000 1.0000000000 0.0000000000 0.0000000000 forward_v I I I I #
-54 plane-surface $-1 23.6830227707 14.1230276861 13.3860508001 1.0000000000 0.0000000000 0.0000000000 -0.0000000000 1.0000000000 0.0000000000 forward_v I I I I #
-55 plane-surface $-1 11.5080226060 14.1230276861 13.3860508001 0.0000000000 0.0000000000 -1.0000000000 1.0000000000 0.0000000000 0.0000000000 forward_v I I I I #
-56 plane-surface $-1 11.5080226060 -7.8823164846 12.1160508001 0.0000000000 -1.0000000000 0.0000000000 1.0000000000 0.0000000000 0.0000000000 forward_v I I I I #
-57 plane-surface $-1 11.5080226060 36.1283718567 12.1160508001 0.0000000000 1.0000000000 0.0000000000 0.0000000000 0.0000000000 1.0000000000 forward_v I I I I #
-58 plane-surface $-1 11.5080226060 14.1230276861 12.1160508001 0.0000000000 0.0000000000 -1.0000000000 1.0000000000 0.0000000000 0.0000000000 forward_v I I I I #
-59 plane-surface $-1 22.6953441707 14.1230276861 12.1160508001 1.0000000000 0.0000000000 0.0000000000 -0.0000000000 1.0000000000 0.0000000000 forward_v I I I I #
-60 plane-surface $-1 0.3207010414 14.1230276861 12.1160508001 -1.0000000000 0.0000000000 0.0000000000 -0.0000000000 -1.0000000000 0.0000000000 forward_v I I I I #
-61 plane-surface $-1 11.5080226060 -7.8823164846 11.4337306001 -0.0000000000 -0.7071067812 0.7071067812 -1.0000000000 -0.0000000000 -0.0000000000 forward_v I I I I #
-62 plane-surface $-1 21.1430227707 -8.4699962846 5.7518903001 -0.7071067812 0.7071067812 -0.0000000000 -0.0000000000 -0.0000000000 1.0000000000 forward_v I I I I #
-63 plane-surface $-1 13.4603428060 -7.8823164846 12.1160508001 -0.7071067812 -0.7071067812 -0.0000000000 0.0000000000 0.0000000000 -1.0000000000 forward_v I I I I #
-64 plane-surface $-1 1.2853426414 -7.8823164846 12.1160508001 -0.7071067812 -0.7071067812 -0.0000000000 0.0000000000 0.0000000000 -1.0000000000 forward_v I I I I #
-65 plane-surface $-1 5.4205225237 -8.4699962846 10.8460508001 -0.0000000000 0.7071067812 -0.7071067812 -1.0000000000 -0.0000000000 0.0000000000 forward_v I I I I #
-66 plane-surface $-1 8.9680226060 -8.4699962846 5.7518903001 -0.7071067812 0.7071067812 0.0000000000 0.0000000000 0.0000000000 1.0000000000 forward_v I I I I #
-67 plane-surface $-1 11.5080226060 14.1230276861 10.8460508001 0.0000000000 0.0000000000 -1.0000000000 1.0000000000 0.0000000000 0.0000000000 forward_v I I I I #
-68 loop $-1 $-1 $90 $5 #
-69 loop $-1 $-1 $94 $7 #
-70 loop $-1 $-1 $98 $9 #
-71 loop $-1 $-1 $102 $11 #
-72 loop $-1 $-1 $106 $13 #
-73 loop $-1 $-1 $110 $15 #
-74 loop $-1 $-1 $114 $17 #
-75 loop $-1 $-1 $118 $19 #
-76 loop $-1 $-1 $122 $21 #
-77 loop $-1 $-1 $130 $23 #
-78 loop $-1 $-1 $142 $25 #
-79 loop $-1 $80 $146 $27 #
-80 loop $-1 $-1 $150 $27 #
-81 loop $-1 $-1 $158 $29 #
-82 loop $-1 $-1 $162 $31 #
-83 loop $-1 $-1 $166 $33 #
-84 loop $-1 $-1 $170 $35 #
-85 loop $-1 $-1 $173 $37 #
-86 loop $-1 $-1 $176 $39 #
-87 loop $-1 $-1 $179 $41 #
-88 loop $-1 $-1 $183 $43 #
-89 loop $-1 $-1 $186 $45 #
-90 coedge $-1 $91 $93 $115 $198 reversed $68 $-1 #
-91 coedge $-1 $92 $90 $151 $199 forward $68 $-1 #
-92 coedge $-1 $93 $91 $121 $200 reversed $68 $-1 #
-93 coedge $-1 $90 $92 $123 $201 reversed $68 $-1 #
-94 coedge $-1 $95 $97 $111 $202 reversed $69 $-1 #
-95 coedge $-1 $96 $94 $153 $203 forward $69 $-1 #
-96 coedge $-1 $97 $95 $117 $204 reversed $69 $-1 #
-97 coedge $-1 $94 $96 $129 $205 reversed $69 $-1 #
-98 coedge $-1 $99 $101 $119 $206 reversed $70 $-1 #
-99 coedge $-1 $100 $98 $157 $207 forward $70 $-1 #
-100 coedge $-1 $101 $99 $109 $208 reversed $70 $-1 #
-101 coedge $-1 $98 $100 $125 $209 reversed $70 $-1 #
-102 coedge $-1 $103 $105 $107 $210 reversed $71 $-1 #
-103 coedge $-1 $104 $102 $155 $211 forward $71 $-1 #
-104 coedge $-1 $105 $103 $113 $212 reversed $71 $-1 #
-105 coedge $-1 $102 $104 $127 $213 reversed $71 $-1 #
-106 coedge $-1 $107 $109 $156 $214 reversed $72 $-1 #
-107 coedge $-1 $108 $106 $102 $210 forward $72 $-1 #
-108 coedge $-1 $109 $107 $126 $215 forward $72 $-1 #
-109 coedge $-1 $106 $108 $100 $208 forward $72 $-1 #
-110 coedge $-1 $111 $113 $154 $216 reversed $73 $-1 #
-111 coedge $-1 $112 $110 $94 $202 forward $73 $-1 #
-112 coedge $-1 $113 $111 $128 $217 forward $73 $-1 #
-113 coedge $-1 $110 $112 $104 $212 forward $73 $-1 #
-114 coedge $-1 $115 $117 $152 $218 reversed $74 $-1 #
-115 coedge $-1 $116 $114 $90 $198 forward $74 $-1 #
-116 coedge $-1 $117 $115 $122 $219 forward $74 $-1 #
-117 coedge $-1 $114 $116 $96 $204 forward $74 $-1 #
-118 coedge $-1 $119 $121 $150 $220 reversed $75 $-1 #
-119 coedge $-1 $120 $118 $98 $206 forward $75 $-1 #
-120 coedge $-1 $121 $119 $124 $221 forward $75 $-1 #
-121 coedge $-1 $118 $120 $92 $200 forward $75 $-1 #
-122 coedge $-1 $123 $129 $116 $219 reversed $76 $-1 #
-123 coedge $-1 $124 $122 $93 $201 forward $76 $-1 #
-124 coedge $-1 $125 $123 $120 $221 reversed $76 $-1 #
-125 coedge $-1 $126 $124 $101 $209 forward $76 $-1 #
-126 coedge $-1 $127 $125 $108 $215 reversed $76 $-1 #
-127 coedge $-1 $128 $126 $105 $213 forward $76 $-1 #
-128 coedge $-1 $129 $127 $112 $217 reversed $76 $-1 #
-129 coedge $-1 $122 $128 $97 $205 forward $76 $-1 #
-130 coedge $-1 $131 $141 $160 $222 reversed $77 $-1 #
-131 coedge $-1 $132 $130 $147 $223 forward $77 $-1 #
-132 coedge $-1 $133 $131 $162 $224 forward $77 $-1 #
-133 coedge $-1 $134 $132 $193 $225 reversed $77 $-1 #
-134 coedge $-1 $135 $133 $178 $226 reversed $77 $-1 #
-135 coedge $-1 $136 $134 $182 $227 reversed $77 $-1 #
-136 coedge $-1 $137 $135 $184 $228 reversed $77 $-1 #
-137 coedge $-1 $138 $136 $189 $229 reversed $77 $-1 #
-138 coedge $-1 $139 $137 $175 $230 reversed $77 $-1 #
-139 coedge $-1 $140 $138 $169 $231 reversed $77 $-1 #
-140 coedge $-1 $141 $139 $171 $232 reversed $77 $-1 #
-141 coedge $-1 $130 $140 $197 $233 reversed $77 $-1 #
-142 coedge $-1 $143 $145 $164 $234 reversed $78 $-1 #
-143 coedge $-1 $144 $142 $149 $235 forward $78 $-1 #
-144 coedge $-1 $145 $143 $158 $236 forward $78 $-1 #
-145 coedge $-1 $142 $144 $195 $237 reversed $78 $-1 #
-146 coedge $-1 $147 $149 $163 $238 reversed $79 $-1 #
-147 coedge $-1 $148 $146 $131 $223 reversed $79 $-1 #
-148 coedge $-1 $149 $147 $159 $239 reversed $79 $-1 #
-149 coedge $-1 $146 $148 $143 $235 reversed $79 $-1 #
-150 coedge $-1 $151 $157 $118 $220 forward $80 $-1 #
-151 coedge $-1 $152 $150 $91 $199 reversed $80 $-1 #
-152 coedge $-1 $153 $151 $114 $218 forward $80 $-1 #
-153 coedge $-1 $154 $152 $95 $203 reversed $80 $-1 #
-154 coedge $-1 $155 $153 $110 $216 forward $80 $-1 #
-155 coedge $-1 $156 $154 $103 $211 reversed $80 $-1 #
-156 coedge $-1 $157 $155 $106 $214 forward $80 $-1 #
-157 coedge $-1 $150 $156 $99 $207 reversed $80 $-1 #
-158 coedge $-1 $159 $161 $144 $236 reversed $81 $-1 #
-159 coedge $-1 $160 $158 $148 $239 forward $81 $-1 #
-160 coedge $-1 $161 $159 $130 $222 forward $81 $-1 #
-161 coedge $-1 $158 $160 $196 $240 reversed $81 $-1 #
-162 coedge $-1 $163 $165 $132 $224 reversed $82 $-1 #
-163 coedge $-1 $164 $162 $146 $238 forward $82 $-1 #
-164 coedge $-1 $165 $163 $142 $234 forward $82 $-1 #
-165 coedge $-1 $162 $164 $194 $241 reversed $82 $-1 #
-166 coedge $-1 $167 $169 $174 $242 forward $83 $-1 #
-167 coedge $-1 $168 $166 $187 $243 reversed $83 $-1 #
-168 coedge $-1 $169 $167 $172 $244 forward $83 $-1 #
-169 coedge $-1 $166 $168 $139 $231 forward $83 $-1 #
-170 coedge $-1 $171 $172 $186 $245 forward $84 $-1 #
-171 coedge $-1 $172 $170 $140 $232 forward $84 $-1 #
-172 coedge $-1 $170 $171 $168 $244 reversed $84 $-1 #
-173 coedge $-1 $174 $175 $188 $246 forward $85 $-1 #
-174 coedge $-1 $175 $173 $166 $242 reversed $85 $-1 #
-175 coedge $-1 $173 $174 $138 $230 forward $85 $-1 #
-176 coedge $-1 $177 $178 $192 $247 forward $86 $-1 #
-177 coedge $-1 $178 $176 $179 $248 forward $86 $-1 #
-178 coedge $-1 $176 $177 $134 $226 forward $86 $-1 #
-179 coedge $-1 $180 $182 $177 $248 reversed $87 $-1 #
-180 coedge $-1 $181 $179 $191 $249 forward $87 $-1 #
-181 coedge $-1 $182 $180 $185 $250 forward $87 $-1 #
-182 coedge $-1 $179 $181 $135 $227 forward $87 $-1 #
-183 coedge $-1 $184 $185 $190 $251 forward $88 $-1 #
-184 coedge $-1 $185 $183 $136 $228 forward $88 $-1 #
-185 coedge $-1 $183 $184 $181 $250 reversed $88 $-1 #
-186 coedge $-1 $187 $197 $170 $245 reversed $89 $-1 #
-187 coedge $-1 $188 $186 $167 $243 forward $89 $-1 #
-188 coedge $-1 $189 $187 $173 $246 reversed $89 $-1 #
-189 coedge $-1 $190 $188 $137 $229 forward $89 $-1 #
-190 coedge $-1 $191 $189 $183 $251 reversed $89 $-1 #
-191 coedge $-1 $192 $190 $180 $249 reversed $89 $-1 #
-192 coedge $-1 $193 $191 $176 $247 reversed $89 $-1 #
-193 coedge $-1 $194 $192 $133 $225 forward $89 $-1 #
-194 coedge $-1 $195 $193 $165 $241 forward $89 $-1 #
-195 coedge $-1 $196 $194 $145 $237 forward $89 $-1 #
-196 coedge $-1 $197 $195 $161 $240 forward $89 $-1 #
-197 coedge $-1 $186 $196 $141 $233 forward $89 $-1 #
-198 edge $-1 $253 -1.2700000000 $255 0.0000000000 $90 $252 forward 7 unknown #
-199 edge $-1 $253 1.5707963268 $258 3.1415926536 $91 $257 forward 7 unknown #
-200 edge $-1 $261 0.0000000000 $258 1.2700000000 $92 $260 forward 7 unknown #
-201 edge $-1 $255 1.5707963268 $261 3.1415926536 $93 $263 forward 7 unknown #
-202 edge $-1 $265 -1.2700000000 $267 0.0000000000 $94 $264 forward 7 unknown #
-203 edge $-1 $265 0.0000000000 $270 1.5707963268 $95 $269 forward 7 unknown #
-204 edge $-1 $273 0.0000000000 $270 1.2700000000 $96 $272 forward 7 unknown #
-205 edge $-1 $267 0.0000000000 $273 1.5707963268 $97 $275 forward 7 unknown #
-206 edge $-1 $277 -1.2700000000 $279 0.0000000000 $98 $276 forward 7 unknown #
-207 edge $-1 $277 3.1415926536 $282 4.7123889804 $99 $281 forward 7 unknown #
-208 edge $-1 $285 0.0000000000 $282 1.2700000000 $100 $284 forward 7 unknown #
-209 edge $-1 $279 3.1415926536 $285 4.7123889804 $101 $287 forward 7 unknown #
-210 edge $-1 $289 -1.2700000000 $291 0.0000000000 $102 $288 forward 7 unknown #
-211 edge $-1 $289 4.7123889804 $294 6.2831853072 $103 $293 forward 7 unknown #
-212 edge $-1 $297 0.0000000000 $294 1.2700000000 $104 $296 forward 7 unknown #
-213 edge $-1 $291 4.7123889804 $297 6.2831853072 $105 $299 forward 7 unknown #
-214 edge $-1 $289 -10.9050001646 $282 10.9050001646 $106 $300 forward 7 unknown #
-215 edge $-1 $291 -10.9050001646 $285 10.9050001646 $108 $301 forward 7 unknown #
-216 edge $-1 $265 -21.7230227707 $294 21.7230227707 $110 $302 forward 7 unknown #
-217 edge $-1 $267 -21.7230227707 $297 21.7230227707 $112 $303 forward 7 unknown #
-218 edge $-1 $253 -10.9050001646 $270 10.9050001646 $114 $304 forward 7 unknown #
-219 edge $-1 $255 -10.9050001646 $273 10.9050001646 $116 $305 forward 7 unknown #
-220 edge $-1 $277 -21.7230227707 $258 21.7230227707 $118 $306 forward 7 unknown #
-221 edge $-1 $279 -21.7230227707 $261 21.7230227707 $120 $307 forward 7 unknown #
-222 edge $-1 $309 0.0000000000 $311 1.2700000000 $130 $308 forward 7 unknown #
-223 edge $-1 $309 -11.1873215646 $314 11.1873215646 $131 $313 forward 7 unknown #
-224 edge $-1 $314 0.0000000000 $317 1.2700000000 $132 $316 forward 7 unknown #
-225 edge $-1 $320 10.2226799646 $317 11.1873215646 $133 $319 forward 7 unknown #
-226 edge $-1 $323 0.6823202000 $320 1.2700000000 $134 $322 forward 7 unknown #
-227 edge $-1 $326 -7.6826799646 $323 0.5876798000 $135 $325 forward 7 unknown #
-228 edge $-1 $329 0.0000000000 $326 0.5876798000 $136 $328 forward 7 unknown #
-229 edge $-1 $332 -1.9523202000 $329 1.9523202000 $137 $331 forward 7 unknown #
-230 edge $-1 $335 0.6823202000 $332 1.2700000000 $138 $334 forward 7 unknown #
-231 edge $-1 $338 -10.2226799646 $335 -1.9523202000 $139 $337 forward 7 unknown #
-232 edge $-1 $341 0.0000000000 $338 0.5876798000 $140 $340 forward 7 unknown #
-233 edge $-1 $311 -11.1873215646 $341 -10.2226799646 $141 $343 forward 7 unknown #
-234 edge $-1 $345 0.0000000000 $347 1.2700000000 $142 $344 forward 7 unknown #
-235 edge $-1 $345 -11.1873215646 $350 11.1873215646 $143 $349 forward 7 unknown #
-236 edge $-1 $350 0.0000000000 $353 1.2700000000 $144 $352 forward 7 unknown #
-237 edge $-1 $347 -11.1873215646 $353 11.1873215646 $145 $355 forward 7 unknown #
-238 edge $-1 $314 -22.0053441707 $345 22.0053441707 $146 $356 forward 7 unknown #
-239 edge $-1 $350 -22.0053441707 $309 22.0053441707 $148 $357 forward 7 unknown #
-240 edge $-1 $353 -22.0053441707 $311 22.0053441707 $161 $358 forward 7 unknown #
-241 edge $-1 $317 -22.0053441707 $347 22.0053441707 $165 $359 forward 7 unknown #
-242 edge $-1 $335 0.3939377511 $361 1.4118283305 $166 $360 forward 7 unknown #
-243 edge $-1 $364 -3.5475000823 $361 3.5475000823 $167 $363 forward 7 unknown #
-244 edge $-1 $364 4.8841764501 $338 5.9020670294 $168 $366 forward 7 unknown #
-245 edge $-1 $364 -9.1627056555 $341 -8.3316017605 $170 $367 forward 7 unknown #
-246 edge $-1 $332 16.9406269379 $361 17.7717308329 $173 $368 forward 7 unknown #
-247 edge $-1 $320 8.3316017605 $370 9.1627056555 $176 $369 forward 7 unknown #
-248 edge $-1 $370 2.0481508203 $323 3.0660413997 $177 $372 forward 7 unknown #
-249 edge $-1 $370 -3.5475000823 $374 3.5475012823 $180 $373 forward 7 unknown #
-250 edge $-1 $374 2.9411163216 $326 3.9590062082 $181 $376 forward 7 unknown #
-251 edge $-1 $374 -17.7717299843 $329 -16.9406269379 $183 $377 forward 7 unknown #
-252 straight-curve $-1 22.413022770688002 -8.869995084633000 13.386050800102000 -0.000000000000000 -0.000000000000000 1.000000000000000 I I #
-253 vertex $-1 $198 $254 #
-254 point $-1 22.413022770688002 -8.869995084633000 12.116050800102000 #
-255 vertex $-1 $198 $256 #
-256 point $-1 22.413022770688002 -8.869995084633000 13.386050800102000 #
-257 ellipse-curve $-1 22.413022770688002 -7.599995084633000 12.116050800102000 0.000000000000000 0.000000000000000 1.000000000000000 -1.270000000000000 0.000000000000000 0.000000000000000 1.000000000000000 I I #
-258 vertex $-1 $199 $259 #
-259 point $-1 23.683022770688002 -7.599995084633000 12.116050800102000 #
-260 straight-curve $-1 23.683022770688002 -7.599995084633000 13.386050800102000 0.000000000000000 0.000000000000000 -1.000000000000000 I I #
-261 vertex $-1 $200 $262 #
-262 point $-1 23.683022770688002 -7.599995084633000 13.386050800102000 #
-263 ellipse-curve $-1 22.413022770688002 -7.599995084633000 13.386050800102000 0.000000000000000 0.000000000000000 1.000000000000000 -1.270000000000000 0.000000000000000 0.000000000000000 1.000000000000000 I I #
-264 straight-curve $-1 -0.666977558597999 -7.599995084633000 13.386050800102000 -0.000000000000000 -0.000000000000000 1.000000000000000 I I #
-265 vertex $-1 $202 $266 #
-266 point $-1 -0.666977558597999 -7.599995084633000 12.116050800102000 #
-267 vertex $-1 $202 $268 #
-268 point $-1 -0.666977558597999 -7.599995084633000 13.386050800102000 #
-269 ellipse-curve $-1 0.603022441402002 -7.599995084633000 12.116050800102000 0.000000000000000 0.000000000000000 1.000000000000000 -1.270000000000000 0.000000000000000 0.000000000000000 1.000000000000000 I I #
-270 vertex $-1 $203 $271 #
-271 point $-1 0.603022441402002 -8.869995084633000 12.116050800102000 #
-272 straight-curve $-1 0.603022441402002 -8.869995084633000 13.386050800102000 0.000000000000000 0.000000000000000 -1.000000000000000 I I #
-273 vertex $-1 $204 $274 #
-274 point $-1 0.603022441402002 -8.869995084633000 13.386050800102000 #
-275 ellipse-curve $-1 0.603022441402002 -7.599995084633000 13.386050800102000 0.000000000000000 0.000000000000000 1.000000000000000 -1.270000000000000 0.000000000000000 0.000000000000000 1.000000000000000 I I #
-276 straight-curve $-1 23.683022770688002 35.846050456744003 13.386050800102000 -0.000000000000000 -0.000000000000000 1.000000000000000 I I #
-277 vertex $-1 $206 $278 #
-278 point $-1 23.683022770688002 35.846050456744003 12.116050800102000 #
-279 vertex $-1 $206 $280 #
-280 point $-1 23.683022770688002 35.846050456744003 13.386050800102000 #
-281 ellipse-curve $-1 22.413022770688002 35.846050456744003 12.116050800102000 0.000000000000000 0.000000000000000 1.000000000000000 -1.270000000000000 0.000000000000000 0.000000000000000 1.000000000000000 I I #
-282 vertex $-1 $207 $283 #
-283 point $-1 22.413022770688002 37.116050456743999 12.116050800102000 #
-284 straight-curve $-1 22.413022770688002 37.116050456743999 13.386050800102000 0.000000000000000 0.000000000000000 -1.000000000000000 I I #
-285 vertex $-1 $208 $286 #
-286 point $-1 22.413022770688002 37.116050456743999 13.386050800102000 #
-287 ellipse-curve $-1 22.413022770688002 35.846050456744003 13.386050800102000 0.000000000000000 0.000000000000000 1.000000000000000 -1.270000000000000 0.000000000000000 0.000000000000000 1.000000000000000 I I #
-288 straight-curve $-1 0.603022441402005 37.116050456743999 13.386050800102000 -0.000000000000000 -0.000000000000000 1.000000000000000 I I #
-289 vertex $-1 $210 $290 #
-290 point $-1 0.603022441402005 37.116050456743999 12.116050800102000 #
-291 vertex $-1 $210 $292 #
-292 point $-1 0.603022441402005 37.116050456743999 13.386050800102000 #
-293 ellipse-curve $-1 0.603022441402004 35.846050456744003 12.116050800102000 0.000000000000000 0.000000000000000 1.000000000000000 -1.270000000000000 0.000000000000000 0.000000000000000 1.000000000000000 I I #
-294 vertex $-1 $211 $295 #
-295 point $-1 -0.666977558597996 35.846050456744003 12.116050800102000 #
-296 straight-curve $-1 -0.666977558597996 35.846050456744003 13.386050800102000 0.000000000000000 0.000000000000000 -1.000000000000000 I I #
-297 vertex $-1 $212 $298 #
-298 point $-1 -0.666977558597996 35.846050456744003 13.386050800102000 #
-299 ellipse-curve $-1 0.603022441402004 35.846050456744003 13.386050800102000 0.000000000000000 0.000000000000000 1.000000000000000 -1.270000000000000 0.000000000000000 0.000000000000000 1.000000000000000 I I #
-300 straight-curve $-1 11.508022606044999 37.116050456743999 12.116050800102000 1.000000000000000 0.000000000000000 0.000000000000000 I I #
-301 straight-curve $-1 11.508022606044999 37.116050456743999 13.386050800102000 1.000000000000000 0.000000000000000 0.000000000000000 I I #
-302 straight-curve $-1 -0.666977558597997 14.123027686055501 12.116050800102000 0.000000000000000 1.000000000000000 0.000000000000000 I I #
-303 straight-curve $-1 -0.666977558597997 14.123027686055501 13.386050800102000 0.000000000000000 1.000000000000000 0.000000000000000 I I #
-304 straight-curve $-1 11.508022606044999 -8.869995084633000 12.116050800102000 -1.000000000000000 -0.000000000000000 0.000000000000000 I I #
-305 straight-curve $-1 11.508022606044999 -8.869995084633000 13.386050800102000 -1.000000000000000 -0.000000000000000 0.000000000000000 I I #
-306 straight-curve $-1 23.683022770688002 14.123027686055501 12.116050800102000 0.000000000000000 -1.000000000000000 0.000000000000000 I I #
-307 straight-curve $-1 23.683022770688002 14.123027686055501 13.386050800102000 0.000000000000000 -1.000000000000000 0.000000000000000 I I #
-308 straight-curve $-1 22.695344170688003 -7.882316484633001 12.116050800102000 0.000000000000000 0.000000000000000 -1.000000000000000 I I #
-309 vertex $-1 $222 $310 #
-310 point $-1 22.695344170688003 -7.882316484633001 12.116050800102000 #
-311 vertex $-1 $222 $312 #
-312 point $-1 22.695344170688003 -7.882316484633001 10.846050800101999 #
-313 straight-curve $-1 11.508022606044999 -7.882316484633001 12.116050800102000 -1.000000000000000 -0.000000000000000 0.000000000000000 I I #
-314 vertex $-1 $223 $315 #
-315 point $-1 0.320701041402002 -7.882316484633001 12.116050800102000 #
-316 straight-curve $-1 0.320701041402002 -7.882316484633001 12.116050800102000 0.000000000000000 0.000000000000000 -1.000000000000000 I I #
-317 vertex $-1 $224 $318 #
-318 point $-1 0.320701041402002 -7.882316484633001 10.846050800101999 #
-319 straight-curve $-1 11.508022606044999 -7.882316484633001 10.846050800101999 -1.000000000000000 -0.000000000000000 0.000000000000000 I I #
-320 vertex $-1 $225 $321 #
-321 point $-1 1.285342641402000 -7.882316484633001 10.846050800101999 #
-322 straight-curve $-1 1.285342641402000 -7.882316484633001 12.116050800102000 0.000000000000000 0.000000000000000 -1.000000000000000 I I #
-323 vertex $-1 $226 $324 #
-324 point $-1 1.285342641402000 -7.882316484633001 11.433730600102001 #
-325 straight-curve $-1 1.873022441402000 -7.882316484633001 11.433730600102001 -1.000000000000000 -0.000000000000000 0.000000000000000 I I #
-326 vertex $-1 $227 $327 #
-327 point $-1 9.555702406045000 -7.882316484633001 11.433730600102001 #
-328 straight-curve $-1 9.555702406045000 -7.882316484633001 10.846050800101999 0.000000000000000 0.000000000000000 1.000000000000000 I I #
-329 vertex $-1 $228 $330 #
-330 point $-1 9.555702406045000 -7.882316484633001 10.846050800101999 #
-331 straight-curve $-1 11.508022606044999 -7.882316484633001 10.846050800101999 -1.000000000000000 -0.000000000000000 0.000000000000000 I I #
-332 vertex $-1 $229 $333 #
-333 point $-1 13.460342806045000 -7.882316484633001 10.846050800101999 #
-334 straight-curve $-1 13.460342806045000 -7.882316484633001 12.116050800102000 0.000000000000000 0.000000000000000 -1.000000000000000 I I #
-335 vertex $-1 $230 $336 #
-336 point $-1 13.460342806045000 -7.882316484633001 11.433730600102001 #
-337 straight-curve $-1 11.508022606044999 -7.882316484633001 11.433730600102001 -1.000000000000000 -0.000000000000000 -0.000000000000000 I I #
-338 vertex $-1 $231 $339 #
-339 point $-1 21.730702570688003 -7.882316484633001 11.433730600102001 #
-340 straight-curve $-1 21.730702570688003 -7.882316484633001 10.846050800101999 -0.000000000000001 -0.000000000000000 1.000000000000000 I I #
-341 vertex $-1 $232 $342 #
-342 point $-1 21.730702570688003 -7.882316484633001 10.846050800101999 #
-343 straight-curve $-1 11.508022606044999 -7.882316484633001 10.846050800101999 -1.000000000000000 -0.000000000000000 0.000000000000000 I I #
-344 straight-curve $-1 0.320701041402005 36.128371856744003 12.116050800102000 0.000000000000000 0.000000000000000 -1.000000000000000 I I #
-345 vertex $-1 $234 $346 #
-346 point $-1 0.320701041402005 36.128371856744003 12.116050800102000 #
-347 vertex $-1 $234 $348 #
-348 point $-1 0.320701041402005 36.128371856744003 10.846050800101999 #
-349 straight-curve $-1 11.508022606044999 36.128371856744003 12.116050800102000 1.000000000000000 0.000000000000000 0.000000000000000 I I #
-350 vertex $-1 $235 $351 #
-351 point $-1 22.695344170688003 36.128371856744003 12.116050800102000 #
-352 straight-curve $-1 22.695344170688003 36.128371856744003 12.116050800102000 0.000000000000000 0.000000000000000 -1.000000000000000 I I #
-353 vertex $-1 $236 $354 #
-354 point $-1 22.695344170688003 36.128371856744003 10.846050800101999 #
-355 straight-curve $-1 11.508022606044999 36.128371856744003 10.846050800101999 1.000000000000000 0.000000000000000 0.000000000000000 I I #
-356 straight-curve $-1 0.320701041402003 14.123027686055501 12.116050800102000 0.000000000000000 1.000000000000000 0.000000000000000 I I #
-357 straight-curve $-1 22.695344170688003 14.123027686055501 12.116050800102000 0.000000000000000 -1.000000000000000 0.000000000000000 I I #
-358 straight-curve $-1 22.695344170688003 14.123027686055501 10.846050800101999 0.000000000000000 -1.000000000000000 0.000000000000000 I I #
-359 straight-curve $-1 0.320701041402003 14.123027686055501 10.846050800101999 0.000000000000000 1.000000000000000 0.000000000000000 I I #
-360 straight-curve $-1 13.232902739378320 -7.654876417966330 11.661170666768660 0.577350269189627 -0.577350269189627 -0.577350269189624 I I #
-361 vertex $-1 $242 $362 #
-362 point $-1 14.048022606044999 -8.469995084633000 10.846050800101999 #
-363 straight-curve $-1 17.595522688366501 -8.469995084633000 10.846050800101999 -1.000000000000000 -0.000000000000000 -0.000000000000000 I I #
-364 vertex $-1 $243 $365 #
-365 point $-1 21.143022770687999 -8.469995084633000 10.846050800101999 #
-366 straight-curve $-1 18.323142582473650 -11.289876472847340 8.026170611887681 0.577350269189627 0.577350269189627 0.577350269189624 I I #
-367 straight-curve $-1 27.622034673710750 -1.990984381610260 10.846050800101999 0.707106781186548 0.707106781186547 0.000000000000000 I I #
-368 straight-curve $-1 1.481510620700750 4.096515700711254 10.846050800101999 0.707106781186547 -0.707106781186548 -0.000000000000000 I I #
-369 straight-curve $-1 -4.605989461620750 -1.990984381610250 10.846050800101999 0.707106781186548 -0.707106781186548 -0.000000000000000 I I #
-370 vertex $-1 $247 $371 #
-371 point $-1 1.873022441402000 -8.469995084633000 10.846050800101999 #
-372 straight-curve $-1 3.055522468842505 -9.652496312073501 9.663550772661500 -0.577350269189626 0.577350269189626 0.577350269189625 I I #
-373 straight-curve $-1 5.420522523723500 -8.469995084633000 10.846050800101999 1.000000000000000 0.000000000000000 0.000000000000000 I I #
-374 vertex $-1 $249 $375 #
-375 point $-1 8.968023806045000 -8.469995084633000 10.846050800101999 #
-376 straight-curve $-1 7.269969106045000 -10.168049784633000 9.147997300102011 0.577350269189626 0.577350269189626 0.577350269189625 I I #
-377 straight-curve $-1 21.534534591389249 4.096515700711250 10.846050800101999 0.707106781186548 0.707106781186548 0.000000000000000 I I #
End-of-ACIS-data 