# OBJ generated by ONSHAPE BY PTC INC, 1.216 Units = meters
mtllib 3D_PCB2_2026-05-29 (3) - Cover.mtl
g Cover
v 0.0217307 -0.00788232 0.0108461 
v 0.0217307 -0.00788232 0.0114337 
v 0.021143 -0.00847 0.0108461 
v 0.0134603 -0.00788232 0.0114337 
v 0.014048 -0.00847 0.0108461 
v 0.0134603 -0.00788232 0.0108461 
v 0.0226953 -0.00788232 0.0108461 
v 0.0226953 -0.00788232 0.0121161 
v 0.0095557 -0.00788232 0.0114337 
v 0.0095557 -0.00788232 0.0108461 
v 0.000320701 -0.00788232 0.0121161 
v 0.00128534 -0.00788232 0.0114337 
v 0.000320701 -0.00788232 0.0108461 
v 0.00128534 -0.00788232 0.0108461 
v 0.00187302 -0.00847 0.0108461 
v 0.00896802 -0.00847 0.0108461 
v 0.0226953 0.0361284 0.0108461 
v 0.000320701 0.0361284 0.0108461 
v 0.000320701 0.0361284 0.0121161 
v 0.0226953 0.0361284 0.0121161 
v 0.0226879 0.0370859 0.0121161 
v 0.0227417 0.0370728 0.0121161 
v 0.0235129 -0.008235 0.0121161 
v 0.0234841 -0.00828237 0.0121161 
v 0.023564 -0.00813672 0.0121161 
v 0.0235395 -0.00818642 0.0121161 
v 0.0236064 -0.00803436 0.0121161 
v 0.0235863 -0.008086 0.0121161 
v -0.000575397 0.0363196 0.0121161 
v -0.000554238 0.0363692 0.0121161 
v -0.000656113 -0.00776576 0.0121161 
v -0.000662145 -0.00771068 0.0121161 
v -0.000547988 -0.00813672 0.0121161 
v -0.000570305 -0.008086 0.0121161 
v 0.0227949 0.0370573 0.0121161 
v 0.0234533 -0.00832844 0.0121161 
v -0.000594432 0.0362691 0.0121161 
v -0.000662402 0.0359538 0.0121161 
v -0.000656691 0.0360074 0.0121161 
v -0.000647683 -0.00782053 0.0121161 
v -0.000608198 -0.00798189 0.0121161 
v -0.000623703 -0.0079287 0.0121161 
v -0.000590387 -0.00803436 0.0121161 
v -0.000468085 -0.00828237 0.0121161 
v -0.00049683 -0.008235 0.0121161 
v -0.000404536 -0.00837312 0.0121161 
v -0.000437301 -0.00832844 0.0121161 
v 0.0230954 0.0369172 0.0121161 
v 0.0231415 0.0368864 0.0121161 
v 0.0229994 0.0369726 0.0121161 
v 0.023048 0.0369459 0.0121161 
v 0.022899 0.0370194 0.0121161 
v 0.0229497 0.0369971 0.0121161 
v 0.0228474 0.0370395 0.0121161 
v 7.99079e-05 0.0370033 0.0121161 
v 0.000129495 0.0370245 0.0121161 
v -1.63501e-05 0.0369548 0.0121161 
v 3.12637e-05 0.0369801 0.0121161 
v -0.00027574 0.0367629 0.0121161 
v -0.000236034 0.0367994 0.0121161 
v 0.0234206 -0.00837312 0.0121161 
v 0.0233859 -0.00841634 0.0121161 
v 0.0231415 -0.00864032 0.0121161 
v 0.0230954 -0.0086711 0.0121161 
v -0.000530993 0.0364178 0.0121161 
v -0.000638473 0.0361136 0.0121161 
v -0.000625998 0.0361661 0.0121161 
v -0.000665833 0.0359 0.0121161 
v -0.000636873 -0.00787487 0.0121161 
v -0.00033332 -0.00845799 0.0121161 
v -0.000369854 -0.00841634 0.0121161 
v 0.0232294 0.0368189 0.0121161 
v 0.023271 0.0367824 0.0121161 
v 0.0225788 0.0371052 0.0121161 
v 0.0226336 0.0370968 0.0121161 
v 0.000179935 0.0370435 0.0121161 
v -6.28478e-05 0.0369275 0.0121161 
v -0.000194817 0.0368342 0.0121161 
v -0.000152162 0.0368671 0.0121161 
v -0.000313862 0.0367248 0.0121161 
v 0.0236397 -0.0079287 0.0121161 
v 0.0236242 -0.00798189 0.0121161 
v 0.0236637 -0.00782053 0.0121161 
v 0.0236529 -0.00787487 0.0121161 
v 0.0236782 -0.00771068 0.0121161 
v 0.0236722 -0.00776576 0.0121161 
v 0.0236064 0.0362804 0.0121161 
v 0.0236242 0.0362279 0.0121161 
v 0.0235395 0.0364325 0.0121161 
v 0.023564 0.0363828 0.0121161 
v 0.0234841 0.0365284 0.0121161 
v 0.0235129 0.0364811 0.0121161 
v -0.000170105 -0.00860755 0.0121161 
v -0.000213318 -0.00857287 0.0121161 
v -3.19776e-05 -0.00869985 0.0121161 
v -7.93481e-05 -0.0086711 0.0121161 
v 6.62972e-05 -0.00875101 0.0121161 
v 1.66017e-05 -0.0087265 0.0121161 
v 0.000221126 -0.00881122 0.0121161 
v 0.000168657 -0.0087934 0.0121161 
v 0.000328144 -0.00883989 0.0121161 
v 0.000274322 -0.00882672 0.0121161 
v 0.0227949 -0.00881122 0.0121161 
v 0.0227417 -0.00882672 0.0121161 
v 0.023048 -0.00869985 0.0121161 
v 0.0232294 -0.00857287 0.0121161 
v 0.0231861 -0.00860755 0.0121161 
v -0.000449185 0.0365572 0.0121161 
v -0.000418054 0.0366012 0.0121161 
v -0.000505705 0.0364654 0.0121161 
v -0.00047842 0.0365119 0.0121161 
v -0.000611309 0.0362179 0.0121161 
v -0.00064871 0.0360607 0.0121161 
v -0.000666978 0.0358461 0.0121161 
v -0.000523481 -0.00818642 0.0121161 
v -0.000295003 -0.00849802 0.0121161 
v 0.0231861 0.0368536 0.0121161 
v 0.0225237 0.0371112 0.0121161 
v 0.022413 0.0371161 0.0121161 
v 0.0224684 0.0371148 0.0121161 
v 0.00028301 0.0370751 0.0121161 
v 0.00033546 0.0370875 0.0121161 
v 0.000231138 0.0370604 0.0121161 
v -0.000108146 0.0368983 0.0121161 
v 0.0236637 0.0360666 0.0121161 
v 0.0236722 0.0360118 0.0121161 
v 0.0236397 0.0361748 0.0121161 
v 0.0236529 0.0361209 0.0121161 
v 0.0235863 0.0363321 0.0121161 
v 0.023311 0.0367441 0.0121161 
v 0.0233494 0.0367041 0.0121161 
v -0.00012542 -0.00864032 0.0121161 
v 0.0228474 -0.0087934 0.0121161 
v 0.0229994 -0.0087265 0.0121161 
v 0.0229497 -0.00875101 0.0121161 
v -0.000385083 0.0366439 0.0121161 
v -0.000665769 -0.00765539 0.0121161 
v 0.000495319 0.0371115 0.0121161 
v 0.000549122 0.0371149 0.0121161 
v 0.000388391 0.0370978 0.0121161 
v 0.00044171 0.0371058 0.0121161 
v 0.0234206 0.0366192 0.0121161 
v 0.0234533 0.0365745 0.0121161 
v 0.0233859 0.0366624 0.0121161 
v 0.000117014 -0.00877332 0.0121161 
v 0.000492335 -0.00886516 0.0121161 
v 0.000437254 -0.00885913 0.0121161 
v 0.022899 -0.00877332 0.0121161 
v -0.000350331 0.0366851 0.0121161 
v -0.000666978 -0.0076 0.0121161 
v 0.000603022 0.0371161 0.0121161 
v 0.0233494 -0.00845799 0.0121161 
v 0.023683 -0.0076 0.0121161 
v 0.0236818 -0.00765539 0.0121161 
v 0.000382489 -0.0088507 0.0121161 
v 0.000603022 -0.00887 0.0121161 
v 0.000547626 -0.00886879 0.0121161 
v 0.0226336 -0.0088507 0.0121161 
v 0.0225788 -0.00885913 0.0121161 
v 0.023311 -0.00849802 0.0121161 
v 0.023271 -0.00853634 0.0121161 
v 0.023683 0.0358461 0.0121161 
v 0.0236782 0.0359567 0.0121161 
v 0.0236818 0.0359014 0.0121161 
v -0.000254977 -0.00853634 0.0121161 
v 0.0226879 -0.00883989 0.0121161 
v 0.022413 -0.00887 0.0121161 
v 0.0225237 -0.00886516 0.0121161 
v 0.0224684 -0.00886879 0.0121161 
v 0.023683 -0.0076 0.0133861 
v 0.0236818 -0.00765539 0.0133861 
v 0.0236782 -0.00771068 0.0133861 
v 0.0236722 -0.00776576 0.0133861 
v 0.0236637 -0.00782053 0.0133861 
v 0.0236529 -0.00787487 0.0133861 
v 0.0236397 -0.0079287 0.0133861 
v 0.0236242 -0.00798189 0.0133861 
v 0.0236064 -0.00803436 0.0133861 
v 0.0235863 -0.008086 0.0133861 
v 0.023564 -0.00813672 0.0133861 
v 0.0235395 -0.00818642 0.0133861 
v 0.0235129 -0.008235 0.0133861 
v 0.0234841 -0.00828237 0.0133861 
v 0.0234533 -0.00832844 0.0133861 
v 0.0234206 -0.00837312 0.0133861 
v 0.0233859 -0.00841634 0.0133861 
v 0.0233494 -0.00845799 0.0133861 
v 0.023311 -0.00849802 0.0133861 
v 0.023271 -0.00853634 0.0133861 
v 0.0232294 -0.00857287 0.0133861 
v 0.0231861 -0.00860755 0.0133861 
v 0.0231415 -0.00864032 0.0133861 
v 0.0230954 -0.0086711 0.0133861 
v 0.023048 -0.00869985 0.0133861 
v 0.0229994 -0.0087265 0.0133861 
v 0.0229497 -0.00875101 0.0133861 
v 0.022899 -0.00877332 0.0133861 
v 0.0228474 -0.0087934 0.0133861 
v 0.0227949 -0.00881122 0.0133861 
v 0.0227417 -0.00882672 0.0133861 
v 0.0226879 -0.00883989 0.0133861 
v 0.0226336 -0.0088507 0.0133861 
v 0.0225788 -0.00885913 0.0133861 
v 0.0225237 -0.00886516 0.0133861 
v 0.0224684 -0.00886879 0.0133861 
v 0.022413 -0.00887 0.0133861 
v 0.0236782 0.0359567 0.0133861 
v 0.0233859 0.0366624 0.0133861 
v 0.0233494 0.0367041 0.0133861 
v 0.0234841 0.0365284 0.0133861 
v 0.0235863 0.0363321 0.0133861 
v 0.023564 0.0363828 0.0133861 
v 0.0236397 0.0361748 0.0133861 
v 0.0236242 0.0362279 0.0133861 
v -0.000547988 -0.00813672 0.0133861 
v -0.000665769 -0.00765539 0.0133861 
v -0.000662145 -0.00771068 0.0133861 
v 0.023683 0.0358461 0.0133861 
v 0.0227949 0.0370573 0.0133861 
v 0.0227417 0.0370728 0.0133861 
v 0.023311 0.0367441 0.0133861 
v 0.023271 0.0367824 0.0133861 
v 0.0234206 0.0366192 0.0133861 
v 0.0234533 0.0365745 0.0133861 
v 0.0235395 0.0364325 0.0133861 
v 0.0236064 0.0362804 0.0133861 
v 0.0236637 0.0360666 0.0133861 
v 0.0236529 0.0361209 0.0133861 
v 0.0236722 0.0360118 0.0133861 
v -0.000666978 -0.0076 0.0133861 
v -0.000468085 -0.00828237 0.0133861 
v -0.000437301 -0.00832844 0.0133861 
v -0.000523481 -0.00818642 0.0133861 
v -0.00049683 -0.008235 0.0133861 
v -0.000608198 -0.00798189 0.0133861 
v -0.000590387 -0.00803436 0.0133861 
v -0.000636873 -0.00787487 0.0133861 
v -0.000623703 -0.0079287 0.0133861 
v -0.000656113 -0.00776576 0.0133861 
v 0.000388391 0.0370978 0.0133861 
v -0.000530993 0.0364178 0.0133861 
v -0.000554238 0.0363692 0.0133861 
v -0.000194817 0.0368342 0.0133861 
v -0.000385083 0.0366439 0.0133861 
v -0.000418054 0.0366012 0.0133861 
v -0.00027574 0.0367629 0.0133861 
v -0.000313862 0.0367248 0.0133861 
v 0.0228474 0.0370395 0.0133861 
v 0.0232294 0.0368189 0.0133861 
v 0.000221126 -0.00881122 0.0133861 
v 0.000274322 -0.00882672 0.0133861 
v 0.000117014 -0.00877332 0.0133861 
v 0.000168657 -0.0087934 0.0133861 
v -3.19776e-05 -0.00869985 0.0133861 
v 1.66017e-05 -0.0087265 0.0133861 
v -0.00012542 -0.00864032 0.0133861 
v -7.93481e-05 -0.0086711 0.0133861 
v -0.000254977 -0.00853634 0.0133861 
v -0.000213318 -0.00857287 0.0133861 
v -0.00033332 -0.00845799 0.0133861 
v -0.000295003 -0.00849802 0.0133861 
v -0.000404536 -0.00837312 0.0133861 
v -0.000369854 -0.00841634 0.0133861 
v -0.000647683 -0.00782053 0.0133861 
v -0.000575397 0.0363196 0.0133861 
v -0.000350331 0.0366851 0.0133861 
v -0.000236034 0.0367994 0.0133861 
v -0.000449185 0.0365572 0.0133861 
v 3.12637e-05 0.0369801 0.0133861 
v -1.63501e-05 0.0369548 0.0133861 
v 0.000179935 0.0370435 0.0133861 
v 0.000129495 0.0370245 0.0133861 
v 0.022899 0.0370194 0.0133861 
v 0.0229994 0.0369726 0.0133861 
v 0.0229497 0.0369971 0.0133861 
v 0.0230954 0.0369172 0.0133861 
v 0.023048 0.0369459 0.0133861 
v 0.0231861 0.0368536 0.0133861 
v 0.0231415 0.0368864 0.0133861 
v -0.000170105 -0.00860755 0.0133861 
v -0.000662402 0.0359538 0.0133861 
v -0.000665833 0.0359 0.0133861 
v -0.00064871 0.0360607 0.0133861 
v -0.000656691 0.0360074 0.0133861 
v -0.000611309 0.0362179 0.0133861 
v -0.000625998 0.0361661 0.0133861 
v -0.000505705 0.0364654 0.0133861 
v -0.000108146 0.0368983 0.0133861 
v -0.000152162 0.0368671 0.0133861 
v 7.99079e-05 0.0370033 0.0133861 
v 0.000231138 0.0370604 0.0133861 
v 0.0226879 0.0370859 0.0133861 
v 0.0226336 0.0370968 0.0133861 
v 0.0235129 0.0364811 0.0133861 
v 0.0236818 0.0359014 0.0133861 
v 0.000382489 -0.0088507 0.0133861 
v 0.000437254 -0.00885913 0.0133861 
v 6.62972e-05 -0.00875101 0.0133861 
v -0.000638473 0.0361136 0.0133861 
v -0.000594432 0.0362691 0.0133861 
v -0.00047842 0.0365119 0.0133861 
v -6.28478e-05 0.0369275 0.0133861 
v 0.00028301 0.0370751 0.0133861 
v 0.00033546 0.0370875 0.0133861 
v 0.0225237 0.0371112 0.0133861 
v 0.0224684 0.0371148 0.0133861 
v 0.0225788 0.0371052 0.0133861 
v 0.000492335 -0.00886516 0.0133861 
v 0.000547626 -0.00886879 0.0133861 
v 0.000328144 -0.00883989 0.0133861 
v -0.000570305 -0.008086 0.0133861 
v -0.000666978 0.0358461 0.0133861 
v 0.000495319 0.0371115 0.0133861 
v 0.00044171 0.0371058 0.0133861 
v 0.000603022 0.0371161 0.0133861 
v 0.000549122 0.0371149 0.0133861 
v 0.022413 0.0371161 0.0133861 
v 0.000603022 -0.00887 0.0133861 
vn 0.707107 -0.707107 4.81585e-16 
vn -2.45024e-16 -0.707107 0.707107 
vn -0.707107 -0.707107 -2.40792e-16 
vn 1.42482e-16 -1 0 
vn 1.0075e-16 -0.707107 0.707107 
vn -0.707107 -0.707107 0 
vn 0.707107 -0.707107 0 
vn 0 0 -1 
vn 0 1 0 
vn 1 7.54456e-17 0 
vn -1 6.60149e-17 0 
vn 0 0 -1 
vn 1 1.22465e-16 0 
vn 0.999048 -0.0436194 0 
vn 0.996195 -0.0871557 0 
vn 0.991445 -0.130526 0 
vn 0.984808 -0.173648 0 
vn 0.976296 -0.21644 0 
vn 0.965926 -0.258819 0 
vn 0.953717 -0.300706 0 
vn 0.939693 -0.34202 0 
vn 0.92388 -0.382683 0 
vn 0.906308 -0.422618 0 
vn 0.887011 -0.461749 0 
vn 0.866025 -0.5 0 
vn 0.843391 -0.5373 0 
vn 0.819152 -0.573576 0 
vn 0.793353 -0.608761 0 
vn 0.766044 -0.642788 0 
vn 0.737277 -0.67559 0 
vn 0.707107 -0.707107 0 
vn 0.67559 -0.737277 0 
vn 0.642788 -0.766044 0 
vn 0.608761 -0.793353 0 
vn 0.573576 -0.819152 0 
vn 0.5373 -0.843391 0 
vn 0.5 -0.866025 0 
vn 0.461749 -0.887011 0 
vn 0.422618 -0.906308 0 
vn 0.382683 -0.92388 0 
vn 0.34202 -0.939693 0 
vn 0.300706 -0.953717 0 
vn 0.258819 -0.965926 0 
vn 0.21644 -0.976296 0 
vn 0.173648 -0.984808 0 
vn 0.130526 -0.991445 0 
vn 0.0871557 -0.996195 0 
vn 0.0436194 -0.999048 0 
vn 1.83697e-16 -1 0 
vn 0 0 1 
vn -0.0436194 -0.999048 0 
vn -0.0871557 -0.996195 0 
vn -0.130526 -0.991445 0 
vn -0.173648 -0.984808 0 
vn -0.21644 -0.976296 0 
vn -0.258819 -0.965926 0 
vn -0.300706 -0.953717 0 
vn -0.34202 -0.939693 0 
vn -0.382683 -0.92388 0 
vn -0.422618 -0.906308 0 
vn -0.461749 -0.887011 0 
vn -0.5 -0.866025 0 
vn -0.5373 -0.843391 0 
vn -0.573576 -0.819152 0 
vn -0.608761 -0.793353 0 
vn -0.642788 -0.766044 0 
vn -0.67559 -0.737277 0 
vn -0.707107 -0.707107 0 
vn -0.737277 -0.67559 0 
vn -0.766044 -0.642788 0 
vn -0.793353 -0.608761 0 
vn -0.819152 -0.573576 0 
vn -0.843391 -0.5373 0 
vn -0.866025 -0.5 0 
vn -0.887011 -0.461749 0 
vn -0.906308 -0.422618 0 
vn -0.92388 -0.382683 0 
vn -0.939693 -0.34202 0 
vn -0.953717 -0.300706 0 
vn -0.965926 -0.258819 0 
vn -0.976296 -0.21644 0 
vn -0.984808 -0.173648 0 
vn -0.991445 -0.130526 0 
vn -0.996195 -0.0871557 0 
vn -0.999048 -0.0436194 0 
vn -1 -2.44929e-16 0 
vn -6.12323e-17 1 0 
vn 0.0436194 0.999048 0 
vn 0.0871557 0.996195 0 
vn 0.130526 0.991445 0 
vn 0.173648 0.984808 0 
vn 0.21644 0.976296 0 
vn 0.258819 0.965926 0 
vn 0.300706 0.953717 0 
vn 0.34202 0.939693 0 
vn 0.382683 0.92388 0 
vn 0.422618 0.906308 0 
vn 0.461749 0.887011 0 
vn 0.5 0.866025 0 
vn 0.5373 0.843391 0 
vn 0.573576 0.819152 0 
vn 0.608761 0.793353 0 
vn 0.642788 0.766044 0 
vn 0.67559 0.737277 0 
vn 0.707107 0.707107 0 
vn 0.737277 0.67559 0 
vn 0.766044 0.642788 0 
vn 0.793353 0.608761 0 
vn 0.819152 0.573576 0 
vn 0.843391 0.5373 0 
vn 0.866025 0.5 0 
vn 0.887011 0.461749 0 
vn 0.906308 0.422618 0 
vn 0.92388 0.382683 0 
vn 0.939693 0.34202 0 
vn 0.953717 0.300706 0 
vn 0.965926 0.258819 0 
vn 0.976296 0.21644 0 
vn 0.984808 0.173648 0 
vn 0.991445 0.130526 0 
vn 0.996195 0.0871557 0 
vn 0.999048 0.0436194 0 
vn 1 1.22465e-16 0 
vn -1 0 0 
vn -0.999099 0.0424412 0 
vn -0.996397 0.0848059 0 
vn -0.9919 0.127018 0 
vn -0.985616 0.169001 0 
vn -0.977555 0.210679 0 
vn -0.967733 0.251978 0 
vn -0.956167 0.292823 0 
vn -0.942877 0.33314 0 
vn -0.927889 0.372856 0 
vn -0.911228 0.411901 0 
vn -0.892926 0.450204 0 
vn -0.873014 0.487695 0 
vn -0.851529 0.524307 0 
vn -0.82851 0.559975 0 
vn -0.803997 0.594633 0 
vn -0.778036 0.62822 0 
vn -0.750672 0.660675 0 
vn -0.721956 0.691939 0 
vn -0.691939 0.721956 0 
vn -0.660675 0.750672 0 
vn -0.62822 0.778036 0 
vn -0.594633 0.803997 0 
vn -0.559975 0.82851 0 
vn -0.524307 0.851529 0 
vn -0.487695 0.873014 0 
vn -0.450204 0.892926 0 
vn -0.411901 0.911228 0 
vn -0.372856 0.927889 0 
vn -0.33314 0.942877 0 
vn -0.292823 0.956167 0 
vn -0.251978 0.967733 0 
vn -0.210679 0.977555 0 
vn -0.169001 0.985616 0 
vn -0.127018 0.9919 0 
vn -0.0848059 0.996397 0 
vn -0.0424412 0.999099 0 
vn 8.26946e-16 1 0 
vn -1 6.60149e-17 0 
vn 1.42482e-16 -1 0 
vn 1 7.54456e-17 0 
usemtl 0.231373_0.380392_0.705882_0.000000_0.000000
o mesh0
f 1//1 2//1 3//1 
o mesh1
f 4//2 5//2 3//2 
f 3//2 2//2 4//2 
o mesh2
f 5//3 4//3 6//3 
o mesh3
f 7//4 8//4 2//4 
f 8//4 9//4 4//4 
f 4//4 2//4 8//4 
f 6//4 4//4 9//4 
f 9//4 10//4 6//4 
f 11//4 12//4 9//4 
f 9//4 8//4 11//4 
f 13//4 14//4 12//4 
f 12//4 11//4 13//4 
f 2//4 1//4 7//4 
o mesh4
f 9//5 12//5 15//5 
f 15//5 16//5 9//5 
o mesh5
f 15//6 12//6 14//6 
o mesh6
f 10//7 9//7 16//7 
o mesh7
f 6//8 1//8 3//8 
f 10//8 16//8 15//8 
f 6//8 17//8 1//8 
f 15//8 14//8 10//8 
f 18//8 17//8 6//8 
f 17//8 7//8 1//8 
f 14//8 18//8 10//8 
f 3//8 5//8 6//8 
f 6//8 10//8 18//8 
f 14//8 13//8 18//8 
o mesh8
f 17//9 18//9 19//9 
f 19//9 20//9 17//9 
o mesh9
f 7//10 17//10 20//10 
f 20//10 8//10 7//10 
o mesh10
f 18//11 13//11 11//11 
f 11//11 19//11 18//11 
o mesh11
f 20//12 21//12 22//12 
f 8//12 23//12 24//12 
f 8//12 25//12 26//12 
f 8//12 27//12 28//12 
f 19//12 29//12 30//12 
f 11//12 31//12 32//12 
f 11//12 33//12 34//12 
f 22//12 35//12 20//12 
f 24//12 36//12 8//12 
f 28//12 25//12 8//12 
f 19//12 37//12 29//12 
f 19//12 38//12 39//12 
f 11//12 40//12 31//12 
f 11//12 41//12 42//12 
f 34//12 43//12 11//12 
f 11//12 44//12 45//12 
f 11//12 46//12 47//12 
f 20//12 48//12 49//12 
f 20//12 50//12 51//12 
f 20//12 52//12 53//12 
f 35//12 54//12 20//12 
f 19//12 55//12 56//12 
f 19//12 57//12 58//12 
f 19//12 59//12 60//12 
f 8//12 61//12 62//12 
f 26//12 23//12 8//12 
f 8//12 63//12 64//12 
f 30//12 65//12 19//12 
f 19//12 66//12 67//12 
f 19//12 68//12 38//12 
f 11//12 69//12 40//12 
f 43//12 41//12 11//12 
f 47//12 44//12 11//12 
f 11//12 70//12 71//12 
f 20//12 72//12 73//12 
f 51//12 48//12 20//12 
f 54//12 52//12 20//12 
f 20//12 74//12 75//12 
f 56//12 76//12 19//12 
f 19//12 77//12 57//12 
f 19//12 78//12 79//12 
f 19//12 80//12 59//12 
f 36//12 61//12 8//12 
f 8//12 81//12 82//12 
f 8//12 83//12 84//12 
f 8//12 85//12 86//12 
f 20//12 87//12 88//12 
f 20//12 89//12 90//12 
f 20//12 91//12 92//12 
f 11//12 93//12 94//12 
f 11//12 95//12 96//12 
f 11//12 97//12 98//12 
f 11//12 99//12 100//12 
f 11//12 101//12 102//12 
f 8//12 103//12 104//12 
f 64//12 105//12 8//12 
f 8//12 106//12 107//12 
f 19//12 108//12 109//12 
f 19//12 110//12 111//12 
f 19//12 112//12 37//12 
f 19//12 113//12 66//12 
f 19//12 114//12 68//12 
f 42//12 69//12 11//12 
f 45//12 115//12 11//12 
f 11//12 116//12 70//12 
f 20//12 117//12 72//12 
f 53//12 50//12 20//12 
f 20//12 118//12 74//12 
f 20//12 119//12 120//12 
f 19//12 121//12 122//12 
f 76//12 123//12 19//12 
f 19//12 124//12 77//12 
f 60//12 78//12 19//12 
f 82//12 27//12 8//12 
f 86//12 83//12 8//12 
f 20//12 125//12 126//12 
f 20//12 127//12 128//12 
f 20//12 129//12 87//12 
f 92//12 89//12 20//12 
f 20//12 130//12 131//12 
f 11//12 132//12 93//12 
f 98//12 95//12 11//12 
f 102//12 99//12 11//12 
f 8//12 133//12 103//12 
f 8//12 134//12 135//12 
f 107//12 63//12 8//12 
f 109//12 136//12 19//12 
f 65//12 110//12 19//12 
f 39//12 113//12 19//12 
f 32//12 137//12 11//12 
f 71//12 46//12 11//12 
f 49//12 117//12 20//12 
f 120//12 118//12 20//12 
f 19//12 138//12 139//12 
f 19//12 140//12 141//12 
f 123//12 121//12 19//12 
f 79//12 124//12 19//12 
f 84//12 81//12 8//12 
f 128//12 125//12 20//12 
f 90//12 129//12 20//12 
f 20//12 142//12 143//12 
f 131//12 144//12 20//12 
f 96//12 132//12 11//12 
f 100//12 145//12 11//12 
f 11//12 146//12 147//12 
f 8//12 148//12 133//12 
f 105//12 134//12 8//12 
f 136//12 149//12 19//12 
f 67//12 112//12 19//12 
f 19//12 11//12 150//12 
f 115//12 33//12 11//12 
f 75//12 21//12 20//12 
f 20//12 19//12 151//12 
f 141//12 138//12 19//12 
f 58//12 55//12 19//12 
f 62//12 152//12 8//12 
f 8//12 153//12 154//12 
f 88//12 127//12 20//12 
f 144//12 142//12 20//12 
f 145//12 97//12 11//12 
f 147//12 155//12 11//12 
f 11//12 156//12 157//12 
f 8//12 158//12 159//12 
f 135//12 148//12 8//12 
f 8//12 160//12 161//12 
f 111//12 108//12 19//12 
f 137//12 150//12 11//12 
f 151//12 119//12 20//12 
f 122//12 140//12 19//12 
f 154//12 85//12 8//12 
f 8//12 20//12 162//12 
f 20//12 163//12 164//12 
f 143//12 91//12 20//12 
f 94//12 165//12 11//12 
f 157//12 146//12 11//12 
f 8//12 166//12 158//12 
f 161//12 106//12 8//12 
f 150//12 114//12 19//12 
f 139//12 151//12 19//12 
f 162//12 153//12 8//12 
f 126//12 163//12 20//12 
f 155//12 101//12 11//12 
f 11//12 8//12 167//12 
f 8//12 168//12 169//12 
f 104//12 166//12 8//12 
f 73//12 130//12 20//12 
f 164//12 162//12 20//12 
f 167//12 156//12 11//12 
f 159//12 168//12 8//12 
f 152//12 160//12 8//12 
f 169//12 167//12 8//12 
f 165//12 116//12 11//12 
f 149//12 80//12 19//12 
o mesh12
f 153//13 170//13 171//14 
f 154//14 171//14 172//15 
f 85//15 172//15 173//16 
f 86//16 173//16 174//17 
f 83//17 174//17 175//18 
f 84//18 175//18 176//19 
f 81//19 176//19 177//20 
f 82//20 177//20 178//21 
f 27//21 178//21 179//22 
f 28//22 179//22 180//23 
f 25//23 180//23 181//24 
f 26//24 181//24 182//25 
f 23//25 182//25 183//26 
f 24//26 183//26 184//27 
f 36//27 184//27 185//28 
f 61//28 185//28 186//29 
f 62//29 186//29 187//30 
f 152//30 187//30 188//31 
f 160//31 188//31 189//32 
f 161//32 189//32 190//33 
f 106//33 190//33 191//34 
f 107//34 191//34 192//35 
f 63//35 192//35 193//36 
f 64//36 193//36 194//37 
f 105//37 194//37 195//38 
f 134//38 195//38 196//39 
f 135//39 196//39 197//40 
f 148//40 197//40 198//41 
f 133//41 198//41 199//42 
f 103//42 199//42 200//43 
f 104//43 200//43 201//44 
f 166//44 201//44 202//45 
f 158//45 202//45 203//46 
f 159//46 203//46 204//47 
f 168//47 204//47 205//48 
f 169//48 205//48 206//49 
f 206//49 167//49 169//48 
f 205//48 169//48 168//47 
f 204//47 168//47 159//46 
f 203//46 159//46 158//45 
f 202//45 158//45 166//44 
f 201//44 166//44 104//43 
f 200//43 104//43 103//42 
f 199//42 103//42 133//41 
f 198//41 133//41 148//40 
f 197//40 148//40 135//39 
f 196//39 135//39 134//38 
f 195//38 134//38 105//37 
f 194//37 105//37 64//36 
f 193//36 64//36 63//35 
f 192//35 63//35 107//34 
f 191//34 107//34 106//33 
f 190//33 106//33 161//32 
f 189//32 161//32 160//31 
f 188//31 160//31 152//30 
f 187//30 152//30 62//29 
f 186//29 62//29 61//28 
f 185//28 61//28 36//27 
f 184//27 36//27 24//26 
f 183//26 24//26 23//25 
f 182//25 23//25 26//24 
f 181//24 26//24 25//23 
f 180//23 25//23 28//22 
f 179//22 28//22 27//21 
f 178//21 27//21 82//20 
f 177//20 82//20 81//19 
f 176//19 81//19 84//18 
f 175//18 84//18 83//17 
f 174//17 83//17 86//16 
f 173//16 86//16 85//15 
f 172//15 85//15 154//14 
f 171//14 154//14 153//13 
o mesh13
f 182//50 180//50 179//50 
f 178//50 184//50 183//50 
f 182//50 181//50 180//50 
f 178//50 185//50 184//50 
f 207//50 208//50 209//50 
f 210//50 211//50 212//50 
f 210//50 213//50 214//50 
f 183//50 182//50 178//50 
f 178//50 187//50 186//50 
f 172//50 194//50 193//50 
f 215//50 216//50 217//50 
f 218//50 219//50 220//50 
f 207//50 221//50 222//50 
f 207//50 223//50 208//50 
f 207//50 210//50 224//50 
f 212//50 225//50 210//50 
f 214//50 226//50 210//50 
f 210//50 227//50 228//50 
f 210//50 207//50 229//50 
f 187//50 174//50 173//50 
f 187//50 176//50 175//50 
f 187//50 178//50 177//50 
f 186//50 185//50 178//50 
f 172//50 192//50 191//50 
f 172//50 195//50 194//50 
f 172//50 201//50 200//50 
f 230//50 231//50 232//50 
f 230//50 233//50 234//50 
f 215//50 235//50 236//50 
f 215//50 237//50 238//50 
f 217//50 239//50 215//50 
f 240//50 241//50 242//50 
f 243//50 244//50 245//50 
f 243//50 246//50 247//50 
f 218//50 248//50 219//50 
f 222//50 249//50 207//50 
f 224//50 223//50 207//50 
f 226//50 211//50 210//50 
f 229//50 227//50 210//50 
f 175//50 174//50 187//50 
f 179//50 178//50 182//50 
f 172//50 189//50 188//50 
f 193//50 192//50 172//50 
f 172//50 197//50 196//50 
f 200//50 199//50 172//50 
f 230//50 250//50 251//50 
f 230//50 252//50 253//50 
f 230//50 254//50 255//50 
f 230//50 256//50 257//50 
f 230//50 258//50 259//50 
f 230//50 260//50 261//50 
f 230//50 262//50 263//50 
f 234//50 231//50 230//50 
f 238//50 235//50 215//50 
f 239//50 264//50 215//50 
f 242//50 265//50 240//50 
f 243//50 266//50 244//50 
f 243//50 267//50 246//50 
f 268//50 269//50 270//50 
f 268//50 271//50 272//50 
f 218//50 273//50 248//50 
f 218//50 274//50 275//50 
f 218//50 276//50 277//50 
f 218//50 278//50 279//50 
f 209//50 221//50 207//50 
f 228//50 213//50 210//50 
f 177//50 176//50 187//50 
f 172//50 190//50 189//50 
f 196//50 195//50 172//50 
f 199//50 198//50 172//50 
f 253//50 250//50 230//50 
f 257//50 254//50 230//50 
f 259//50 280//50 230//50 
f 263//50 260//50 230//50 
f 230//50 215//50 233//50 
f 264//50 237//50 215//50 
f 240//50 281//50 282//50 
f 240//50 283//50 284//50 
f 240//50 285//50 286//50 
f 240//50 287//50 241//50 
f 247//50 266//50 243//50 
f 268//50 288//50 289//50 
f 268//50 290//50 269//50 
f 268//50 291//50 271//50 
f 218//50 292//50 293//50 
f 275//50 273//50 218//50 
f 279//50 276//50 218//50 
f 225//50 294//50 210//50 
f 278//50 218//50 295//50 
f 188//50 187//50 172//50 
f 198//50 197//50 172//50 
f 230//50 296//50 297//50 
f 230//50 298//50 252//50 
f 280//50 256//50 230//50 
f 232//50 262//50 230//50 
f 215//50 230//50 216//50 
f 284//50 281//50 240//50 
f 286//50 299//50 240//50 
f 265//50 300//50 240//50 
f 240//50 268//50 301//50 
f 289//50 243//50 268//50 
f 270//50 302//50 268//50 
f 268//50 303//50 291//50 
f 268//50 240//50 304//50 
f 218//50 305//50 306//50 
f 293//50 307//50 218//50 
f 277//50 274//50 218//50 
f 295//50 207//50 278//50 
f 201//50 172//50 171//50 
f 191//50 190//50 172//50 
f 170//50 204//50 203//50 
f 230//50 308//50 309//50 
f 230//50 310//50 296//50 
f 255//50 298//50 230//50 
f 236//50 311//50 215//50 
f 299//50 283//50 240//50 
f 301//50 287//50 240//50 
f 302//50 288//50 268//50 
f 304//50 303//50 268//50 
f 307//50 305//50 218//50 
f 249//50 278//50 207//50 
f 173//50 172//50 187//50 
f 203//50 202//50 170//50 
f 297//50 308//50 230//50 
f 261//50 258//50 230//50 
f 300//50 285//50 240//50 
f 272//50 290//50 268//50 
f 312//50 313//50 314//50 
f 312//50 315//50 316//50 
f 220//50 292//50 218//50 
f 317//50 206//50 170//50 
f 202//50 201//50 170//50 
f 170//50 206//50 205//50 
f 251//50 310//50 230//50 
f 318//50 315//50 312//50 
f 245//50 268//50 243//50 
f 316//50 313//50 312//50 
f 170//50 218//50 317//50 
f 205//50 204//50 170//50 
f 312//50 230//50 318//50 
f 314//50 240//50 312//50 
f 171//50 170//50 201//50 
f 206//50 317//50 315//50 
f 282//50 312//50 240//50 
f 315//50 318//50 206//50 
f 306//50 317//50 218//50 
f 309//50 318//50 230//50 
o mesh14
f 156//49 318//49 309//51 
f 157//51 309//51 308//52 
f 146//52 308//52 297//53 
f 147//53 297//53 296//54 
f 155//54 296//54 310//55 
f 101//55 310//55 251//56 
f 102//56 251//56 250//57 
f 99//57 250//57 253//58 
f 100//58 253//58 252//59 
f 145//59 252//59 298//60 
f 97//60 298//60 255//61 
f 98//61 255//61 254//62 
f 95//62 254//62 257//63 
f 96//63 257//63 256//64 
f 132//64 256//64 280//65 
f 93//65 280//65 259//66 
f 94//66 259//66 258//67 
f 165//67 258//67 261//68 
f 116//68 261//68 260//69 
f 70//69 260//69 263//70 
f 71//70 263//70 262//71 
f 46//71 262//71 232//72 
f 47//72 232//72 231//73 
f 44//73 231//73 234//74 
f 45//74 234//74 233//75 
f 115//75 233//75 215//76 
f 33//76 215//76 311//77 
f 34//77 311//77 236//78 
f 43//78 236//78 235//79 
f 41//79 235//79 238//80 
f 42//80 238//80 237//81 
f 69//81 237//81 264//82 
f 40//82 264//82 239//83 
f 31//83 239//83 217//84 
f 32//84 217//84 216//85 
f 137//85 216//85 230//86 
f 230//86 150//86 137//85 
f 216//85 137//85 32//84 
f 217//84 32//84 31//83 
f 239//83 31//83 40//82 
f 264//82 40//82 69//81 
f 237//81 69//81 42//80 
f 238//80 42//80 41//79 
f 235//79 41//79 43//78 
f 236//78 43//78 34//77 
f 311//77 34//77 33//76 
f 215//76 33//76 115//75 
f 233//75 115//75 45//74 
f 234//74 45//74 44//73 
f 231//73 44//73 47//72 
f 232//72 47//72 46//71 
f 262//71 46//71 71//70 
f 263//70 71//70 70//69 
f 260//69 70//69 116//68 
f 261//68 116//68 165//67 
f 258//67 165//67 94//66 
f 259//66 94//66 93//65 
f 280//65 93//65 132//64 
f 256//64 132//64 96//63 
f 257//63 96//63 95//62 
f 254//62 95//62 98//61 
f 255//61 98//61 97//60 
f 298//60 97//60 145//59 
f 252//59 145//59 100//58 
f 253//58 100//58 99//57 
f 250//57 99//57 102//56 
f 251//56 102//56 101//55 
f 310//55 101//55 155//54 
f 296//54 155//54 147//53 
f 297//53 147//53 146//52 
f 308//52 146//52 157//51 
f 309//51 157//51 156//49 
o mesh15
f 119//87 317//87 306//88 
f 120//88 306//88 305//89 
f 118//89 305//89 307//90 
f 74//90 307//90 293//91 
f 75//91 293//91 292//92 
f 21//92 292//92 220//93 
f 22//93 220//93 219//94 
f 35//94 219//94 248//95 
f 54//95 248//95 273//96 
f 52//96 273//96 275//97 
f 53//97 275//97 274//98 
f 50//98 274//98 277//99 
f 51//99 277//99 276//100 
f 48//100 276//100 279//101 
f 49//101 279//101 278//102 
f 117//102 278//102 249//103 
f 72//103 249//103 222//104 
f 73//104 222//104 221//105 
f 130//105 221//105 209//106 
f 131//106 209//106 208//107 
f 144//107 208//107 223//108 
f 142//108 223//108 224//109 
f 143//109 224//109 210//110 
f 91//110 210//110 294//111 
f 92//111 294//111 225//112 
f 89//112 225//112 212//113 
f 90//113 212//113 211//114 
f 129//114 211//114 226//115 
f 87//115 226//115 214//116 
f 88//116 214//116 213//117 
f 127//117 213//117 228//118 
f 128//118 228//118 227//119 
f 125//119 227//119 229//120 
f 126//120 229//120 207//121 
f 163//121 207//121 295//122 
f 164//122 295//122 218//123 
f 218//123 162//123 164//122 
f 295//122 164//122 163//121 
f 207//121 163//121 126//120 
f 229//120 126//120 125//119 
f 227//119 125//119 128//118 
f 228//118 128//118 127//117 
f 213//117 127//117 88//116 
f 214//116 88//116 87//115 
f 226//115 87//115 129//114 
f 211//114 129//114 90//113 
f 212//113 90//113 89//112 
f 225//112 89//112 92//111 
f 294//111 92//111 91//110 
f 210//110 91//110 143//109 
f 224//109 143//109 142//108 
f 223//108 142//108 144//107 
f 208//107 144//107 131//106 
f 209//106 131//106 130//105 
f 221//105 130//105 73//104 
f 222//104 73//104 72//103 
f 249//103 72//103 117//102 
f 278//102 117//102 49//101 
f 279//101 49//101 48//100 
f 276//100 48//100 51//99 
f 277//99 51//99 50//98 
f 274//98 50//98 53//97 
f 275//97 53//97 52//96 
f 273//96 52//96 54//95 
f 248//95 54//95 35//94 
f 219//94 35//94 22//93 
f 220//93 22//93 21//92 
f 292//92 21//92 75//91 
f 293//91 75//91 74//90 
f 307//90 74//90 118//89 
f 305//89 118//89 120//88 
f 306//88 120//88 119//87 
o mesh16
f 114//124 312//124 282//125 
f 68//125 282//125 281//126 
f 38//126 281//126 284//127 
f 39//127 284//127 283//128 
f 113//128 283//128 299//129 
f 66//129 299//129 286//130 
f 67//130 286//130 285//131 
f 112//131 285//131 300//132 
f 37//132 300//132 265//133 
f 29//133 265//133 242//134 
f 30//134 242//134 241//135 
f 65//135 241//135 287//136 
f 110//136 287//136 301//137 
f 111//137 301//137 268//138 
f 108//138 268//138 245//139 
f 109//139 245//139 244//140 
f 136//140 244//140 266//141 
f 149//141 266//141 247//142 
f 80//142 247//142 246//143 
f 59//143 246//143 267//144 
f 60//144 267//144 243//145 
f 78//145 243//145 289//146 
f 79//146 289//146 288//147 
f 124//147 288//147 302//148 
f 77//148 302//148 270//149 
f 57//149 270//149 269//150 
f 58//150 269//150 290//151 
f 55//151 290//151 272//152 
f 56//152 272//152 271//153 
f 76//153 271//153 291//154 
f 123//154 291//154 303//155 
f 121//155 303//155 304//156 
f 122//156 304//156 240//157 
f 140//157 240//157 314//158 
f 141//158 314//158 313//159 
f 138//159 313//159 316//160 
f 139//160 316//160 315//161 
f 315//161 151//161 139//160 
f 316//160 139//160 138//159 
f 313//159 138//159 141//158 
f 314//158 141//158 140//157 
f 240//157 140//157 122//156 
f 304//156 122//156 121//155 
f 303//155 121//155 123//154 
f 291//154 123//154 76//153 
f 271//153 76//153 56//152 
f 272//152 56//152 55//151 
f 290//151 55//151 58//150 
f 269//150 58//150 57//149 
f 270//149 57//149 77//148 
f 302//148 77//148 124//147 
f 288//147 124//147 79//146 
f 289//146 79//146 78//145 
f 243//145 78//145 60//144 
f 267//144 60//144 59//143 
f 246//143 59//143 80//142 
f 247//142 80//142 149//141 
f 266//141 149//141 136//140 
f 244//140 136//140 109//139 
f 245//139 109//139 108//138 
f 268//138 108//138 111//137 
f 301//137 111//137 110//136 
f 287//136 110//136 65//135 
f 241//135 65//135 30//134 
f 242//134 30//134 29//133 
f 265//133 29//133 37//132 
f 300//132 37//132 112//131 
f 285//131 112//131 67//130 
f 286//130 67//130 66//129 
f 299//129 66//129 113//128 
f 283//128 113//128 39//127 
f 284//127 39//127 38//126 
f 281//126 38//126 68//125 
f 282//125 68//125 114//124 
o mesh17
f 317//161 119//161 151//161 
f 151//161 315//161 317//161 
o mesh18
f 312//162 114//162 150//162 
f 150//162 230//162 312//162 
o mesh19
f 318//163 156//163 167//163 
f 167//163 206//163 318//163 
o mesh20
f 170//164 153//164 162//164 
f 162//164 218//164 170//164 
